<?xml version="1.0" encoding="utf-8"?>
<!-- Generator: Adobe Illustrator 19.0.0, SVG Export Plug-In . SVG Version: 6.00 Build 0)  -->
<svg version="1.1" id="Layer_1" xmlns="http://www.w3.org/2000/svg" xmlns:xlink="http://www.w3.org/1999/xlink" x="0px" y="0px"
	 viewBox="-745.7 385.8 208.5 176.2" style="enable-background:new -745.7 385.8 208.5 176.2;" xml:space="preserve">
<style type="text/css">
	.st0{fill:#E6DBDC;}
</style>
<path class="st0" d="M-641.3,486.8l-2.6,2.7c0,0.5-0.1,1.1-0.4,1.8c0.6,1.3,3.1-1.2,4,0.6c-1.9,2.4-6.5,4.6-9.9,4.1l3.8-3.8
	l-4.4,4.5l0.3-0.3c0.1,1.4-0.6,3.7,0.5,4.1c-0.8,0.4-1.6-0.8-2.8-1.8l-61.7,63.2h99.9v-0.3c0.3,0,0.5,0.1,0.6,0.3h31.5
	c-0.1-0.4-0.2-0.8-0.6-0.8c0.8-1.6,3-1.8,4.6-1.1c0.1,1-0.3,1.6-0.8,2h11.4L-641.3,486.8L-641.3,486.8z M-694.6,544.4h-1.1v-1.1h1.1
	V544.4z M-687.2,542.1h-1.1V541h1.1V542.1z M-684.3,533.5c1.4-0.5,1.7-2.1,4-1.7C-680,534.1-682.5,533.5-684.3,533.5z M-675.8,541
	c1.3-0.2,2.2,0.1,2.9,0.6C-672.8,542.5-676.6,542.7-675.8,541z M-669.5,529.5c-1.5,0.6-3.3,0.4-3.4-1.7c1.5-0.2,2-1.4,3.4-1.7V529.5
	z M-668.3,528.4c1.7,0,1.4,2.1,3.4,1.7c-0.2,1.2-1.1,1.5-1.7,2.3C-667.8,531.6-667.9,529.9-668.3,528.4z M-666,561.5
	c-1.4-0.4-0.3-2.9,1.1-2.3C-664.5,560.8-666,560.4-666,561.5z M-659.8,545.5C-658,545.7-660.3,547.9-659.8,545.5z M-651.2,531.8
	h-1.1v-1.1h1.1V531.8z M-630.1,505c0.3,2.4-1.4,2.7-3.4,2.9C-634,505.2-632.5,504.6-630.1,505z M-636.9,508.4v-2.3
	C-634.7,505.7-634.7,508.8-636.9,508.4z M-639.8,495.3C-638.1,495.4-640.3,497.6-639.8,495.3z M-636.3,503.8
	c-1.6,2.8-5.3,1.1-5.1-2.3C-638,499.7-638.1,501.5-636.3,503.8z M-643.2,501.5c0.1,1.2-0.5,1.8-1.7,1.7
	C-645,502-644.4,501.4-643.2,501.5z M-648.3,546.1c-0.5-0.1-0.6-0.6-1.1-0.6c0.1-0.5,0.6-0.6,0.6-1.1c0.5,0.1,0.6,0.6,1.1,0.6
	C-647.9,545.4-648.3,545.5-648.3,546.1z M-647.8,505.5h-1.7c0.2-2.4-0.8-2.2,0-4c0.5,1,2.1,2,1.7-0.6c1-0.1,1.2,0.7,2.3,0.6
	C-646.9,504.1-647.8,503-647.8,505.5z M-645.5,526.7h-1.1v-1.1h1.1V526.7z M-646,506.1c0.5-1.6,2.9-1.3,4.6-1.7
	C-642.1,505.9-644.4,507.5-646,506.1z M-642,506.7c1,0.7,3,0.4,3.4,1.7c-1,1.6-2.4-2-3.4,0.6C-643.5,508.8-641.3,508-642,506.7
	L-642,506.7z M-639.2,528.4c-1.9,0-3.8-1.7-2.3-3.4C-640.2,525.6-639.4,526.7-639.2,528.4z M-636.3,545
	C-624.9,542.1-632,553.1-636.3,545z M-630.1,542.7C-629.8,542.4-630.4,543.1-630.1,542.7z M-630.1,537.5c1.4-1.2-0.5-2.5,0.6-3.4
	h2.3C-627.3,536.1-627.7,537.8-630.1,537.5z M-621.5,519.3c-1.6-0.5-1.5,0.8-2.9,0.6c2.8,3.5-1,4.9-0.6,9.1h-2.9
	c0.7,2-2.1,3.4-2.9,5.7c-1.7,0-3.5,0.1-3.4-1.7c-1.6,0.3-2.7,2.9-4.6,1.1c-0.2-1.3,1.7-0.6,1.7-1.7c-0.6,0.1-3.2-0.6-2.9,2.3
	c-2.3-0.1-2.2-2.8-2.3-5.1c0.9,0,2.2,0.3,2.3-0.6c1.1,0.1,0.4,1.9,1.7,1.7c1.1-2,3.8-2.3,5.1-4c0.2-0.9-0.5-1-0.6-1.7
	c-0.1,2.1-1.2,1.1-2.9,3.4c-1.6-2.3-0.9-4.7-3.4-5.1c0.2-1.7,1.2-2.6,2.9-2.9c0.4,0.5,0.6,1.3,0.6,2.3c2.3,0.6,2.5-0.9,3.4-1.7
	c0-1-2.9,0.6-2.9-1.7c2.8,1,5.1-2.2,6.3-4.6c1,1.5,3.8,1.6,2.3,4c1.8,0.1,2-1.5,2.3-2.9C-622.3,515.5-621.2,516.7-621.5,519.3
	L-621.5,519.3z M-620.3,551.8c0.6-0.5,0.2-2.1,1.7-1.7C-618.5,551.4-619.1,551.9-620.3,551.8z M-610.6,535.3
	C-608.9,535.4-611.2,537.6-610.6,535.3z M-608.9,554.1c-0.5,0.9-1.4,1.2-2.9,1.1C-613.6,552.9-609.6,552.2-608.9,554.1z
	 M-609.5,551.8C-609.2,551.6-609.8,552.2-609.5,551.8z M-611.2,555.8c0.2,0.9-0.5,1-0.6,1.7C-612.9,557.8-612.6,554.9-611.2,555.8z
	 M-611.2,559.8c0.1-1.5,2.1-1.3,2.9-0.6C-608.9,560.2-610.3,560.7-611.2,559.8z M-609.5,556.4c0.2-1.3,2.5-0.3,2.9,0
	C-606.8,557.7-609.1,556.7-609.5,556.4z M-607.2,550.1c-1.2,0.2-1.5-0.4-2.3-0.6c-0.3-1.8,1.2-1.8,2.9-1.7
	C-606.4,549-607,549.3-607.2,550.1z M-603.8,553.5c-1.3,0.1-1.8-0.5-1.7-1.7C-604.9,552.4-603.4,552-603.8,553.5z M-598,549.5
	C-596.7,551.5-600,548.2-598,549.5z M-589.5,543.8C-589.2,543.6-589.8,544.2-589.5,543.8z M-574,561h-1.1v-1.1h1.1V561z
	 M-572.3,558.7C-570.6,558.8-572.9,561.1-572.3,558.7z"/>
<path class="st0" d="M-725.6,491.6c0.1-0.3,0.1-0.6,0.1-0.9c0.3,0,0.4,0.2,0.4,0.4l2.1-2.1c-0.2,0.1-0.5,0.1-0.8,0
	c-0.1-1.2,0.5-1.8,1.7-1.7v0.8l20-20.3l-0.4,0.4c-0.2-0.1-0.4-0.2-0.7-0.3c0.1-1.6-0.3-3.7,0.6-4.6c0.4,1.2,0.9,2.5,1.4,3.7l60-60.8
	l67.7,68.6c0.8,0,1.7,0.1,2.4,0.5c-0.1,0.6-0.6,0.3-0.6,0c-0.9,0.3-0.1,0.9,0.4,1.7l-2.1-2.1l16.5,16.7h19.7l-104.1-105.8l-4,4
	c0.4,0.2,0.7,0.5,0.9,0.9c-0.8,0.5-1.4,0.5-2,0.2l-28.5,28.9h0.7v2.3c-1.5,0.5-1.2-0.9-1.1-1.9l0.3-0.3l-24.2,24.6
	c0.6,0.5,0.9,1.2,1,2.2c-1-0.1-1.7-0.4-2.2-1l-45.3,46h19.8L-725.6,491.6L-725.6,491.6z M-562,473C-561.8,472.7-562.4,473.3-562,473
	z M-563.2,473C-562.9,472.7-563.6,473.3-563.2,473z M-568.9,469.5C-566.2,470.4-568.1,472.4-568.9,469.5z M-570,471.8h1.1v1.1h-1.1
	V471.8z M-571.8,470.1C-569.7,471.1-573.6,471.9-571.8,470.1z M-576.9,453C-575.2,453.1-577.5,455.3-576.9,453z M-577.9,450.2l1,1
	c-0.6,1-1.2,1.9-2.8,1.8C-579.7,451.5-579.1,450.5-577.9,450.2z M-595.2,435.3C-593.2,436.2-597.1,437-595.2,435.3z M-599.8,433
	C-600.1,433.3-599.5,432.7-599.8,433z M-611.2,433C-610.9,432.7-611.6,433.3-611.2,433z M-614.6,427.3c1.5,0.1,2.2,0.8,2.3,2.3h-2.9
	C-615.3,428.5-614.5,428.3-614.6,427.3z M-621.5,420.4h1.1c0.2,1.1-0.1,1.8-1.1,1.7V420.4z M-630.6,411.8
	C-628.7,412.7-632.8,413.3-630.6,411.8z M-660.9,413C-661.3,413.3-660.7,412.7-660.9,413z M-654,410.1
	C-652.7,412-656,408.7-654,410.1z M-656.9,421.5c0.1,0.1,0.2,0.1,0.2,0.1l-0.3,0.3C-657,421.9-657,421.7-656.9,421.5z M-660.3,411.3
	c-1.2,0.3-1.1-0.8-1.1-1.7C-660.8,409.8-660.3,410.3-660.3,411.3z M-666.6,414.1C-666.4,413.9-667,414.5-666.6,414.1z M-672.9,438.1
	C-672.9,438.1-672.9,438.2-672.9,438.1l-1,1c-0.2,0.1-0.4,0.1-0.7,0.1C-674.7,437.7-673.7,437.3-672.9,438.1z M-684.3,435.3h1.1v1.1
	h-1.1V435.3z M-692.9,455.8C-692.7,455.6-693.3,456.2-692.9,455.8z M-693.5,454.7C-693.2,454.4-693.8,455.1-693.5,454.7z
	 M-702.6,461c-0.3,1.7-1.2,2.6-2.9,2.9C-705.7,461.2-704.5,460-702.6,461z M-706,460.4c-0.3-0.5-0.6-0.9-0.6-1.7
	c1.7,0.1,1.4,2.7-0.6,2.3C-707.2,460.4-706.5,460.5-706,460.4L-706,460.4z M-711.8,468.4C-711.5,468.2-712.1,468.8-711.8,468.4z
	 M-714,466.1C-712.7,468-716,464.7-714,466.1z M-723.8,471.3C-721.5,472.7-725.7,472.1-723.8,471.3z M-731.2,487.3
	C-729.5,487.4-731.7,489.6-731.2,487.3z M-728.9,490.1h-1.1V489h1.1V490.1z M-734.6,486.1c-0.9-3.3,0.2-3.3,1.1-5.7
	c3,0.6,4.6,2.6,5.1,5.7C-730.3,487.3-733.3,486.1-734.6,486.1L-734.6,486.1z M-727.8,486.1V485c0.5,0.1,0.5-0.2,0.6-0.6
	C-726.1,484.2-726.4,487-727.8,486.1z"/>
<path class="st0" d="M-553.5,525.3c-1.1,0.2-1.4,1.2-2.9,1.1c0.1-1.4-0.9-1.8-1.1-2.9c-2.4-0.3-1.1,3.1-4,2.3
	c-1.6-1.4,1.1-3.7-0.6-5.1c-1.4-0.2,0.3,2.6-1.7,1.7V519c2.2,0.8,2.8-0.1,3.2-1.2l1.8,1.9c-0.5,0.6-1,1.1-1.6,1.6
	c1.2,1.2,3,1,4.6,2.9c0.4-0.1,0.5-0.5,0.5-0.9l-86.1-87.5L-676,471h0.7v1.1h-1.1v-0.7l-22,22.3c0.6,0.9,1.7,1.2,2,2.4
	c-2.2-1.3-2.1,0.7-4.6,0.6c-0.1-0.1-0.1-0.1-0.1-0.2l-13.7,13.9h0.1c-0.3,3.7-0.2,4.2,0.6,7.4c-1.8-1.8-1.9,1-4,0.6
	c-0.2-1.9-0.1-2.9-0.5-4.1l-4.4,4.5c0.1,0.1,0.2,0.1,0.3,0.2c0.8,1.2-0.1,0.4-0.5-0.1l-12.3,12.5l10.1-10.2c0.1,0,0.2,0.1,0.4,0.1
	c0.5,2.2-2.5,0.9-1.7,3.4c0.3,0.9,0.7-0.2,1.7,0c0.3,1.9-0.4,2.7-0.6,4c1.6,1.7,4.9-2,6.9,0c-0.9,1.7-3.3,2-5.1,2.9
	c0,1.1,1.6,0.7,1.1,2.3c-1.5,0.2-1.9-0.8-1.7-2.3c-3.2,2.1-6.2,0.7-10.9,2.9c0.7-1.3,0.3-2.1-0.6-2.6l-9.7,9.9h19.8l53.1-53.9
	c-1.9-1.8-5.2-2.2-7.7-0.9c1-2.9-1.5-2.3-1.7-4c4.8-0.6,8.6,0,11.3,3l-0.5,0.5l29.9-30.3l15.2,15.4l-1.9-1.9
	c0.6-0.3,1.4-0.5,2.5-0.4c-2.1,3.7,2,2,2.3,4.6c-0.3-0.1-0.5-0.1-0.8-0.2l65.1,66.1c0.1-0.4,0.2-0.8,0.3-1.3
	c2.6,0.5,2.8,1.9,3.1,3.2h18.4l-16.3-16.6V525.3L-553.5,525.3z M-720.3,517.8C-720.1,517.6-720.7,518.2-720.3,517.8z M-725.5,541.3
	c-1-0.1-1.3-1-1.1-2.3C-724.9,538.4-725.6,540.2-725.5,541.3z M-698.6,497.3C-698.4,497-699,497.6-698.6,497.3z M-676.3,488.7
	c-0.1,1.4-1.9,0.2-2.3,0C-678.5,487.3-676.7,488.5-676.3,488.7z M-694,493.8C-692.3,493.9-694.6,496.2-694,493.8z M-690,496.7
	c-0.7-1.8,0.9-1.4,1.1-2.3c0.8,0.2,0.5,1.4,0.6,2.3H-690L-690,496.7z M-685.5,493.8C-683.8,493.9-686,496.2-685.5,493.8z
	 M-665.5,476.7c-1.7,0.8-3.5-2-3.4,0.6c-1.7-0.1-1.7-5.6,0-5.7C-667.6,473.1-665.3,473.6-665.5,476.7z M-664.3,473.3
	c-1.5,0.2-2.5-0.2-2.3-1.7C-665.1,471.4-664.2,471.8-664.3,473.3z M-663.2,461.8C-661.5,461.9-663.7,464.2-663.2,461.8z M-662,475
	c0.1-1-0.7-1.2-0.6-2.3c1.8-0.3,2.2,0.8,3.4,1.1C-659.7,474.7-661,474.7-662,475L-662,475z M-660.3,463c0.1-4.4,3.2-5,5.7-3.4
	C-654.7,463.5-658.1,462.2-660.3,463L-660.3,463z M-645.5,459C-645.2,458.7-645.8,459.3-645.5,459z M-632.3,464.7
	C-632.1,464.4-632.7,465.1-632.3,464.7z M-620.3,472.1h-1.1V471h1.1V472.1z M-619.8,467.5C-619.5,467.3-620.1,467.9-619.8,467.5z
	 M-606,488.7c-1.7,0-3.8,0.3-3.4-1.7c1.2-1.2,1.6,0.3,3.4,0V488.7z M-602.6,487C-603,487.3-602.4,486.7-602.6,487z M-583.2,504.1
	c1.6-0.3-0.4,3.1,1.1,2.9C-583.9,508.9-585.1,504.8-583.2,504.1z M-589.5,505.3c1.3-4.1,3.3-7.4,8-8
	C-581.6,501.1-584.6,506.6-589.5,505.3z M-574,510.4c0.1-1,1-1.3,2.3-1.1C-571.2,511-573,510.3-574,510.4z M-552.3,540.1
	c-0.7-0.2-1.2-0.7-1.1-1.7C-552.8,538.7-552.3,539.1-552.3,540.1z"/>
</svg>
