<?xml version="1.0" encoding="utf-8"?>
<!-- Generator: Adobe Illustrator 19.0.0, SVG Export Plug-In . SVG Version: 6.00 Build 0)  -->
<svg version="1.1" id="Layer_1" xmlns="http://www.w3.org/2000/svg" xmlns:xlink="http://www.w3.org/1999/xlink" x="0px" y="0px"
	 viewBox="-0.8 10.3 175.2 137.7" style="enable-background:new -0.8 10.3 175.2 137.7;" xml:space="preserve">
<style type="text/css">
	.st0{fill:#D22730;}
</style>
<g id="Layer_2">
</g>
<g>
	<path class="st0" d="M107.5,112c0.6,0.4,1.2,0.9,1.7,1.4c-0.3,0.1-0.6,0.2-1,0.3C107.8,113.6,107.6,112.6,107.5,112
		c-1.5-0.9-3.2-1.5-5.1-1.5h-4.2c-0.1,0.1-0.3,0.1-0.5,0H71.1c-3,0-5.7,1.4-7.4,3.6c1.9,0,1.9-1.9,4.5-1.2c-0.4,1.6,1,1.5,1.2,2.5
		c0.5-0.4,1.2-0.7,1.6-1.2c1,0.5,0.1,3.9,2.9,2.5c0,0.8,0,1.6,0,2.5c-0.9-0.2-1.1,0.3-1.6,0.4c0.1,0.8,1.4,0.3,1.6,0.8
		c-0.2,0.3-0.4,0.7-0.4,1.2c-2.2-3.1-3.3-3-7.4-3.7c0.3-0.9,1.1-1.8,0.4-2.4c-1.1,0.4-3.3,0.9-2.9-1.2c-1.2,1.6-2,3.6-2,5.7v10.1
		c0.2,0,0.4,0.1,0.7,0.1c-0.1,0.4-0.4,0.7-0.7,1v3.4c0.4,0.1,0.8,0.3,1.1,0.5c0.4-0.3,0.6-0.7,0.8-1.2c1.7,0.9,3.5,1.6,4.1,3.7
		c-2,0.9-3.2,2.6-5.9,2.8c-0.1-0.4-0.1-0.9-0.1-1.3c0.1,5.1,4.3,9.2,9.4,9.2h31.3c5.2,0,9.4-4.2,9.4-9.4v-18.8
		C111.8,116.5,110.1,113.6,107.5,112z M62.5,117.7c-0.2-0.1-0.3-0.2-0.4-0.4c0.1-0.4,0.2-0.8,0.4-1.1c0.2-0.2,0.5-0.3,0.8-0.1
		C63.6,117.2,62.5,116.9,62.5,117.7z M64.1,117.7C64.4,117.5,63.9,117.9,64.1,117.7L64.1,117.7z M65.3,117.7
		C63.7,116.7,66.7,117.1,65.3,117.7L65.3,117.7z M64.9,123.1c-0.1-0.7,0.4-0.7,0.4-1.2c0.9-0.2,0.6,0.8,1.2,0.8
		C66.4,123.2,65.5,123,64.9,123.1z M69.4,147.6C69.3,147.7,69.7,147.3,69.4,147.6L69.4,147.6z M69.7,147.9c0.1-0.1,0.1-0.2,0.1-0.3
		c0.3-0.1,0.4,0.1,0.5,0.4C70.1,147.9,69.9,147.9,69.7,147.9z M70.2,128C68.8,127.3,71.6,126.7,70.2,128L70.2,128z M96,115.7
		C96.2,115.4,95.8,115.9,96,115.7L96,115.7z M94.7,116.1C93.2,115.1,96.1,115.5,94.7,116.1L94.7,116.1z M77.6,121.4
		C76.4,121.3,78,119.7,77.6,121.4L77.6,121.4z M79.6,141.8c-2.2,0.3-3.5-0.3-4.5-1.2c1.2-3.1,6.9-2.5,7.4,0.8c1,0.2,0.9-0.7,2-0.4
		C85.3,146.3,80.1,145.5,79.6,141.8z M83.3,132.4c0-0.4,0-0.8,0-1.2c1.5-0.3,2,0.5,2,1.6C84.4,133,83.8,132.8,83.3,132.4z
		 M84.9,114.5c0.1-0.7,0.7-0.9,1.6-0.8C86.5,114.4,85.9,114.6,84.9,114.5z M87.8,123.5C87.6,123.6,88.1,123.2,87.8,123.5L87.8,123.5
		z M87,121c0.1-1.2,1.7-0.7,2.9-0.8C90.2,121.9,87.6,121.6,87,121z M91.5,129.2c0.3-1.3,1.7-1.5,2.9-2
		C95.7,129.7,92.9,131.3,91.5,129.2z M95.6,116.5c0.2,0.9-0.3,1.1-0.4,1.6C94.4,118.3,94.4,115.9,95.6,116.5z M95.6,140.6
		c0.9-0.2,1.1,0.3,1.6,0.4C97.1,142.2,95.3,142,95.6,140.6z M108.2,125.9C108.5,125.6,108.1,126.1,108.2,125.9L108.2,125.9z
		 M106.6,119C106.4,119.1,106.9,118.7,106.6,119L106.6,119z M100.1,127.1C98.7,126.5,101.6,126.1,100.1,127.1L100.1,127.1z
		 M101.7,128c1.6-1.3,0.7-1.9,0-3.7c0.6,0,1.2,0.1,1.2-0.4c0.6,1,0.8,2.5,0.8,4.1C102.7,128,102.5,128.7,101.7,128z M107,145.9
		c-0.7,0.1-0.7-0.4-1.2-0.4C105.6,144.7,107.6,144.9,107,145.9z M111.1,141.4c-1.6,0.6-3.8-1.6-4.5-3.3
		C109.4,138,109.3,140.7,111.1,141.4z"/>
	<path class="st0" d="M48.6,18.5c0.1-0.4,0.2-0.6,0.4-0.9c0.1,0.2,0.1,0.5,0.1,0.7c-0.7-4.5-4.6-8-9.3-8H27.5
		c-0.2,1.1,0.7,1.8,1.1,2.9c-3.6,1.4-4.7-3.2-7.4-1.6c0-0.5,0.3-0.9,0.5-1.2H8.6c-1.8,0-3.5,0.5-4.9,1.4c0,0.2,0,0.4,0,0.7
		c-0.3,0-0.5,0-0.8,0c0,0,0-0.1,0-0.1c0.3-0.2,0.5-0.4,0.8-0.6c-2.7,1.7-4.5,4.6-4.5,8v18.8c0,5.2,4.2,9.4,9.4,9.4h31.3
		c5.2,0,9.4-4.2,9.4-9.4V19.7c0-0.5,0-0.9-0.1-1.4C48.9,18.4,48.8,18.5,48.6,18.5z M47.3,14c0.3,0.3,0.5,0.7,0.7,1.1
		c-0.6-0.1-1.3-0.1-1.8-0.2C46.3,14.2,46.7,14,47.3,14z M46.1,32C46.4,31.7,46,32.1,46.1,32L46.1,32z M43.3,32
		C43.5,30.2,45.7,32.4,43.3,32L43.3,32z M42.5,20.9C42.3,21.1,42.7,20.7,42.5,20.9L42.5,20.9z M40,20.5c-0.7-0.4-1.6-0.9-0.8-1.6
		C39.8,19.2,40,19.8,40,20.5z M39.6,13.6c0.1,0.7-0.4,0.7-0.4,1.2c-0.4-0.1-0.3-0.8-0.8-0.8C38.5,13.5,39.1,13.7,39.6,13.6z
		 M37.2,18.1C37.4,16.2,39.6,18.4,37.2,18.1L37.2,18.1z M36.3,15.6c-0.9,0.1-1.3-0.3-1.2-1.2C35.5,14.8,36.6,14.5,36.3,15.6z
		 M28.6,21.4c-0.7-0.2-0.8,0.3-0.8,0.8c-0.4,0-0.8,0-1.2,0C26.8,21.7,28.7,19.7,28.6,21.4z M28.6,40.5c-0.2,0.6-0.6,1-0.8,1.6
		C26.8,41.9,27.6,40.1,28.6,40.5z M27,30.7C26.9,30.8,26.9,30.8,27,30.7C27,30.7,27,30.7,27,30.7z M2,16c0.9-0.4,0.9,1.5,0,1.2
		C1.5,17.1,1.7,16.2,2,16z M-0.1,20.1c0.2,0,0.6,0.1,0.7,0.1C0.5,20.2,0.3,20.2-0.1,20.1C-0.1,20.1-0.1,20.1-0.1,20.1
		C-0.4,20.1-0.6,20-0.1,20.1z M1.6,37.3c-0.5,0-1.1,0-1.6,0c0.4-0.6,0.6-1.3,1.6-1.2C1.6,36.5,1.6,36.9,1.6,37.3z M1.2,21.4
		c-0.2-1.3,0.4-1.8,1.6-1.6C3.1,21.1,2.2,21.2,1.2,21.4z M2.9,18.1C4.2,19,1.4,19.7,2.9,18.1L2.9,18.1z M6.9,37.7
		c-1.9,0.2-2.4-0.8-3.7-1.2c0.9-1.7,1.2-5.2,3.7-4.1C5.1,34.1,8.2,35.5,6.9,37.7z M7.3,18.1c-0.3,0-0.5,0-0.8,0c0-0.3,0-0.5,0-0.8
		c0.3,0,0.5,0,0.8,0C7.3,17.5,7.3,17.8,7.3,18.1z M11,44.2c-0.4,0-0.8,0-1.2,0c-0.1-0.7,0.4-0.7,0.4-1.2c0.3,0.1,0.4,0.4,0.8,0.4
		C11,43.7,11,44,11,44.2z M8.6,39.7c0-1.3-1.3-1.2-0.8-2.9c1.5,1.2,2.4,0.8,3.7,1.6C11,39.5,10,39.8,8.6,39.7z M12.7,15.2
		C11.4,15.1,13,13.5,12.7,15.2L12.7,15.2z M14.3,19.7c0,0.3,0,0.5,0,0.8c-0.3-0.1-0.4,0.2-0.4,0.4C13.1,21.1,13.3,19.1,14.3,19.7z
		 M15.5,24.2c-1.1-0.1-1.7-0.7-1.6-2C15.4,21.9,15.7,22.8,15.5,24.2z M17.1,47.5c-0.7,0.1-0.7-0.4-1.2-0.4
		C15.8,46.3,17.8,46.5,17.1,47.5z M17.1,18.1c-1.5,0-2.2-0.8-2.4-2c1.2-0.6,2.1,1.1,2.4,0C18.3,16.4,16.9,17.4,17.1,18.1z M20,17.3
		C19.5,19.7,17,18.1,20,17.3L20,17.3z M18.8,44.6C18.6,44.8,19,44.4,18.8,44.6L18.8,44.6z M18.8,27.9C18.6,28.1,19,27.6,18.8,27.9
		L18.8,27.9z M18.8,20.1c0.4-0.7,0.8-1.4,2-1.2C20.6,19.7,20.2,20.4,18.8,20.1z M21.6,22.2C21.5,22.3,21.9,21.9,21.6,22.2L21.6,22.2
		z M22,37.3C20.9,36,23.3,38.4,22,37.3L22,37.3z M22.5,42.6C22.7,42.3,22.3,42.8,22.5,42.6L22.5,42.6z M21.2,20.1
		c0.1-1.4,1.1-1.1,2-0.8C23.3,21,22.2,20.4,21.2,20.1z M23.7,22.6C24,22.3,23.5,22.8,23.7,22.6L23.7,22.6z M22.9,17.3
		c-1-0.9,0.6-1.1,0.8-2C24.4,15.3,23.9,17.5,22.9,17.3z M25.3,41.8c2.3,0.1,1.3,1.9,2.4,2.4c0.7-0.8,0.4-2.6,1.2-3.3
		c1.1-0.1,0.3,1.6,1.6,1.2C31.2,47.6,21.8,47.1,25.3,41.8z M31.4,37.3C30.2,37.2,31.8,35.6,31.4,37.3L31.4,37.3z M33.1,16.9
		c-0.4,0-0.8,0-1.2,0C31.2,15.7,33.7,15.7,33.1,16.9z M33.9,17.3c0-0.4,0-0.8,0-1.2c0.8,0,1.6,0,2.5,0
		C36.6,17.5,35.1,17.3,33.9,17.3z M35.1,20.1c-0.7-1.6,1.8-0.1,1.6-1.2C38.2,19.8,35.9,21.3,35.1,20.1z M36.8,24.2
		c0.9-1,2.9-3.2,3.3-0.4C38.7,22.2,38.2,23.9,36.8,24.2z M39.6,31.6C38.3,31,41.2,30.5,39.6,31.6L39.6,31.6z M41.2,34.4
		c-0.3,0-0.5,0-0.8,0c0-0.3,0-0.5,0-0.8c0.3,0,0.5,0,0.8,0C41.2,33.9,41.2,34.2,41.2,34.4z M42.9,34c-0.3,0-0.5,0-0.8,0
		c-0.1-0.8,0.1-1.3,0.8-1.2C42.9,33.2,42.9,33.6,42.9,34z M41.2,25.8c0.2-1.3,1-2,2-2.5C44.5,24.5,42.5,25.8,41.2,25.8z M43.3,36.9
		c1.2-0.4,2.3-0.9,2.4-2.4c1,0.4,0.9,1.8,2.5,1.6C47.7,38.8,45,37.9,43.3,36.9z"/>
	<path class="st0" d="M171.1,63.4c0-0.2,0-0.5,0.1-0.7c-1.7-1.5-3.8-2.3-6.2-2.3h-31.3c-5.2,0-9.4,4.2-9.4,9.4v18.8
		c0,5.2,4.2,9.4,9.4,9.4h1.9c-0.2-0.5-0.5-1-0.4-1.8c3.9-0.3,7.3,0.7,11,1.6c0,0.1,0,0.1,0,0.2H165c0.8,0,1.6-0.1,2.4-0.3
		c0.4-1,0.9-1.9,1.7-2.3c0.3,0.5,0.2,1.1,0.1,1.7c3.1-1.5,5.3-4.7,5.3-8.4V69.8c0-2.5-1-4.8-2.6-6.5
		C171.6,63.3,171.4,63.4,171.1,63.4z M169.5,68.3c0.9,1,0.1,2.2,0,2.9C168.3,70.1,169.1,69.6,169.5,68.3z M158.1,73.6
		C157.9,73.8,158.3,73.4,158.1,73.6L158.1,73.6z M157.2,73.6C157.1,73.8,157.5,73.4,157.2,73.6L157.2,73.6z M147.4,70.4
		C147.3,70.5,147.7,70.1,147.4,70.4L147.4,70.4z M147,69.1C145.8,69.1,147.4,67.4,147,69.1L147,69.1z M146.2,71.2c0.3,0,0.5,0,0.8,0
		c0,0.3,0,0.5,0,0.8c-0.3,0-0.5,0-0.8,0C146.2,71.7,146.2,71.5,146.2,71.2z M142.9,65.1c0.3,0,0.5,0,0.8,0c0,0.3,0,0.5,0,0.8
		c-0.3,0-0.5,0-0.8,0C142.9,65.6,142.9,65.3,142.9,65.1z M133.1,67.5C131.9,67.4,133.5,65.8,133.1,67.5L133.1,67.5z M130.7,66.7
		C130.5,66.9,131,66.4,130.7,66.7L130.7,66.7z M129.9,64.2C130.1,64,129.7,64.4,129.9,64.2L129.9,64.2z M128.2,67.5
		c1.1,0.8,4.1-0.2,4.1,1.6C131.1,68.3,128,71.1,128.2,67.5z M127,65.5C127.3,65.2,126.8,65.6,127,65.5L127,65.5z M126.6,75.3
		c0.6-0.9,2.5,0.4,2.4,1.6C127.3,77.3,127.9,75.4,126.6,75.3z M129.9,90.4c-0.1-0.9,0.3-1.3,1.2-1.2
		C131.3,90.2,130.9,90.6,129.9,90.4z M132.3,81.4C131.1,81.3,132.7,79.7,132.3,81.4L132.3,81.4z M137.2,77.3
		c-2.2-0.4-2.2,2.3-4.1,3.3c-0.4-0.1-0.3-0.8-0.8-0.8c-0.8,0.3-1.1,1.1-1.2,2c-1.8-0.5-2.2,0-2.9,0.4c0.1-3.4,8.2-2.4,7.8-7.8
		C136.6,75.2,137.5,75.7,137.2,77.3z M139.3,66.7c2.1-1,4.1,0.2,4.9,1.6c-0.2,1-3.2,0.2-4.9-0.4C139.3,67.5,139.3,67.1,139.3,66.7z
		 M143.3,74.9c-0.7,1.9-1.4-0.3-2.9,0C140.5,73,142.8,74.6,143.3,74.9z M144.6,89.6c-1.9,0.1-3.2-0.3-4.5-0.8c-0.5-3.2,5-3,4.9,0
		C144.6,88.8,144.7,89.2,144.6,89.6z M145,82.6C143.8,82.5,145.4,80.9,145,82.6L145,82.6z M145.4,78.1
		C145.2,78.3,145.7,77.9,145.4,78.1L145.4,78.1z M145.8,76.1c0.5,0.2,0.8,0.5,0.8,1.2C145.7,77.5,145.8,76.7,145.8,76.1z
		 M147.4,82.2C146,81.5,148.8,80.9,147.4,82.2L147.4,82.2z M149.1,82.6C149.3,82.3,148.9,82.8,149.1,82.6L149.1,82.6z M149.1,72
		C149.3,71.7,148.9,72.2,149.1,72L149.1,72z M153.2,93.6c-0.9-0.3-2.1-0.4-2.9-0.8c0.6-1.2,2.5-1.3,3.7-0.8
		C154.5,93.3,152.6,92.3,153.2,93.6z M150.3,87.1c0-2.2,4.2-3.6,4.1-0.4C152.9,87.5,151.8,86.3,150.3,87.1z M159.3,87.9
		c-1.2,0-1.6-0.9-2.4-1.2C157.4,85.8,159.8,86.4,159.3,87.9z M162.1,76.1C160.2,75.4,161.6,74.1,162.1,76.1L162.1,76.1z M163,74.4
		c-0.3,0-0.5,0-0.8,0c0-0.3,0-0.5,0-0.8c0.3,0,0.5,0,0.8,0C163,73.9,163,74.2,163,74.4z M164.2,75.7C162.7,75,165.5,74.4,164.2,75.7
		L164.2,75.7z M163.8,72c0.1-0.5,0.4-0.2,0.4,0c1-0.4-0.9-1.2-0.4-2.4c0.5-0.6,1.8-0.4,2.9-0.4c0.3-1.2-0.7-1.2-0.4-2.4
		c1.2,0.3,2.1,0.9,2,2.4c-2.3-0.2-0.4,1.5-1.2,2.5c0.3-0.1,0.4-0.4,0.8-0.4C168.1,71.6,165.6,73,163.8,72z M167.9,87.9
		C166.6,87.8,168.2,86.2,167.9,87.9L167.9,87.9z M167.4,90c0.6-0.9,0.9-2.1,2.4-2C169.9,89.4,169.1,90.1,167.4,90z M169.9,72.8
		c0-0.5,0-1.1,0-1.6c0.6,0,1.6,0.2,1.6-0.4C172.2,71.1,171.2,73.1,169.9,72.8z"/>
	<path class="st0" d="M62.1,138.2c-0.1,0-0.2,0-0.3-0.1v0.5c0,0.1,0,0.1,0,0.2C61.9,138.6,62,138.4,62.1,138.2z"/>
	<path class="st0" d="M171.2,62.7c0.2,0.2,0.4,0.4,0.6,0.5C171.6,63.1,171.4,62.9,171.2,62.7z"/>
	<path class="st0" d="M156.8,47.9h1.6C157.6,47.6,157.1,47.7,156.8,47.9z"/>
	<path class="st0" d="M102.6,60.4c0.4,0,0.8,0,1.2,0.1C103.3,60.4,102.9,60.4,102.6,60.4z"/>
	<path class="st0" d="M165.6,110.5c0.3,0,0.7,0.1,1,0.1c-0.1,1.3-1.1,0.9-2,0.6C164.8,110.8,165.2,110.6,165.6,110.5
		c-0.2,0-0.4,0-0.6,0h-31.3c-2.5,0-4.7,1-6.4,2.5c-0.1,0.3-0.4,0.6-0.3,1.1c-0.2,0-0.4-0.1-0.5-0.2c-0.3,0.4-0.6,0.8-0.8,1.2
		c0,0.7-0.5,1.4-1,2.1c0.2-0.8,0.6-1.5,1-2.1c-0.9,1.4-1.4,3.1-1.4,4.8v3.6c0.1,0,0.2,0,0.2,0c0,0.3,0,0.5,0,0.8c-0.1,0-0.2,0-0.2,0
		v14.2c0-0.2,0.3-0.5,1.1-0.7c-0.4,1.2-1.1,1.1-1.1,0.8v0.1c0,5.2,4.2,9.4,9.4,9.4h11.5c-0.2-0.6-0.4-1.1-0.2-2.1
		c1,0.7,2.9,0.4,2.9,2.1h0.9c0-0.1-0.1-0.3-0.1-0.4c1.9,0.8,0.6-1.6,2-1.2c0.1,0.3-0.2,0.4-0.4,0.4c0.1,0.5,0.7,0.3,1.2,0.4
		c0,0.3,0,0.6,0,0.9H165c5.2,0,9.4-4.2,9.4-9.4v-18.8C174.4,114.9,170.5,110.8,165.6,110.5z M125.8,122.2
		C125.6,122.4,126.1,122,125.8,122.2L125.8,122.2z M126.2,134.1C125,134,126.6,132.4,126.2,134.1L126.2,134.1z M124.6,131.6
		c-0.1-1.2,1.5-1.4,2-0.8C126.5,131.7,125.6,131.7,124.6,131.6z M149.9,112.4C148.7,112.3,150.3,110.7,149.9,112.4L149.9,112.4z
		 M147.8,132.4C148.4,130.1,149.8,133.9,147.8,132.4L147.8,132.4z M145,121.4c0.3,0,0.5,0,0.8,0c0,0.3,0,0.5,0,0.8
		c-0.3,0-0.5,0-0.8,0C145,122,145,121.7,145,121.4z M143.8,118.2c1.2-0.4,0.7,0.9,0.8,1.6c-0.3,0-0.5,0-0.8,0
		C143.8,119.2,143.8,118.7,143.8,118.2z M142.9,135.7c0.1-0.1,0.1-0.2,0.2-0.3C143.1,135.5,143,135.6,142.9,135.7
		c-0.2,0.5-0.3,0.7-0.3,0.7C142.6,136.4,142.8,136,142.9,135.7z M139.3,112.4C139.5,110.6,141.7,112.8,139.3,112.4L139.3,112.4z
		 M138.9,130.4C138.7,130.6,139.1,130.1,138.9,130.4L138.9,130.4z M127.8,136.5c-0.9-0.1-0.1-1.9,0.8-1.6
		C128.9,136,127.8,135.7,127.8,136.5z M129.5,128.8c-1.2-0.3-2.1-0.9-2-2.5c2.3,0.5,2.6-1,2.9,1.6
		C130.2,128.4,129.5,128.2,129.5,128.8z M131.5,142.7c-0.3-0.1-0.4,0.2-0.4,0.4c-0.8,0.2-0.6-1.9,0.4-1.2
		C131.5,142.1,131.5,142.4,131.5,142.7z M131.5,115.7c-0.5,0-1.1,0-1.6,0c0-0.3,0-0.5,0-0.8c0.5,0,1.1,0,1.6,0
		C131.5,115.2,131.5,115.4,131.5,115.7z M132.7,147.6c-0.2-0.9,0.3-1.1,0.4-1.6C134.3,146,134.1,147.9,132.7,147.6z M132.3,117.7
		c1.4-0.3,1.5,0.7,1.6,1.6C133,119.2,132,119.1,132.3,117.7z M136.4,110.8C136.7,110.5,136.2,111,136.4,110.8L136.4,110.8z
		 M137.6,112.4c-0.1-1.1-0.1-2,1.2-1.6C139,111.9,138.7,112.6,137.6,112.4z M138.9,133.3c-1-1.4,0.8-2.7,2-1.6
		C140.8,132.8,140.2,133.4,138.9,133.3z M140.9,130C141.2,129.7,140.7,130.2,140.9,130L140.9,130z M141.7,147.1
		c-0.5-0.1-0.3-1.1,0-1.2C142.6,145.5,142.7,147.4,141.7,147.1z M148.7,144.3C148.5,144.5,148.9,144,148.7,144.3L148.7,144.3z
		 M149.9,143.9C150.2,143.6,149.7,144.1,149.9,143.9L149.9,143.9z M148.3,141c-0.5-0.1-0.6-0.7-1.2-0.8c-0.5,0.9-1.5,1.2-1.6,2.4
		c-1.2-1.7-3.5-2.9-2.9-5.7c0.5,0.3,0.8,0.9,0.8,1.6c0.7,0.1,0.9-0.5,1.6-0.4c0,0.3,0,0.5,0,0.8c0.9-0.4,0.2-2.6-1.2-2
		c0.8-1.3,3.8-3,5.7-1.6c1.2-0.3-0.2-1.3,0-2c3.7,0.8,2.2,3.5,3.3,5.7C151.1,139,149.5,138.6,148.3,141z M152.7,148
		C151.5,147.9,153.1,146.3,152.7,148L152.7,148z M150.7,145.1c0.8-1.1,1.2-2.7,2.9-2.9c0-0.1,0-0.1,0,0c0,0,0,0,0,0
		c0,0.3,0,1.5,0.8,2.4C153.3,145.9,151.7,145.3,150.7,145.1z M154.4,116.9c0-0.1-2,1.8-4.1-0.8c0-1.8,1.8-1.8,2.9-2.5
		C155.4,114.5,154.7,116.1,154.4,116.9z M156.4,144.3c-0.5,0-1.1,0-1.6,0c0.1-1.6,1.8-1.2,0.8-2.9
		C157.2,141.1,156.1,143.4,156.4,144.3z M158.5,134.9c-0.3,0-0.5,0-0.8,0c0-0.3,0-0.5,0-0.8c0.3,0,0.5,0,0.8,0
		C158.5,134.3,158.5,134.6,158.5,134.9z M156.8,122.6c0.4-1.3-0.6-1.3-1.2-1.6c-0.1-0.7,0.4-0.7,0.4-1.2c1.3-0.2,1.4,0.7,2.9,0.4
		C159.5,121.5,158.6,122.6,156.8,122.6z M161.3,143.1c-0.1-0.7,0.4-0.7,0.4-1.2C162.5,141.7,162.3,143.7,161.3,143.1z M163,121
		C162.8,121.2,163.2,120.7,163,121L163,121z M166.2,141.4C166.5,141.2,166.1,141.6,166.2,141.4L166.2,141.4z M171.1,132.4
		C169.7,131.8,172.5,131.2,171.1,132.4L171.1,132.4z M169.1,122.6C168.9,122.8,169.4,122.4,169.1,122.6L169.1,122.6z M172.3,136.1
		c0.6,1.4-1.8,1.9-0.4,2.9c-2,1.5-2.8-0.7-4.9,0.8c0.3-2.8,1.4-4.8,4.9-4.5C171.9,135.8,172,136,172.3,136.1z"/>
	<path class="st0" d="M103.7,60.5c-0.2,0.6-1,0.3-1.2-0.1c0,0-0.1,0-0.1,0h-1.2c0.1,0.2-0.1,0.3-0.8,0.2c0-0.1,0-0.1,0-0.2h-0.4
		c0.3,0.4,0.6,0.8,1.2,1c-0.8,2.5-4,1.5-3.1-1H80.4c-0.3,0.5-0.3,0.9,0.1,1.8c-1-0.2-1.9-0.6-3.3-0.4c-0.6-0.2,0-0.4,0.4-0.4
		c0.1-0.5,0.3-0.8,0.5-1h-6.9c-0.7,0-1.4,0.1-2.1,0.2c-0.1,0.1-0.2,0.2-0.4,0.3c-0.1-0.1-0.2-0.1-0.3-0.2c0.1,0,0.2-0.1,0.4-0.1
		c-4,1.1-7,4.7-7,9.1v18.8c0,5.2,4.2,9.4,9.4,9.4h31.3c3.6,0,6.7-2,8.3-5c-0.1,0.2-0.2,0.4-0.3,0.6c-0.2,0-0.5-0.1-0.9-0.3
		c0.6-0.6,1.1-0.5,1.3-0.3c0.7-1.3,1.1-2.8,1.1-4.4V77.8c-0.7,0.6-1.8,0.8-2.8,1.2c1.1-1.1,0.2-2.2,0.8-3.3c1-0.2,1.2,0.4,1.9,0.5
		v-6.4C111.8,65,108.3,61.1,103.7,60.5z M62.1,86.3c-0.1-0.9,0.3-1.3,1.2-1.2C63.4,86,63,86.4,62.1,86.3z M92.3,71.2
		c0.1,1-0.6,1.3-0.8,2c-0.5-0.8-1.8-1-2-2C90.9,71.5,91.4,70.3,92.3,71.2z M87.8,68.7c-0.9,0.2-0.8-0.6-0.8-1.2
		C87.5,67.7,87.8,68,87.8,68.7z M84.5,65.5C84.8,65.2,84.4,65.6,84.5,65.5L84.5,65.5z M84.2,68.3C84.2,68.3,84.1,68.3,84.2,68.3
		C84,68.4,84.1,68.3,84.2,68.3z M82.5,67.9c1,0.1,0.2,1.8,0,2C81.3,69.6,82.7,68.6,82.5,67.9z M77.6,70c1.6-0.7,0.1,1.8,1.2,1.6
		C78.1,72.9,77.7,70.6,77.6,70z M79.2,81C79.4,79.2,81.6,81.4,79.2,81L79.2,81z M81.3,86.3C81.1,86.5,81.5,86,81.3,86.3L81.3,86.3z
		 M82.9,87.1c0.7-1.1,1.3-0.6,2,0C84.6,88.5,83.5,87.6,82.9,87.1z M90.3,93.2c0.1-1,0.6-1.6,1.6-1.6c0.3,0.4,0.4,0.9,0.4,1.6
		C91,93.5,91.5,93.5,90.3,93.2z M88.6,77.7c0-0.7,0-1.4,0-2c-1.5,2.9-5.8,1.3-8.2,1.2c0.7-2.5,5,0.6,6.5,0c-0.4-1.9,0.7-2.3,0.8-3.7
		c2.6,0.1,0.5,2.7,2.4,3.7c0.2-0.5,1.5-1.9,0.8-2c0.1-1.1,0.7,0.6,1.6,0C92.8,76.8,91.5,78.9,88.6,77.7z M93.1,65.5
		C91.9,65.4,93.5,63.8,93.1,65.5L93.1,65.5z M93.9,83c-0.2-0.9,0.6-0.8,1.2-0.8C95,82.7,94.6,83,93.9,83z M99.6,86.3
		c0.3,0,0.5,0,0.8,0c0,0.3,0,0.5,0,0.8c-0.3,0-0.5,0-0.8,0C99.6,86.8,99.6,86.6,99.6,86.3z M103.3,95.3c-0.7-0.1-0.9,0.5-1.6,0.4
		c0.6-2.2-2.3-2.3-0.8-4.1C103,91.6,103.4,93.2,103.3,95.3z M103.8,97.8c-0.1-0.2-0.1-0.5,0-0.9c0.6,0,1,0.3,1.3,0.6
		C104.6,97.7,104.2,97.8,103.8,97.8z M105.4,84.7C105.6,84.4,105.2,84.8,105.4,84.7L105.4,84.7z M108.6,93.6
		C108.9,93.4,108.5,93.8,108.6,93.6L108.6,93.6z M111.5,89.2c0.1,0.1,0.2,0.2,0.3,0.3c-0.1,0.7-0.2,1.4-0.4,2.1
		c-1.2,0.3-1.9,1.5-3.9,0.5C108,90.3,110.1,90,111.5,89.2z"/>
	<path class="st0" d="M168.3,97.3c-0.3,0.1-0.6,0.2-0.9,0.3C167.7,97.5,168,97.5,168.3,97.3z"/>
	<path class="st0" d="M126.5,113.8c0.3-0.3,0.5-0.6,0.8-0.9C127,113.2,126.8,113.5,126.5,113.8z"/>
	<path class="st0" d="M102.4,10.3H71.1c-5.2,0-9.4,4.2-9.4,9.4v18.8c0,5.2,4.2,9.4,9.4,9.4h25.6c0.1-0.3,0.5-0.6,0.5,0h5.2
		c5.2,0,9.4-4.2,9.4-9.4v-1.2c-0.1,0-0.2,0-0.3,0c0.1-0.1,0.2-0.3,0.3-0.4v-2c-1.5,0.2-1.4,0.4-2.4-0.4c0-0.9,1.2-1,2.4-1.3V19.7
		C111.8,14.5,107.6,10.3,102.4,10.3z M96.4,14.4C97.6,15.3,95.9,17,96.4,14.4L96.4,14.4z M95.2,15.6C95,15.8,95.4,15.4,95.2,15.6
		L95.2,15.6z M94.7,20.1C93.3,19.4,96.1,18.9,94.7,20.1L94.7,20.1z M87.1,24.7c0.4,0.2,0.5,0.3,0.6,0.3C87.6,25,87.3,24.8,87.1,24.7
		C87,24.7,87,24.6,87.1,24.7C86.4,24.3,86.7,24.5,87.1,24.7z M86.2,25.4c-0.8,0.8-1.5,0.1-2.5,0c-0.1-0.7,0.5-0.9,0.4-1.6
		C85.1,24,86.2,24.2,86.2,25.4z M84.9,16.5C83.7,16.4,85.3,14.8,84.9,16.5L84.9,16.5z M83.7,21.8C84.1,20,85.9,21.8,83.7,21.8
		L83.7,21.8z M84.1,11.1C84,11.3,84.4,10.9,84.1,11.1L84.1,11.1z M64.9,17.7C64.8,17.8,65.2,17.4,64.9,17.7L64.9,17.7z M62.9,16.9
		C63.2,16.6,62.7,17,62.9,16.9L62.9,16.9z M63.7,37.7c0.2-1.9,2.6-0.2,2.9,0.4C66.2,38.9,64.4,37.8,63.7,37.7z M67.8,21.8
		C67.6,21.9,68.1,21.5,67.8,21.8L67.8,21.8z M66.6,19.7c0-0.8,0-1.6,0-2.4c1.3,0,1.6,1.2,1.6,2.4C67.7,19.7,67.1,19.7,66.6,19.7z
		 M69,35.6C67.8,36.8,70.1,34.4,69,35.6L69,35.6z M70.7,17.7C68.1,18.5,69,16,66.2,16c0.1-0.5,0.7-0.6,0.8-1.2
		c3.1-0.1,5.2,2.7,3.7,4.9C69.1,20,70.6,18.3,70.7,17.7z M71.1,36.1C68.4,37.3,72.3,35.5,71.1,36.1L71.1,36.1z M71.9,34.4
		C70.7,34.3,72.3,32.7,71.9,34.4L71.9,34.4z M72.3,21.4c0.7-0.3-0.1-2,1.2-1.6C73.3,20.5,73.4,21.5,72.3,21.4z M75.6,42.6
		C74.2,42,77.1,41.6,75.6,42.6L75.6,42.6z M76.4,29.5C76.2,29.7,76.6,29.3,76.4,29.5L76.4,29.5z M81.3,45.9
		C79.8,45.2,82.6,44.6,81.3,45.9L81.3,45.9z M82.1,32.4C80.9,32.3,82.5,30.7,82.1,32.4L82.1,32.4z M84.1,15.2
		c-0.9,0.2-1.1-0.3-1.6-0.4C82.5,13.7,84.2,14,84.1,15.2z M84.1,41.8C82.5,40.8,85.5,41.2,84.1,41.8L84.1,41.8z M85.4,44.6
		C84.1,44.2,85.8,42.5,85.4,44.6L85.4,44.6z M87.4,41.4c-1.3-0.1-2-0.8-2-2c1-0.1,1.7-0.8,2.5,0C88,40.3,87.1,40.2,87.4,41.4z
		 M88.2,37.3C87,37.2,88.6,35.6,88.2,37.3L88.2,37.3z M88.6,44.2c-0.1-1,0.6-1.3,0.8-2C90.8,42.4,90.4,44.8,88.6,44.2z M92.3,45
		c0-0.4,0-0.8,0-1.2c1.8,0.4,1.1-1.6,2-2c0.9-0.1,0.5,1.2,1.2,1.2C95,44.2,93.7,44.7,92.3,45z M94.7,28.7
		C94.9,26.9,97.1,29.1,94.7,28.7L94.7,28.7z M95.6,16.9C97,17,98,15.7,99.2,16c0.1,1.6-0.9,2.1-1.2,3.3
		C96.1,19.6,95.6,18.5,95.6,16.9z M96.8,41.8C97.1,41.5,96.6,41.9,96.8,41.8L96.8,41.8z M96.4,39.3c-0.1-0.9,0.1-1.6,0.4-2
		c0.9-0.1,1.6,0.1,2,0.4C98.4,38.7,98.1,39.7,96.4,39.3z M98.8,41C97.6,42.1,99.9,39.7,98.8,41L98.8,41z M98.8,32
		C99.9,30.5,101.6,32.2,98.8,32L98.8,32z M101.3,36.5C102.8,37.7,100,37.8,101.3,36.5L101.3,36.5z M102.5,10.7c0-0.2,0-0.3,0-0.4
		c0.5,0,0.9,0.1,1.4,0.1C103.6,10.7,103.1,10.8,102.5,10.7z M104.1,38.5C105.7,39.7,102.9,39.9,104.1,38.5L104.1,38.5z M109.5,35.6
		C109.3,35.8,109.7,35.4,109.5,35.6L109.5,35.6z"/>
	<path class="st0" d="M39.8,60.4H8.6c-5.2,0-9.4,4.2-9.4,9.4v6.3c0.7-0.8,2.8-1,3.7-1.2c2.1,0.4,0.3,5.9,3.3,4.1
		c0.1,2.4-0.9,3.7-2.5,5.3c-1.6-0.5-3-1.6-4.5-2.1v6.4c0,5.2,4.2,9.4,9.4,9.4h31.3c5.2,0,9.4-4.2,9.4-9.4V80
		c-1.8,1.4-5.6,0.8-7.2-0.2c0.1-3.7,3.5-2.9,6.5-6.9c1,0.3,0.1,3.1,0.6,4.5v-7.6C49.2,64.6,45,60.4,39.8,60.4z M2.9,71.2
		C1.6,71.1,3.2,69.5,2.9,71.2L2.9,71.2z M2.4,67.9c0.9-0.2,0.8,0.6,0.8,1.2C2.8,69,2.4,68.6,2.4,67.9z M0.4,87.9
		C-0.8,87.8,0.8,86.2,0.4,87.9L0.4,87.9z M4.9,72.8C3.8,71.5,4.1,70,6.1,70C5.9,71.1,5.1,71.7,4.9,72.8z M17.1,60.6
		c0,0.3,0,0.5,0,0.8c-0.3-0.1-0.4,0.2-0.4,0.4C15.9,61.9,16.1,59.9,17.1,60.6z M12.7,74.9c0.3-0.7,0.7-0.1,1.2,0
		C13.6,75.6,13.1,74.9,12.7,74.9z M13.9,77.7c-0.8-2.5,1.8-1.4,1.2-3.7c1.4,0,2.2,0.6,2.9,1.2C17.2,77.4,15.4,76.1,13.9,77.7z
		 M16.3,65.1c1.7,2.2,3,2.5,5.7,3.3C19.3,75,12,70.2,16.3,65.1z M24.1,65.1C24.3,63.3,26.5,65.5,24.1,65.1L24.1,65.1z M24.5,97.3
		c-0.1-0.7,0.5-0.9,0.4-1.6C26.1,95.8,25.9,97.6,24.5,97.3z M26.5,83c-0.3,0-0.5,0-0.8,0c0-0.3,0-0.5,0-0.8c0.3,0,0.5,0,0.8,0
		C26.5,82.5,26.5,82.8,26.5,83z M27.4,83.4C26,82.8,29,82.4,27.4,83.4L27.4,83.4z M26.1,63.8c-0.3-1.4,1.4-1.5,2-0.8
		C27.9,63.8,26.9,64.7,26.1,63.8z M35.5,80.6c-0.3-0.1-0.4,0.2-0.4,0.4c-0.8,0.2-0.6-1.9,0.4-1.2C35.5,80,35.5,80.3,35.5,80.6z
		 M39.6,87.1C38.4,88.2,40.7,85.9,39.6,87.1L39.6,87.1z M40.4,78.5c-0.3,0-0.5,0-0.8,0c0-0.3,0-0.5,0-0.8c0.3,0,0.5,0,0.8,0
		C40.4,78,40.4,78.3,40.4,78.5z"/>
	<path class="st0" d="M42.5,147.6c-0.3,0.1-0.6,0.2-0.9,0.2C42,147.8,42.3,147.7,42.5,147.6z"/>
	<path class="st0" d="M0,78.1c-0.4-0.3-0.7-0.7-0.8-0.9v2.4C-0.2,79.5,0,79.4,0,78.1z"/>
	<path class="st0" d="M44.2,146.9c-0.5,0.3-1.1,0.5-1.7,0.7C43.1,147.4,43.7,147.2,44.2,146.9z"/>
	<path class="st0" d="M169.1,97c-0.3,0.1-0.6,0.3-0.9,0.4C168.6,97.2,168.9,97.1,169.1,97z"/>
	<path class="st0" d="M1.2,144.4c-0.6-0.8-1.1-1.6-1.4-2.6C0.1,142.8,0.6,143.7,1.2,144.4z"/>
	<path class="st0" d="M173.6,22.2c-0.1-1.7-0.6-2.4,0.8-2.8c-0.2-5-4.3-9.1-9.4-9.1h-31.3c-2.3,0-4.3,0.8-5.9,2.1
		c0.3,0.2,0.5,0.6,0.5,1.1c-0.4,0-0.8,0-1.2,0c0-0.1,0-0.3,0-0.4c0.2-0.2,0.5-0.5,0.8-0.7c-2.1,1.7-3.5,4.3-3.5,7.3V22
		c0.3-0.3,0.4-0.8,0.2-1.5c1.2-0.3,1.5,0.4,2.4,0.4c-0.4,1.2-0.6,0.5-1.6,0.4c0.7,0.8,0.5,2.5,1.2,3.3c-0.4,0.8-1.2,1.2-2.3,1.2v8.6
		c0.1-0.1,0.1-0.3,0.2-0.4c1,0.1,1.5,0.6,2.9,0.4c-0.2,1.9,0.8,5.1,0,6.9c0.9-1.8,2.6-0.1,3.3,0.8c-2.4,0.9-4.2-0.3-6.1-1.3
		c-0.1-0.4-0.2-0.7-0.2-1.1c0.6,4.6,4.5,8.1,9.3,8.1h20.8c0.4-0.6,0.9-1.1,1.5-1.6c-0.8-0.9-2.1-0.7-3.3-2c-0.6,0.1-0.1,1.2-0.8,1.2
		c-1.4,0.4-0.6-1.3-0.8-2c0.8-0.2,1-0.9,2-0.8c-0.1,1,0.6,1.3,0.8,2c1.7,0.2,0.8-2.2,2.9-1.6c1.1,1-0.8,2.6,0.4,3.7
		c1,0.2-0.2-1.9,1.2-1.2c0,0.8,0,1.6,0,2.4h6.5c5.2,0,9.4-4.2,9.4-9.4V22.2C174.1,22.2,173.9,22.2,173.6,22.2z M127.4,23.4
		C127.8,21.7,129.6,23.4,127.4,23.4L127.4,23.4z M129.5,22.6c0.5,0,1.1,0,1.6,0c0,0.3,0,0.5,0,0.8c-0.5,0-1.1,0-1.6,0
		C129.5,23.1,129.5,22.9,129.5,22.6z M130.7,40.5c-0.7-0.4-1.1-1.4-0.4-2C131.6,38.8,130.8,39.6,130.7,40.5z M131.1,46.7
		c-0.3-1.4,1.7-0.5,1.2-2C133.5,45.3,131.9,46.6,131.1,46.7z M156,20.1c1-0.1,1.5-0.6,2.9-0.4c0.2,2.1,1.2,3.4,2.9,4.1
		c-0.5,1.4-2.6,1.2-4.5,1.2C157.3,22.9,155.6,22.6,156,20.1z M143.8,38.9C143.6,39.1,144,38.6,143.8,38.9L143.8,38.9z M137.6,33.6
		C136.1,32.4,138.9,32.2,137.6,33.6L137.6,33.6z M137.2,38.5c0-0.5,0-1.1,0-1.6C138.8,36.6,138.6,38.6,137.2,38.5z M142.1,19.7
		c-0.5-0.5-0.5-1.4-0.4-2.4C142.8,17,143.3,20.4,142.1,19.7z M142.9,41.4c-0.2-0.9,0.8-0.6,0.8-1.2C144.5,40,143.8,41.7,142.9,41.4z
		 M144.2,27.9C144.4,27.6,144,28.1,144.2,27.9L144.2,27.9z M144.6,28.3c0.3,0,0.5,0,0.8,0c0,0.3,0,0.5,0,0.8c-0.3,0-0.5,0-0.8,0
		C144.6,28.8,144.6,28.6,144.6,28.3z M145.4,39.7c-0.2,0.1-0.3,0.2-0.4,0.2c-0.4,0.2-0.3,0.2,0,0c0.3-0.2,0.6-0.4,0.7-0.4
		C145.7,39.6,145.6,39.6,145.4,39.7z M149.5,27.1c-1.6-2.1-4.7-0.1-4.9-3.7C146.8,22.9,151.3,23.2,149.5,27.1z M150.3,32.8
		c0.5,0.2,0.8,0.5,0.8,1.2C150.6,33.8,150.3,33.5,150.3,32.8z M154.8,34c-3.1-0.6-1.5-3.2-3.3-3.7c0.5-1.8,1.3-1,1.2-2.9
		c1.8,0.6,1.7,3.2,4.1,3.3C156.2,31.9,154.8,32.3,154.8,34z M157.6,28.3c-0.6-0.3-0.6-1.3-0.8-2c0.8-0.8,0.7,0.2,2,0
		C159.6,28.1,157.2,26.8,157.6,28.3z M158.1,28.7c0.6,0.1,0.3,1,0.4,1.6C157.5,30.2,157.5,29.2,158.1,28.7z M158.5,33.6
		C157.1,33,160.1,32.6,158.5,33.6L158.5,33.6z M159.7,34.4C159.5,34.6,160,34.2,159.7,34.4L159.7,34.4z M158.9,29.9
		c0.3-1.3,1.1-0.5,2-0.4C160.4,30.1,159.4,30.5,158.9,29.9z M161.3,39.3C161.6,39.1,161.2,39.5,161.3,39.3L161.3,39.3z M161.7,27.5
		C161.6,27.7,162,27.2,161.7,27.5L161.7,27.5z M160.9,26.7c-0.2-0.9,0.3-1.1,0.4-1.6C163.2,25,163.4,27.2,160.9,26.7z M163,24.2
		c-0.3,0-0.5,0-0.8,0c0-0.3,0-0.5,0-0.8c0.3,0,0.5,0,0.8,0C163,23.7,163,23.9,163,24.2z M164.6,26.7C163.4,26.6,165,25,164.6,26.7
		L164.6,26.7z M164.6,14.4C163,13.4,165.9,13.8,164.6,14.4L164.6,14.4z M166.6,25.8c-0.3,0-0.5,0-0.8,0c0-0.3,0-0.5,0-0.8
		c0.3,0,0.5,0,0.8,0C166.6,25.3,166.6,25.6,166.6,25.8z M168.3,14.8c0.3-1.9,1.6-0.4,2.9-1.2c-0.4,2,1.3,1.9,0.8,4.1
		C169.7,17.8,169.7,15.5,168.3,14.8z M169.1,25.8c-0.2-1.7,1.4-1.6,2-2.5c1.1-0.2,0.4,1.5,1.2,1.6C171.8,26.2,170.2,26.3,169.1,25.8
		z"/>
	<path class="st0" d="M-0.2,116.6c-0.1,0.4-0.2,0.7-0.3,1.1C-0.5,117.3-0.4,117-0.2,116.6z"/>
	<path class="st0" d="M124.4,39.6c0-0.4-0.1-0.8-0.1-1.2C124.3,38.9,124.4,39.3,124.4,39.6z"/>
	<path class="st0" d="M26.5,11.6c0-0.5-0.2-0.8-0.3-1.2h-1.1C25.4,10.9,25.9,11.3,26.5,11.6z"/>
	<path class="st0" d="M39.8,110.5H8.6c-4,0-7.4,2.5-8.8,6.1c0.3-0.8,0.7-1.5,1.2-2.1c0.7,0.3,1.6,0.6,2.7,0.5
		c-0.7,2.2-1.5,3.6-2,5.7c-1.4,0.3-2.1-0.5-2.4-1.6c0-0.4,0.1-0.8,0.2-1.3c-0.2,0.7-0.2,1.4-0.2,2.1v18.8c0,1.2,0.2,2.2,0.6,3.3
		c1.1,0.3,1.4,1.2,1.4,2.6c1.7,2.2,4.4,3.6,7.3,3.6h31.3c0.6,0,1.2-0.1,1.8-0.2c-0.3,0.1-0.6,0.1-0.9,0.1c0.4-0.6,0.8-1.2,0.9-2
		c1-0.1,1.8,2.4,1.6,0c0.5,0.1,0.7,0.6,0.9,1c3-1.6,5-4.7,5-8.3v-8.9c-0.1,0-0.1-0.1-0.2-0.1c0.1-0.2,0.1-0.3,0.2-0.3v-9.4
		C49.2,114.7,45,110.5,39.8,110.5z M1.6,140.6c-0.4-1.7-0.1-1.8,0-3.7c1,0,1.9,0,2.9,0C3.5,138.1,3.2,140,1.6,140.6z M5.3,138.2
		c0,0,0-0.1,0-0.1c0-0.1,0-0.2,0-0.2c0,0,0,0.1,0,0.2c0.1,0.4,0.2,1,0.2,1.1c0,0.1,0,0.1,0,0C5.5,139.1,5.4,138.8,5.3,138.2z
		 M31.4,121.8C31.3,122,31.7,121.6,31.4,121.8L31.4,121.8z M30.6,118.6C29.3,118,32.2,117.5,30.6,118.6L30.6,118.6z M30.6,122.2
		c-0.2,0.6-0.6,1-0.8,1.6C28.4,123.7,29,121.7,30.6,122.2z M25.7,111.6C26,111.3,25.6,111.8,25.7,111.6L25.7,111.6z M24.5,111.2
		c0.3,0.6,1.3,0.6,1.2,1.6C24.3,113.2,23.7,112,24.5,111.2z M26.1,119.4c0.4,1.5-1.6,0.6-2.5,0.8C23.5,119.2,25.5,118.3,26.1,119.4z
		 M24.5,121.4C24.5,121.4,24.4,121.5,24.5,121.4C24.5,121.4,24.5,121.4,24.5,121.4z M22.5,118.6C22.7,116.7,24.9,118.9,22.5,118.6
		L22.5,118.6z M22.5,123.5c0.7,0.3,0.1,0.7,0,1.2C21.7,124.4,22.4,123.9,22.5,123.5z M9.8,111.6C8.4,111,11.4,110.6,9.8,111.6
		L9.8,111.6z M11,143.1c-3.8-0.8-1.1-4.8,0.8-5.7C13.7,138.8,11.1,141,11,143.1z M11.8,130c-1-0.4,0.3-1.8,1.2-1.6
		C12.9,129.2,12,129.2,11.8,130z M18.4,119.4c-0.3,0-0.5,0-0.8,0c-0.1-0.8,0.1-1.3,0.8-1.2C18.4,118.6,18.4,119,18.4,119.4z
		 M18.4,112.4C24.2,111,18.3,120,18.4,112.4L18.4,112.4z M21.2,121c0.1,1.1-0.9,1.1-1.6,1.2C19.3,120.8,20.7,120.4,21.2,121z
		 M18.8,124.3c0-0.8,1.1-0.5,0.8-1.6c0.9,1.2,1.9-0.3,1.6,2C20.4,123.7,19.6,125.2,18.8,124.3z M21.2,130.4
		C19.9,129.8,22.8,129.4,21.2,130.4L21.2,130.4z M21.6,133.7c0.6-2.7,4.1-2.6,4.9,0C24.8,134.5,23.2,134.5,21.6,133.7z M27,136.1
		C26.8,136.3,27.2,135.9,27,136.1L27,136.1z M27.4,134.9C26.4,133.5,28.7,135.9,27.4,134.9L27.4,134.9z M27.4,123.9
		C25,120.5,29.3,120.9,27.4,123.9L27.4,123.9z M31,143.9c-0.3-1.1-2.1-0.6-2.9-1.2c0.2-0.6,0.6-1,0.8-1.6
		C31.2,140.4,32.1,142.5,31,143.9z M29.8,135.7c-0.2-1.6,1.2-1.5,1.6-2.4C32.9,133.6,31.4,136,29.8,135.7z M33.1,136.5
		C33.3,136.3,32.9,136.7,33.1,136.5L33.1,136.5z M34.7,140.2C33.3,139.5,36,138.9,34.7,140.2L34.7,140.2z M40.4,135.3
		c0.8-0.7,0.5,0,1.6,0C42.4,136.9,40.1,136.9,40.4,135.3z M43.3,143.5c-0.9-0.5-2.3-0.5-2.4-1.6c1.1,0,2.2,0,3.3,0
		C44.4,143,43.3,142.7,43.3,143.5z M33.5,115.3c2.2,1.3,3.5-0.1,4.5,1.6c1.4-2.3,3,2,6.1,0.8C45,123.7,33.3,120.4,33.5,115.3z
		 M47.9,115c0.5,0.8,0.8,1.6,1.1,2.5c-1.1,0.1-2.3-0.1-3.6-0.6c0.1-1.3,0.8-2,2-2C47.4,115,47.6,115.1,47.9,115z"/>
</g>
</svg>
