<?xml version="1.0" encoding="utf-8"?>
<!-- Generator: Adobe Illustrator 19.0.0, SVG Export Plug-In . SVG Version: 6.00 Build 0)  -->
<svg version="1.1" id="Layer_1" xmlns="http://www.w3.org/2000/svg" xmlns:xlink="http://www.w3.org/1999/xlink" x="0px" y="0px"
	 viewBox="-375 203 208.3 176" style="enable-background:new -375 203 208.3 176;" xml:space="preserve">
<style type="text/css">
	.st0{fill:#E6DBDC;}
</style>
<path class="st0" d="M-270.9,278l2.6-2.7c0-0.5,0.1-1.1,0.4-1.8c-0.6-1.3-3.1,1.2-4-0.6c1.9-2.4,6.5-4.6,9.9-4.1l-3.8,3.8l4.4-4.5
	l-0.3,0.3c-0.1-1.4,0.6-3.7-0.5-4.1c0.8-0.4,1.6,0.8,2.8,1.8l61.7-63.2h-99.9c0,0.1,0,0.2,0,0.3c-0.3,0-0.5-0.1-0.6-0.3h-31.5
	c0.1,0.4,0.2,0.8,0.6,0.8c-0.8,1.6-3,1.8-4.6,1.1c-0.1-1,0.3-1.6,0.8-2h-11.4L-270.9,278z M-217.6,220.4c0.4,0,0.8,0,1.1,0
	c0,0.4,0,0.8,0,1.1c-0.4,0-0.8,0-1.1,0C-217.6,221.2-217.6,220.8-217.6,220.4z M-225,222.7c0.4,0,0.8,0,1.1,0c0,0.4,0,0.8,0,1.1
	c-0.4,0-0.8,0-1.1,0C-225,223.4-225,223.1-225,222.7z M-227.9,231.3c-1.4,0.5-1.7,2.1-4,1.7C-232.2,230.7-229.7,231.3-227.9,231.3z
	 M-236.4,223.8c-1.3,0.2-2.2-0.1-2.9-0.6C-239.4,222.3-235.6,222.1-236.4,223.8z M-242.7,235.3c1.5-0.6,3.3-0.4,3.4,1.7
	c-1.5,0.2-2,1.4-3.4,1.7C-242.7,237.5-242.7,236.4-242.7,235.3z M-243.9,236.4c-1.7,0-1.4-2.1-3.4-1.7c0.2-1.2,1.1-1.5,1.7-2.3
	C-244.4,233.2-244.3,234.9-243.9,236.4z M-246.2,203.3c1.4,0.4,0.3,2.9-1.1,2.3C-247.7,204-246.2,204.4-246.2,203.3z M-252.4,219.3
	C-254.2,219.1-251.9,216.9-252.4,219.3L-252.4,219.3z M-261,233c0.4,0,0.8,0,1.1,0c0,0.4,0,0.8,0,1.1c-0.4,0-0.8,0-1.1,0
	C-261,233.7-261,233.4-261,233z M-282.1,259.8c-0.3-2.4,1.4-2.7,3.4-2.9C-278.2,259.6-279.7,260.2-282.1,259.8z M-275.3,256.4
	c0,0.8,0,1.5,0,2.3C-277.5,259.1-277.5,256-275.3,256.4z M-272.4,269.5C-274.1,269.4-271.9,267.2-272.4,269.5L-272.4,269.5z
	 M-275.9,261c1.6-2.8,5.3-1.1,5.1,2.3C-274.2,265.1-274.1,263.3-275.9,261z M-269,263.3c-0.1-1.2,0.5-1.8,1.7-1.7
	C-267.2,262.8-267.8,263.4-269,263.3z M-263.9,218.7c0.5,0.1,0.6,0.6,1.1,0.6c-0.1,0.5-0.6,0.6-0.6,1.1c-0.5-0.1-0.6-0.6-1.1-0.6
	C-264.3,219.4-263.9,219.3-263.9,218.7z M-264.4,259.3c0.6,0,1.1,0,1.7,0c-0.2,2.4,0.8,2.2,0,4c-0.5-1-2.1-2-1.7,0.6
	c-1,0.1-1.2-0.7-2.3-0.6C-265.3,260.7-264.4,261.8-264.4,259.3z M-266.7,238.1c0.4,0,0.8,0,1.1,0c0,0.4,0,0.8,0,1.1
	c-0.4,0-0.8,0-1.1,0C-266.7,238.9-266.7,238.5-266.7,238.1z M-266.2,258.7c-0.5,1.6-2.9,1.3-4.6,1.7
	C-270.1,258.9-267.8,257.3-266.2,258.7z M-270.2,258.1c-1-0.7-3-0.4-3.4-1.7c1-1.6,2.4,2,3.4-0.6
	C-268.7,256-270.9,256.8-270.2,258.1z M-273,236.4c1.9,0,3.8,1.7,2.3,3.4C-272,239.2-272.8,238.1-273,236.4z M-275.9,219.8
	C-287.3,222.7-280.2,211.7-275.9,219.8L-275.9,219.8z M-282.1,222.1C-282.4,222.4-281.8,221.7-282.1,222.1L-282.1,222.1z
	 M-282.1,227.3c-1.4,1.2,0.5,2.5-0.6,3.4c-0.8,0-1.5,0-2.3,0C-284.9,228.7-284.5,227-282.1,227.3z M-290.7,245.5
	c1.6,0.5,1.5-0.8,2.9-0.6c-2.8-3.5,1-4.9,0.6-9.1c0.9,0,1.9,0,2.9,0c-0.7-2,2.1-3.4,2.9-5.7c1.7,0,3.5-0.1,3.4,1.7
	c1.6-0.3,2.7-2.9,4.6-1.1c0.2,1.3-1.7,0.6-1.7,1.7c0.6-0.1,3.2,0.6,2.9-2.3c2.3,0.1,2.2,2.8,2.3,5.1c-0.9,0-2.2-0.3-2.3,0.6
	c-1.1-0.1-0.4-1.9-1.7-1.7c-1.1,2-3.8,2.3-5.1,4c-0.2,0.9,0.5,1,0.6,1.7c0.1-2.1,1.2-1.1,2.9-3.4c1.6,2.3,0.9,4.7,3.4,5.1
	c-0.2,1.7-1.2,2.6-2.9,2.9c-0.4-0.5-0.6-1.3-0.6-2.3c-2.3-0.6-2.5,0.9-3.4,1.7c0,1,2.9-0.6,2.9,1.7c-2.8-1-5.1,2.2-6.3,4.6
	c-1-1.5-3.8-1.6-2.3-4c-1.8-0.1-2,1.5-2.3,2.9C-289.9,249.3-291,248.1-290.7,245.5z M-291.9,213c-0.6,0.5-0.2,2.1-1.7,1.7
	C-293.7,213.4-293.1,212.9-291.9,213z M-301.6,229.5C-303.3,229.4-301,227.2-301.6,229.5L-301.6,229.5z M-303.3,210.7
	c0.5-0.9,1.4-1.2,2.9-1.1C-298.6,211.9-302.6,212.6-303.3,210.7z M-302.7,213C-303,213.2-302.4,212.6-302.7,213L-302.7,213z
	 M-301,209c-0.2-0.9,0.5-1,0.6-1.7C-299.3,207-299.6,209.9-301,209z M-301,205c-0.1,1.5-2.1,1.3-2.9,0.6
	C-303.3,204.6-301.9,204.1-301,205z M-302.7,208.4c-0.2,1.3-2.5,0.3-2.9,0C-305.4,207.1-303.1,208.1-302.7,208.4z M-305,214.7
	c1.2-0.2,1.5,0.4,2.3,0.6c0.3,1.8-1.2,1.8-2.9,1.7C-305.8,215.8-305.2,215.5-305,214.7z M-308.4,211.3c1.3-0.1,1.8,0.5,1.7,1.7
	C-307.3,212.4-308.8,212.8-308.4,211.3z M-314.2,215.3C-315.5,213.3-312.2,216.6-314.2,215.3L-314.2,215.3z M-322.7,221
	C-323,221.2-322.4,220.6-322.7,221L-322.7,221z M-338.2,203.8c0.4,0,0.8,0,1.1,0c0,0.4,0,0.8,0,1.1c-0.4,0-0.8,0-1.1,0
	C-338.2,204.6-338.2,204.2-338.2,203.8z M-339.9,206.1C-341.6,206-339.3,203.7-339.9,206.1L-339.9,206.1z"/>
<path class="st0" d="M-186.6,273.2c-0.1,0.3-0.1,0.6-0.1,0.9c-0.3,0-0.4-0.2-0.4-0.4l-2.1,2.1c0.2-0.1,0.5-0.1,0.8,0
	c0.1,1.2-0.5,1.8-1.7,1.7c0-0.3,0-0.6,0-0.8l-20,20.3l0.4-0.4c0.2,0.1,0.4,0.2,0.7,0.3c-0.1,1.6,0.3,3.7-0.6,4.6
	c-0.4-1.2-0.9-2.5-1.4-3.7l-60,60.8l-67.7-68.6c-0.8,0-1.7-0.1-2.4-0.5c0.1-0.6,0.6-0.3,0.6,0c0.9-0.3,0.1-0.9-0.4-1.7l2.1,2.1
	l-16.5-16.7H-375L-270.9,379l4-4c-0.4-0.2-0.7-0.5-0.9-0.9c0.8-0.5,1.4-0.5,2-0.2l0,0l28.5-28.9c-0.2,0-0.5,0-0.7,0
	c0-0.8,0-1.5,0-2.3c1.5-0.5,1.2,0.9,1.1,1.9l-0.3,0.3l24.2-24.6c-0.6-0.5-0.9-1.2-1-2.2c1,0.1,1.7,0.4,2.2,1l45.3-46h-19.8
	L-186.6,273.2z M-350.2,291.8C-350.4,292.1-349.8,291.5-350.2,291.8L-350.2,291.8z M-349,291.8C-349.3,292.1-348.6,291.5-349,291.8
	L-349,291.8z M-343.3,295.3C-346,294.4-344.1,292.4-343.3,295.3L-343.3,295.3z M-342.2,293c-0.4,0-0.8,0-1.1,0c0-0.4,0-0.8,0-1.1
	c0.4,0,0.8,0,1.1,0C-342.2,292.2-342.2,292.6-342.2,293z M-340.4,294.7C-342.5,293.7-338.6,292.9-340.4,294.7L-340.4,294.7z
	 M-335.3,311.8C-337,311.7-334.7,309.5-335.3,311.8L-335.3,311.8z M-334.3,314.6l-1-1c0.6-1,1.2-1.9,2.8-1.8
	C-332.5,313.3-333.1,314.3-334.3,314.6z M-317,329.5C-319,328.6-315.1,327.8-317,329.5L-317,329.5z M-312.4,331.8
	C-312.1,331.5-312.7,332.1-312.4,331.8L-312.4,331.8z M-301,331.8C-301.3,332.1-300.6,331.5-301,331.8L-301,331.8z M-297.6,337.5
	c-1.5-0.1-2.2-0.8-2.3-2.3c1,0,1.9,0,2.9,0C-296.9,336.3-297.7,336.5-297.6,337.5z M-290.7,344.4c-0.4,0-0.8,0-1.1,0
	c-0.2-1.1,0.1-1.8,1.1-1.7C-290.7,343.3-290.7,343.8-290.7,344.4z M-281.6,353C-283.5,352.1-279.4,351.5-281.6,353L-281.6,353z
	 M-251.3,351.8C-250.9,351.5-251.5,352.1-251.3,351.8L-251.3,351.8z M-258.2,354.7C-259.5,352.8-256.2,356.1-258.2,354.7
	L-258.2,354.7z M-255.3,343.3c-0.1-0.1-0.2-0.1-0.2-0.1l0.3-0.3C-255.2,342.9-255.2,343.1-255.3,343.3z M-251.9,353.5
	c1.2-0.3,1.1,0.8,1.1,1.7C-251.4,355-251.9,354.5-251.9,353.5z M-245.6,350.7C-245.8,350.9-245.2,350.3-245.6,350.7L-245.6,350.7z
	 M-239.3,326.7C-239.3,326.7-239.3,326.6-239.3,326.7l1-1c0.2-0.1,0.4-0.1,0.7-0.1C-237.5,327.1-238.5,327.5-239.3,326.7z
	 M-227.9,329.5c-0.4,0-0.8,0-1.1,0c0-0.4,0-0.8,0-1.1c0.4,0,0.8,0,1.1,0C-227.9,328.8-227.9,329.2-227.9,329.5z M-219.3,309
	C-219.5,309.2-218.9,308.6-219.3,309L-219.3,309z M-218.7,310.1C-219,310.4-218.4,309.7-218.7,310.1L-218.7,310.1z M-209.6,303.8
	c0.3-1.7,1.2-2.6,2.9-2.9C-206.5,303.6-207.7,304.8-209.6,303.8z M-206.2,304.4c0.3,0.5,0.6,0.9,0.6,1.7c-1.7-0.1-1.4-2.7,0.6-2.3
	C-205,304.4-205.7,304.3-206.2,304.4z M-200.4,296.4C-200.7,296.6-200.1,296-200.4,296.4L-200.4,296.4z M-198.2,298.7
	C-199.5,296.8-196.2,300.1-198.2,298.7L-198.2,298.7z M-188.4,293.5C-190.7,292.1-186.5,292.7-188.4,293.5L-188.4,293.5z
	 M-181,277.5C-182.7,277.4-180.5,275.2-181,277.5L-181,277.5z M-183.3,274.7c0.4,0,0.8,0,1.1,0c0,0.4,0,0.8,0,1.1
	c-0.4,0-0.8,0-1.1,0C-183.3,275.4-183.3,275.1-183.3,274.7z M-177.6,278.7c0.9,3.3-0.2,3.3-1.1,5.7c-3-0.6-4.6-2.6-5.1-5.7
	C-181.9,277.5-178.9,278.7-177.6,278.7z M-184.4,278.7c0,0.4,0,0.8,0,1.1c-0.5-0.1-0.5,0.2-0.6,0.6
	C-186.1,280.6-185.8,277.8-184.4,278.7z"/>
<path class="st0" d="M-358.7,239.5c1.1-0.2,1.4-1.2,2.9-1.1c-0.1,1.4,0.9,1.8,1.1,2.9c2.4,0.3,1.1-3.1,4-2.3
	c1.6,1.4-1.1,3.7,0.6,5.1c1.4,0.2-0.3-2.6,1.7-1.7c0,1.1,0,2.3,0,3.4c-2.2-0.8-2.8,0.1-3.2,1.2l-1.8-1.9c0.5-0.6,1-1.1,1.6-1.6
	c-1.2-1.2-3-1-4.6-2.9c-0.4,0.1-0.5,0.5-0.5,0.9l86.1,87.5l34.6-35.2c-0.2,0-0.5,0-0.7,0c0-0.4,0-0.8,0-1.1c0.4,0,0.8,0,1.1,0
	c0,0.2,0,0.5,0,0.7l22-22.3c-0.6-0.9-1.7-1.2-2-2.4c2.2,1.3,2.1-0.7,4.6-0.6c0.1,0.1,0.1,0.1,0.1,0.2l13.7-13.9c0,0,0,0-0.1,0
	c0.3-3.7,0.2-4.2-0.6-7.4c1.8,1.8,1.9-1,4-0.6c0.2,1.9,0.1,2.9,0.5,4.1l4.4-4.5c-0.1-0.1-0.2-0.1-0.3-0.2c-0.8-1.2,0.1-0.4,0.5,0.1
	l0,0l12.3-12.5l-10.1,10.2c-0.1,0-0.2-0.1-0.4-0.1c-0.5-2.2,2.5-0.9,1.7-3.4c-0.3-0.9-0.7,0.2-1.7,0c-0.3-1.9,0.4-2.7,0.6-4
	c-1.6-1.7-4.9,2-6.9,0c0.9-1.7,3.3-2,5.1-2.9c0-1.1-1.6-0.7-1.1-2.3c1.5-0.2,1.9,0.8,1.7,2.3c3.2-2.1,6.2-0.7,10.9-2.9
	c-0.7,1.3-0.3,2.1,0.6,2.6l9.7-9.9h-19.8l-53.1,53.9c1.9,1.8,5.2,2.2,7.7,0.9c-1,2.9,1.5,2.3,1.7,4c-4.8,0.6-8.6,0-11.3-3l0.5-0.5
	l-29.9,30.3l-15.2-15.4l1.9,1.9c-0.6,0.3-1.4,0.5-2.5,0.4c2.1-3.7-2-2-2.3-4.6c0.3,0.1,0.5,0.1,0.8,0.2l-65.1-66.1
	c-0.1,0.4-0.2,0.8-0.3,1.3c-2.6-0.5-2.8-1.9-3.1-3.2H-375l16.3,16.6C-358.7,239.7-358.7,239.6-358.7,239.5z M-191.9,247
	C-192.1,247.2-191.5,246.6-191.9,247L-191.9,247z M-186.7,223.5c1,0.1,1.3,1,1.1,2.3C-187.3,226.4-186.6,224.6-186.7,223.5z
	 M-213.6,267.5C-213.8,267.8-213.2,267.2-213.6,267.5L-213.6,267.5z M-235.9,276.1c0.1-1.4,1.9-0.2,2.3,0
	C-233.7,277.5-235.5,276.3-235.9,276.1z M-218.2,271C-219.9,270.9-217.6,268.6-218.2,271L-218.2,271z M-222.2,268.1
	c0.7,1.8-0.9,1.4-1.1,2.3c-0.8-0.2-0.5-1.4-0.6-2.3C-223.3,268.1-222.7,268.1-222.2,268.1z M-226.7,271
	C-228.4,270.9-226.2,268.6-226.7,271L-226.7,271z M-246.7,288.1c1.7-0.8,3.5,2,3.4-0.6c1.7,0.1,1.7,5.6,0,5.7
	C-244.6,291.7-246.9,291.2-246.7,288.1z M-247.9,291.5c1.5-0.2,2.5,0.2,2.3,1.7C-247.1,293.4-248,293-247.9,291.5z M-249,303
	C-250.7,302.9-248.5,300.6-249,303L-249,303z M-250.2,289.8c-0.1,1,0.7,1.2,0.6,2.3c-1.8,0.3-2.2-0.8-3.4-1.1
	C-252.5,290.1-251.2,290.1-250.2,289.8z M-251.9,301.8c-0.1,4.4-3.2,5-5.7,3.4C-257.5,301.3-254.1,302.6-251.9,301.8z M-266.7,305.8
	C-267,306.1-266.4,305.5-266.7,305.8L-266.7,305.8z M-279.9,300.1C-280.1,300.4-279.5,299.7-279.9,300.1L-279.9,300.1z
	 M-291.9,292.7c0.4,0,0.8,0,1.1,0c0,0.4,0,0.8,0,1.1c-0.4,0-0.8,0-1.1,0C-291.9,293.4-291.9,293.1-291.9,292.7z M-292.4,297.3
	C-292.7,297.5-292.1,296.9-292.4,297.3L-292.4,297.3z M-306.2,276.1c1.7,0,3.8-0.3,3.4,1.7c-1.2,1.2-1.6-0.3-3.4,0
	C-306.2,277.3-306.2,276.7-306.2,276.1z M-309.6,277.8C-309.2,277.5-309.8,278.1-309.6,277.8L-309.6,277.8z M-329,260.7
	c-1.6,0.3,0.4-3.1-1.1-2.9C-328.3,255.9-327.1,260-329,260.7z M-322.7,259.5c-1.3,4.1-3.3,7.4-8,8
	C-330.6,263.7-327.6,258.2-322.7,259.5z M-338.2,254.4c-0.1,1-1,1.3-2.3,1.1C-341,253.8-339.2,254.5-338.2,254.4z M-359.9,224.7
	c0.7,0.2,1.2,0.7,1.1,1.7C-359.4,226.1-359.9,225.7-359.9,224.7z"/>
</svg>
