<?xml version="1.0" encoding="utf-8"?>
<!-- Generator: Adobe Illustrator 19.0.0, SVG Export Plug-In . SVG Version: 6.00 Build 0)  -->
<svg version="1.1" id="Layer_1" xmlns="http://www.w3.org/2000/svg" xmlns:xlink="http://www.w3.org/1999/xlink" x="0px" y="0px"
	 viewBox="-375 203 208.3 176" style="enable-background:new -375 203 208.3 176;" xml:space="preserve">
<style type="text/css">
	.st0{fill:#D22730;}
</style>
<path class="st0" d="M-270.8,304l-2.6,2.7c0,0.5-0.1,1.1-0.4,1.8c0.6,1.3,3.1-1.2,4,0.6c-1.9,2.4-6.5,4.6-9.9,4.1l3.8-3.8l-4.4,4.5
	l0.3-0.3c0.1,1.4-0.6,3.7,0.5,4.1c-0.8,0.4-1.6-0.8-2.8-1.8l-61.7,63.2h99.9c0-0.1,0-0.2,0-0.3c0.3,0,0.5,0.1,0.6,0.3h31.5
	c-0.1-0.4-0.2-0.8-0.6-0.8c0.8-1.6,3-1.8,4.6-1.1c0.1,1-0.3,1.6-0.8,2h11.4L-270.8,304z M-324.1,361.6c-0.4,0-0.8,0-1.1,0
	c0-0.4,0-0.8,0-1.1c0.4,0,0.8,0,1.1,0C-324.1,360.8-324.1,361.2-324.1,361.6z M-316.7,359.3c-0.4,0-0.8,0-1.1,0c0-0.4,0-0.8,0-1.1
	c0.4,0,0.8,0,1.1,0C-316.7,358.6-316.7,358.9-316.7,359.3z M-313.8,350.7c1.4-0.5,1.7-2.1,4-1.7C-309.5,351.3-312,350.7-313.8,350.7
	z M-305.3,358.2c1.3-0.2,2.2,0.1,2.9,0.6C-302.3,359.7-306.1,359.9-305.3,358.2z M-299,346.7c-1.5,0.6-3.3,0.4-3.4-1.7
	c1.5-0.2,2-1.4,3.4-1.7C-299,344.5-299,345.6-299,346.7z M-297.8,345.6c1.7,0,1.4,2.1,3.4,1.7c-0.2,1.2-1.1,1.5-1.7,2.3
	C-297.3,348.8-297.4,347.1-297.8,345.6z M-295.5,378.7c-1.4-0.4-0.3-2.9,1.1-2.3C-294,378-295.5,377.6-295.5,378.7z M-289.3,362.7
	C-287.5,362.9-289.8,365.1-289.3,362.7L-289.3,362.7z M-280.7,349c-0.4,0-0.8,0-1.1,0c0-0.4,0-0.8,0-1.1c0.4,0,0.8,0,1.1,0
	C-280.7,348.3-280.7,348.6-280.7,349z M-259.6,322.2c0.3,2.4-1.4,2.7-3.4,2.9C-263.5,322.4-262,321.8-259.6,322.2z M-266.4,325.6
	c0-0.8,0-1.5,0-2.3C-264.2,322.9-264.2,326-266.4,325.6z M-269.3,312.5C-267.6,312.6-269.8,314.8-269.3,312.5L-269.3,312.5z
	 M-265.8,321c-1.6,2.8-5.3,1.1-5.1-2.3C-267.5,316.9-267.6,318.7-265.8,321z M-272.7,318.7c0.1,1.2-0.5,1.8-1.7,1.7
	C-274.5,319.2-273.9,318.6-272.7,318.7z M-277.8,363.3c-0.5-0.1-0.6-0.6-1.1-0.6c0.1-0.5,0.6-0.6,0.6-1.1c0.5,0.1,0.6,0.6,1.1,0.6
	C-277.4,362.6-277.8,362.7-277.8,363.3z M-277.3,322.7c-0.6,0-1.1,0-1.7,0c0.2-2.4-0.8-2.2,0-4c0.5,1,2.1,2,1.7-0.6
	c1-0.1,1.2,0.7,2.3,0.6C-276.4,321.3-277.3,320.2-277.3,322.7z M-275,343.9c-0.4,0-0.8,0-1.1,0c0-0.4,0-0.8,0-1.1c0.4,0,0.8,0,1.1,0
	C-275,343.1-275,343.5-275,343.9z M-275.5,323.3c0.5-1.6,2.9-1.3,4.6-1.7C-271.6,323.1-273.9,324.7-275.5,323.3z M-271.5,323.9
	c1,0.7,3,0.4,3.4,1.7c-1,1.6-2.4-2-3.4,0.6C-273,326-270.8,325.2-271.5,323.9z M-268.7,345.6c-1.9,0-3.8-1.7-2.3-3.4
	C-269.7,342.8-268.9,343.9-268.7,345.6z M-265.8,362.2C-254.4,359.3-261.5,370.3-265.8,362.2L-265.8,362.2z M-259.6,359.9
	C-259.3,359.6-259.9,360.3-259.6,359.9L-259.6,359.9z M-259.6,354.7c1.4-1.2-0.5-2.5,0.6-3.4c0.8,0,1.5,0,2.3,0
	C-256.8,353.3-257.2,355-259.6,354.7z M-251,336.5c-1.6-0.5-1.5,0.8-2.9,0.6c2.8,3.5-1,4.9-0.6,9.1c-0.9,0-1.9,0-2.9,0
	c0.7,2-2.1,3.4-2.9,5.7c-1.7,0-3.5,0.1-3.4-1.7c-1.6,0.3-2.7,2.9-4.6,1.1c-0.2-1.3,1.7-0.6,1.7-1.7c-0.6,0.1-3.2-0.6-2.9,2.3
	c-2.3-0.1-2.2-2.8-2.3-5.1c0.9,0,2.2,0.3,2.3-0.6c1.1,0.1,0.4,1.9,1.7,1.7c1.1-2,3.8-2.3,5.1-4c0.2-0.9-0.5-1-0.6-1.7
	c-0.1,2.1-1.2,1.1-2.9,3.4c-1.6-2.3-0.9-4.7-3.4-5.1c0.2-1.7,1.2-2.6,2.9-2.9c0.4,0.5,0.6,1.3,0.6,2.3c2.3,0.6,2.5-0.9,3.4-1.7
	c0-1-2.9,0.6-2.9-1.7c2.8,1,5.1-2.2,6.3-4.6c1,1.5,3.8,1.6,2.3,4c1.8,0.1,2-1.5,2.3-2.9C-251.8,332.7-250.7,333.9-251,336.5z
	 M-249.8,369c0.6-0.5,0.2-2.1,1.7-1.7C-248,368.6-248.6,369.1-249.8,369z M-240.1,352.5C-238.4,352.6-240.7,354.8-240.1,352.5
	L-240.1,352.5z M-238.4,371.3c-0.5,0.9-1.4,1.2-2.9,1.1C-243.1,370.1-239.1,369.4-238.4,371.3z M-239,369
	C-238.7,368.8-239.3,369.4-239,369L-239,369z M-240.7,373c0.2,0.9-0.5,1-0.6,1.7C-242.4,375-242.1,372.1-240.7,373z M-240.7,377
	c0.1-1.5,2.1-1.3,2.9-0.6C-238.4,377.4-239.8,377.9-240.7,377z M-239,373.6c0.2-1.3,2.5-0.3,2.9,0
	C-236.3,374.9-238.6,373.9-239,373.6z M-236.7,367.3c-1.2,0.2-1.5-0.4-2.3-0.6c-0.3-1.8,1.2-1.8,2.9-1.7
	C-235.9,366.2-236.5,366.5-236.7,367.3z M-233.3,370.7c-1.3,0.1-1.8-0.5-1.7-1.7C-234.4,369.6-232.9,369.2-233.3,370.7z
	 M-227.5,366.7C-226.2,368.7-229.5,365.4-227.5,366.7L-227.5,366.7z M-219,361C-218.7,360.8-219.3,361.4-219,361L-219,361z
	 M-203.5,378.2c-0.4,0-0.8,0-1.1,0c0-0.4,0-0.8,0-1.1c0.4,0,0.8,0,1.1,0C-203.5,377.4-203.5,377.8-203.5,378.2z M-201.8,375.9
	C-200.1,376-202.4,378.3-201.8,375.9L-201.8,375.9z"/>
<path class="st0" d="M-355.1,308.8c0.1-0.3,0.1-0.6,0.1-0.9c0.3,0,0.4,0.2,0.4,0.4l2.1-2.1c-0.2,0.1-0.5,0.1-0.8,0
	c-0.1-1.2,0.5-1.8,1.7-1.7c0,0.3,0,0.6,0,0.8l20-20.3l-0.4,0.4c-0.2-0.1-0.4-0.2-0.7-0.3c0.1-1.6-0.3-3.7,0.6-4.6
	c0.4,1.2,0.9,2.5,1.4,3.7l60-60.8l67.7,68.6c0.8,0,1.7,0.1,2.4,0.5c-0.1,0.6-0.6,0.3-0.6,0c-0.9,0.3-0.1,0.9,0.4,1.7l-2.1-2.1
	l16.5,16.7h19.8L-270.8,203l-4,4c0.4,0.2,0.7,0.5,0.9,0.9c-0.8,0.5-1.4,0.5-2,0.2l0,0l-28.5,28.9c0.2,0,0.5,0,0.7,0
	c0,0.8,0,1.5,0,2.3c-1.5,0.5-1.2-0.9-1.1-1.9l0.3-0.3l-24.2,24.6c0.6,0.5,0.9,1.2,1,2.2c-1-0.1-1.7-0.4-2.2-1l-45.3,46h19.8
	L-355.1,308.8z M-191.5,290.2C-191.3,289.9-191.9,290.5-191.5,290.2L-191.5,290.2z M-192.7,290.2
	C-192.4,289.9-193.1,290.5-192.7,290.2L-192.7,290.2z M-198.4,286.7C-195.7,287.6-197.6,289.6-198.4,286.7L-198.4,286.7z
	 M-199.5,289c0.4,0,0.8,0,1.1,0c0,0.4,0,0.8,0,1.1c-0.4,0-0.8,0-1.1,0C-199.5,289.8-199.5,289.4-199.5,289z M-201.3,287.3
	C-199.2,288.3-203.1,289.1-201.3,287.3L-201.3,287.3z M-206.4,270.2C-204.7,270.3-207,272.5-206.4,270.2L-206.4,270.2z
	 M-207.4,267.4l1,1c-0.6,1-1.2,1.9-2.8,1.8C-209.2,268.7-208.6,267.7-207.4,267.4z M-224.7,252.5
	C-222.7,253.4-226.6,254.2-224.7,252.5L-224.7,252.5z M-229.3,250.2C-229.6,250.5-229,249.9-229.3,250.2L-229.3,250.2z
	 M-240.7,250.2C-240.4,249.9-241.1,250.5-240.7,250.2L-240.7,250.2z M-244.1,244.5c1.5,0.1,2.2,0.8,2.3,2.3c-1,0-1.9,0-2.9,0
	C-244.8,245.7-244,245.5-244.1,244.5z M-251,237.6c0.4,0,0.8,0,1.1,0c0.2,1.1-0.1,1.8-1.1,1.7C-251,238.7-251,238.2-251,237.6z
	 M-260.1,229C-258.2,229.9-262.3,230.5-260.1,229L-260.1,229z M-290.4,230.2C-290.8,230.5-290.2,229.9-290.4,230.2L-290.4,230.2z
	 M-283.5,227.3C-282.2,229.2-285.5,225.9-283.5,227.3L-283.5,227.3z M-286.4,238.7c0.1,0.1,0.2,0.1,0.2,0.1l-0.3,0.3
	C-286.5,239.1-286.5,238.9-286.4,238.7z M-289.8,228.5c-1.2,0.3-1.1-0.8-1.1-1.7C-290.3,227-289.8,227.5-289.8,228.5z M-296.1,231.3
	C-295.9,231.1-296.5,231.7-296.1,231.3L-296.1,231.3z M-302.4,255.3C-302.4,255.3-302.4,255.4-302.4,255.3l-1,1
	c-0.2,0.1-0.4,0.1-0.7,0.1C-304.2,254.9-303.2,254.5-302.4,255.3z M-313.8,252.5c0.4,0,0.8,0,1.1,0c0,0.4,0,0.8,0,1.1
	c-0.4,0-0.8,0-1.1,0C-313.8,253.2-313.8,252.8-313.8,252.5z M-322.4,273C-322.2,272.8-322.8,273.4-322.4,273L-322.4,273z
	 M-323,271.9C-322.7,271.6-323.3,272.3-323,271.9L-323,271.9z M-332.1,278.2c-0.3,1.7-1.2,2.6-2.9,2.9
	C-335.2,278.4-334,277.2-332.1,278.2z M-335.5,277.6c-0.3-0.5-0.6-0.9-0.6-1.7c1.7,0.1,1.4,2.7-0.6,2.3
	C-336.7,277.6-336,277.7-335.5,277.6z M-341.3,285.6C-341,285.4-341.6,286-341.3,285.6L-341.3,285.6z M-343.5,283.3
	C-342.2,285.2-345.5,281.9-343.5,283.3L-343.5,283.3z M-353.3,288.5C-351,289.9-355.2,289.3-353.3,288.5L-353.3,288.5z
	 M-360.7,304.5C-359,304.6-361.2,306.8-360.7,304.5L-360.7,304.5z M-358.4,307.3c-0.4,0-0.8,0-1.1,0c0-0.4,0-0.8,0-1.1
	c0.4,0,0.8,0,1.1,0C-358.4,306.6-358.4,306.9-358.4,307.3z M-364.1,303.3c-0.9-3.3,0.2-3.3,1.1-5.7c3,0.6,4.6,2.6,5.1,5.7
	C-359.8,304.5-362.8,303.3-364.1,303.3z M-357.3,303.3c0-0.4,0-0.8,0-1.1c0.5,0.1,0.5-0.2,0.6-0.6
	C-355.6,301.4-355.9,304.2-357.3,303.3z"/>
<path class="st0" d="M-183,342.5c-1.1,0.2-1.4,1.2-2.9,1.1c0.1-1.4-0.9-1.8-1.1-2.9c-2.4-0.3-1.1,3.1-4,2.3
	c-1.6-1.4,1.1-3.7-0.6-5.1c-1.4-0.2,0.3,2.6-1.7,1.7c0-1.1,0-2.3,0-3.4c2.2,0.8,2.8-0.1,3.2-1.2l1.8,1.9c-0.5,0.6-1,1.1-1.6,1.6
	c1.2,1.2,3,1,4.6,2.9c0.4-0.1,0.5-0.5,0.5-0.9l-86.1-87.5l-34.6,35.2c0.2,0,0.5,0,0.7,0c0,0.4,0,0.8,0,1.1c-0.4,0-0.8,0-1.1,0
	c0-0.2,0-0.5,0-0.7l-22,22.3c0.6,0.9,1.7,1.2,2,2.4c-2.2-1.3-2.1,0.7-4.6,0.6c-0.1-0.1-0.1-0.1-0.1-0.2l-13.7,13.9c0,0,0,0,0.1,0
	c-0.3,3.7-0.2,4.2,0.6,7.4c-1.8-1.8-1.9,1-4,0.6c-0.2-1.9-0.1-2.9-0.5-4.1l-4.4,4.5c0.1,0.1,0.2,0.1,0.3,0.2
	c0.8,1.2-0.1,0.4-0.5-0.1l0,0l-12.3,12.5l10.1-10.2c0.1,0,0.2,0.1,0.4,0.1c0.5,2.2-2.5,0.9-1.7,3.4c0.3,0.9,0.7-0.2,1.7,0
	c0.3,1.9-0.4,2.7-0.6,4c1.6,1.7,4.9-2,6.9,0c-0.9,1.7-3.3,2-5.1,2.9c0,1.1,1.6,0.7,1.1,2.3c-1.5,0.2-1.9-0.8-1.7-2.3
	c-3.2,2.1-6.2,0.7-10.9,2.9c0.7-1.3,0.3-2.1-0.6-2.6l-9.7,9.9h19.8l53.1-53.9c-1.9-1.8-5.2-2.2-7.7-0.9c1-2.9-1.5-2.3-1.7-4
	c4.8-0.6,8.6,0,11.3,3l-0.5,0.5l29.9-30.3l15.2,15.4l-1.9-1.9c0.6-0.3,1.4-0.5,2.5-0.4c-2.1,3.7,2,2,2.3,4.6
	c-0.3-0.1-0.5-0.1-0.8-0.2l65.1,66.1c0.1-0.4,0.2-0.8,0.3-1.3c2.6,0.5,2.8,1.9,3.1,3.2h18.3l-16.3-16.6
	C-183,342.3-183,342.4-183,342.5z M-349.8,335C-349.6,334.8-350.2,335.4-349.8,335L-349.8,335z M-355,358.5c-1-0.1-1.3-1-1.1-2.3
	C-354.4,355.6-355.1,357.4-355,358.5z M-328.1,314.5C-327.9,314.2-328.5,314.8-328.1,314.5L-328.1,314.5z M-305.8,305.9
	c-0.1,1.4-1.9,0.2-2.3,0C-308,304.5-306.2,305.7-305.8,305.9z M-323.5,311C-321.8,311.1-324.1,313.4-323.5,311L-323.5,311z
	 M-319.5,313.9c-0.7-1.8,0.9-1.4,1.1-2.3c0.8,0.2,0.5,1.4,0.6,2.3C-318.4,313.9-319,313.9-319.5,313.9z M-315,311
	C-313.3,311.1-315.5,313.4-315,311L-315,311z M-295,293.9c-1.7,0.8-3.5-2-3.4,0.6c-1.7-0.1-1.7-5.6,0-5.7
	C-297.1,290.3-294.8,290.8-295,293.9z M-293.8,290.5c-1.5,0.2-2.5-0.2-2.3-1.7C-294.6,288.6-293.7,289-293.8,290.5z M-292.7,279
	C-291,279.1-293.2,281.4-292.7,279L-292.7,279z M-291.5,292.2c0.1-1-0.7-1.2-0.6-2.3c1.8-0.3,2.2,0.8,3.4,1.1
	C-289.2,291.9-290.5,291.9-291.5,292.2z M-289.8,280.2c0.1-4.4,3.2-5,5.7-3.4C-284.2,280.7-287.6,279.4-289.8,280.2z M-275,276.2
	C-274.7,275.9-275.3,276.5-275,276.2L-275,276.2z M-261.8,281.9C-261.6,281.6-262.2,282.3-261.8,281.9L-261.8,281.9z M-249.8,289.3
	c-0.4,0-0.8,0-1.1,0c0-0.4,0-0.8,0-1.1c0.4,0,0.8,0,1.1,0C-249.8,288.6-249.8,288.9-249.8,289.3z M-249.3,284.7
	C-249,284.5-249.6,285.1-249.3,284.7L-249.3,284.7z M-235.5,305.9c-1.7,0-3.8,0.3-3.4-1.7c1.2-1.2,1.6,0.3,3.4,0
	C-235.5,304.7-235.5,305.3-235.5,305.9z M-232.1,304.2C-232.5,304.5-231.9,303.9-232.1,304.2L-232.1,304.2z M-212.7,321.3
	c1.6-0.3-0.4,3.1,1.1,2.9C-213.4,326.1-214.6,322-212.7,321.3z M-219,322.5c1.3-4.1,3.3-7.4,8-8C-211.1,318.3-214.1,323.8-219,322.5
	z M-203.5,327.6c0.1-1,1-1.3,2.3-1.1C-200.7,328.2-202.5,327.5-203.5,327.6z M-181.8,357.3c-0.7-0.2-1.2-0.7-1.1-1.7
	C-182.3,355.9-181.8,356.3-181.8,357.3z"/>
</svg>
