<?xml version="1.0" encoding="utf-8"?>
<!-- Generator: Adobe Illustrator 19.0.0, SVG Export Plug-In . SVG Version: 6.00 Build 0)  -->
<svg version="1.1" xmlns="http://www.w3.org/2000/svg" xmlns:xlink="http://www.w3.org/1999/xlink" x="0px" y="0px"
	 viewBox="-462.3 243.8 53.9 53.9" style="enable-background:new -462.3 243.8 53.9 53.9;" xml:space="preserve">
<style type="text/css">
	.st0{display:none;}
	.st1{display:inline;}
	.st2{fill:#D22730;}
</style>
<g id="Layer_1" class="st0">
	<g id="XMLID_3161_" class="st1">
		<path id="XMLID_3162_" class="st2" d="M-454.1,277.4c0-0.1-0.1-0.3-0.1-0.4C-454.2,277.2-454.1,277.3-454.1,277.4z"/>
		<path id="XMLID_3165_" class="st2" d="M-440.3,285.2c-1.5-0.6-2.9-1.3-4.1-2.3c0.1,0,0.1,0.1,0.2,0.1c0,0,0,0,0,0
			c-0.1,0-0.1,0-0.2,0c0-0.1,0-0.1,0-0.2c-0.1-0.1-0.2-0.2-0.4-0.3c-0.1,0.2-0.3,0.3-0.5,0.3c0-0.2,0.1-0.3,0.2-0.5
			c0.1,0.1,0.1,0.1,0.2,0.2c-0.7-0.6-1.3-1.2-1.8-1.8c0.1,0.1-0.1,0.4-0.3,0.1c0-0.1,0-0.1,0-0.2c0.1,0,0.2,0,0.2,0c0,0,0,0,0,0
			c-0.3-0.4-0.7-0.8-1-1.2c-0.1,0-0.2,0.1-0.3,0.1c0-0.1,0.1-0.1,0.2-0.2c0,0,0,0.1,0.1,0.1c-0.8-1.1-1.5-2.4-1.9-3.7h-5
			c0.1,0.4,0.2,0.8,0.4,1.2c0.1,0,0.1,0,0.2,0c0,0.2,0,0.3,0,0.4c0.4,1.2,0.9,2.4,1.6,3.4c-0.1-0.1-0.1-0.2-0.2-0.4
			c0.1,0.1,0.2,0.1,0.2,0.2c0-0.3,0.4,0.1,0,0c0,0,0,0.1,0,0.1c1.5,2.6,3.6,4.8,6.1,6.5c0-0.1,0-0.2,0-0.3c0.3,0,0,0.2,0.1,0.4
			c0.5,0.4,1.1,0.7,1.6,1c-0.1-0.5,0.5-0.5,0.4,0c-0.2-0.2-0.1,0-0.4,0c0,0,0,0,0,0c0.3,0.2,0.7,0.4,1,0.5c0.1-0.1,0.2-0.1,0.3-0.1
			c0,0.1-0.1,0.1-0.2,0.2c1.1,0.5,2.2,0.9,3.3,1.2v-4.2c0,0-0.1,0-0.1,0c-0.1-0.2,0-0.3,0.1-0.5v-0.3
			C-440.3,285.5-440.4,285.3-440.3,285.2z M-453,276.6c0-0.2,0.2-0.2,0.4-0.2C-452.6,276.6-452.8,276.6-453,276.6z M-448.8,281
			c-0.1,0.1-0.2,0.2-0.3,0.2c0,0.2,0.4,0,0.6,0.1c-0.1,0.6,0.5,0.7,0.1,1c-0.4,0-0.6-0.4-0.4,0.1c-0.3-0.3-0.7-0.7-0.8-1.2
			C-449.3,281.2-448.9,280.9-448.8,281z M-450,280.8c0,0.2-0.1,0.2-0.1,0.3C-450.3,281.2-450.3,280.7-450,280.8z M-450.2,279.6
			c0,0.2-0.1,0.2-0.1,0.4c-0.3,0.1-0.3-0.1-0.5-0.1C-450.8,279.6-450.5,279.3-450.2,279.6z M-452,280.6c-0.1,0-0.1,0-0.2,0
			c0-0.1,0-0.1,0-0.2c0.1,0,0.1,0,0.2,0C-452,280.5-452,280.6-452,280.6z M-451.6,279.2c-0.2,0.4-0.2-0.1-0.6,0.1
			c0.1-0.9,0.5-1.5,0.7-2.3c0.4,0.7-0.3,1.8,0.6,2c0.1,0.4-0.1,0.5-0.2,0.7C-451.3,279.6-451.4,279.4-451.6,279.2z M-450.1,283.7
			c-0.1-0.2-0.3-0.3-0.2-0.6c-0.2,0-0.4,0-0.6,0c-0.2-0.9,0.5-1,1.1-1.4c0.3,0.9,0.6,1.3,0.1,2.1
			C-449.9,283.6-449.8,283.7-450.1,283.7z M-449.1,285.1c-0.1,0.1-0.5-0.4-0.6-0.7C-448.8,282.7-447.7,284.9-449.1,285.1z
			 M-448.4,284.7c0.2,0,0.3,0.1,0.4,0.1C-448,285.1-448.4,285-448.4,284.7z M-445,283.4C-445.5,283.3-445,282.9-445,283.4
			L-445,283.4z M-445.8,285.5C-445.8,285.4-445.7,285.5-445.8,285.5L-445.8,285.5z M-446,285.6c0,0,0,0.1-0.1,0.2
			C-446.2,286-446,285.7-446,285.6z M-447.1,281C-447.2,281-447.1,281.1-447.1,281L-447.1,281z M-447.5,282.2
			C-447.9,282.4-447.3,281.8-447.5,282.2L-447.5,282.2z M-446.8,285.8c0.2,0.2-0.2,0.5-0.5,0.5C-447.5,285.8-446.9,286-446.8,285.8z
			 M-445.5,287C-445.6,287.4-445.7,286.6-445.5,287L-445.5,287z M-444.9,286.5C-444.9,286.6-445,286.5-444.9,286.5L-444.9,286.5z
			 M-446.1,286.9c-0.4-0.2-0.4-0.4-0.9-0.2c-0.1-0.9,1.1-0.8,1.1-0.7c-0.3,0.1,0.1,0.2-0.1,0.4c0.3-0.2,0.5-0.4,0.7-0.7
			c0.2,0.1,0.3,0.2,0.4,0.2C-444.9,287-446.1,286.1-446.1,286.9z M-443.7,287.5C-443.7,287.8-444.1,287.4-443.7,287.5L-443.7,287.5z
			 M-444.3,286.8c0-0.4,0.3-0.4,0.3-0.7c-0.3-0.3-0.7-1-0.5-1.8c0.4,0.1,0.4,0,0.8-0.1c0.1,0.4,0.4,0.6,0.3,1.2
			c-0.3,0-0.5,0.1-0.4,0.4c0.1,0.1,0.4,0.2,0.5,0.3C-443.4,286.7-443.8,286.8-444.3,286.8z M-443.4,285.6
			C-443.4,285.6-443.5,285.5-443.4,285.6L-443.4,285.6z M-443.3,288.2C-443.4,288.1-443.2,288.2-443.3,288.2L-443.3,288.2z
			 M-443,287.4c-0.3-0.1,0-0.3,0.1-0.4C-442.6,287-442.9,287.3-443,287.4z M-442.6,289C-443,289-442.5,288.4-442.6,289L-442.6,289z
			 M-442.5,288.6c-0.2,0-0.2-0.5,0.1-0.3C-442.3,288.4-442.5,288.5-442.5,288.6z M-442.2,285.8c-0.2,0-0.3-0.1-0.3-0.3
			C-442.2,285.4-442.1,285.5-442.2,285.8z M-441.6,287.9c-0.2,0-0.2-0.5,0.1-0.3C-441.5,287.7-441.6,287.7-441.6,287.9z"/>
		<path id="XMLID_3203_" class="st2" d="M-442.3,253.3c-0.4,0,0-0.8-0.6-0.6c0-0.3,0.4-0.7,0.6-0.4c0-0.1,0-0.2,0-0.2
			c0.1,0,0.1,0,0.2-0.1c-1.9,0.7-3.6,1.7-5.2,2.9c0.2,0,0.5-0.1,0.7,0c0.1,0.5,0.3,0.8,0.5,1.2c-0.3-0.3-0.5,0.5-0.3,0.7
			c-0.2,0.2-0.7-0.1-1.2,0.2c-0.1-0.6,0.3-0.6,0.1-1c-0.5,0-0.3,0.7-0.5,1c-0.4-0.2-0.5-0.6-0.8-0.8c0.5-0.5,1-0.9,1.5-1.3
			c-0.6,0.5-1.2,1-1.8,1.6c0.1,0.2,0,0.4-0.1,0.5c-0.2,0-0.2-0.1-0.3-0.1c0,0,0,0,0,0c0.1-0.1,0.3-0.3,0.4-0.4
			c-0.4,0.4-0.8,0.8-1.1,1.2c0,0.2,0,0.3,0,0.5c-0.2,0-0.3,0-0.4,0c0,0,0-0.1,0.1-0.1c-1.8,2.2-3.2,4.8-4,7.7h5
			c1.5-4.3,4.9-7.6,9.2-9.3c0-0.1,0.1-0.2,0.1-0.3v-2c0,0,0,0,0,0c-0.3,0,0-0.4,0-0.4c-0.1-0.1-0.2-0.1-0.5-0.2c0-0.1,0-0.3,0-0.4
			c0.2,0,0.4,0,0.5-0.1v-1.7c-0.6,0.2-1.2,0.4-1.8,0.6C-442,252.3-442.1,252.8-442.3,253.3z M-450.3,261.2
			C-450.7,261.4-450.1,260.8-450.3,261.2L-450.3,261.2z M-453.2,264c-0.2,0,0-0.1,0-0.3c0.2,0,0.2,0.1,0.3,0.1
			C-452.9,263.9-453.2,263.8-453.2,264z M-451.2,260c0-0.1,0.1-0.2,0.3-0.2C-450.9,259.9-451,260-451.2,260z M-450.8,263.2
			c0.1-0.2,0.4-0.2,0.4-0.4C-450.2,262.9-450.7,263.4-450.8,263.2z M-449.9,263.6c-0.3,0.1-0.3-0.1-0.5-0.1c0.3-0.1,0.2-0.6,0.6-0.6
			C-449.8,263.1-449.8,263.4-449.9,263.6z M-449.6,261.4c-0.1,0-0.2-0.2-0.3-0.2c0.1-0.3,0.1-0.6,0.5-0.5
			C-449.5,260.9-449.3,261.2-449.6,261.4z M-449.1,260.9C-449.4,261.1-448.8,260.5-449.1,260.9L-449.1,260.9z M-449,260
			c-0.1,0-0.1,0-0.2,0c0-0.1,0-0.1,0-0.2c0.1,0,0.1,0,0.2,0C-449,259.8-449,259.9-449,260z M-447.9,260.8
			C-447.9,260.8-448,260.7-447.9,260.8L-447.9,260.8z M-447.6,259.9C-447.7,259.8-447.6,259.9-447.6,259.9L-447.6,259.9z
			 M-447.6,257.9c0.3,0.3,0.4-0.1,0.7-0.1c0.1,0.2,0.3,0.3,0.2,0.6c-0.2,0.2-0.4,0.3-0.8,0.3C-447.5,258.2-447.4,258.2-447.6,257.9z
			 M-446.7,259.3C-446.7,259.4-446.8,259.3-446.7,259.3L-446.7,259.3z M-443.4,252.8C-443.4,253.1-443.8,252.7-443.4,252.8
			L-443.4,252.8z M-444.5,258.2C-444.5,258.2-444.6,258.1-444.5,258.2L-444.5,258.2z M-444.2,255.6c0,0.5-0.6,0.3-0.5,0.8
			c-0.5-0.8-0.9-3.3,0.7-1.9C-444.3,254.9-444.6,255.2-444.2,255.6z M-443.4,256.2c-0.4-0.2-0.2-0.3-0.3-0.7
			c0.2,0.3,0.3,0.2,0.5,0.3C-443.1,256.1-443.4,256-443.4,256.2z M-443.1,254C-443.5,253.6-442.8,253.6-443.1,254L-443.1,254z
			 M-442.6,255C-442.6,254.9-442.5,255-442.6,255L-442.6,255z M-442.5,254.6C-442.5,254.9-442.9,254.5-442.5,254.6L-442.5,254.6z
			 M-440.4,254.2C-440.5,254.1-440.4,254.2-440.4,254.2L-440.4,254.2z M-442.1,254.8c-0.3-0.4-0.4-0.2-0.2-0.7c0.4,0.5,0.6,0,1.3,0
			C-441.2,254.6-441.8,254.5-442.1,254.8z M-440.9,253C-440.9,253.1-441,253-440.9,253L-440.9,253z M-440.8,253.6
			C-440.9,253.6-440.8,253.7-440.8,253.6L-440.8,253.6z M-440.7,252.4c0.1,0.4-0.6,0.2-0.6,0.5
			C-441.7,252.6-440.8,252.2-440.7,252.4z"/>
		<path id="XMLID_3229_" class="st2" d="M-437.1,261.2c0,0.2,0,0.4-0.1,0.5h2.7c0.1,0,0.2-0.1,0.3-0.1c0,0,0,0.1,0,0.1h1.9V256
			c-0.3,0-0.6,0-0.8-0.2c0.1-0.5,0.2-1.1,0.4-1.6c0.1,0.1,0.3,0.2,0.4,0.3v-0.8c0,0,0,0.1-0.1,0.1c-0.7-0.5-0.8-0.9-0.7-1.8
			c0.2,0,0.2,0.1,0.2,0.3c0.2,0,0-0.5,0.2-0.6c0.2,0.2,0.2,0.8,0.4,1.1v-1.5c-0.1-0.1-0.2-0.1-0.3,0.1c-0.2-0.1,0.1-0.5,0.3-0.6
			v-0.1c0,0,0,0-0.1,0c-0.1-0.4-0.3-0.7-0.4-1c0.2-0.1,0.3-0.1,0.5-0.1v-0.7c-0.2,0-0.2-0.2-0.4-0.3c0.2-0.2,0.1-0.3,0.4-0.3v-1.8
			c-0.1-0.5-0.3-0.7-0.8-0.7c0,0.4,0,0.7-0.3,0.8c-0.1-0.2-0.1-0.5-0.3-0.6c-0.1,0.3-1.2,0.4-1.3,0.3c0.4-0.6,1.2-0.1,1.7-0.6
			c-0.3-0.3-0.3-0.3-0.6-0.3c0.2-0.2,0.5-0.3,0.4-0.8c-0.4-0.1-0.3,0.4-0.5,0.5c-0.3-0.2,0.2-0.6-0.1-0.8c-0.1,0.7-0.1,1.2-0.8,1.3
			c-0.1-0.2-0.1-0.4-0.1-0.6c-0.1,0.6-0.2,0.8,0,1.3c-1-0.4-0.9,0-2.1,0.4c0-0.5,0.6-0.4,0-0.6c0-0.5,0.4,0.1,0.4-0.3
			c-0.3,0-0.3-0.1-0.3-0.4c-0.1,0-0.1,0.2-0.1,0.3c-0.3-0.1,0.2-0.8-0.3-1.1c0.1,0.2,0,0.3-0.2,0.5v3c0-0.1,0-0.1,0.1-0.2
			c0.1,0,0.1,0,0.2,0c0,0.2-0.1,0.2-0.1,0.3c-0.1,0-0.2-0.1-0.2-0.1v5.4c0.5,0,1.1-0.2,1.1-0.6c0.5,0.3,0,1.2,1,1.1
			c0.1,0.4,0,0.4,0,0.8c-0.8-0.3-0.8,0-1.4,0.1c0,0.2,0.1,0.2,0.3,0.2c-0.1,0.4-0.5,0.5-0.8,0.6c-0.3-0.5-0.2-1,0.2-1.2
			c0.1-0.3-0.2-0.2-0.3-0.3c0,0,0,0.1-0.1,0.1v2.9c0.1,0.1,0.1,0.1,0,0.2v3.8C-437.3,261.2-437.4,261.3-437.1,261.2z M-432.7,254.2
			C-432.8,254.1-432.7,254.2-432.7,254.2L-432.7,254.2z M-432.7,247.9c0,0.5-0.1,0.8-0.5,0.7C-433.3,248.1-433.1,247.9-432.7,247.9z
			 M-433.4,249.8c0,0.2-0.1,0.2-0.1,0.3C-433.7,250.2-433.6,249.7-433.4,249.8z M-434,259.2C-433.9,259.3-434.1,259.2-434,259.2
			L-434,259.2z M-436.7,251.6c-0.1,0-0.2,0-0.3,0c-0.2-0.2,0-0.5,0-0.8c0.2,0,0.2,0.1,0.4,0.1C-436.5,251.2-436.7,251.3-436.7,251.6
			z M-436.9,248.5c0.2,0.1,0.4,0.2,0.2,0.4C-436.9,248.9-436.9,248.7-436.9,248.5z M-436.4,250c-0.2,0-0.3,0-0.3-0.2
			c0.1,0,0.2,0,0.3,0C-436.4,249.9-436.4,250-436.4,250z M-436.7,246.8c0.1-0.8,1.4,0.1,0.7,0.4
			C-436.3,247.2-436.1,246.6-436.7,246.8z M-436.1,253.4C-436,253.5-436.1,253.4-436.1,253.4L-436.1,253.4z M-436.2,248.8
			c-0.3-0.1,0-0.3,0.1-0.4C-435.8,248.4-436.2,248.6-436.2,248.8z M-436,248.1C-436,248-435.9,248.1-436,248.1L-436,248.1z
			 M-435.8,248c-0.5-0.1,0-0.6,0.1-0.7C-435.5,247.4-435.8,247.8-435.8,248z M-436,260.8C-436.1,261.1-436.3,260.4-436,260.8
			L-436,260.8z M-436,260.2C-435.9,260.2-436,260.1-436,260.2L-436,260.2z M-435.3,260.9c-0.3,0.2-0.3-0.5,0-0.3
			C-435.3,260.7-435.3,260.8-435.3,260.9z M-435,261.6c0-0.3,0.1-0.3,0.4-0.3C-434.7,261.4-434.7,261.7-435,261.6z M-434.7,257.5
			c0,0.2-0.1,0.2-0.1,0.3C-435,257.8-435,257.3-434.7,257.5z M-435,247.4C-435,247.8-435.5,247.3-435,247.4L-435,247.4z
			 M-434.8,249.5c-0.1,0.2-0.3,0.3-0.5,0.3C-435.3,249.6-435,249.3-434.8,249.5z M-435.3,255c0.1,0,0.1,0,0.2,0c0,0.1,0,0.1,0,0.2
			c-0.1,0-0.1,0-0.2,0C-435.3,255.1-435.3,255.1-435.3,255z M-435.5,256c0,0.3,0,0.4-0.3,0.4C-435.8,256.2-435.8,256-435.5,256z
			 M-436,258.7c0.7,0.2,0.9,0.9,1.6,0.6c0,0.5-0.2,0.7,0,1.6c-0.2,0-0.4-0.2-0.7-0.1c0.1-0.1,0.1-0.4,0.1-0.7
			c-0.2,0.1-0.2,0.4-0.6,0.3c-0.1-0.3-0.2-0.3-0.1-0.6c-0.2,0-0.1,0.3-0.4,0.2C-436.1,259.5-436.2,258.9-436,258.7z M-436.2,255
			C-436.2,254.9-436.1,255-436.2,255L-436.2,255z M-437.6,258.8c0.3,0.1,0.3-0.1,0.5-0.1c0.1,0.4-0.3,0.3-0.4,0.5
			C-437.6,259.2-437.6,259-437.6,258.8z"/>
		<path id="XMLID_3253_" class="st2" d="M-437.7,261.3v0.4h0.2C-437.6,261.6-437.6,261.5-437.7,261.3z"/>
		<path id="XMLID_3256_" class="st2" d="M-454.2,273.3c-0.2-0.3,0.3-0.7,0.5-0.8c0.1,0,0,0.3,0.2,0.3c-0.1,0.3-0.4,0.3-0.5,0.5h5.6
			c0.5-0.5,1-0.4,1.5,0h2.5v-5.4h-1.6c0,0,0.1,0.1,0.1,0.1c0.2,0.3,0.1,0.9,0.3,1.2c-0.7,0-1,0.4-1.2,0.9c-0.4-0.3-0.7-0.7-0.5-1.2
			c-0.5-0.5-0.5-0.8-0.3-1.1h-6.6c0,0.1-0.3,0.4-0.3,0h-0.4c0,0.1,0,0.2-0.3,0.2c0-0.1,0-0.2,0-0.2h-0.5c0,0,0,0.1-0.1,0.1
			c-0.2,0-0.2,0-0.3-0.1h-4h0h-0.2c0,0,0,0-0.1,0c0,0,0,0,0,0h-0.9c0.1,0.4,0.2,0.8,0.3,1.3c-0.4,0.1-0.8,0.2-0.9,0.5
			c-0.1-0.2-0.1-0.2-0.3-0.2v3.8h0.4c0.1-0.2,0.3-0.3,0.6-0.3c0,0.1,0,0.2,0,0.3h2.9c0-0.2-0.1-0.4,0-0.6c0.2-0.2,0.1,0,0.4,0
			c0-0.2-0.2-0.2-0.4-0.2c0-0.1,0-0.1,0.1-0.1c0-0.1,0-0.1,0-0.2c0.7,0.1,0.8,0.8,0.4,1.1H-454.2z M-445.3,270.1
			C-445.6,269.9-445.3,270.1-445.3,270.1C-445.2,270.1-445.2,270.1-445.3,270.1z M-444.8,271.2
			C-444.8,271.3-444.9,271.2-444.8,271.2L-444.8,271.2z M-445.4,269.2c0.3,0.1,0.2,0.4,0.1,0.6
			C-445.5,269.8-445.5,269.3-445.4,269.2z M-445.5,269.8C-445.5,270.1-445.9,269.7-445.5,269.8L-445.5,269.8z M-447,270.6
			C-447.1,270.9-447.6,270.5-447,270.6L-447,270.6z M-447.2,271.6c0,0.2-0.1,0.2-0.1,0.3C-447.5,272-447.5,271.5-447.2,271.6z
			 M-447.5,269.2C-447.6,269.1-447.5,269.2-447.5,269.2L-447.5,269.2z M-452.8,270.4C-452.9,270.3-452.8,270.4-452.8,270.4
			L-452.8,270.4z M-452.2,269.2c0-0.3,0.4,0,0.3,0.2C-452,269.3-452,269.2-452.2,269.2z M-452,268.8
			C-452,268.8-451.9,268.9-452,268.8L-452,268.8z M-449.9,271.5c-0.1,0-0.1,0-0.2,0C-450.1,271.2-449.7,271.2-449.9,271.5z
			 M-451.3,272.8c-0.1,0.1,0,0.4-0.3,0.3C-451.5,273-451.5,272.7-451.3,272.8z M-452.8,268.5c-0.1-0.3-0.1-0.3,0.1-0.6
			c0.3,0.3,0.6,0.4,1,0.3c-0.1,0.6-1.2,0.2-0.9,1.1c-0.4,0-0.5-0.3-0.9-0.3C-453.4,268.7-453.1,268.7-452.8,268.5z M-453.7,268.5
			C-454.1,268.8-453.5,268.2-453.7,268.5L-453.7,268.5z M-455.1,268.5C-455,268.6-455.1,268.5-455.1,268.5L-455.1,268.5z
			 M-461.9,269.8C-461.9,269.8-462,269.7-461.9,269.8L-461.9,269.8z M-460.1,271.5c-0.1,0-0.1,0-0.2,0c0-0.1,0-0.1,0-0.2
			c0.1,0,0.1,0,0.2,0C-460.1,271.4-460.1,271.5-460.1,271.5z M-460.5,270.3c0-0.1,0-0.1,0-0.2c0.1,0,0.1,0,0.2,0c0,0.1,0,0.1,0,0.2
			C-460.3,270.3-460.4,270.3-460.5,270.3z M-460.2,270c-0.6,0-0.2-0.8-0.8-0.5c0-0.2,0.1-0.3,0.1-0.4c0.4,0.3,0.3,0,0.8,0
			C-460.1,269.5-460.2,269.6-460.2,270z M-460.1,268.4C-460,267.7-460.2,268.8-460.1,268.4L-460.1,268.4z M-459.7,268.7
			C-459.7,268.8-459.8,268.7-459.7,268.7L-459.7,268.7z M-458.7,273C-458.8,272.9-458.7,273-458.7,273L-458.7,273z M-458.4,269.5
			c-0.1,0-0.3,0-0.4,0c0.1-0.3,0.1-0.6-0.3-0.6c0.1-0.2,0.3-0.4,0.7-0.4C-458.2,268.6-458.5,269-458.4,269.5z M-455.8,273.2
			C-456,273.5-456.1,272.8-455.8,273.2L-455.8,273.2z M-456.1,268.2c0.3,0.3,0.3-0.3,0.5,0.1c0,0.4-0.4,0.4-0.5,0.7
			C-456.4,268.9-456.2,268.5-456.1,268.2z M-456.6,269.2c0.2,0,0.2,0.3,0.2,0.5c-0.3-0.1-0.4,0.1-0.6,0.1
			C-457.1,269.4-456.7,269.4-456.6,269.2z"/>
		<path id="XMLID_3284_" class="st2" d="M-432.7,280c-0.2,0-0.3-0.1-0.3-0.2h-4.6v5c0.1,0,0.1,0.1,0.2,0.1c-0.1,0-0.1,0.1-0.2,0.2
			v1.6c0.1-0.1,0.2-0.2,0.3-0.2c0.1,0.5-0.1,0.8-0.3,1v3.5c0.2-0.1,0.4-0.1,0.7,0c-0.6,1.2,0,2.1-0.6,3c0,0,0-0.1-0.1-0.1v0.4
			c0.1,0,0.1,0,0.2,0c0.1,0.3-0.1,0.4-0.1,0.6c0,0,0,0-0.1,0v2.8h5.4v-7.9c-0.3,0.6-1.1,1.1-2,0.9c0.1-1.3,1.2-1.2,1.4-2.2
			c0.3,0.1,0.5,0.3,0.6,0.5v-1.9c-0.1,0-0.1,0-0.2,0.1c0.1,0,0.1-0.1,0.2-0.1v-1c0,0,0,0.1-0.1,0.1c-0.3,0-0.3-0.7,0.1-0.6v-2.1
			c0,0,0,0-0.1,0c0-0.2,0-0.2,0.1-0.3v-0.4c-0.1,0-0.2,0.3-0.4,0.2c0-0.2,0-0.5,0-0.7c0.2-0.1,0.3,0,0.4,0.1v-0.4
			c-0.1,0-0.2,0.1-0.4,0c0.1-0.2,0.2-0.3,0.4-0.4v-1.8h-0.5C-432.8,279.9-432.7,279.9-432.7,280z M-433.6,291.9c0,0.1,0,0.1,0,0.2
			c-0.2,0-0.3,0-0.3-0.2C-433.8,291.9-433.7,291.9-433.6,291.9z M-436,289.3C-436,289.7-435.9,288.7-436,289.3L-436,289.3z
			 M-436.1,290.8c0.2-0.1,0.1,0.2,0.3,0.2c0,0.1-0.2,0.1-0.3,0.1C-436.1,291-436.1,290.9-436.1,290.8z M-436.5,281.7
			C-436.7,282.1-436.6,281.3-436.5,281.7L-436.5,281.7z M-436.6,292.8c-0.2,0-0.2-0.6,0.1-0.4C-436.4,292.6-436.5,292.7-436.6,292.8
			z M-436.1,292.9C-436,293-436.1,292.9-436.1,292.9L-436.1,292.9z M-436,291.2c0.1,0,0.1,0,0.2,0c0,0.1,0,0.1,0,0.2
			c-0.1,0-0.1,0-0.2,0C-436,291.3-436,291.2-436,291.2z M-435.6,291.7c-0.1,0-0.1,0-0.2,0c0-0.1,0-0.1,0-0.2c0.1,0,0.1,0,0.2,0
			C-435.6,291.6-435.6,291.6-435.6,291.7z M-435.4,285.2c-0.2,0-0.2-0.3-0.2-0.5C-435.3,284.6-435.3,285.1-435.4,285.2z M-434.6,285
			c-0.1,0-0.2,0-0.3,0c0-0.3,0.3-0.4,0.3-0.6C-434.2,284.5-434.7,284.6-434.6,285z M-434.4,289.6
			C-434.5,289.6-434.4,289.7-434.4,289.6L-434.4,289.6z M-434,292.1C-434.1,292-433.9,292.2-434,292.1L-434,292.1z M-434.3,291.8
			C-434.4,292.2-434.1,291-434.3,291.8L-434.3,291.8z M-434,287.7C-434,287.7-434,287.7-434,287.7c-0.1,0.1-0.1,0.2-0.1,0.2
			C-434,287.8-434,287.8-434,287.7c0-0.1,0.1-0.2,0.1-0.2C-433.9,287.5-433.9,287.6-434,287.7z M-434.4,282.6c0.4,0.2,0,0.4-0.1,0.6
			c-0.1-0.2-0.2-0.5-0.3-0.7c0.2-0.2,0.1,0,0.4,0c-0.3-0.3-0.2-0.8,0-1.1C-433.6,281.3-433.8,282.6-434.4,282.6z M-433.6,287
			c-0.1,0-0.1,0-0.2,0c0-0.1,0-0.1,0-0.2c0.1,0,0.1,0,0.2,0C-433.6,286.9-433.6,287-433.6,287z M-432.8,285.1
			C-433.2,284.8-432.5,284.7-432.8,285.1L-432.8,285.1z M-432.5,280.5C-432.6,280.5-432.5,280.6-432.5,280.5L-432.5,280.5z
			 M-432.4,279.9C-432.5,280.2-432.9,279.8-432.4,279.9L-432.4,279.9z"/>
		<path id="XMLID_3305_" class="st2" d="M-435.1,267.8c-1.9,0-3.4,1.5-3.4,3.4c0,1.9,1.5,3.4,3.4,3.4c0.4,0,0.8-0.1,1.1-0.2
			c0.1-0.2-0.6-0.1-0.9-0.1c0-0.3,0.1-0.5,0.4-0.5c0.1,0.2,0.1,0.4,0.4,0.3c0.3-0.3,0.3-0.9,0.1-1.2c0.7,0,0.5,0.6,1,0.2
			c0.1,0.3,0,0.6-0.1,0.8c0.8-0.6,1.3-1.6,1.3-2.7C-431.7,269.3-433.2,267.8-435.1,267.8z M-434.5,270.6
			C-434.5,270.6-434.6,270.5-434.5,270.6L-434.5,270.6z M-435,269.9C-435,269.9-435.1,269.8-435,269.9L-435,269.9z M-434.9,271.7
			C-435.1,272.1-435.2,271.3-434.9,271.7L-434.9,271.7z M-437.4,273.3C-437.7,273.7-437.5,272.9-437.4,273.3L-437.4,273.3z
			 M-437.3,269.6c-0.4,0.1-0.4-0.5,0-0.4C-437.3,269.3-437.3,269.4-437.3,269.6z M-435.5,274C-435.5,274.1-435.6,273.9-435.5,274
			L-435.5,274z M-435.2,273.2c-0.2,0-0.1-0.5,0-0.5C-435,272.8-435.1,273-435.2,273.2z M-434.9,273.9
			C-435.2,274.2-434.6,273.6-434.9,273.9L-434.9,273.9z M-434.9,273.6C-434.9,273.6-435,273.5-434.9,273.6L-434.9,273.6z
			 M-434.6,272.8c-0.2-0.1-0.3-0.3-0.6-0.2c0-0.5,0.3-0.2,0.6-0.2C-434.6,272.5-434.6,272.6-434.6,272.8z M-434.6,272.2
			c-0.1-0.3,0-0.6-0.2-1C-434.3,271.3-434.2,271.9-434.6,272.2z M-434.3,270.6C-434.3,270.6-434.4,270.5-434.3,270.6L-434.3,270.6z
			 M-434.2,271.5c0-0.1,0-0.1,0-0.2c0.1,0,0.1,0,0.2,0c0,0.1,0,0.1,0,0.2C-434.1,271.5-434.1,271.5-434.2,271.5z M-433.7,272.1
			c-0.3,0.1-0.1,0.2-0.1,0.5c-0.3,0-0.2-0.3-0.3-0.5c0.3-0.2,0.6-0.4,1.2-0.3C-432.7,272.4-433.5,272.3-433.7,272.1z"/>
		<path id="XMLID_3319_" class="st2" d="M-433.6,274.2c-0.2-0.1-0.2,0-0.2,0.1c0.3-0.1,0.5-0.3,0.8-0.5
			C-433.2,274-433.4,274.1-433.6,274.2z"/>
		<path id="XMLID_3322_" class="st2" d="M-428.6,256.6c0.5,0.3,1.2,0,0.9-0.9c-0.2,0-0.2,0.2-0.5,0.1c0.2-0.7-0.6-0.8-0.5-1
			c0.5,0.3,1,0.1,1.4,0.7c0.4-0.6,0.8-0.7,1.1-1.4c-0.6-0.1-0.4-1-1.3-0.8c-0.2-0.1-0.1-0.6-0.3-0.7c-0.1,0.3-0.4,0.3-0.4,0.6
			c0.2,0.2,0.4-0.1,0.4,0.3c-0.1,0.2-0.5,0.7-0.8,0.3c0-0.3,0.2-0.4,0.3-0.5c0.1-0.4-0.6-0.5-0.4-0.7c0.2,0.2,0.1-0.2,0.3-0.3
			c-0.3-0.1-0.5-0.3-0.6-0.5c0.3,0.1,0.5,0.2,0.8,0.3c-0.6-0.2-1.3-0.5-2-0.6v1.8c0.1-0.2,0.2-0.5,0.3-0.7c0.5-0.1,0.2,0.6,0.6,0.5
			c-0.2,0.5-0.5,0.7-0.3,1.4c-0.3,0-0.4,0.3-0.6,0.4v1.5c0.5,0.2,1,0.4,1.4,0.6C-428.8,256.8-428.7,256.7-428.6,256.6z
			 M-427.9,255.9C-427.8,256-428,255.9-427.9,255.9L-427.9,255.9z M-427,254.3C-427,254.6-427.4,254.2-427,254.3L-427,254.3z
			 M-428.1,254C-428.1,254-428.2,253.9-428.1,254L-428.1,254z M-428.5,254.4c0.1,0,0.3,0,0.4,0c-0.1,0.2-0.1,0.4-0.4,0.3
			C-428.5,254.6-428.5,254.5-428.5,254.4z M-429.9,255.2C-429.9,255.1-429.8,255.2-429.9,255.2L-429.9,255.2z M-429.4,254.7
			C-429.5,254.6-429.4,254.7-429.4,254.7L-429.4,254.7z M-429.5,253.9C-429.5,253.4-428.9,253.9-429.5,253.9L-429.5,253.9z"/>
		<path id="XMLID_3331_" class="st2" d="M-423.5,286.9c0,0.1-0.1,0.2-0.1,0.3c-0.2,0.1-0.4,0.3-0.6,0.4c1.2-0.8,2.3-1.7,3.3-2.7
			c0,0,0,0,0,0c0-0.1,0.1-0.1,0.2-0.2c0,0,0.1-0.1,0.1-0.1c-0.3-0.1-0.5-0.3-0.6-0.6c0.2,0.2,0.6,0.2,0.6,0.6
			c1.8-1.9,3.3-4.2,4.2-6.7c-0.1,0.2-0.1,0.3-0.2,0.5c-0.2-0.1-0.3-0.4-0.1-0.6c0.1,0.1,0.2,0.1,0.3,0.1c0,0,0,0,0,0
			c0-0.1,0-0.1,0.1-0.2c-0.6-0.2-1.5-0.5-1.8,0.3c-0.6-0.2,0.3-0.4,0.3-0.7c-0.1-0.3-0.2,0.1-0.4,0c0.2-0.5,0.5-0.8,0.8-1.1
			c0.2,0.1,0.5,0.1,0.7,0.2c0.2-0.4,0.3-0.6,0.6-0.8h-4.5c-0.4,1.1-0.9,2.1-1.5,3c0,0,0,0,0,0c0.1-0.1,0.2-0.1,0.2-0.2
			c-0.2,0.5,0.9,0.6,1.3,0.9c-0.1,0.6-0.2,1.2-0.8,1.2c0-0.2-0.1-0.3-0.2-0.3c-0.1-0.3,0.2-0.2,0.2-0.4c-0.2-0.3-0.5,0.1-0.7,0.1
			c-0.1-0.3-0.1-0.8-0.3-0.7c0-0.1,0-0.2,0-0.2c0,0,0,0,0,0c-1.3,2-3,3.6-5,4.8c0.1,0,0.1-0.1,0.2-0.1c0,0.1,0.2,0.1,0.3,0.1
			c0,0.3-0.2,0.3-0.2,0.6c-0.1-0.2-0.3-0.3-0.5-0.5c-0.8,0.4-1.6,0.8-2.4,1.1v5c2.1-0.5,4.1-1.4,5.8-2.5
			C-424.2,287.3-424,286.9-423.5,286.9z M-418.2,280.3C-418.4,280.7-418.3,280-418.2,280.3L-418.2,280.3z M-418.4,278.4
			c0.2,0,0.2-0.1,0.4-0.1c0.2,0.2-0.2,0.3-0.2,0.6C-418.4,278.9-418.4,278.6-418.4,278.4z M-418.7,279.6c-0.3,0,0.3-0.4-0.1-0.4
			C-418.6,278.8-418.5,279.5-418.7,279.6z M-419.4,281c0.1,0,0.1,0,0.2,0c0,0.1,0,0.1,0,0.2c-0.1,0-0.1,0-0.2,0
			C-419.4,281.2-419.4,281.1-419.4,281z M-419.1,282.7c-0.3,0.1-0.4,0.5-0.8,0.5c-0.7-0.6,0-1,0.3-1.4
			C-419.3,282-419.3,282.4-419.1,282.7z M-421.4,277.8C-421.3,277.9-421.4,277.8-421.4,277.8L-421.4,277.8z M-420.7,278.6
			c-0.2,0-0.3,0-0.5,0c0.1-0.1,0.4-0.5,0.5-0.2C-420.7,278.4-420.7,278.5-420.7,278.6z M-420.7,277.4c-0.4,0.2-0.4,0-0.7-0.1
			c0-0.1,0.1-0.1,0.1-0.2c0.1,0,0.1,0.1,0.2,0.1c0.4-0.6,0.5-1.7,1.3-1.2c0,0.9-0.6,1.2-0.7,1.9
			C-420.8,277.9-420.8,277.6-420.7,277.4z M-423.1,286.8C-423.5,287.1-422.9,286.5-423.1,286.8L-423.1,286.8z M-423,286.4
			c-0.1-0.5,0.4-0.4,0.5-0.7C-422.4,285.9-422.7,286.4-423,286.4z M-422.7,285.6c-0.7-0.2-0.1-0.9,0.3-0.9
			C-422.1,285-422.7,285.2-422.7,285.6z M-422.3,280.4C-422.3,280.5-422.4,280.4-422.3,280.4L-422.3,280.4z M-422.1,281.7
			C-422.2,282-422.6,281.6-422.1,281.7L-422.1,281.7z M-422.3,282.1c0,0.4-0.3,0.3-0.4,0.5c-0.2,0,0-0.4-0.1-0.5
			C-422.6,282.1-422.5,281.9-422.3,282.1z M-422.7,279.6c0,0,0.1,0,0.1,0c0,0.1,0,0.3,0,0.4c-0.2-0.1-0.4,0.1-0.6,0.2
			C-423,280-422.9,279.8-422.7,279.6z M-423.2,282.1C-423.3,282-423.2,282.1-423.2,282.1L-423.2,282.1z M-423.2,281.9
			C-423.4,282.2-423.5,281.5-423.2,281.9L-423.2,281.9z M-424,281.1C-423.9,281.1-423.9,281.1-424,281.1
			C-423.9,281.3-424,281.3-424,281.1C-424,281.2-424,281.2-424,281.1z M-424,282.4C-424,282.7-424.4,282.3-424,282.4L-424,282.4z
			 M-430.1,286.8c0-0.3,0.1-0.5,0.4-0.4C-429.6,286.7-429.7,286.9-430.1,286.8z M-429,285.5c-0.1-0.1-0.1-0.4-0.1-0.6
			c0.4-0.1,0.5,0.2,0.6,0.3C-428.7,285.3-428.8,285.5-429,285.5z M-428.3,288.2c0.3,0,0.2,0.3,0.3,0.5
			C-428.3,288.7-428.3,288.4-428.3,288.2z M-427.6,284.6C-427.3,284.9-427.9,284.3-427.6,284.6L-427.6,284.6z M-427.3,289.1
			C-427.3,289.4-427.7,289-427.3,289.1L-427.3,289.1z M-427.2,288.8c-0.1,0-0.1,0-0.2,0c0-0.1,0-0.1,0-0.2c0.1,0,0.1,0,0.2,0
			C-427.2,288.7-427.2,288.7-427.2,288.8z M-426.7,288.6c-0.3,0-0.2-0.3-0.3-0.5C-426.6,288-426.5,288.4-426.7,288.6z M-426.5,287
			c0.1,0,0.2,0.1,0.2,0.3C-426.6,287.4-426.5,287.2-426.5,287z M-425.7,287.5c0.3,0,0.5,0,0.5,0.3
			C-425.3,287.6-425.8,287.8-425.7,287.5z"/>
		<path id="XMLID_3359_" class="st2" d="M-416.4,276.2c0,0.5,0.1,0.9,0.1,1.5c0,0,0,0.1,0,0.1c0.2-0.4,0.3-0.9,0.4-1.3
			C-416.2,276.5-416.1,276.2-416.4,276.2z"/>
		<path id="XMLID_3360_" class="st2" d="M-420.9,285c0.1-0.1,0.1-0.1,0.2-0.2C-420.8,284.9-420.9,284.9-420.9,285z"/>
		<path id="XMLID_3361_" class="st2" d="M-423,256.5c0.3,0.1,0.7-0.7,1.1-0.8c0,0,0.1,0.1,0.1,0.1c-0.9-0.8-1.9-1.5-2.9-2.2
			c-0.3,0.1-0.6,0.7-0.9,0.7c0.2,0.4,0.5,0.5,0.2,0.9c0.7,0.3,1.7,0.2,2.1,0.8c0.4,0.1,0.5-0.6,0.7-0.3
			C-422.5,256.3-423.4,256-423,256.5z"/>
		<path id="XMLID_3362_" class="st2" d="M-416.4,265.7c0,0,0-0.1,0-0.1c-0.1,0.1-0.2,0.1-0.3,0.1H-416.4z"/>
		<path id="XMLID_3365_" class="st2" d="M-421.7,256.1c0.1,0.4,0.2,0.8,0.4,1c-0.5-0.1-0.6,0.8-0.1,0.8c-0.2,0.1-0.3,0.4-0.5,0.5
			c-0.3-0.4-0.7-0.1-0.7-0.5c-0.1,0.2-0.8-0.2-0.9,0c-0.1-0.3-0.2-0.6-0.3-0.9c-0.4-0.1-0.5,0.1-0.8,0.1c-0.1-0.4-0.2-0.4-0.1-0.8
			c-0.4,0.1-0.8,0.3-1,0.5c0.2,0.2-0.1,0.7-0.2,0.9c-0.1-0.4-0.6-0.6-0.7-0.9c-0.4,0-0.4,0.4-0.9,0.3c0-0.2,0.3-0.6-0.1-0.5
			c-0.1,0.5,0.1,0.6,0.2,0.9c0,0,0,0-0.1,0c0,0,0,0,0,0c1.2,0.7,2.4,1.6,3.4,2.6c0-0.3,0.1-0.6,0-0.8c0.2,0.2,0.9,0.8,1.3,0.8
			c0.1,0.4,0,0.8-0.4,1.1c0.6,0.7,1.1,1.5,1.5,2.3c0,0,0,0,0,0c0-0.4-0.1-1,0.3-1.5c0.7-0.1,0.5,0.2,1,0.3c0,0.2-0.2,0.3-0.1,0.6
			c-0.4,0-0.7,0.1-1,0.2c0.2,0.4,0.3,0.7,0.2,1c0.2,0.5,0.5,1,0.6,1.6h3.5c0-0.1,0-0.2,0.1-0.3c0.5,0,0.9-0.1,1.2-0.1
			c-0.1-0.4-0.2-0.8-0.4-1.2c-0.1,0.2-0.1,0.3-0.3,0.4c-0.6,0.1,0.2-1.1-0.5-0.9c0-0.3,0.3-0.4,0.3-0.6c0,0,0,0,0,0
			c-0.3-0.7-0.6-1.4-1-2c0,0,0,0.1,0,0.1c0,0.1,0,0.1,0,0.2c-0.3,0.1-0.2-0.2-0.1-0.3c0,0,0,0,0,0c-0.8-1.4-1.8-2.7-2.9-3.9
			c-0.1,0-0.3,0-0.2-0.2c-0.2-0.2-0.4-0.4-0.6-0.6C-421.5,256.2-421.6,256.1-421.7,256.1z M-426.6,257.8c-0.3,0.2-0.3-0.5,0-0.3
			C-426.6,257.6-426.6,257.7-426.6,257.8z M-423,259.7C-423.1,259.7-423,259.8-423,259.7L-423,259.7z M-421,263.5
			C-420.9,263.5-421,263.4-421,263.5L-421,263.5z M-420.8,264.8c-0.1,0-0.1,0-0.2,0c0-0.1,0-0.1,0-0.2c0.1,0,0.1,0,0.2,0
			C-420.8,264.7-420.8,264.7-420.8,264.8z M-422.6,259.1C-422.6,259.2-422.7,259.1-422.6,259.1L-422.6,259.1z M-421.9,261.6
			c-0.2,0-0.2-0.5,0.1-0.3C-421.8,261.5-421.9,261.5-421.9,261.6z M-422.8,261.2c0.1-0.8,0.2-1.7,1-1.8c-0.2,0.4,0.1,0.5,0.1,0.8
			c0.1-0.1,0.1-0.2,0.3-0.2C-421.5,261-422.1,261-422.8,261.2z M-418,265c-0.4-0.5,0.4-1.5,0.5-2.2
			C-417.3,263.7-417.5,264.5-418,265z M-417.7,261.9c0.3,0.8-0.2,0.8-0.1,1.6c-0.4-0.2-0.5-0.9-0.5-1.6
			C-418,261.8-418,261.8-417.7,261.9z M-419.2,264.1c0-0.3,0.4,0,0.4,0C-418.9,264.4-419,264.2-419.2,264.1z M-418.9,262.2
			c-0.3,0.1-0.2-0.2-0.1-0.3C-418.9,261.9-418.9,262.1-418.9,262.2z M-419,260.2c0.1,0.4-0.1,0.4-0.2,0.6c-0.1-0.1-0.2-0.1-0.3-0.1
			C-419.5,260.4-419.3,260.2-419,260.2z M-419.6,259.4C-419.6,259.7-420,259.3-419.6,259.4L-419.6,259.4z M-420.5,257.9
			c0.2,0,0.3,0.1,0.3,0.3c-0.1,0-0.2,0-0.3,0C-420.5,258.1-420.5,258-420.5,257.9z M-420.7,257.4
			C-420.7,257.3-420.6,257.4-420.7,257.4L-420.7,257.4z M-420.7,259.1c-0.3,0.2-0.6,0.2-0.6,0.6c-0.1,0-0.2,0-0.3,0
			c0.1-0.4-0.2-0.5-0.5-0.4c0-0.2,0.2-0.2,0.1-0.5C-421.4,258.6-421.1,259-420.7,259.1z M-421.1,256.6
			C-421.1,256.6-421,256.7-421.1,256.6L-421.1,256.6z"/>
		<path id="XMLID_3382_" class="st2" d="M-427.8,252.2c0.3,0.1,0.6,0.2,0.9,0.4C-427.2,252.4-427.5,252.3-427.8,252.2z"/>
		<path id="XMLID_3385_" class="st2" d="M-435.1,245c0-0.8,0.6-0.8,1.1-1.2h-2.7C-436.6,244.6-436.3,245-435.1,245z M-435.5,244.4
			C-434.8,244.4-435.6,245.1-435.5,244.4L-435.5,244.4z M-436.1,244C-436.2,244.3-436.6,243.9-436.1,244L-436.1,244z"/>
		<path id="XMLID_3387_" class="st2" d="M-416.7,263c0.2,0.4,0.3,0.8,0.4,1.2C-416.4,263.7-416.5,263.3-416.7,263z"/>
		<path id="XMLID_3390_" class="st2" d="M-408.9,269.5c-0.4,0.1-0.3-0.2-0.6-0.2c0-0.2,0.1-0.2,0.2-0.3c-0.2-0.3-0.5-0.1-0.7-0.3
			c-0.2,0.1-0.2,0.4-0.3,0.5c-0.1-0.3,0-0.8,0.3-1.3h-2.4c-0.2,0.2-0.5,0.4-0.5,0.8c-0.2,0-0.2-0.1-0.3-0.1c0-0.3,0-0.5,0.1-0.6
			h-5.1c0,0,0,0.1,0,0.1c-0.3,0.1-0.5,0-0.6-0.1h-7.4v2.6c0,0,0.1,0,0.1,0c0,0.3-0.1,0.4-0.1,0.5v2.3h1c-0.1-0.1-0.1-0.3,0-0.4
			c0.4,0.1-0.1,0.3,0.3,0.4h0.2c-0.2,0,0-0.4-0.1-0.5c-0.4,0.3-0.6-0.3-0.6-0.5c0.5-0.7,1.1-0.6,2.3-0.6c0,0.2-0.2,0.3-0.1,0.6
			c-0.5-0.1-0.6-0.1-0.7,0.4c-0.3-0.1-0.5-0.2-0.6-0.5c-0.3,0-0.5,0.1-0.5,0.4c0.1,0,0.5,0.1,0.5,0.5c0.2,0,0.3-0.1,0.3-0.2
			c0.3,0.2-0.4,0.4-0.4,0.4h5.7c0-0.1,0.1-0.3,0.2-0.2c0,0.1,0,0.2-0.1,0.2h10.6v-1.6c0,0.1-0.1,0.2-0.1,0.3c-0.3,0-0.5,0-0.6-0.2
			c0-0.4,0.6-0.3,0.6-0.6c0,0,0.1,0.1,0.1,0.1v-2C-408.7,269.2-409.1,269-408.9,269.5z M-422.1,271.5
			C-422.2,271.5-422.1,271.6-422.1,271.5L-422.1,271.5z M-424.7,268.9C-424.9,269.4-424.8,268.6-424.7,268.9L-424.7,268.9z
			 M-424.1,270.2C-424.1,270.5-424.5,270.1-424.1,270.2L-424.1,270.2z M-423.9,268.6C-424,269-424.2,268.3-423.9,268.6L-423.9,268.6
			z M-423.9,271.1C-424.3,271.1-423.7,270.5-423.9,271.1L-423.9,271.1z M-423.8,270.1C-423.8,270.4-424.2,270-423.8,270.1
			L-423.8,270.1z M-423.2,269.7c-0.5,0.1-0.7-0.2-0.7-0.5c0.3,0.1,0.3-0.2,0.6-0.1C-423.3,269.3-423.2,269.4-423.2,269.7z
			 M-422.3,272.9C-422.4,272.8-422.3,272.9-422.3,272.9L-422.3,272.9z M-422.2,273.1c0.2-0.1,0.1-0.5,0.1-0.8
			C-421.7,272.4-421.7,273.1-422.2,273.1z M-421.6,272.7c0-0.1,0-0.2,0-0.3c0.1,0,0.2,0,0.3,0C-421.3,272.6-421.4,272.7-421.6,272.7
			z M-421.3,271.3c0,0.3-0.3,1-0.8,0.7c0.1-0.2,0.5-0.1,0.5-0.4c0-0.1-0.3-0.1-0.4-0.1c0-0.2,0.3-0.1,0.2-0.4c0.5,0.1,0.6-0.1,1-0.1
			C-420.7,271.3-421.2,271.8-421.3,271.3z M-420.8,269.5c-0.1,0-0.2,0-0.3,0c0-0.2,0.1-0.3,0.3-0.3
			C-420.8,269.3-420.8,269.4-420.8,269.5z M-420.7,271.4C-420.7,271.4-420.6,271.5-420.7,271.4L-420.7,271.4z M-419.8,268.7
			c-0.3,0.2-0.3-0.5,0-0.3C-419.8,268.5-419.8,268.6-419.8,268.7z M-413.8,271.6C-413.8,271.9-414.3,271.5-413.8,271.6L-413.8,271.6
			z M-418.2,269.1c0-0.2,0.1-0.3,0.1-0.4c0.2,0,0.2,0.2,0.2,0.4C-418,269.1-418.1,269.1-418.2,269.1z M-417.1,272.7
			C-417.4,273.1-417.3,272.3-417.1,272.7L-417.1,272.7z M-416.6,272.9C-416.6,273.2-417,272.8-416.6,272.9L-416.6,272.9z
			 M-416.3,271.4c0.1,0,0.2,0.1,0.2,0.3C-416.3,271.8-416.3,271.6-416.3,271.4z M-415.3,269.9c0-0.2,0.1-0.2,0.3-0.2
			C-415,269.8-415.1,269.9-415.3,269.9z M-415.1,269.1c-0.1,0-0.2,0-0.3,0c0-0.4,0-0.7,0.4-0.6
			C-414.9,268.7-414.9,268.9-415.1,269.1z M-413.7,273.2c-0.2-0.1-0.4-0.2-0.3-0.5C-413.8,272.7-413.6,273-413.7,273.2z
			 M-413.4,271.5C-413.5,271.5-413.4,271.6-413.4,271.5L-413.4,271.5z M-413.2,271.4C-413.3,271.8-413.1,270.8-413.2,271.4
			L-413.2,271.4z M-413.1,268.9C-413.2,269.4-413,268.3-413.1,268.9L-413.1,268.9z M-412.6,273.2
			C-412.5,273.2-412.7,273.1-412.6,273.2L-412.6,273.2z M-412.5,268.8C-412.5,269.2-412.9,268.7-412.5,268.8L-412.5,268.8z
			 M-411.9,269.2c-0.1,0-0.2,0-0.3,0c0.1-0.2,0-0.6,0.3-0.5C-411.9,268.8-411.9,269-411.9,269.2z M-410.8,271.5
			c-0.4,0.1-0.4-0.6-0.2-0.7C-410.8,270.9-410.7,271.3-410.8,271.5z M-410.7,270.4c0.1-0.2,0.3-0.3,0.3-0.6c0.5-0.1,0.8,0.6,0.7-0.2
			C-409.1,270-410.2,271-410.7,270.4z M-409.4,271c0.1-0.3,0.7-0.8,0.2-1c0.1-0.1,0.3-0.2,0.3-0.4
			C-408.3,269.9-408.9,270.8-409.4,271z"/>
		<path id="XMLID_3422_" class="st2" d="M-426.7,252.6c0.3,0.1,0.6,0.3,0.9,0.5C-426.1,252.9-426.4,252.8-426.7,252.6z"/>
		<path id="XMLID_3423_" class="st2" d="M-424.7,253.7c-0.3-0.2-0.6-0.4-1-0.6C-425.4,253.3-425,253.5-424.7,253.7z"/>
	</g>
</g>
<g id="Layer_2">
	<g id="XMLID_3135_">
		<path id="XMLID_3136_" class="st2" d="M-453.8,263.8c0.1-0.3,0.3-0.7,0.4-1C-453.5,263.1-453.7,263.5-453.8,263.8z"/>
		<path id="XMLID_3139_" class="st2" d="M-441.7,252C-441.6,252-441.6,252-441.7,252c-0.2,0.4,0.1,0.9,0.1,1.5c-0.2,0-0.4,0-0.5-0.1
			c0.1-0.5,0.6-0.8,0-1c0-0.1,0-0.1,0-0.2c0.1,0,0.1-0.1,0.2-0.1c-0.2,0.1-0.5,0.2-0.7,0.3c0,0.1,0,0.1-0.1,0.2
			c-0.1,0-0.1-0.1-0.2-0.1c-4.7,2-8.5,5.7-10.6,10.4c0.7-0.1,0.7,0.9,0.9,1.7c-0.4,0.1-0.8,0.2-0.9,0.5c-0.1-0.3-0.4-0.2-0.8-0.2
			c0.1-0.3,0.2-0.6,0.3-1c-0.2,0.6-0.5,1.3-0.6,2h5c1.5-4.3,5-7.7,9.3-9.3v-5c0,0,0,0,0,0C-440.7,251.7-441.2,251.9-441.7,252z
			 M-453.3,265.2C-453.2,265.2-453.4,265.1-453.3,265.2L-453.3,265.2z M-451.6,265.7c-0.1,0-0.1,0-0.2,0c0-0.1,0-0.1,0-0.2
			c0.1,0,0.1,0,0.2,0C-451.6,265.5-451.6,265.6-451.6,265.7z M-451.6,265.4c-0.6,0-0.2-0.8-0.8-0.5c0-0.2,0.1-0.3,0.1-0.4
			c0.4,0.3,0.3,0,0.8,0C-451.5,264.9-451.6,265-451.6,265.4z M-451.5,263.8C-451.4,263.1-451.6,264.2-451.5,263.8L-451.5,263.8z
			 M-451.5,263.2C-451.5,263.2-451.5,263.2-451.5,263.2C-451.7,263.4-451.6,263.2-451.5,263.2c-0.1,0.1-0.2,0.1-0.4,0.1
			c-0.1-0.3,0.1-0.4,0.1-0.6c0.3,0,0.3,0.2,0.5,0.2C-451.3,263-451.4,263.1-451.5,263.2z M-451.1,264.1
			C-451.1,264.2-451.2,264.1-451.1,264.1L-451.1,264.1z M-450.2,262.2c-0.3,0-0.4-0.3-0.4-0.5C-450.3,261.7-450.2,261.8-450.2,262.2
			z M-449.8,264.9c-0.1,0-0.3,0-0.4,0c0.1-0.3,0.1-0.6-0.3-0.6c0.1-0.2,0.3-0.4,0.7-0.4C-449.6,264-449.9,264.4-449.8,264.9z
			 M-449.5,260.5c0.1-0.3,0.2-0.5,0.6-0.5C-448.8,260.4-449.2,260.4-449.5,260.5z M-448.8,262.4c0-0.2,0.1-0.2,0.3-0.2
			C-448.6,262.3-448.7,262.4-448.8,262.4z M-448.6,260.2c-0.2,0-0.2-0.7,0.1-0.5C-448.4,260-448.7,260-448.6,260.2z M-447.3,258.6
			c-1.4,0.9-0.7-1,0.1-1.2C-447.4,257.8-447.3,258-447.3,258.6z M-447.4,256.6c0.1,0,0.2,0.1,0.2,0.3
			C-447.4,256.9-447.4,256.8-447.4,256.6z M-446.8,255.5C-446.8,256.5-447.8,255.5-446.8,255.5L-446.8,255.5z M-445.8,254.3
			c0,0.2-0.1,0.3-0.3,0.3C-446,254.5-446.1,254.2-445.8,254.3z M-445.8,255c0.1,0,0.1,0.2,0.1,0.3
			C-446.1,255.4-445.9,255.1-445.8,255z M-444.6,259.1C-444.6,259.1-444.6,259.1-444.6,259.1C-444.6,259.1-444.6,259.1-444.6,259.1
			C-444.6,259.1-444.6,259.1-444.6,259.1z M-444.9,257.3c0-0.2,0-0.3,0-0.5c0.2,0,0.3,0,0.5,0C-444.4,257.2-444.5,257.4-444.9,257.3
			z M-442.3,252.5c0.1,0,0.1,0,0.2,0c0,0.1,0,0.1,0,0.2c-0.1,0-0.1,0-0.2,0C-442.3,252.6-442.3,252.5-442.3,252.5z M-442.3,252.8
			c0.2,0,0.2,0.2,0.2,0.4C-442.4,253.3-442.3,252.9-442.3,252.8z M-442.5,253.6C-442.3,253.3-442.1,254-442.5,253.6L-442.5,253.6z
			 M-442.5,255.3c0-0.1,0.1-0.2,0.3-0.2C-442.3,255.3-442.4,255.4-442.5,255.3z M-441.7,256.6C-442.1,256.8-441.5,256.2-441.7,256.6
			L-441.7,256.6z M-440.8,251.8c0.1,0,0.1,0,0.2-0.1c0.1,0.2,0.1,0.5,0,0.6c-0.2,0-0.2-0.1-0.3-0.1
			C-440.9,252-440.8,251.9-440.8,251.8z M-441,251.8c0,0-0.1,0.1-0.1,0.1c0,0-0.1,0-0.1-0.1C-441.1,251.9-441.1,251.8-441,251.8z
			 M-441,256.8c-0.1,0-0.2-0.2-0.3-0.2c0.1-0.3,0.1-0.6,0.5-0.5C-440.9,256.3-440.7,256.6-441,256.8z M-440.5,256.3
			C-440.8,256.5-440.2,255.9-440.5,256.3L-440.5,256.3z M-440.4,255.3c-0.1,0-0.1,0-0.2,0c0-0.1,0-0.1,0-0.2c0.1,0,0.1,0,0.2,0
			C-440.4,255.2-440.4,255.3-440.4,255.3z"/>
		<path id="XMLID_3176_" class="st2" d="M-437.7,296.8v0.3c0,0,0.1,0,0.1,0C-437.6,297-437.6,296.9-437.7,296.8z"/>
		<path id="XMLID_3177_" class="st2" d="M-448.9,277.6C-448.9,277.6-448.9,277.6-448.9,277.6C-448.9,277.6-448.9,277.6-448.9,277.6
			C-448.9,277.6-448.9,277.6-448.9,277.6L-448.9,277.6z"/>
		<path id="XMLID_3180_" class="st2" d="M-423.6,280.9c0.1,0.3,0,0.3-0.1,0.6c-0.1,0-0.2-0.1-0.2-0.2c-0.3,0.4-0.7,0.7-1,1
			c0,0,0,0.1,0,0.1c0,0-0.1,0-0.1,0c-1.4,1.2-3,2.2-4.7,2.8c0,0,0,0,0,0.1c0,0-0.1,0-0.1,0c0,0-0.1,0-0.1,0.1v1.6c0,0,0.1,0,0.2,0
			c0,0.1-0.1,0.1-0.2,0.1v0.6c0.9,0,0.2-1.8,1.7-1.3c-0.6,1.2,0,2.1-0.6,3c0.1-0.3-1.5-0.9-0.9,0.3c0.5-0.3,0.5-0.1,1,0
			c0,0.2,0,0.3,0,0.4c3.7-1.2,6.9-3.4,9.3-6.3c0-0.1,0-0.1,0-0.2c0.1,0,0.1,0,0.1,0c1.8-2.2,3.1-4.8,3.9-7.7h-5
			C-421.3,277.8-422.4,279.5-423.6,280.9z M-425.3,283.1c0-0.1,0.1-0.2,0.1-0.2C-425.3,282.9-425.3,283-425.3,283.1
			C-425.3,283.1-425.4,283.1-425.3,283.1c-0.1,0.1-0.1,0.2-0.1,0.2C-425.4,283.2-425.4,283.1-425.3,283.1z M-427.3,284.7
			C-427.4,285.1-427.2,284.1-427.3,284.7L-427.3,284.7z M-427.4,286.2c0.2-0.1,0.1,0.2,0.3,0.2c0,0.1-0.2,0.1-0.3,0.1
			C-427.4,286.4-427.4,286.3-427.4,286.2z M-428,288.2c-0.2,0-0.2-0.6,0.1-0.4C-427.8,288-427.9,288.1-428,288.2z M-427.4,288.3
			C-427.4,288.4-427.5,288.3-427.4,288.3L-427.4,288.3z M-427.3,286.6c0.1,0,0.1,0,0.2,0c0,0.1,0,0.1,0,0.2c-0.1,0-0.1,0-0.2,0
			C-427.3,286.7-427.3,286.6-427.3,286.6z M-427,287.1c-0.1,0-0.1,0-0.2,0c0-0.1,0-0.1,0-0.2c0.1,0,0.1,0,0.2,0
			C-427,287-427,287-427,287.1z M-425.8,285C-425.8,285-425.7,285.1-425.8,285L-425.8,285z M-425.7,287.2
			C-425.8,287.6-425.5,286.4-425.7,287.2L-425.7,287.2z M-425.4,287.5C-425.4,287.4-425.3,287.5-425.4,287.5L-425.4,287.5z
			 M-425,287.5c-0.2,0-0.3,0-0.3-0.2c0.1,0,0.2,0,0.3,0C-425,287.4-425,287.4-425,287.5z M-425.7,286.1c0.1-1.3,1.2-1.2,1.4-2.2
			C-422.7,284.6-424,286.4-425.7,286.1z M-423.4,282.9c0.3-0.3-0.1-0.5-0.4-0.3c0.4-0.2,0.5-0.7,1-0.7
			C-422.7,282.4-423,282.7-423.4,282.9z M-422.8,281.3c-0.1,0-0.1,0-0.2,0c0-0.1,0-0.1,0-0.2c0.1,0,0.1,0,0.2,0
			C-422.8,281.2-422.8,281.2-422.8,281.3z M-422.3,285.4C-422.2,285.5-422.3,285.4-422.3,285.4L-422.3,285.4z M-422,281
			C-422.1,281.4-422.3,280.7-422,281L-422,281z M-422,280.6C-422,280.5-421.9,280.6-422,280.6L-422,280.6z M-421.7,280.3
			C-421.7,280.3-421.8,280.2-421.7,280.3L-421.7,280.3z M-421.4,282.2c0-0.3,0.1-0.5,0.4-0.4C-421,282.1-421.1,282.3-421.4,282.2z
			 M-419,280C-418.7,280.3-419.3,279.7-419,280L-419,280z M-418.6,279.2c0,0.1,0.2,0.1,0.3,0.1c0,0.3-0.2,0.3-0.2,0.6
			c-0.3-0.5-0.9-0.6-1-1.2C-418.9,277.8-417.5,278.6-418.6,279.2z M-419.9,280.6c-0.2,0.1-0.3,0.3-0.5,0.3c-0.1-0.1-0.1-0.4-0.1-0.6
			C-420.1,280.2-420,280.4-419.9,280.6z"/>
		<path id="XMLID_149_" class="st2" d="M-445.6,282.4c-0.2-0.1-0.2-0.3-0.2-0.5c0.1,0.1,0.1,0.1,0.2,0.2c-1.2-1.1-2.2-2.5-3-3.9
			c0,0,0,0,0,0c-0.3,0.5-0.7,0.8-1.4,1.1c-0.1-0.5,0.5-0.4,0.6-0.8c0-0.3-0.3-0.4-0.2-0.8c0.2,0.1,0.2,0,0.5,0.1c0-0.1,0-0.2,0-0.3
			c0,0,0,0.1,0,0.1c-0.1-0.1-0.1-0.3-0.2-0.4c0,0-0.1,0-0.1,0c0,0,0-0.1,0.1-0.1c0,0,0,0,0,0c-0.1-0.3-0.3-0.6-0.4-1h-2.4
			c0.1,0.2-0.1,0.4-0.2,0.6c-0.3,0,0.1-0.6-0.3-0.4c0,0,0.1-0.1,0.1-0.1h-2.2c1.8,7.1,7.4,12.6,14.4,14.5v-2.1
			c-0.1,0.3-0.2,0.5-0.3,0.9c-0.4-0.1-0.1-0.8-0.2-1.2c-0.5,0.2-0.6,0.8-1.1,0.9c-0.2-0.1,0.2-0.5-0.1-0.7c-0.1,0.2-0.2,0.4-0.6,0.3
			c0.4-0.5,0.4-0.8,0.4-0.9c-0.3-0.4-0.3,0.3-0.6,0.2c0.1-0.2,0.3-0.3,0.2-0.6c0.2-0.2,0.3,0.1,0.5-0.1c-0.4-0.2-0.2-1,0.3-0.8
			c0,0.3-0.1,0.4-0.2,0.5c0.1,0.4,0.5,0,0.6,0.2c-0.2-0.2,0.2-0.5-0.2-0.5c0-0.1,0-0.1,0.1-0.1c0-0.1,0-0.1,0-0.2
			c0.3,0.4,0.2,1.1,0.7,0.9c-0.2-0.6,0.4-0.4,0.3-0.9c0.1,0,0.1,0.1,0.2,0.1v-0.8c-2-0.7-3.9-1.9-5.4-3.3
			C-445.6,282.2-445.6,282.3-445.6,282.4z M-453.4,277.8c-0.3-0.4,0.2-0.6,0.2-0.9c-0.1-0.1-0.5,0.3-0.9,0.3
			c0.1-0.3-0.1-0.4,0.1-0.6c0.6-0.1,0.8,0.3,1.2,0.1C-452.8,277.2-453,277.6-453.4,277.8z M-451.5,276.9
			C-451.6,276.8-451.5,276.9-451.5,276.9L-451.5,276.9z M-452,278.2C-452.1,278.5-452.5,278.1-452,278.2L-452,278.2z M-452.2,276.6
			c0.6,0,0.1,0.1,0.5,0.3C-451.9,277.2-452.4,277-452.2,276.6z M-451.7,281.9c0.4,0.1,0.5,0.4,0.6,0.7
			C-451.6,282.6-451.7,282.3-451.7,281.9z M-450.6,280.5C-450.6,280.5-450.7,280.4-450.6,280.5L-450.6,280.5z M-447.3,281.2
			C-447.3,281.5-447.7,281.1-447.3,281.2L-447.3,281.2z M-448.1,281.3C-448.5,281.5-447.9,281-448.1,281.3L-448.1,281.3z
			 M-449.3,280.4c0,0.3-0.2,0.3-0.2,0.6C-449.8,280.9-449.5,280.4-449.3,280.4z M-449.4,281.9c0,0.1-0.1,0.2-0.3,0.2
			C-449.6,282-449.5,281.9-449.4,281.9z M-449.5,282.7c0,0.1,0,0.1,0,0.2c-0.1,0-0.1,0-0.2,0c0-0.1,0-0.1,0-0.2
			C-449.6,282.7-449.5,282.7-449.5,282.7z M-449.9,282.2c0.1,0,0.1,0,0.2,0c0,0.1,0,0.1,0,0.2c-0.1,0-0.1,0-0.2,0
			C-449.9,282.4-449.9,282.3-449.9,282.2z M-449.3,284.7c0.3-0.1,0.4-0.1,0.7,0c0.1,0.4-0.1,0.5-0.2,0.7
			C-449.1,285.4-449.2,285.1-449.3,284.7z M-448.5,286c-0.1-0.1-0.3-0.3-0.4-0.4c0.1,0.1,0.2,0.2,0.5,0.2
			C-448.4,285.9-448.4,286-448.5,286z M-449.9,284c0-0.2,0-0.5,0-0.7c0.2-0.1,0.4-0.3,0.7-0.2c0.1-0.2,0.4-0.8,0-0.9
			c0-0.1,0.1-0.1,0.1,0c0.4,0,0.3-0.4,0.6-0.5c0.6,0.2,0.9-0.2,1.4-0.2c-0.5,0.3-0.1,0.8-0.4,1.6
			C-448.5,283.4-448.8,283.8-449.9,284z M-446.7,284.7c0.1,0,0.1,0.2,0.1,0.3C-446.9,285.1-446.7,284.8-446.7,284.7z M-446.6,284.3
			c-0.3,0.1-0.2-0.2-0.6,0.1c0.2-0.4,0.1-0.9,0.6-0.9C-446.6,283.8-447,284.2-446.6,284.3z M-446.7,282.2c-0.1,0-0.1-0.1-0.1-0.2
			c-0.1,0-0.1,0-0.1,0.1C-447.3,281.7-446.2,281.8-446.7,282.2z M-446.5,283.2C-446.5,283.1-446.4,283.2-446.5,283.2L-446.5,283.2z
			 M-446.7,281.5c-0.1-0.2,0.4-0.2,0.3,0C-446.4,281.6-446.6,281.6-446.7,281.5z M-445.8,282.6c0.1,0,0.1,0.3,0.1,0.4
			C-446.1,283.1-445.9,282.7-445.8,282.6z M-441.7,289.1c0.1,0,0.1,0,0.2,0c0,0.1,0,0.1,0,0.2c-0.1,0-0.1,0-0.2,0
			C-441.7,289.2-441.7,289.1-441.7,289.1z M-440.8,286.5c-0.2,0-0.3,0-0.3-0.2c0.1,0,0.2,0,0.3,0
			C-440.8,286.3-440.8,286.4-440.8,286.5z M-440.3,285.8c-0.1,0.2-0.6,0.4-0.8,0.2C-441.2,285.4-440.4,285.6-440.3,285.8z
			 M-442.8,288.2c0.1,0,0.1,0,0.2,0c0,0.1,0,0.1,0,0.2c-0.1,0-0.1,0-0.2,0C-442.8,288.4-442.8,288.3-442.8,288.2z M-443.6,286.5
			c0,0.2-0.3,0.1-0.3,0.3c-0.3,0,0.1-0.2,0-0.4c0.1,0,0.1,0,0.2,0C-443.7,286.5-443.6,286.5-443.6,286.5z M-443.7,286.2
			c-0.2,0-0.3-0.1-0.3-0.3C-443.8,285.8-443.6,285.9-443.7,286.2z"/>
		<path id="XMLID_148_" class="st2" d="M-409.5,273.5h1.1V273C-408.8,272.9-409.3,273-409.5,273.5z"/>
		<path id="XMLID_119_" class="st2" d="M-434.8,280.9c-0.3,0-0.5,0.1-0.4,0.4c0.1,0.1,0.4,0.2,0.5,0.3c-0.1,0.5-0.5,0.6-1,0.6
			c0-0.4,0.3-0.4,0.3-0.7c-0.3-0.3-0.6-0.9-0.5-1.5h-1.7v1.4c0.2,0,0.4,0,0.4,0.1c-0.3,0.1,0.1,0.2-0.1,0.4c0.3-0.2,0.5-0.4,0.7-0.7
			c0.2,0.1,0.3,0.2,0.4,0.2c-0.1,1-1.3,0.2-1.2,1c-0.1,0-0.2-0.1-0.2-0.1v0.3c0.2,0.1-0.1,0.3,0.1,0.4c0,0.1-0.1,0.1-0.1,0.1v3
			c0,0,0.1-0.1,0.1-0.1c0,0.1,0,0.2-0.1,0.2v5.2c0.3-0.1,0.7-0.5,0.6-0.8c0.5-0.2,0.3,0.4,0.7,0.3c-0.1,0.1,0,0.4-0.3,0.3
			c0.1,0.5,0.4,0.1,0.7,0.3c-0.1,1.1-1.8,0.7-1.8,2c0,0,0,0,0,0v3c0,0,0,0,0,0c0.3,0.1,0.2,0.6,0.5,0.7c-0.2,0.2-0.3,0.4-0.4,0.7
			h3.3c0.1,0,0.2,0,0.4,0c0,0,0,0,0,0h1.6v-4.5c-0.2,0.1-0.4,0.1-0.6,0.1c-0.2-0.7,0.4-0.7,0.5-1.1c0.1,0,0.1,0.1,0.1,0.2v-2
			c0,0,0,0,0,0c0,0,0,0,0-0.1V280h-2.7C-434.8,280.2-434.7,280.5-434.8,280.9z M-434.8,281C-434.7,281-434.8,280.9-434.8,281
			L-434.8,281z M-437.5,281.2c-0.1,0.2,0.1-0.1,0.1-0.2C-437.4,281-437.4,281.1-437.5,281.2z M-437.2,280.9
			C-437.2,280.8-437.1,280.9-437.2,280.9L-437.2,280.9z M-436.6,293.2c0-0.2,0.1-0.3,0.3-0.3C-436.3,293.1-436.4,293.2-436.6,293.2z
			 M-434.7,284.3c-0.1,0.1-0.2,0.2-0.4,0.2C-435.1,284.3-434.9,284.3-434.7,284.3z M-434.7,289C-434.7,288.9-434.6,289-434.7,289
			L-434.7,289z M-435.1,287.8C-435,287.9-435.2,287.7-435.1,287.8L-435.1,287.8z M-435.1,282.9
			C-435.1,283.2-435.5,282.8-435.1,282.9L-435.1,282.9z M-436.3,281.9C-436.3,282-436.4,281.9-436.3,281.9L-436.3,281.9z
			 M-436.8,282.4C-437,282.8-437.1,282-436.8,282.4L-436.8,282.4z M-437.4,290.8C-437.4,290.7-437.3,290.9-437.4,290.8L-437.4,290.8
			z M-437.4,286c0.4-0.3,0.6-0.7,1-0.8C-436.3,285.4-436.9,285.7-437.4,286z M-436.3,285.5C-435.5,285.6-436.3,286.4-436.3,285.5
			L-436.3,285.5z M-435.9,284.1C-436.2,284.5-436.1,283.7-435.9,284.1L-435.9,284.1z M-435.7,285.3c-0.2,0-0.2-0.1-0.3-0.1
			c-0.1-0.3,0.2-0.2,0.2-0.4C-435.6,284.8-435.8,285.2-435.7,285.3z M-435.6,283.9c-0.2-0.2-0.1,0-0.4,0
			C-436.1,283.4-435.5,283.4-435.6,283.9z M-433.8,294.3c-0.6,0.2-0.9,0-1.6,0c0.3-0.9,1.9-1,1.8,0.4
			C-434.1,294.8-433.6,294.4-433.8,294.3z M-433.8,293.6C-433.5,293.2-433.5,293.9-433.8,293.6L-433.8,293.6z M-433.6,286.5
			C-433.7,286.4-433.6,286.5-433.6,286.5L-433.6,286.5z M-433.1,293.8C-433.2,293.7-433.1,293.9-433.1,293.8L-433.1,293.8z
			 M-433.5,287.3c-0.1-0.2-0.2-0.5,0-0.7c0.4,0.1,0.7,0.2,0.7,0.6C-433.1,287.3-433.1,287-433.5,287.3z M-432.9,283
			c0,0.2-0.1,0.2-0.1,0.3C-433.2,283.3-433.2,282.8-432.9,283z M-433.5,281.2c-0.2,0-0.3-0.1-0.3-0.3
			C-433.6,280.8-433.5,280.9-433.5,281.2z M-433.7,283.7c0,0.2-0.1,0.2-0.1,0.3C-434,284-434,283.5-433.7,283.7z M-434,284.4
			C-434.4,284.4-433.8,283.8-434,284.4L-434,284.4z M-434.3,282.3c0.3,0.1,0,0.3-0.1,0.4C-434.7,282.6-434.3,282.4-434.3,282.3z
			 M-434.7,283.6C-434.7,283.5-434.6,283.6-434.7,283.6L-434.7,283.6z"/>
		<path id="XMLID_100_" class="st2" d="M-425.6,257c0.5,0.6,0.4,1.5,0.2,2.3l0,0c0.6,0.5,1.1,1,1.6,1.6c0,0,0,0,0,0
			c0.6,0,1.1,0.4,0.8,1c0.9,1.2,1.7,2.5,2.2,4h1c0-0.2,0-0.4,0.2-0.4c-0.1-0.2-0.4-0.2-0.7-0.2c0.3-1.4,1.6-0.3,1.2,0.6h1
			c0,0,0.1-0.1,0.1-0.2c0.1,0,0.2,0.2,0.3,0.2h2c-0.7-2.7-2-5.2-3.7-7.4c0.7,0.9,1.3,1.8,1.9,2.8c-0.2,0.2-0.6,0.3-1,0.3
			c0.4-0.3-0.1-1.3-0.5-1c-0.2-0.5,0-1-0.5-1.2c0-0.3,0.2-0.5,0.2-0.8c-1.8-2.3-4.1-4.1-6.7-5.4c0,0,0,0,0,0.1
			c-0.1,0-0.1-0.1-0.1-0.2c0,0,0,0,0,0c-1.1-0.5-2.2-1-3.3-1.3c0.1,0,0.3,0.1,0.4,0.1c0,0.1,0.1,0.1,0,0.3c-0.3,0.1-0.2,0.1-0.5,0.2
			c0,0.3,0.6-0.1,0.4,0.3c-0.3,0.2-0.6,0.4-0.9,0.4v3.6c1.2,0.4,2.4,1.1,3.5,1.8C-426.8,257.8-426.3,257.1-425.6,257z M-418.3,265.7
			C-418.1,266-418.7,265.4-418.3,265.7L-418.3,265.7z M-418.5,265.4C-418.6,265.3-418.5,265.4-418.5,265.4L-418.5,265.4z
			 M-419,260.9c-0.1,0.1-0.1,0.2-0.1,0.3c-0.2,0-0.2-0.1-0.4-0.1C-419.5,260.9-419.2,260.7-419,260.9z M-419.6,264.1
			C-419.5,264.2-419.6,264.1-419.6,264.1L-419.6,264.1z M-419.7,261.6C-419.9,262-419.8,261.2-419.7,261.6L-419.7,261.6z
			 M-421.2,258C-420.6,257.6-421.6,258.3-421.2,258L-421.2,258z M-423.8,259.2c-0.2,0.2-0.4,0.4-0.3,0.9
			C-424.3,260.3-424.4,258.9-423.8,259.2z M-425.4,254.6C-425.3,254.7-425.4,254.6-425.4,254.6L-425.4,254.6z M-426.4,257
			c0-0.3,0.1-0.3,0.4-0.3C-426.1,256.8-426.1,257.1-426.4,257z M-429.6,256.5C-429.7,256.4-429.6,256.5-429.6,256.5L-429.6,256.5z
			 M-429.1,252.6c0.3,0.1-0.1,0.3,0,0.5c-0.1,0-0.2-0.2-0.3-0.2C-429.4,252.6-428.9,252.9-429.1,252.6z M-428.6,257.1
			c-0.4,0.1-0.5-0.2-0.5-0.5c0.4,0,0.3,0.1,0.6,0C-428.4,256.8-428.5,257-428.6,257.1z M-428.9,254.6c-0.1,0-0.1-0.3-0.1-0.4
			c0.3,0.1,0.3-0.1,0.5-0.1C-428.3,254.6-428.8,254.4-428.9,254.6z M-427.3,256.2C-427.5,256.5-427.7,255.8-427.3,256.2
			L-427.3,256.2z M-427.3,255.6C-427.3,255.6-427.4,255.5-427.3,255.6L-427.3,255.6z M-427.1,255.1c-0.2,0-0.1,0.3-0.4,0.2
			c0-0.5-0.1-1,0.2-1.2c0.7,0.2,0.9,0.9,1.6,0.6c0,0.5-0.2,0.7,0,1.6c-0.2,0-0.4-0.2-0.7-0.1c0.1-0.1,0.1-0.4,0.1-0.7
			c-0.2,0.1-0.2,0.4-0.6,0.3C-427.2,255.5-427.2,255.5-427.1,255.1z M-426.7,256c0,0.1,0,0.2,0,0.3C-427,256.4-427,255.8-426.7,256z
			"/>
		<path id="XMLID_99_" class="st2" d="M-438.1,269.8c-0.1,0.2-0.2,0.4-0.2,0.5C-438.3,270.2-438.2,270-438.1,269.8z"/>
		<path id="XMLID_98_" class="st2" d="M-437.7,292.6L-437.7,292.6C-437.7,292.6-437.7,292.6-437.7,292.6
			C-437.7,292.6-437.7,292.6-437.7,292.6z"/>
		<path id="XMLID_97_" class="st2" d="M-426.5,258.4c0-0.1,0-0.2,0-0.2C-426.7,258.2-426.6,258.3-426.5,258.4z"/>
		<path id="XMLID_85_" class="st2" d="M-435.1,268c-1.3,0-2.4,0.8-3,1.8c0.1-0.2,0.2-0.3,0.3-0.5c0.2,0.4,0.3,0.9,0.3,1.4
			c-0.4,0.2-0.3-0.1-0.6-0.1c0.1-0.1,0.1-0.3,0.1-0.5c-0.1,0.1-0.2,0.2-0.3,0.3c0,0.1-0.1,0.2-0.1,0.3c0.1,0,0.1,0.1,0,0.2
			c0-0.1,0-0.1,0-0.2c0,0.2-0.1,0.5-0.1,0.7c0,1.4,0.9,2.6,2.1,3.1c-0.1,0-0.2-0.1-0.2-0.1c0-0.4,0.2-0.7,0.6-0.7
			c0,0.4-0.2,0.5-0.3,0.8c0.4,0.2,0.8,0.3,1.3,0.3c1.9,0,3.4-1.5,3.4-3.4C-431.7,269.5-433.2,268-435.1,268z M-437.8,272
			C-437.9,272.3-438.3,271.9-437.8,272L-437.8,272z M-435.6,269.6c0.1,0,0.1,0,0.2,0c0,0.1,0,0.1,0,0.2c-0.1,0-0.1,0-0.2,0
			C-435.6,269.8-435.6,269.7-435.6,269.6z M-437.1,273.4c-0.2,0,0-0.4-0.1-0.6c0.3,0,0.3,0.3,0.3,0.5
			C-437,273.3-437,273.4-437.1,273.4z M-436.2,273.5C-436.3,273.5-436.2,273.6-436.2,273.5L-436.2,273.5z M-436.4,273.5
			c-0.6,0-0.2-0.8,0.1-0.8c0.1,0.1,0.1,0.2,0.3,0.2C-436,273.3-436.4,273.2-436.4,273.5z M-435.3,272.7c-0.1,0-0.3,0-0.3,0.1
			c-0.2-0.1-0.1-0.8,0.2-0.6C-435.4,272.5-435.2,272.4-435.3,272.7z M-434.2,273.9C-434.5,274.1-433.9,273.5-434.2,273.9
			L-434.2,273.9z M-433.8,269c-0.4,0.2,0-0.5-0.4-0.3C-434.1,268.4-433.7,268.7-433.8,269z M-434.1,268.4c0-0.1,0-0.2,0-0.2
			c0.1,0,0.2,0.1,0.3,0.1C-433.8,268.4-433.9,268.5-434.1,268.4z M-433.6,271.3c-0.1-0.3,0.5,0,0.4-0.4c0.3,0.2,0.7,0.3,1,0.5
			C-432.6,271.7-433.1,271.2-433.6,271.3z"/>
		<polygon id="XMLID_84_" class="st2" points="-426.6,258.5 -426.6,258.5 -426.6,258.5 -426.6,258.5 		"/>
		<path id="XMLID_83_" class="st2" d="M-426.5,258.4C-426.5,258.4-426.6,258.4-426.5,258.4C-426.5,258.5-426.5,258.4-426.5,258.4z"
			/>
		<path id="XMLID_82_" class="st2" d="M-437.6,297.3c0-0.1,0-0.1-0.1-0.1v0.2C-437.7,297.4-437.6,297.4-437.6,297.3z"/>
		<path id="XMLID_45_" class="st2" d="M-435,261.8c0,0,0,0.1,0,0.1h2.7v-13.8c-0.2,0.1-0.4,0-0.4,0.3c-0.2-0.2,0.2-0.5,0.4-0.5v-1.4
			c-0.2,0-0.1-0.2,0-0.3c0,0,0,0,0,0v-0.4c0,0,0,0,0,0v-0.4c-0.3-0.2-0.6,0-0.5,0.6c-0.1,0.1-0.5-0.1-0.5,0.1
			c-0.2-0.4-0.5-0.6-0.8-0.8c0.2-0.3,0.8-0.2,0.6-0.9c0.5-0.1,0.9,0,1,0.1c0.2,0.1-0.2,0.3-0.3,0.4c0.1,0.1,0.2,0.2,0.3,0.2
			c0.1,0,0.2,0,0.2-0.1V244h-4.2c0,0,0,0.1-0.1,0.1c0,0-0.1-0.1-0.1-0.1h-1v2.5c0,0,0.1,0,0.2,0c-0.1,0.1-0.1,0.1-0.2,0.1v4.5
			c0.1,0.1,0.1,0.3,0.2,0.4c-0.1-0.1-0.2-0.1-0.2,0v10.5h2.4C-435.2,261.8-435.1,261.8-435,261.8z M-432.4,245.8
			C-432.4,245.9-432.5,245.8-432.4,245.8L-432.4,245.8z M-434.7,261.4c-0.2,0-0.2-0.1-0.4-0.1c-0.1-0.2,0.3-0.3,0-0.4
			C-434.8,260.5-434.4,261.2-434.7,261.4z M-434.6,251.2c0.1,0.3-0.2,0.2-0.2,0.4c-0.4-0.2-0.2-0.3-0.3-0.7
			C-434.9,251.2-434.8,251.1-434.6,251.2z M-434.8,248.2C-434.8,248.5-435.2,248.1-434.8,248.2L-434.8,248.2z M-434.6,253.9
			C-434.9,254.2-434.3,253.6-434.6,253.9L-434.6,253.9z M-434.6,254.9c-0.3-0.1-0.5-0.6-0.4-0.8
			C-434.5,254.1-434.4,254.6-434.6,254.9z M-434.5,249.4C-434.8,249-434.2,249-434.5,249.4L-434.5,249.4z M-434.3,258.3
			c0.2-0.3,0.4-0.8,1-0.7C-432.8,258.3-433.7,258.9-434.3,258.3z M-433.8,250C-433.9,250.3-434.3,249.9-433.8,250L-433.8,250z
			 M-434,250.4C-434,250.3-433.9,250.4-434,250.4L-434,250.4z M-433,256.9C-433.3,257.2-432.7,256.6-433,256.9L-433,256.9z
			 M-432.7,258C-432.7,258.1-432.8,258-432.7,258L-432.7,258z M-432.7,258.7c0-0.2,0.1-0.2,0.1-0.4c0.2,0,0.3,0.1,0.3,0.3
			C-432.4,258.6-432.5,258.7-432.7,258.7z M-432.3,248.4C-432.3,248.5-432.4,248.4-432.3,248.4L-432.3,248.4z M-432.3,249.5
			c-0.2,0.5-0.9,0.4-1.1,0.7c-0.3-0.4-0.4-0.2-0.2-0.7C-433.2,250-433.1,249.4-432.3,249.5z M-433.6,248.7c-0.4,0,0-0.8-0.6-0.6
			c0-0.3,0.4-0.7,0.6-0.4c0-0.4,0-0.8-0.1-1C-433.2,247.2-433.4,247.8-433.6,248.7z M-434.1,244.6
			C-434.2,245-434.4,244.3-434.1,244.6L-434.1,244.6z M-434.3,245.3c0.3,0.3,0.6,0.5,0.3,0.9C-434.4,246.1-434.4,245.8-434.3,245.3z
			 M-434.5,245.9c0.2,0,0.1,0.3,0.3,0.3c0,0.1-0.1,0.1-0.1,0c-0.2,0.2-0.4,0.3-0.5,0.6c-0.2-0.1-0.1-0.5-0.4-0.5
			C-435,245.8-434.4,246.7-434.5,245.9z M-435.2,246.8C-435.3,246.7-435.1,246.8-435.2,246.8L-435.2,246.8z M-435.3,247
			c0.1-0.1,0.3,0.4,0.3,0.1c0.2,0.1,0.1,0.2-0.1,0.2c0,0.1,0,0.3,0,0.4C-435.4,247.5-435.3,247.5-435.3,247z M-436.1,248.1
			C-436.4,248.5-436.3,247.8-436.1,248.1L-436.1,248.1z M-436.9,246.2c0-0.6-0.4-0.7-0.4-1.4C-435.9,244.5-436.2,245.9-436.9,246.2z
			 M-437.2,245.7C-437.3,246-437.7,245.6-437.2,245.7L-437.2,245.7z M-436.9,248.7c0.2,0,0,0.1,0,0.3c-0.1,0-0.2,0-0.3,0
			C-437.3,248.8-437,248.9-436.9,248.7z M-436.7,258.1C-437.1,258.5-437.2,257.7-436.7,258.1L-436.7,258.1z M-437.1,261.1
			c0-0.1,0.1-0.2,0.3-0.2C-436.7,261.2-436.9,261.1-437.1,261.1z M-436.8,259.5c0.3,0,0.3,0.2,0.5,0.2c-0.1,0.5,0,0.5-0.2,0.8
			C-437.4,260.5-437.1,259.9-436.8,259.5z M-436.3,261.4C-436.3,261.5-436.4,261.4-436.3,261.4L-436.3,261.4z M-435.9,259.3
			c-0.2-0.1-0.3-0.4-0.1-0.5C-435.8,258.8-435.8,259.1-435.9,259.3z M-435.9,253.6C-435.9,253.6-436,253.5-435.9,253.6L-435.9,253.6
			z M-436.1,251.8c-0.5-0.8-0.9-3.3,0.7-1.9c-0.2,0.3-0.6,0.6-0.2,1C-435.6,251.5-436.2,251.3-436.1,251.8z M-435.4,258.4
			C-435.4,258.5-435.5,258.4-435.4,258.4L-435.4,258.4z M-435.6,261.3c0-0.2,0.3-0.1,0.3-0.3C-435,261.1-435.3,261.5-435.6,261.3z
			 M-435.2,261.6C-435.3,261.9-435.7,261.4-435.2,261.6L-435.2,261.6z"/>
		<path id="XMLID_44_" class="st2" d="M-429.7,251.7c-0.1,0-0.2-0.1-0.3-0.1c0,0.1-0.1,0.1-0.2,0.2v0.2c0.1,0.1,0.3,0.2,0.6,0.2
			C-429.7,252-429.7,251.9-429.7,251.7z"/>
		<path id="XMLID_27_" class="st2" d="M-408.5,268.1c-0.1,0.2-0.1,0.1-0.1,0h-4.5c0,0.2-0.1,0.4-0.4,0.4c0.1-0.1,0.1-0.2,0.1-0.4
			h-2.8c0.1,0.1,0.2,0.2,0.2,0.4c0.2,0,0.3-0.1,0.3-0.2c0.3,0.3-0.4,0.4-0.4,0.4c-0.2,0,0-0.4-0.1-0.5c-0.2,0.1-0.4,0.1-0.5-0.1
			h-9.3c0,0,0,0.1,0,0.1c-0.1,0-0.1,0-0.2-0.1h-0.1v1.2c0.1-0.1,0.1-0.1,0,0v0.2c0-0.2,0.2-0.3,0.4-0.3c0.1,0.2,0.1,0.4,0.4,0.3
			c0.3-0.3,0.3-0.9,0.1-1.2c0.7,0,0.5,0.6,1,0.2c0.2,0.9-0.3,1.1-0.5,1.6c-0.5,0,0.2-0.2-0.1-0.4c-0.3-0.1-0.1,0.3-0.4,0.2
			c0.2-0.3-0.5-0.1-0.9-0.1v3.3c0.1,0.1,0.1,0.2,0,0.2v0.2h3.3c0-0.1,0.1-0.2,0.2,0c0,0,0,0,0,0h3.9c0.1-0.1,0.2-0.2,0.3-0.2
			c-0.4-0.6-0.6,0-1,0.1c-0.1-0.4,0.3-0.2,0.2-0.6c0.2,0,0.2,0.1,0.3,0.1c0-0.2,0.2-0.7,0.5-0.8c0.2,0.5,1.5-0.1,1.7-0.6
			c0.1,0.3,0.2,0.7,0.4,0.9c-0.4-0.2-0.3,0.1-0.6,0.2c0.2,0.3,0.3,0.6,0.3,0.9h7.3c-0.3-0.2,0.4-0.4,0.4-0.7c-0.1-0.3-0.2,0.1-0.4,0
			c0.2-0.5,0.5-0.8,0.8-1.1c0.1,0,0.3,0.1,0.4,0.1v-3.7H-408.5z M-424.6,272.1C-424.6,272.1-424.7,272-424.6,272.1L-424.6,272.1z
			 M-421.9,272.6C-421.9,272.5-421.8,272.7-421.9,272.6L-421.9,272.6z M-421.2,272.4c-0.4,0.3-0.9,0-0.9-0.4
			c0.1-0.2,0.3-0.3,0.6-0.2c0-0.2-0.1-0.2-0.3-0.2c0.1-0.5,0.6-0.9,1.1-0.5C-421,271.4-421.4,271.9-421.2,272.4z M-419.8,269
			C-420.1,269.2-419.5,268.6-419.8,269L-419.8,269z M-416.5,271.9C-416.7,272.3-416.6,271.5-416.5,271.9L-416.5,271.9z
			 M-416.7,268.3c0.4,0.1-0.1,0.3,0.3,0.4C-416.6,269-417,268.4-416.7,268.3z M-415.4,268.9C-415.5,269.2-415.9,268.8-415.4,268.9
			L-415.4,268.9z M-414,269.2C-414.1,269.1-414,269.2-414,269.2L-414,269.2z M-413.9,268.9C-414.1,269.3-414,268.5-413.9,268.9
			L-413.9,268.9z M-413.7,268.3C-413.8,268.2-413.6,268.3-413.7,268.3L-413.7,268.3z M-413.2,270.7c-0.3-0.1-0.1-0.3-0.1-0.5
			C-413,270.1-413,270.5-413.2,270.7z M-412.8,273.2C-412.7,273.3-412.8,273.2-412.8,273.2L-412.8,273.2z M-411.8,273.2
			c-0.3,0-0.4-0.3-0.2-0.4c-0.6,0.2-0.4-0.2-1-0.2c0.2-0.3,0.4-0.2,0.6,0c0.4-0.6,0.5-1.7,1.3-1.2
			C-411.1,272.3-411.7,272.5-411.8,273.2z M-410.3,269C-410.4,269.4-410.6,268.7-410.3,269L-410.3,269z M-410.4,268.8
			c-0.2,0-0.2-0.5,0.1-0.3C-410.2,268.6-410.4,268.7-410.4,268.8z"/>
		<path id="XMLID_26_" class="st2" d="M-442.8,252.5c0.1,0,0.2-0.1,0.2-0.1C-442.6,252.4-442.7,252.4-442.8,252.5z"/>
		<path id="XMLID_1_" class="st2" d="M-454.9,273.1c0.2-0.5,0.5,0.1,0.4,0.4h1.2c-0.3-0.2,0.1-0.7,0.2-0.8c0.2,0.1,0.1,0.6-0.1,0.8
			h8.8V272c0,0,0,0,0,0c0,0,0,0,0,0v-2.6c0,0,0,0,0,0c-0.2,0.2-0.1,0,0-0.1v-1.2h-0.6c0,0,0,0.1,0.1,0.1c-0.1,0.3-0.5,0.3-0.5,0.6
			c-0.4-0.1-0.2-0.5,0-0.7h-3.6c0.1,0.4-0.2,0.8-0.7,0.8c0-0.4-0.1-0.5,0-0.8h-10.4c0.1,0.4-0.1,0.9-0.3,1.2c-0.3,0-0.1-0.5-0.4-0.5
			c-0.3,0-0.3,0.2-0.4,0.3c-0.2-0.1,0.2-0.6,0-0.8c0.1-0.1,0.3-0.1,0.4-0.2h-1.1c0,0,0,0-0.1,0.1c-0.2,0.2-0.1,0,0-0.1h-0.3v5.4
			c0,0,0.1,0,0.1,0c0,0,0,0,0,0h7.5C-454.6,273.3-454.5,273.1-454.9,273.1z M-448.3,273.3c0-0.2,0.2-0.2,0.4-0.2
			C-447.9,273.4-448.2,273.5-448.3,273.3z M-445.9,269.3C-446,269.2-445.9,269.3-445.9,269.3L-445.9,269.3z M-445.4,272.4
			c0,0.5-0.1,0.8-0.5,0.7C-446.1,272.9-445.9,272.3-445.4,272.4z M-447.2,268.6C-447.3,268.9-447.4,268.2-447.2,268.6L-447.2,268.6z
			 M-447.2,273.1c-0.2,0-0.3-0.1-0.3-0.3C-447.4,272.9-447.1,272.9-447.2,273.1z M-447.9,272.8c0,0.1,0,0.1,0,0.2
			c-0.1-0.1-0.3-0.2-0.3,0C-448.6,272.9-447.9,272.5-447.9,272.8z M-449.7,272C-449.3,271.6-449.1,272.3-449.7,272L-449.7,272z
			 M-450.1,268.4C-450.1,268.3-450,268.4-450.1,268.4L-450.1,268.4z M-452.7,268.4c0.1,0.4-0.1,1-0.7,0.9
			C-453.4,268.8-453.2,268.4-452.7,268.4z M-453.3,272.6C-453.5,273.2-453.8,272.8-453.3,272.6L-453.3,272.6z M-454.2,272.9
			C-454.6,273.2-454,272.6-454.2,272.9L-454.2,272.9z M-454.3,271.4C-454.6,271.8-454.5,271-454.3,271.4L-454.3,271.4z M-462,270.8
			C-462,270.7-461.9,270.8-462,270.8L-462,270.8z M-461.6,268.7C-461.6,268.6-461.5,268.7-461.6,268.7L-461.6,268.7z M-460.9,269.4
			C-461.3,269.7-460.7,269.1-460.9,269.4L-460.9,269.4z M-460.7,271.9c0.1,0,0.1,0.2,0.1,0.3C-461,272.3-460.8,272-460.7,271.9z
			 M-455.6,269.4c-0.4,0,0.1-0.3-0.2-0.4C-455.7,268.7-455.5,269.2-455.6,269.4z M-459.5,273.3c-0.2,0-0.2-0.5,0.1-0.3
			C-459.4,273.2-459.5,273.2-459.5,273.3z M-459,270.9c-0.2-0.1-0.2-0.4-0.2-0.7C-458.9,270.2-458.8,270.7-459,270.9z M-458.5,271.4
			c-0.3,0-0.3-0.2-0.3-0.4C-458.5,270.9-458.4,271.1-458.5,271.4z M-456.1,269c-0.2-0.1-0.2-0.3-0.2-0.5
			C-456.1,268.5-456.1,268.7-456.1,269z M-455.9,268.3C-455.9,268.6-456.3,268.2-455.9,268.3L-455.9,268.3z M-456,273.1
			c-0.3-0.3,0.3-1,0.6-0.7C-455.7,272.5-455.8,272.9-456,273.1z"/>
	</g>
</g>
</svg>
