<svg xmlns="http://www.w3.org/2000/svg" viewBox="-462.3 243.8 53.9 53.9"><style>.st0{display:none}.st1{display:inline}.st2{fill:#d22730}</style><g id="Layer_1" class="st0"><g id="XMLID_3161_" class="st1"><path id="XMLID_3162_" class="st2" d="M-454.1 277.4c0-.1-.1-.3-.1-.4 0 .2.1.3.1.4z"/><path id="XMLID_3165_" class="st2" d="M-440.3 285.2c-1.5-.6-2.9-1.3-4.1-2.3.1 0 .1.1.2.1h-.2v-.2c-.1-.1-.2-.2-.4-.3-.1.2-.3.3-.5.3 0-.2.1-.3.2-.5l.2.2c-.7-.6-1.3-1.2-1.8-1.8.1.1-.1.4-.3.1v-.2h.2c-.3-.4-.7-.8-1-1.2-.1 0-.2.1-.3.1 0-.1.1-.1.2-.2 0 0 0 .1.1.1-.8-1.1-1.5-2.4-1.9-3.7h-5c.1.4.2.8.4 1.2h.2v.4c.4 1.2.9 2.4 1.6 3.4-.1-.1-.1-.2-.2-.4.1.1.2.1.2.2 0-.3.4.1 0 0v.1c1.5 2.6 3.6 4.8 6.1 6.5v-.3c.3 0 0 .2.1.4.5.4 1.1.7 1.6 1-.1-.5.5-.5.4 0-.2-.2-.1 0-.4 0 .3.2.7.4 1 .5.1-.1.2-.1.3-.1 0 .1-.1.1-.2.2 1.1.5 2.2.9 3.3 1.2v-4.2h-.1c-.1-.2 0-.3.1-.5v-.3c0 .5-.1.3 0 .2zm-12.7-8.6c0-.2.2-.2.4-.2 0 .2-.2.2-.4.2zm4.2 4.4c-.1.1-.2.2-.3.2 0 .2.4 0 .6.1-.1.6.5.7.1 1-.4 0-.6-.4-.4.1-.3-.3-.7-.7-.8-1.2.3 0 .7-.3.8-.2zm-1.2-.2c0 .2-.1.2-.1.3-.2.1-.2-.4.1-.3zm-.2-1.2c0 .2-.1.2-.1.4-.3.1-.3-.1-.5-.1 0-.3.3-.6.6-.3zm-1.8 1h-.2v-.2h.2v.2zm.4-1.4c-.2.4-.2-.1-.6.1.1-.9.5-1.5.7-2.3.4.7-.3 1.8.6 2 .1.4-.1.5-.2.7-.2-.1-.3-.3-.5-.5zm1.5 4.5c-.1-.2-.3-.3-.2-.6h-.6c-.2-.9.5-1 1.1-1.4.3.9.6 1.3.1 2.1-.2-.2-.1-.1-.4-.1zm1 1.4c-.1.1-.5-.4-.6-.7.9-1.7 2 .5.6.7zm.7-.4c.2 0 .3.1.4.1 0 .3-.4.2-.4-.1zm3.4-1.3c-.5-.1 0-.5 0 0zm-.8 2.1c0-.1.1 0 0 0zm-.2.1s0 .1-.1.2c-.1.2.1-.1.1-.2zm-1.1-4.6c-.1 0 0 .1 0 0zm-.4 1.2c-.4.2.2-.4 0 0zm.7 3.6c.2.2-.2.5-.5.5-.2-.5.4-.3.5-.5zm1.3 1.2c-.1.4-.2-.4 0 0zm.6-.5c0 .1-.1 0 0 0zm-1.2.4c-.4-.2-.4-.4-.9-.2-.1-.9 1.1-.8 1.1-.7-.3.1.1.2-.1.4.3-.2.5-.4.7-.7.2.1.3.2.4.2 0 1.1-1.2.2-1.2 1zm2.4.6c0 .3-.4-.1 0 0zm-.6-.7c0-.4.3-.4.3-.7-.3-.3-.7-1-.5-1.8.4.1.4 0 .8-.1.1.4.4.6.3 1.2-.3 0-.5.1-.4.4.1.1.4.2.5.3-.1.6-.5.7-1 .7zm.9-1.2s-.1-.1 0 0zm.1 2.6c-.1-.1.1 0 0 0zm.3-.8c-.3-.1 0-.3.1-.4.3 0 0 .3-.1.4zm.4 1.6c-.4 0 .1-.6 0 0zm.1-.4c-.2 0-.2-.5.1-.3.1.1-.1.2-.1.3zm.3-2.8c-.2 0-.3-.1-.3-.3.3-.1.4 0 .3.3zm.6 2.1c-.2 0-.2-.5.1-.3 0 .1-.1.1-.1.3z"/><path id="XMLID_3203_" class="st2" d="M-442.3 253.3c-.4 0 0-.8-.6-.6 0-.3.4-.7.6-.4v-.2c.1 0 .1 0 .2-.1-1.9.7-3.6 1.7-5.2 2.9.2 0 .5-.1.7 0 .1.5.3.8.5 1.2-.3-.3-.5.5-.3.7-.2.2-.7-.1-1.2.2-.1-.6.3-.6.1-1-.5 0-.3.7-.5 1-.4-.2-.5-.6-.8-.8.5-.5 1-.9 1.5-1.3-.6.5-1.2 1-1.8 1.6.1.2 0 .4-.1.5-.2 0-.2-.1-.3-.1l.4-.4c-.4.4-.8.8-1.1 1.2v.5h-.4s0-.1.1-.1c-1.8 2.2-3.2 4.8-4 7.7h5c1.5-4.3 4.9-7.6 9.2-9.3 0-.1.1-.2.1-.3v-2c-.3 0 0-.4 0-.4-.1-.1-.2-.1-.5-.2v-.4c.2 0 .4 0 .5-.1v-1.7l-1.8.6c0 .3-.1.8-.3 1.3zm-8 7.9c-.4.2.2-.4 0 0zm-2.9 2.8c-.2 0 0-.1 0-.3.2 0 .2.1.3.1 0 .1-.3 0-.3.2zm2-4c0-.1.1-.2.3-.2 0 .1-.1.2-.3.2zm.4 3.2c.1-.2.4-.2.4-.4.2.1-.3.6-.4.4zm.9.4c-.3.1-.3-.1-.5-.1.3-.1.2-.6.6-.6 0 .2 0 .5-.1.7zm.3-2.2c-.1 0-.2-.2-.3-.2.1-.3.1-.6.5-.5-.1.2.1.5-.2.7zm.5-.5c-.3.2.3-.4 0 0zm.1-.9h-.2v-.2h.2v.2zm1.1.8s-.1-.1 0 0zm.3-.9c-.1-.1 0 0 0 0zm0-2c.3.3.4-.1.7-.1.1.2.3.3.2.6-.2.2-.4.3-.8.3 0-.5.1-.5-.1-.8zm.9 1.4c0 .1-.1 0 0 0zm3.3-6.5c0 .3-.4-.1 0 0zm-1.1 5.4s-.1-.1 0 0zm.3-2.6c0 .5-.6.3-.5.8-.5-.8-.9-3.3.7-1.9-.3.4-.6.7-.2 1.1zm.8.6c-.4-.2-.2-.3-.3-.7.2.3.3.2.5.3.1.3-.2.2-.2.4zm.3-2.2c-.4-.4.3-.4 0 0zm.5 1c0-.1.1 0 0 0zm.1-.4c0 .3-.4-.1 0 0zm2.1-.4c-.1-.1 0 0 0 0zm-1.7.6c-.3-.4-.4-.2-.2-.7.4.5.6 0 1.3 0-.2.5-.8.4-1.1.7zm1.2-1.8c0 .1-.1 0 0 0zm.1.6c-.1 0 0 .1 0 0zm.1-1.2c.1.4-.6.2-.6.5-.4-.3.5-.7.6-.5z"/><path id="XMLID_3229_" class="st2" d="M-437.1 261.2c0 .2 0 .4-.1.5h2.7c.1 0 .2-.1.3-.1v.1h1.9V256c-.3 0-.6 0-.8-.2.1-.5.2-1.1.4-1.6.1.1.3.2.4.3v-.8s0 .1-.1.1c-.7-.5-.8-.9-.7-1.8.2 0 .2.1.2.3.2 0 0-.5.2-.6.2.2.2.8.4 1.1v-1.5c-.1-.1-.2-.1-.3.1-.2-.1.1-.5.3-.6v-.1h-.1c-.1-.4-.3-.7-.4-1 .2-.1.3-.1.5-.1v-.7c-.2 0-.2-.2-.4-.3.2-.2.1-.3.4-.3v-1.8c-.1-.5-.3-.7-.8-.7 0 .4 0 .7-.3.8-.1-.2-.1-.5-.3-.6-.1.3-1.2.4-1.3.3.4-.6 1.2-.1 1.7-.6-.3-.3-.3-.3-.6-.3.2-.2.5-.3.4-.8-.4-.1-.3.4-.5.5-.3-.2.2-.6-.1-.8-.1.7-.1 1.2-.8 1.3-.1-.2-.1-.4-.1-.6-.1.6-.2.8 0 1.3-1-.4-.9 0-2.1.4 0-.5.6-.4 0-.6 0-.5.4.1.4-.3-.3 0-.3-.1-.3-.4-.1 0-.1.2-.1.3-.3-.1.2-.8-.3-1.1.1.2 0 .3-.2.5v3c0-.1 0-.1.1-.2h.2c0 .2-.1.2-.1.3-.1 0-.2-.1-.2-.1v5.4c.5 0 1.1-.2 1.1-.6.5.3 0 1.2 1 1.1.1.4 0 .4 0 .8-.8-.3-.8 0-1.4.1 0 .2.1.2.3.2-.1.4-.5.5-.8.6-.3-.5-.2-1 .2-1.2.1-.3-.2-.2-.3-.3 0 0 0 .1-.1.1v2.9c.1.1.1.1 0 .2v3.8c.3 0 .2.1.5 0zm4.4-7c-.1-.1 0 0 0 0zm0-6.3c0 .5-.1.8-.5.7-.1-.5.1-.7.5-.7zm-.7 1.9c0 .2-.1.2-.1.3-.2.1-.1-.4.1-.3zm-.6 9.4c.1.1-.1 0 0 0zm-2.7-7.6h-.3c-.2-.2 0-.5 0-.8.2 0 .2.1.4.1.1.3-.1.4-.1.7zm-.2-3.1c.2.1.4.2.2.4-.2 0-.2-.2-.2-.4zm.5 1.5c-.2 0-.3 0-.3-.2h.3v.2zm-.3-3.2c.1-.8 1.4.1.7.4-.3 0-.1-.6-.7-.4zm.6 6.6c.1.1 0 0 0 0zm-.1-4.6c-.3-.1 0-.3.1-.4.3 0-.1.2-.1.4zm.2-.7c0-.1.1 0 0 0zm.2-.1c-.5-.1 0-.6.1-.7.2.1-.1.5-.1.7zm-.2 12.8c-.1.3-.3-.4 0 0zm0-.6c.1 0 0-.1 0 0zm.7.7c-.3.2-.3-.5 0-.3v.3zm.3.7c0-.3.1-.3.4-.3-.1.1-.1.4-.4.3zm.3-4.1c0 .2-.1.2-.1.3-.2 0-.2-.5.1-.3zm-.3-10.1c0 .4-.5-.1 0 0zm.2 2.1c-.1.2-.3.3-.5.3 0-.2.3-.5.5-.3zm-.5 5.5h.2v.2h-.2v-.2zm-.2 1c0 .3 0 .4-.3.4 0-.2 0-.4.3-.4zm-.5 2.7c.7.2.9.9 1.6.6 0 .5-.2.7 0 1.6-.2 0-.4-.2-.7-.1.1-.1.1-.4.1-.7-.2.1-.2.4-.6.3-.1-.3-.2-.3-.1-.6-.2 0-.1.3-.4.2 0-.5-.1-1.1.1-1.3zm-.2-3.7c0-.1.1 0 0 0zm-1.4 3.8c.3.1.3-.1.5-.1.1.4-.3.3-.4.5-.1 0-.1-.2-.1-.4z"/><path id="XMLID_3253_" class="st2" d="M-437.7 261.3v.4h.2c-.1-.1-.1-.2-.2-.4z"/><path id="XMLID_3256_" class="st2" d="M-454.2 273.3c-.2-.3.3-.7.5-.8.1 0 0 .3.2.3-.1.3-.4.3-.5.5h5.6c.5-.5 1-.4 1.5 0h2.5v-5.4h-1.6l.1.1c.2.3.1.9.3 1.2-.7 0-1 .4-1.2.9-.4-.3-.7-.7-.5-1.2-.5-.5-.5-.8-.3-1.1h-6.6c0 .1-.3.4-.3 0h-.4c0 .1 0 .2-.3.2v-.2h-.5s0 .1-.1.1c-.2 0-.2 0-.3-.1h-5.2c.1.4.2.8.3 1.3-.4.1-.8.2-.9.5-.1-.2-.1-.2-.3-.2v3.8h.4c.1-.2.3-.3.6-.3v.3h2.9c0-.2-.1-.4 0-.6.2-.2.1 0 .4 0 0-.2-.2-.2-.4-.2 0-.1 0-.1.1-.1v-.2c.7.1.8.8.4 1.1h3.6zm8.9-3.2c-.3-.2 0 0 0 0 .1 0 .1 0 0 0zm.5 1.1c0 .1-.1 0 0 0zm-.6-2c.3.1.2.4.1.6-.2 0-.2-.5-.1-.6zm-.1.6c0 .3-.4-.1 0 0zm-1.5.8c-.1.3-.6-.1 0 0zm-.2 1c0 .2-.1.2-.1.3-.2.1-.2-.4.1-.3zm-.3-2.4c-.1-.1 0 0 0 0zm-5.3 1.2c-.1-.1 0 0 0 0zm.6-1.2c0-.3.4 0 .3.2-.1-.1-.1-.2-.3-.2zm.2-.4s.1.1 0 0zm2.1 2.7h-.2c0-.3.4-.3.2 0zm-1.4 1.3c-.1.1 0 .4-.3.3.1-.1.1-.4.3-.3zm-1.5-4.3c-.1-.3-.1-.3.1-.6.3.3.6.4 1 .3-.1.6-1.2.2-.9 1.1-.4 0-.5-.3-.9-.3.1-.3.4-.3.7-.5zm-.9 0c-.4.3.2-.3 0 0zm-1.4 0c.1.1 0 0 0 0zm-6.8 1.3s-.1-.1 0 0zm1.8 1.7h-.2v-.2h.2v.2zm-.4-1.2v-.2h.2v.2h-.2zm.3-.3c-.6 0-.2-.8-.8-.5 0-.2.1-.3.1-.4.4.3.3 0 .8 0 0 .4-.1.5-.1.9zm.1-1.6c.1-.7-.1.4 0 0zm.4.3c0 .1-.1 0 0 0zm1 4.3c-.1-.1 0 0 0 0zm.3-3.5h-.4c.1-.3.1-.6-.3-.6.1-.2.3-.4.7-.4.2.1-.1.5 0 1zm2.6 3.7c-.2.3-.3-.4 0 0zm-.3-5c.3.3.3-.3.5.1 0 .4-.4.4-.5.7-.3-.1-.1-.5 0-.8zm-.5 1c.2 0 .2.3.2.5-.3-.1-.4.1-.6.1-.1-.4.3-.4.4-.6z"/><path id="XMLID_3284_" class="st2" d="M-432.7 280c-.2 0-.3-.1-.3-.2h-4.6v5c.1 0 .1.1.2.1-.1 0-.1.1-.2.2v1.6c.1-.1.2-.2.3-.2.1.5-.1.8-.3 1v3.5c.2-.1.4-.1.7 0-.6 1.2 0 2.1-.6 3 0 0 0-.1-.1-.1v.4h.2c.1.3-.1.4-.1.6h-.1v2.8h5.4v-7.9c-.3.6-1.1 1.1-2 .9.1-1.3 1.2-1.2 1.4-2.2.3.1.5.3.6.5v-1.9c-.1 0-.1 0-.2.1.1 0 .1-.1.2-.1v-1s0 .1-.1.1c-.3 0-.3-.7.1-.6v-2.1h-.1c0-.2 0-.2.1-.3v-.4c-.1 0-.2.3-.4.2v-.7c.2-.1.3 0 .4.1v-.4c-.1 0-.2.1-.4 0 .1-.2.2-.3.4-.4v-1.8h-.5c-.1.1 0 .1 0 .2zm-.9 11.9v.2c-.2 0-.3 0-.3-.2h.3zm-2.4-2.6c0 .4.1-.6 0 0zm-.1 1.5c.2-.1.1.2.3.2 0 .1-.2.1-.3.1v-.3zm-.4-9.1c-.2.4-.1-.4 0 0zm-.1 11.1c-.2 0-.2-.6.1-.4.1.2 0 .3-.1.4zm.5.1c.1.1 0 0 0 0zm.1-1.7h.2v.2h-.2v-.2zm.4.5h-.2v-.2h.2v.2zm.2-6.5c-.2 0-.2-.3-.2-.5.3-.1.3.4.2.5zm.8-.2h-.3c0-.3.3-.4.3-.6.4.1-.1.2 0 .6zm.2 4.6c-.1 0 0 .1 0 0zm.4 2.5c-.1-.1.1.1 0 0zm-.3-.3c-.1.4.2-.8 0 0zm.3-4.1c-.1.1-.1.2-.1.2.1-.1.1-.1.1-.2s.1-.2.1-.2 0 .1-.1.2zm-.4-5.1c.4.2 0 .4-.1.6-.1-.2-.2-.5-.3-.7.2-.2.1 0 .4 0-.3-.3-.2-.8 0-1.1.8-.1.6 1.2 0 1.2zm.8 4.4h-.2v-.2h.2v.2zm.8-1.9c-.4-.3.3-.4 0 0zm.3-4.6c-.1 0 0 .1 0 0zm.1-.6c-.1.3-.5-.1 0 0z"/><path id="XMLID_3305_" class="st2" d="M-435.1 267.8c-1.9 0-3.4 1.5-3.4 3.4s1.5 3.4 3.4 3.4c.4 0 .8-.1 1.1-.2.1-.2-.6-.1-.9-.1 0-.3.1-.5.4-.5.1.2.1.4.4.3.3-.3.3-.9.1-1.2.7 0 .5.6 1 .2.1.3 0 .6-.1.8.8-.6 1.3-1.6 1.3-2.7.1-1.9-1.4-3.4-3.3-3.4zm.6 2.8s-.1-.1 0 0zm-.5-.7s-.1-.1 0 0zm.1 1.8c-.2.4-.3-.4 0 0zm-2.5 1.6c-.3.4-.1-.4 0 0zm.1-3.7c-.4.1-.4-.5 0-.4v.4zm1.8 4.4c0 .1-.1-.1 0 0zm.3-.8c-.2 0-.1-.5 0-.5.2.1.1.3 0 .5zm.3.7c-.3.3.3-.3 0 0zm0-.3s-.1-.1 0 0zm.3-.8c-.2-.1-.3-.3-.6-.2 0-.5.3-.2.6-.2v.4zm0-.6c-.1-.3 0-.6-.2-1 .5.1.6.7.2 1zm.3-1.6s-.1-.1 0 0zm.1.9v-.2h.2v.2h-.2zm.5.6c-.3.1-.1.2-.1.5-.3 0-.2-.3-.3-.5.3-.2.6-.4 1.2-.3.2.6-.6.5-.8.3z"/><path id="XMLID_3319_" class="st2" d="M-433.6 274.2c-.2-.1-.2 0-.2.1.3-.1.5-.3.8-.5-.2.2-.4.3-.6.4z"/><path id="XMLID_3322_" class="st2" d="M-428.6 256.6c.5.3 1.2 0 .9-.9-.2 0-.2.2-.5.1.2-.7-.6-.8-.5-1 .5.3 1 .1 1.4.7.4-.6.8-.7 1.1-1.4-.6-.1-.4-1-1.3-.8-.2-.1-.1-.6-.3-.7-.1.3-.4.3-.4.6.2.2.4-.1.4.3-.1.2-.5.7-.8.3 0-.3.2-.4.3-.5.1-.4-.6-.5-.4-.7.2.2.1-.2.3-.3-.3-.1-.5-.3-.6-.5.3.1.5.2.8.3-.6-.2-1.3-.5-2-.6v1.8c.1-.2.2-.5.3-.7.5-.1.2.6.6.5-.2.5-.5.7-.3 1.4-.3 0-.4.3-.6.4v1.5c.5.2 1 .4 1.4.6 0-.2.1-.3.2-.4zm.7-.7c.1.1-.1 0 0 0zm.9-1.6c0 .3-.4-.1 0 0zm-1.1-.3s-.1-.1 0 0zm-.4.4h.4c-.1.2-.1.4-.4.3v-.3zm-1.4.8c0-.1.1 0 0 0zm.5-.5c-.1-.1 0 0 0 0zm-.1-.8c0-.5.6 0 0 0z"/><path id="XMLID_3331_" class="st2" d="M-423.5 286.9c0 .1-.1.2-.1.3-.2.1-.4.3-.6.4 1.2-.8 2.3-1.7 3.3-2.7 0-.1.1-.1.2-.2l.1-.1c-.3-.1-.5-.3-.6-.6.2.2.6.2.6.6 1.8-1.9 3.3-4.2 4.2-6.7-.1.2-.1.3-.2.5-.2-.1-.3-.4-.1-.6.1.1.2.1.3.1 0-.1 0-.1.1-.2-.6-.2-1.5-.5-1.8.3-.6-.2.3-.4.3-.7-.1-.3-.2.1-.4 0 .2-.5.5-.8.8-1.1.2.1.5.1.7.2.2-.4.3-.6.6-.8h-4.5c-.4 1.1-.9 2.1-1.5 3 .1-.1.2-.1.2-.2-.2.5.9.6 1.3.9-.1.6-.2 1.2-.8 1.2 0-.2-.1-.3-.2-.3-.1-.3.2-.2.2-.4-.2-.3-.5.1-.7.1-.1-.3-.1-.8-.3-.7v-.2c-1.3 2-3 3.6-5 4.8.1 0 .1-.1.2-.1 0 .1.2.1.3.1 0 .3-.2.3-.2.6-.1-.2-.3-.3-.5-.5-.8.4-1.6.8-2.4 1.1v5c2.1-.5 4.1-1.4 5.8-2.5 0-.2.2-.6.7-.6zm5.3-6.6c-.2.4-.1-.3 0 0zm-.2-1.9c.2 0 .2-.1.4-.1.2.2-.2.3-.2.6-.2 0-.2-.3-.2-.5zm-.3 1.2c-.3 0 .3-.4-.1-.4.2-.4.3.3.1.4zm-.7 1.4h.2v.2h-.2v-.2zm.3 1.7c-.3.1-.4.5-.8.5-.7-.6 0-1 .3-1.4.3.2.3.6.5.9zm-2.3-4.9c.1.1 0 0 0 0zm.7.8h-.5c.1-.1.4-.5.5-.2v.2zm0-1.2c-.4.2-.4 0-.7-.1 0-.1.1-.1.1-.2.1 0 .1.1.2.1.4-.6.5-1.7 1.3-1.2 0 .9-.6 1.2-.7 1.9-.3 0-.3-.3-.2-.5zm-2.4 9.4c-.4.3.2-.3 0 0zm.1-.4c-.1-.5.4-.4.5-.7.1.2-.2.7-.5.7zm.3-.8c-.7-.2-.1-.9.3-.9.3.3-.3.5-.3.9zm.4-5.2c0 .1-.1 0 0 0zm.2 1.3c-.1.3-.5-.1 0 0zm-.2.4c0 .4-.3.3-.4.5-.2 0 0-.4-.1-.5.2 0 .3-.2.5 0zm-.4-2.5h.1v.4c-.2-.1-.4.1-.6.2.2-.2.3-.4.5-.6zm-.5 2.5c-.1-.1 0 0 0 0zm0-.2c-.2.3-.3-.4 0 0zm-.8-.8c.1 0 .1 0 0 0 .1.2 0 .2 0 0 0 .1 0 .1 0 0zm0 1.3c0 .3-.4-.1 0 0zm-6.1 4.4c0-.3.1-.5.4-.4.1.3 0 .5-.4.4zm1.1-1.3c-.1-.1-.1-.4-.1-.6.4-.1.5.2.6.3-.2.1-.3.3-.5.3zm.7 2.7c.3 0 .2.3.3.5-.3 0-.3-.3-.3-.5zm.7-3.6c.3.3-.3-.3 0 0zm.3 4.5c0 .3-.4-.1 0 0zm.1-.3h-.2v-.2h.2v.2zm.5-.2c-.3 0-.2-.3-.3-.5.4-.1.5.3.3.5zm.2-1.6c.1 0 .2.1.2.3-.3.1-.2-.1-.2-.3zm.8.5c.3 0 .5 0 .5.3-.1-.2-.6 0-.5-.3z"/><path id="XMLID_3359_" class="st2" d="M-416.4 276.2c0 .5.1.9.1 1.5v.1c.2-.4.3-.9.4-1.3-.3 0-.2-.3-.5-.3z"/><path id="XMLID_3360_" class="st2" d="M-420.9 285l.2-.2c-.1.1-.2.1-.2.2z"/><path id="XMLID_3361_" class="st2" d="M-423 256.5c.3.1.7-.7 1.1-.8l.1.1c-.9-.8-1.9-1.5-2.9-2.2-.3.1-.6.7-.9.7.2.4.5.5.2.9.7.3 1.7.2 2.1.8.4.1.5-.6.7-.3.1.6-.8.3-.4.8z"/><path id="XMLID_3362_" class="st2" d="M-416.4 265.7v-.1c-.1.1-.2.1-.3.1h.3z"/><path id="XMLID_3365_" class="st2" d="M-421.7 256.1c.1.4.2.8.4 1-.5-.1-.6.8-.1.8-.2.1-.3.4-.5.5-.3-.4-.7-.1-.7-.5-.1.2-.8-.2-.9 0l-.3-.9c-.4-.1-.5.1-.8.1-.1-.4-.2-.4-.1-.8-.4.1-.8.3-1 .5.2.2-.1.7-.2.9-.1-.4-.6-.6-.7-.9-.4 0-.4.4-.9.3 0-.2.3-.6-.1-.5-.1.5.1.6.2.9h-.1c1.2.7 2.4 1.6 3.4 2.6 0-.3.1-.6 0-.8.2.2.9.8 1.3.8.1.4 0 .8-.4 1.1.6.7 1.1 1.5 1.5 2.3 0-.4-.1-1 .3-1.5.7-.1.5.2 1 .3 0 .2-.2.3-.1.6-.4 0-.7.1-1 .2.2.4.3.7.2 1 .2.5.5 1 .6 1.6h3.5c0-.1 0-.2.1-.3.5 0 .9-.1 1.2-.1-.1-.4-.2-.8-.4-1.2-.1.2-.1.3-.3.4-.6.1.2-1.1-.5-.9 0-.3.3-.4.3-.6-.3-.7-.6-1.4-1-2v.3c-.3.1-.2-.2-.1-.3-.8-1.4-1.8-2.7-2.9-3.9-.1 0-.3 0-.2-.2l-.6-.6c.1-.1 0-.2-.1-.2zm-4.9 1.7c-.3.2-.3-.5 0-.3v.3zm3.6 1.9c-.1 0 0 .1 0 0zm2 3.8c.1 0 0-.1 0 0zm.2 1.3h-.2v-.2h.2v.2zm-1.8-5.7c0 .1-.1 0 0 0zm.7 2.5c-.2 0-.2-.5.1-.3 0 .2-.1.2-.1.3zm-.9-.4c.1-.8.2-1.7 1-1.8-.2.4.1.5.1.8.1-.1.1-.2.3-.2-.1 1-.7 1-1.4 1.2zm4.8 3.8c-.4-.5.4-1.5.5-2.2.2.9 0 1.7-.5 2.2zm.3-3.1c.3.8-.2.8-.1 1.6-.4-.2-.5-.9-.5-1.6.3-.1.3-.1.6 0zm-1.5 2.2c0-.3.4 0 .4 0-.1.3-.2.1-.4 0zm.3-1.9c-.3.1-.2-.2-.1-.3.1 0 .1.2.1.3zm-.1-2c.1.4-.1.4-.2.6-.1-.1-.2-.1-.3-.1 0-.3.2-.5.5-.5zm-.6-.8c0 .3-.4-.1 0 0zm-.9-1.5c.2 0 .3.1.3.3h-.3v-.3zm-.2-.5c0-.1.1 0 0 0zm0 1.7c-.3.2-.6.2-.6.6h-.3c.1-.4-.2-.5-.5-.4 0-.2.2-.2.1-.5.6-.2.9.2 1.3.3zm-.4-2.5s.1.1 0 0z"/><path id="XMLID_3382_" class="st2" d="M-427.8 252.2c.3.1.6.2.9.4-.3-.2-.6-.3-.9-.4z"/><path id="XMLID_3385_" class="st2" d="M-435.1 245c0-.8.6-.8 1.1-1.2h-2.7c.1.8.4 1.2 1.6 1.2zm-.4-.6c.7 0-.1.7 0 0zm-.6-.4c-.1.3-.5-.1 0 0z"/><path id="XMLID_3387_" class="st2" d="M-416.7 263c.2.4.3.8.4 1.2-.1-.5-.2-.9-.4-1.2z"/><path id="XMLID_3390_" class="st2" d="M-408.9 269.5c-.4.1-.3-.2-.6-.2 0-.2.1-.2.2-.3-.2-.3-.5-.1-.7-.3-.2.1-.2.4-.3.5-.1-.3 0-.8.3-1.3h-2.4c-.2.2-.5.4-.5.8-.2 0-.2-.1-.3-.1 0-.3 0-.5.1-.6h-5.1v.1c-.3.1-.5 0-.6-.1h-7.4v2.6h.1c0 .3-.1.4-.1.5v2.3h1c-.1-.1-.1-.3 0-.4.4.1-.1.3.3.4h.2c-.2 0 0-.4-.1-.5-.4.3-.6-.3-.6-.5.5-.7 1.1-.6 2.3-.6 0 .2-.2.3-.1.6-.5-.1-.6-.1-.7.4-.3-.1-.5-.2-.6-.5-.3 0-.5.1-.5.4.1 0 .5.1.5.5.2 0 .3-.1.3-.2.3.2-.4.4-.4.4h5.7c0-.1.1-.3.2-.2 0 .1 0 .2-.1.2h10.6v-1.6c0 .1-.1.2-.1.3-.3 0-.5 0-.6-.2 0-.4.6-.3.6-.6l.1.1v-2c-.5-.2-.9-.4-.7.1zm-13.2 2c-.1 0 0 .1 0 0zm-2.6-2.6c-.2.5-.1-.3 0 0zm.6 1.3c0 .3-.4-.1 0 0zm.2-1.6c-.1.4-.3-.3 0 0zm0 2.5c-.4 0 .2-.6 0 0zm.1-1c0 .3-.4-.1 0 0zm.6-.4c-.5.1-.7-.2-.7-.5.3.1.3-.2.6-.1 0 .2.1.3.1.6zm.9 3.2c-.1-.1 0 0 0 0zm.1.2c.2-.1.1-.5.1-.8.4.1.4.8-.1.8zm.6-.4v-.3h.3c0 .2-.1.3-.3.3zm.3-1.4c0 .3-.3 1-.8.7.1-.2.5-.1.5-.4 0-.1-.3-.1-.4-.1 0-.2.3-.1.2-.4.5.1.6-.1 1-.1.1.3-.4.8-.5.3zm.5-1.8h-.3c0-.2.1-.3.3-.3v.3zm.1 1.9s.1.1 0 0zm.9-2.7c-.3.2-.3-.5 0-.3v.3zm6 2.9c0 .3-.5-.1 0 0zm-4.4-2.5c0-.2.1-.3.1-.4.2 0 .2.2.2.4h-.3zm1.1 3.6c-.3.4-.2-.4 0 0zm.5.2c0 .3-.4-.1 0 0zm.3-1.5c.1 0 .2.1.2.3-.2.1-.2-.1-.2-.3zm1-1.5c0-.2.1-.2.3-.2 0 .1-.1.2-.3.2zm.2-.8h-.3c0-.4 0-.7.4-.6.1.2.1.4-.1.6zm1.4 4.1c-.2-.1-.4-.2-.3-.5.2 0 .4.3.3.5zm.3-1.7c-.1 0 0 .1 0 0zm.2-.1c-.1.4.1-.6 0 0zm.1-2.5c-.1.5.1-.6 0 0zm.5 4.3c.1 0-.1-.1 0 0zm.1-4.4c0 .4-.4-.1 0 0zm.6.4h-.3c.1-.2 0-.6.3-.5v.5zm1.1 2.3c-.4.1-.4-.6-.2-.7.2.1.3.5.2.7zm.1-1.1c.1-.2.3-.3.3-.6.5-.1.8.6.7-.2.6.4-.5 1.4-1 .8zm1.3.6c.1-.3.7-.8.2-1 .1-.1.3-.2.3-.4.6.3 0 1.2-.5 1.4z"/><path id="XMLID_3422_" class="st2" d="M-426.7 252.6c.3.1.6.3.9.5-.3-.2-.6-.3-.9-.5z"/><path id="XMLID_3423_" class="st2" d="M-424.7 253.7c-.3-.2-.6-.4-1-.6.3.2.7.4 1 .6z"/></g></g><g id="Layer_2"><g id="XMLID_3135_"><path id="XMLID_3136_" class="st2" d="M-453.8 263.8c.1-.3.3-.7.4-1-.1.3-.3.7-.4 1z"/><path id="XMLID_3139_" class="st2" d="M-441.7 252c.1 0 .1 0 0 0-.2.4.1.9.1 1.5-.2 0-.4 0-.5-.1.1-.5.6-.8 0-1v-.2c.1 0 .1-.1.2-.1-.2.1-.5.2-.7.3 0 .1 0 .1-.1.2-.1 0-.1-.1-.2-.1-4.7 2-8.5 5.7-10.6 10.4.7-.1.7.9.9 1.7-.4.1-.8.2-.9.5-.1-.3-.4-.2-.8-.2.1-.3.2-.6.3-1-.2.6-.5 1.3-.6 2h5c1.5-4.3 5-7.7 9.3-9.3v-5c-.4.1-.9.3-1.4.4zm-11.6 13.2c.1 0-.1-.1 0 0zm1.7.5h-.2v-.2h.2v.2zm0-.3c-.6 0-.2-.8-.8-.5 0-.2.1-.3.1-.4.4.3.3 0 .8 0 0 .4-.1.5-.1.9zm.1-1.6c.1-.7-.1.4 0 0zm0-.6c-.2.2-.1 0 0 0-.1.1-.2.1-.4.1-.1-.3.1-.4.1-.6.3 0 .3.2.5.2 0 .1-.1.2-.2.3zm.4.9c0 .1-.1 0 0 0zm.9-1.9c-.3 0-.4-.3-.4-.5.3 0 .4.1.4.5zm.4 2.7h-.4c.1-.3.1-.6-.3-.6.1-.2.3-.4.7-.4.2.1-.1.5 0 1zm.3-4.4c.1-.3.2-.5.6-.5.1.4-.3.4-.6.5zm.7 1.9c0-.2.1-.2.3-.2-.1.1-.2.2-.3.2zm.2-2.2c-.2 0-.2-.7.1-.5.1.3-.2.3-.1.5zm1.3-1.6c-1.4.9-.7-1 .1-1.2-.2.4-.1.6-.1 1.2zm-.1-2c.1 0 .2.1.2.3-.2 0-.2-.1-.2-.3zm.6-1.1c0 1-1 0 0 0zm1-1.2c0 .2-.1.3-.3.3.1-.1 0-.4.3-.3zm0 .7c.1 0 .1.2.1.3-.4.1-.2-.2-.1-.3zm1.2 4.1zm-.3-1.8v-.5h.5c0 .4-.1.6-.5.5zm2.6-4.8h.2v.2h-.2v-.2zm0 .3c.2 0 .2.2.2.4-.3.1-.2-.3-.2-.4zm-.2.8c.2-.3.4.4 0 0zm0 1.7c0-.1.1-.2.3-.2-.1.2-.2.3-.3.2zm.8 1.3c-.4.2.2-.4 0 0zm.9-4.8c.1 0 .1 0 .2-.1.1.2.1.5 0 .6-.2 0-.2-.1-.3-.1 0-.2.1-.3.1-.4zm-.2 0l-.1.1s-.1 0-.1-.1c.1.1.1 0 .2 0zm0 5c-.1 0-.2-.2-.3-.2.1-.3.1-.6.5-.5-.1.2.1.5-.2.7zm.5-.5c-.3.2.3-.4 0 0zm.1-1h-.2v-.2h.2v.2z"/><path id="XMLID_3176_" class="st2" d="M-437.7 296.8v.3h.1c0-.1 0-.2-.1-.3z"/><path id="XMLID_3180_" class="st2" d="M-423.6 280.9c.1.3 0 .3-.1.6-.1 0-.2-.1-.2-.2-.3.4-.7.7-1 1v.1h-.1c-1.4 1.2-3 2.2-4.7 2.8v.1h-.1s-.1 0-.1.1v1.6h.2c0 .1-.1.1-.2.1v.6c.9 0 .2-1.8 1.7-1.3-.6 1.2 0 2.1-.6 3 .1-.3-1.5-.9-.9.3.5-.3.5-.1 1 0v.4c3.7-1.2 6.9-3.4 9.3-6.3v-.2h.1c1.8-2.2 3.1-4.8 3.9-7.7h-5c-.9 1.9-2 3.6-3.2 5zm-1.7 2.2c0-.1.1-.2.1-.2-.1 0-.1.1-.1.2 0 0-.1 0 0 0-.1.1-.1.2-.1.2 0-.1 0-.2.1-.2zm-2 1.6c-.1.4.1-.6 0 0zm-.1 1.5c.2-.1.1.2.3.2 0 .1-.2.1-.3.1v-.3zm-.6 2c-.2 0-.2-.6.1-.4.1.2 0 .3-.1.4zm.6.1c0 .1-.1 0 0 0zm.1-1.7h.2v.2h-.2v-.2zm.3.5h-.2v-.2h.2v.2zm1.2-2.1s.1.1 0 0zm.1 2.2c-.1.4.2-.8 0 0zm.3.3c0-.1.1 0 0 0zm.4 0c-.2 0-.3 0-.3-.2h.3v.2zm-.7-1.4c.1-1.3 1.2-1.2 1.4-2.2 1.6.7.3 2.5-1.4 2.2zm2.3-3.2c.3-.3-.1-.5-.4-.3.4-.2.5-.7 1-.7.1.5-.2.8-.6 1zm.6-1.6h-.2v-.2h.2v.2zm.5 4.1c.1.1 0 0 0 0zm.3-4.4c-.1.4-.3-.3 0 0zm0-.4c0-.1.1 0 0 0zm.3-.3s-.1-.1 0 0zm.3 1.9c0-.3.1-.5.4-.4 0 .3-.1.5-.4.4zm2.4-2.2c.3.3-.3-.3 0 0zm.4-.8c0 .1.2.1.3.1 0 .3-.2.3-.2.6-.3-.5-.9-.6-1-1.2.6-.9 2-.1.9.5zm-1.3 1.4c-.2.1-.3.3-.5.3-.1-.1-.1-.4-.1-.6.4-.1.5.1.6.3z"/><path id="XMLID_149_" class="st2" d="M-445.6 282.4c-.2-.1-.2-.3-.2-.5l.2.2c-1.2-1.1-2.2-2.5-3-3.9-.3.5-.7.8-1.4 1.1-.1-.5.5-.4.6-.8 0-.3-.3-.4-.2-.8.2.1.2 0 .5.1v-.3.1c-.1-.1-.1-.3-.2-.4h-.1s0-.1.1-.1c-.1-.3-.3-.6-.4-1h-2.4c.1.2-.1.4-.2.6-.3 0 .1-.6-.3-.4l.1-.1h-2.2c1.8 7.1 7.4 12.6 14.4 14.5v-2.1c-.1.3-.2.5-.3.9-.4-.1-.1-.8-.2-1.2-.5.2-.6.8-1.1.9-.2-.1.2-.5-.1-.7-.1.2-.2.4-.6.3.4-.5.4-.8.4-.9-.3-.4-.3.3-.6.2.1-.2.3-.3.2-.6.2-.2.3.1.5-.1-.4-.2-.2-1 .3-.8 0 .3-.1.4-.2.5.1.4.5 0 .6.2-.2-.2.2-.5-.2-.5 0-.1 0-.1.1-.1v-.2c.3.4.2 1.1.7.9-.2-.6.4-.4.3-.9.1 0 .1.1.2.1v-.8c-2-.7-3.9-1.9-5.4-3.3.1-.3.1-.2.1-.1zm-7.8-4.6c-.3-.4.2-.6.2-.9-.1-.1-.5.3-.9.3.1-.3-.1-.4.1-.6.6-.1.8.3 1.2.1 0 .5-.2.9-.6 1.1zm1.9-.9c-.1-.1 0 0 0 0zm-.5 1.3c-.1.3-.5-.1 0 0zm-.2-1.6c.6 0 .1.1.5.3-.2.3-.7.1-.5-.3zm.5 5.3c.4.1.5.4.6.7-.5 0-.6-.3-.6-.7zm1.1-1.4s-.1-.1 0 0zm3.3.7c0 .3-.4-.1 0 0zm-.8.1c-.4.2.2-.3 0 0zm-1.2-.9c0 .3-.2.3-.2.6-.3-.1 0-.6.2-.6zm-.1 1.5c0 .1-.1.2-.3.2.1-.1.2-.2.3-.2zm-.1.8v.2h-.2v-.2h.2zm-.4-.5h.2v.2h-.2v-.2zm.6 2.5c.3-.1.4-.1.7 0 .1.4-.1.5-.2.7-.3 0-.4-.3-.5-.7zm.8 1.3l-.4-.4c.1.1.2.2.5.2 0 .1 0 .2-.1.2zm-1.4-2v-.7c.2-.1.4-.3.7-.2.1-.2.4-.8 0-.9 0-.1.1-.1.1 0 .4 0 .3-.4.6-.5.6.2.9-.2 1.4-.2-.5.3-.1.8-.4 1.6-1 .3-1.3.7-2.4.9zm3.2.7c.1 0 .1.2.1.3-.3.1-.1-.2-.1-.3zm.1-.4c-.3.1-.2-.2-.6.1.2-.4.1-.9.6-.9 0 .3-.4.7 0 .8zm-.1-2.1c-.1 0-.1-.1-.1-.2-.1 0-.1 0-.1.1-.4-.4.7-.3.2.1zm.2 1c0-.1.1 0 0 0zm-.2-1.7c-.1-.2.4-.2.3 0 0 .1-.2.1-.3 0zm.9 1.1c.1 0 .1.3.1.4-.4.1-.2-.3-.1-.4zm4.1 6.5h.2v.2h-.2v-.2zm.9-2.6c-.2 0-.3 0-.3-.2h.3v.2zm.5-.7c-.1.2-.6.4-.8.2-.1-.6.7-.4.8-.2zm-2.5 2.4h.2v.2h-.2v-.2zm-.8-1.7c0 .2-.3.1-.3.3-.3 0 .1-.2 0-.4h.2c0 .1.1.1.1.1zm-.1-.3c-.2 0-.3-.1-.3-.3.2-.1.4 0 .3.3z"/><path id="XMLID_148_" class="st2" d="M-409.5 273.5h1.1v-.5c-.4-.1-.9 0-1.1.5z"/><path id="XMLID_119_" class="st2" d="M-434.8 280.9c-.3 0-.5.1-.4.4.1.1.4.2.5.3-.1.5-.5.6-1 .6 0-.4.3-.4.3-.7-.3-.3-.6-.9-.5-1.5h-1.7v1.4c.2 0 .4 0 .4.1-.3.1.1.2-.1.4.3-.2.5-.4.7-.7.2.1.3.2.4.2-.1 1-1.3.2-1.2 1-.1 0-.2-.1-.2-.1v.3c.2.1-.1.3.1.4 0 .1-.1.1-.1.1v3l.1-.1c0 .1 0 .2-.1.2v5.2c.3-.1.7-.5.6-.8.5-.2.3.4.7.3-.1.1 0 .4-.3.3.1.5.4.1.7.3-.1 1.1-1.8.7-1.8 2v3c.3.1.2.6.5.7-.2.2-.3.4-.4.7h5.3v-4.5c-.2.1-.4.1-.6.1-.2-.7.4-.7.5-1.1.1 0 .1.1.1.2V280h-2.7c.2.2.3.5.2.9zm0 .1c.1 0 0-.1 0 0zm-2.7.2c-.1.2.1-.1.1-.2 0 0 0 .1-.1.2zm.3-.3c0-.1.1 0 0 0zm.6 12.3c0-.2.1-.3.3-.3 0 .2-.1.3-.3.3zm1.9-8.9c-.1.1-.2.2-.4.2 0-.2.2-.2.4-.2zm0 4.7c0-.1.1 0 0 0zm-.4-1.2c.1.1-.1-.1 0 0zm0-4.9c0 .3-.4-.1 0 0zm-1.2-1c0 .1-.1 0 0 0zm-.5.5c-.2.4-.3-.4 0 0zm-.6 8.4c0-.1.1.1 0 0zm0-4.8c.4-.3.6-.7 1-.8.1.2-.5.5-1 .8zm1.1-.5c.8.1 0 .9 0 0zm.4-1.4c-.3.4-.2-.4 0 0zm.2 1.2c-.2 0-.2-.1-.3-.1-.1-.3.2-.2.2-.4.2 0 0 .4.1.5zm.1-1.4c-.2-.2-.1 0-.4 0-.1-.5.5-.5.4 0zm1.8 10.4c-.6.2-.9 0-1.6 0 .3-.9 1.9-1 1.8.4-.5.1 0-.3-.2-.4zm0-.7c.3-.4.3.3 0 0zm.2-7.1c-.1-.1 0 0 0 0zm.5 7.3c-.1-.1 0 .1 0 0zm-.4-6.5c-.1-.2-.2-.5 0-.7.4.1.7.2.7.6-.3.1-.3-.2-.7.1zm.6-4.3c0 .2-.1.2-.1.3-.2 0-.2-.5.1-.3zm-.6-1.8c-.2 0-.3-.1-.3-.3.2-.1.3 0 .3.3zm-.2 2.5c0 .2-.1.2-.1.3-.2 0-.2-.5.1-.3zm-.3.7c-.4 0 .2-.6 0 0zm-.3-2.1c.3.1 0 .3-.1.4-.3-.1.1-.3.1-.4zm-.4 1.3c0-.1.1 0 0 0z"/><path id="XMLID_100_" class="st2" d="M-425.6 257c.5.6.4 1.5.2 2.3.6.5 1.1 1 1.6 1.6.6 0 1.1.4.8 1 .9 1.2 1.7 2.5 2.2 4h1c0-.2 0-.4.2-.4-.1-.2-.4-.2-.7-.2.3-1.4 1.6-.3 1.2.6h1s.1-.1.1-.2c.1 0 .2.2.3.2h2c-.7-2.7-2-5.2-3.7-7.4.7.9 1.3 1.8 1.9 2.8-.2.2-.6.3-1 .3.4-.3-.1-1.3-.5-1-.2-.5 0-1-.5-1.2 0-.3.2-.5.2-.8-1.8-2.3-4.1-4.1-6.7-5.4v.1c-.1 0-.1-.1-.1-.2-1.1-.5-2.2-1-3.3-1.3.1 0 .3.1.4.1 0 .1.1.1 0 .3-.3.1-.2.1-.5.2 0 .3.6-.1.4.3-.3.2-.6.4-.9.4v3.6c1.2.4 2.4 1.1 3.5 1.8-.3-.7.2-1.4.9-1.5zm7.3 8.7c.2.3-.4-.3 0 0zm-.2-.3c-.1-.1 0 0 0 0zm-.5-4.5c-.1.1-.1.2-.1.3-.2 0-.2-.1-.4-.1 0-.2.3-.4.5-.2zm-.6 3.2c.1.1 0 0 0 0zm-.1-2.5c-.2.4-.1-.4 0 0zm-1.5-3.6c.6-.4-.4.3 0 0zm-2.6 1.2c-.2.2-.4.4-.3.9-.2.2-.3-1.2.3-.9zm-1.6-4.6c.1.1 0 0 0 0zm-1 2.4c0-.3.1-.3.4-.3-.1.1-.1.4-.4.3zm-3.2-.5c-.1-.1 0 0 0 0zm.5-3.9c.3.1-.1.3 0 .5-.1 0-.2-.2-.3-.2 0-.3.5 0 .3-.3zm.5 4.5c-.4.1-.5-.2-.5-.5.4 0 .3.1.6 0 .1.2 0 .4-.1.5zm-.3-2.5c-.1 0-.1-.3-.1-.4.3.1.3-.1.5-.1.2.5-.3.3-.4.5zm1.6 1.6c-.2.3-.4-.4 0 0zm0-.6s-.1-.1 0 0zm.2-.5c-.2 0-.1.3-.4.2 0-.5-.1-1 .2-1.2.7.2.9.9 1.6.6 0 .5-.2.7 0 1.6-.2 0-.4-.2-.7-.1.1-.1.1-.4.1-.7-.2.1-.2.4-.6.3-.3-.3-.3-.3-.2-.7zm.4.9v.3c-.3.1-.3-.5 0-.3z"/><path id="XMLID_99_" class="st2" d="M-438.1 269.8c-.1.2-.2.4-.2.5 0-.1.1-.3.2-.5z"/><path id="XMLID_97_" class="st2" d="M-426.5 258.4v-.2c-.2 0-.1.1 0 .2z"/><path id="XMLID_85_" class="st2" d="M-435.1 268c-1.3 0-2.4.8-3 1.8.1-.2.2-.3.3-.5.2.4.3.9.3 1.4-.4.2-.3-.1-.6-.1.1-.1.1-.3.1-.5l-.3.3c0 .1-.1.2-.1.3.1 0 .1.1 0 .2v-.2c0 .2-.1.5-.1.7 0 1.4.9 2.6 2.1 3.1-.1 0-.2-.1-.2-.1 0-.4.2-.7.6-.7 0 .4-.2.5-.3.8.4.2.8.3 1.3.3 1.9 0 3.4-1.5 3.4-3.4-.1-1.9-1.6-3.4-3.5-3.4zm-2.7 4c-.1.3-.5-.1 0 0zm2.2-2.4h.2v.2h-.2v-.2zm-1.5 3.8c-.2 0 0-.4-.1-.6.3 0 .3.3.3.5-.1 0-.1.1-.2.1zm.9.1c-.1 0 0 .1 0 0zm-.2 0c-.6 0-.2-.8.1-.8.1.1.1.2.3.2 0 .4-.4.3-.4.6zm1.1-.8c-.1 0-.3 0-.3.1-.2-.1-.1-.8.2-.6 0 .3.2.2.1.5zm1.1 1.2c-.3.2.3-.4 0 0zm.4-4.9c-.4.2 0-.5-.4-.3.1-.3.5 0 .4.3zm-.3-.6v-.2c.1 0 .2.1.3.1 0 .1-.1.2-.3.1zm.5 2.9c-.1-.3.5 0 .4-.4.3.2.7.3 1 .5-.4.3-.9-.2-1.4-.1z"/><path id="XMLID_83_" class="st2" d="M-426.5 258.4s-.1 0 0 0c0 .1 0 0 0 0z"/><path id="XMLID_82_" class="st2" d="M-437.6 297.3c0-.1 0-.1-.1-.1v.2s.1 0 .1-.1z"/><path id="XMLID_45_" class="st2" d="M-435 261.8v.1h2.7v-13.8c-.2.1-.4 0-.4.3-.2-.2.2-.5.4-.5v-1.4c-.2 0-.1-.2 0-.3v-.8c-.3-.2-.6 0-.5.6-.1.1-.5-.1-.5.1-.2-.4-.5-.6-.8-.8.2-.3.8-.2.6-.9.5-.1.9 0 1 .1.2.1-.2.3-.3.4.1.1.2.2.3.2.1 0 .2 0 .2-.1v-1h-4.2s0 .1-.1.1l-.1-.1h-1v2.5h.2c-.1.1-.1.1-.2.1v4.5c.1.1.1.3.2.4-.1-.1-.2-.1-.2 0V262h2.4c.1-.2.2-.2.3-.2zm2.6-16c0 .1-.1 0 0 0zm-2.3 15.6c-.2 0-.2-.1-.4-.1-.1-.2.3-.3 0-.4.3-.4.7.3.4.5zm.1-10.2c.1.3-.2.2-.2.4-.4-.2-.2-.3-.3-.7.2.3.3.2.5.3zm-.2-3c0 .3-.4-.1 0 0zm.2 5.7c-.3.3.3-.3 0 0zm0 1c-.3-.1-.5-.6-.4-.8.5 0 .6.5.4.8zm.1-5.5c-.3-.4.3-.4 0 0zm.2 8.9c.2-.3.4-.8 1-.7.5.7-.4 1.3-1 .7zm.5-8.3c-.1.3-.5-.1 0 0zm-.2.4c0-.1.1 0 0 0zm1 6.5c-.3.3.3-.3 0 0zm.3 1.1c0 .1-.1 0 0 0zm0 .7c0-.2.1-.2.1-.4.2 0 .3.1.3.3-.1 0-.2.1-.4.1zm.4-10.3c0 .1-.1 0 0 0zm0 1.1c-.2.5-.9.4-1.1.7-.3-.4-.4-.2-.2-.7.4.5.5-.1 1.3 0zm-1.3-.8c-.4 0 0-.8-.6-.6 0-.3.4-.7.6-.4 0-.4 0-.8-.1-1 .5.5.3 1.1.1 2zm-.5-4.1c-.1.4-.3-.3 0 0zm-.2.7c.3.3.6.5.3.9-.4-.1-.4-.4-.3-.9zm-.2.6c.2 0 .1.3.3.3 0 .1-.1.1-.1 0-.2.2-.4.3-.5.6-.2-.1-.1-.5-.4-.5.2-.5.8.4.7-.4zm-.7.9c-.1-.1.1 0 0 0zm-.1.2c.1-.1.3.4.3.1.2.1.1.2-.1.2v.4c-.3-.2-.2-.2-.2-.7zm-.8 1.1c-.3.4-.2-.3 0 0zm-.8-1.9c0-.6-.4-.7-.4-1.4 1.4-.3 1.1 1.1.4 1.4zm-.3-.5c-.1.3-.5-.1 0 0zm.3 3c.2 0 0 .1 0 .3h-.3c-.1-.2.2-.1.3-.3zm.2 9.4c-.4.4-.5-.4 0 0zm-.4 3c0-.1.1-.2.3-.2.1.3-.1.2-.3.2zm.3-1.6c.3 0 .3.2.5.2-.1.5 0 .5-.2.8-.9 0-.6-.6-.3-1zm.5 1.9c0 .1-.1 0 0 0zm.4-2.1c-.2-.1-.3-.4-.1-.5.2 0 .2.3.1.5zm0-5.7s-.1-.1 0 0zm-.2-1.8c-.5-.8-.9-3.3.7-1.9-.2.3-.6.6-.2 1 0 .6-.6.4-.5.9zm.7 6.6c0 .1-.1 0 0 0zm-.2 2.9c0-.2.3-.1.3-.3.3.1 0 .5-.3.3zm.4.3c-.1.3-.5-.2 0 0z"/><path id="XMLID_44_" class="st2" d="M-429.7 251.7c-.1 0-.2-.1-.3-.1 0 .1-.1.1-.2.2v.2c.1.1.3.2.6.2-.1-.2-.1-.3-.1-.5z"/><path id="XMLID_27_" class="st2" d="M-408.5 268.1c-.1.2-.1.1-.1 0h-4.5c0 .2-.1.4-.4.4.1-.1.1-.2.1-.4h-2.8c.1.1.2.2.2.4.2 0 .3-.1.3-.2.3.3-.4.4-.4.4-.2 0 0-.4-.1-.5-.2.1-.4.1-.5-.1h-9.3v.1c-.1 0-.1 0-.2-.1h-.1v1.2c.1-.1.1-.1 0 0v.2c0-.2.2-.3.4-.3.1.2.1.4.4.3.3-.3.3-.9.1-1.2.7 0 .5.6 1 .2.2.9-.3 1.1-.5 1.6-.5 0 .2-.2-.1-.4-.3-.1-.1.3-.4.2.2-.3-.5-.1-.9-.1v3.3c.1.1.1.2 0 .2v.2h3.3c0-.1.1-.2.2 0h3.9c.1-.1.2-.2.3-.2-.4-.6-.6 0-1 .1-.1-.4.3-.2.2-.6.2 0 .2.1.3.1 0-.2.2-.7.5-.8.2.5 1.5-.1 1.7-.6.1.3.2.7.4.9-.4-.2-.3.1-.6.2.2.3.3.6.3.9h7.3c-.3-.2.4-.4.4-.7-.1-.3-.2.1-.4 0 .2-.5.5-.8.8-1.1.1 0 .3.1.4.1v-3.7h-.2zm-16.1 4s-.1-.1 0 0zm2.7.5c0-.1.1.1 0 0zm.7-.2c-.4.3-.9 0-.9-.4.1-.2.3-.3.6-.2 0-.2-.1-.2-.3-.2.1-.5.6-.9 1.1-.5-.3.3-.7.8-.5 1.3zm1.4-3.4c-.3.2.3-.4 0 0zm3.3 2.9c-.2.4-.1-.4 0 0zm-.2-3.6c.4.1-.1.3.3.4-.2.3-.6-.3-.3-.4zm1.3.6c-.1.3-.5-.1 0 0zm1.4.3c-.1-.1 0 0 0 0zm.1-.3c-.2.4-.1-.4 0 0zm.2-.6c-.1-.1.1 0 0 0zm.5 2.4c-.3-.1-.1-.3-.1-.5.3-.1.3.3.1.5zm.4 2.5c.1.1 0 0 0 0zm1 0c-.3 0-.4-.3-.2-.4-.6.2-.4-.2-1-.2.2-.3.4-.2.6 0 .4-.6.5-1.7 1.3-1.2 0 .9-.6 1.1-.7 1.8zm1.5-4.2c-.1.4-.3-.3 0 0zm-.1-.2c-.2 0-.2-.5.1-.3.1.1-.1.2-.1.3z"/><path id="XMLID_26_" class="st2" d="M-442.8 252.5c.1 0 .2-.1.2-.1s-.1 0-.2.1z"/><path id="XMLID_1_" class="st2" d="M-454.9 273.1c.2-.5.5.1.4.4h1.2c-.3-.2.1-.7.2-.8.2.1.1.6-.1.8h8.8v-4.1c-.2.2-.1 0 0-.1v-1.2h-.6s0 .1.1.1c-.1.3-.5.3-.5.6-.4-.1-.2-.5 0-.7h-3.6c.1.4-.2.8-.7.8 0-.4-.1-.5 0-.8h-10.4c.1.4-.1.9-.3 1.2-.3 0-.1-.5-.4-.5-.3 0-.3.2-.4.3-.2-.1.2-.6 0-.8.1-.1.3-.1.4-.2h-1.1l-.1.1c-.2.2-.1 0 0-.1h-.3v5.4h7.6c.1-.2.2-.4-.2-.4zm6.6.2c0-.2.2-.2.4-.2 0 .3-.3.4-.4.2zm2.4-4c-.1-.1 0 0 0 0zm.5 3.1c0 .5-.1.8-.5.7-.2-.2 0-.8.5-.7zm-1.8-3.8c-.1.3-.2-.4 0 0zm0 4.5c-.2 0-.3-.1-.3-.3.1.1.4.1.3.3zm-.7-.3v.2c-.1-.1-.3-.2-.3 0-.4-.1.3-.5.3-.2zm-1.8-.8c.4-.4.6.3 0 0zm-.4-3.6c0-.1.1 0 0 0zm-2.6 0c.1.4-.1 1-.7.9 0-.5.2-.9.7-.9zm-.6 4.2c-.2.6-.5.2 0 0zm-.9.3c-.4.3.2-.3 0 0zm-.1-1.5c-.3.4-.2-.4 0 0zm-7.7-.6c0-.1.1 0 0 0zm.4-2.1c0-.1.1 0 0 0zm.7.7c-.4.3.2-.3 0 0zm.2 2.5c.1 0 .1.2.1.3-.4.1-.2-.2-.1-.3zm5.1-2.5c-.4 0 .1-.3-.2-.4.1-.3.3.2.2.4zm-3.9 3.9c-.2 0-.2-.5.1-.3 0 .2-.1.2-.1.3zm.5-2.4c-.2-.1-.2-.4-.2-.7.3 0 .4.5.2.7zm.5.5c-.3 0-.3-.2-.3-.4.3-.1.4.1.3.4zm2.4-2.4c-.2-.1-.2-.3-.2-.5.2 0 .2.2.2.5zm.2-.7c0 .3-.4-.1 0 0zm-.1 4.8c-.3-.3.3-1 .6-.7-.3.1-.4.5-.6.7z"/></g></g></svg>