<svg id="Layer_1" xmlns="http://www.w3.org/2000/svg" viewBox="-375 203 208.3 176"><style>.st0{fill:#e6dbdc}</style><path class="st0" d="M-270.9 278l2.6-2.7c0-.5.1-1.1.4-1.8-.6-1.3-3.1 1.2-4-.6 1.9-2.4 6.5-4.6 9.9-4.1l-3.8 3.8 4.4-4.5-.3.3c-.1-1.4.6-3.7-.5-4.1.8-.4 1.6.8 2.8 1.8l61.7-63.2h-99.9v.3c-.3 0-.5-.1-.6-.3h-31.5c.1.4.2.8.6.8-.8 1.6-3 1.8-4.6 1.1-.1-1 .3-1.6.8-2h-11.4l73.4 75.2zm53.3-57.6h1.1v1.1h-1.1v-1.1zm-7.4 2.3h1.1v1.1h-1.1v-1.1zm-2.9 8.6c-1.4.5-1.7 2.1-4 1.7-.3-2.3 2.2-1.7 4-1.7zm-8.5-7.5c-1.3.2-2.2-.1-2.9-.6-.1-.9 3.7-1.1 2.9.6zm-6.3 11.5c1.5-.6 3.3-.4 3.4 1.7-1.5.2-2 1.4-3.4 1.7v-3.4zm-1.2 1.1c-1.7 0-1.4-2.1-3.4-1.7.2-1.2 1.1-1.5 1.7-2.3 1.2.8 1.3 2.5 1.7 4zm-2.3-33.1c1.4.4.3 2.9-1.1 2.3-.4-1.6 1.1-1.2 1.1-2.3zm-6.2 16c-1.8-.2.5-2.4 0 0zM-261 233h1.1v1.1h-1.1V233zm-21.1 26.8c-.3-2.4 1.4-2.7 3.4-2.9.5 2.7-1 3.3-3.4 2.9zm6.8-3.4v2.3c-2.2.4-2.2-2.7 0-2.3zm2.9 13.1c-1.7-.1.5-2.3 0 0zm-3.5-8.5c1.6-2.8 5.3-1.1 5.1 2.3-3.4 1.8-3.3 0-5.1-2.3zm6.9 2.3c-.1-1.2.5-1.8 1.7-1.7.1 1.2-.5 1.8-1.7 1.7zm5.1-44.6c.5.1.6.6 1.1.6-.1.5-.6.6-.6 1.1-.5-.1-.6-.6-1.1-.6.2-.4.6-.5.6-1.1zm-.5 40.6h1.7c-.2 2.4.8 2.2 0 4-.5-1-2.1-2-1.7.6-1 .1-1.2-.7-2.3-.6 1.4-2.6 2.3-1.5 2.3-4zm-2.3-21.2h1.1v1.1h-1.1v-1.1zm.5 20.6c-.5 1.6-2.9 1.3-4.6 1.7.7-1.5 3-3.1 4.6-1.7zm-4-.6c-1-.7-3-.4-3.4-1.7 1-1.6 2.4 2 3.4-.6 1.5.2-.7 1 0 2.3zm-2.8-21.7c1.9 0 3.8 1.7 2.3 3.4-1.3-.6-2.1-1.7-2.3-3.4zm-2.9-16.6c-11.4 2.9-4.3-8.1 0 0zm-6.2 2.3c-.3.3.3-.4 0 0zm0 5.2c-1.4 1.2.5 2.5-.6 3.4h-2.3c.1-2 .5-3.7 2.9-3.4zm-8.6 18.2c1.6.5 1.5-.8 2.9-.6-2.8-3.5 1-4.9.6-9.1h2.9c-.7-2 2.1-3.4 2.9-5.7 1.7 0 3.5-.1 3.4 1.7 1.6-.3 2.7-2.9 4.6-1.1.2 1.3-1.7.6-1.7 1.7.6-.1 3.2.6 2.9-2.3 2.3.1 2.2 2.8 2.3 5.1-.9 0-2.2-.3-2.3.6-1.1-.1-.4-1.9-1.7-1.7-1.1 2-3.8 2.3-5.1 4-.2.9.5 1 .6 1.7.1-2.1 1.2-1.1 2.9-3.4 1.6 2.3.9 4.7 3.4 5.1-.2 1.7-1.2 2.6-2.9 2.9-.4-.5-.6-1.3-.6-2.3-2.3-.6-2.5.9-3.4 1.7 0 1 2.9-.6 2.9 1.7-2.8-1-5.1 2.2-6.3 4.6-1-1.5-3.8-1.6-2.3-4-1.8-.1-2 1.5-2.3 2.9-2.9.3-4-.9-3.7-3.5zm-1.2-32.5c-.6.5-.2 2.1-1.7 1.7-.1-1.3.5-1.8 1.7-1.7zm-9.7 16.5c-1.7-.1.6-2.3 0 0zm-1.7-18.8c.5-.9 1.4-1.2 2.9-1.1 1.8 2.3-2.2 3-2.9 1.1zm.6 2.3c-.3.2.3-.4 0 0zm1.7-4c-.2-.9.5-1 .6-1.7 1.1-.3.8 2.6-.6 1.7zm0-4c-.1 1.5-2.1 1.3-2.9.6.6-1 2-1.5 2.9-.6zm-1.7 3.4c-.2 1.3-2.5.3-2.9 0 .2-1.3 2.5-.3 2.9 0zm-2.3 6.3c1.2-.2 1.5.4 2.3.6.3 1.8-1.2 1.8-2.9 1.7-.2-1.2.4-1.5.6-2.3zm-3.4-3.4c1.3-.1 1.8.5 1.7 1.7-.6-.6-2.1-.2-1.7-1.7zm-5.8 4c-1.3-2 2 1.3 0 0zm-8.5 5.7c-.3.2.3-.4 0 0zm-15.5-17.2h1.1v1.1h-1.1v-1.1zm-1.7 2.3c-1.7-.1.6-2.4 0 0z"/><path class="st0" d="M-186.6 273.2c-.1.3-.1.6-.1.9-.3 0-.4-.2-.4-.4l-2.1 2.1c.2-.1.5-.1.8 0 .1 1.2-.5 1.8-1.7 1.7v-.8l-20 20.3.4-.4c.2.1.4.2.7.3-.1 1.6.3 3.7-.6 4.6-.4-1.2-.9-2.5-1.4-3.7l-60 60.8-67.7-68.6c-.8 0-1.7-.1-2.4-.5.1-.6.6-.3.6 0 .9-.3.1-.9-.4-1.7l2.1 2.1-16.5-16.7H-375L-270.9 379l4-4c-.4-.2-.7-.5-.9-.9.8-.5 1.4-.5 2-.2l28.5-28.9h-.7v-2.3c1.5-.5 1.2.9 1.1 1.9l-.3.3 24.2-24.6c-.6-.5-.9-1.2-1-2.2 1 .1 1.7.4 2.2 1l45.3-46h-19.8l-.3.1zm-163.6 18.6c-.2.3.4-.3 0 0zm1.2 0c-.3.3.4-.3 0 0zm5.7 3.5c-2.7-.9-.8-2.9 0 0zm1.1-2.3h-1.1v-1.1h1.1v1.1zm1.8 1.7c-2.1-1 1.8-1.8 0 0zm5.1 17.1c-1.7-.1.6-2.3 0 0zm1 2.8l-1-1c.6-1 1.2-1.9 2.8-1.8 0 1.5-.6 2.5-1.8 2.8zm17.3 14.9c-2-.9 1.9-1.7 0 0zm4.6 2.3c.3-.3-.3.3 0 0zm11.4 0c-.3.3.4-.3 0 0zm3.4 5.7c-1.5-.1-2.2-.8-2.3-2.3h2.9c.1 1.1-.7 1.3-.6 2.3zm6.9 6.9h-1.1c-.2-1.1.1-1.8 1.1-1.7v1.7zm9.1 8.6c-1.9-.9 2.2-1.5 0 0zm30.3-1.2c.4-.3-.2.3 0 0zm-6.9 2.9c-1.3-1.9 2 1.4 0 0zm2.9-11.4c-.1-.1-.2-.1-.2-.1l.3-.3s0 .2-.1.4zm3.4 10.2c1.2-.3 1.1.8 1.1 1.7-.6-.2-1.1-.7-1.1-1.7zm6.3-2.8c-.2.2.4-.4 0 0zm6.3-24s0-.1 0 0l1-1c.2-.1.4-.1.7-.1.1 1.5-.9 1.9-1.7 1.1zm11.4 2.8h-1.1v-1.1h1.1v1.1zm8.6-20.5c-.2.2.4-.4 0 0zm.6 1.1c-.3.3.3-.4 0 0zm9.1-6.3c.3-1.7 1.2-2.6 2.9-2.9.2 2.7-1 3.9-2.9 2.9zm3.4.6c.3.5.6.9.6 1.7-1.7-.1-1.4-2.7.6-2.3 0 .6-.7.5-1.2.6zm5.8-8c-.3.2.3-.4 0 0zm2.2 2.3c-1.3-1.9 2 1.4 0 0zm9.8-5.2c-2.3-1.4 1.9-.8 0 0zm7.4-16c-1.7-.1.5-2.3 0 0zm-2.3-2.8h1.1v1.1h-1.1v-1.1zm5.7 4c.9 3.3-.2 3.3-1.1 5.7-3-.6-4.6-2.6-5.1-5.7 1.9-1.2 4.9 0 6.2 0zm-6.8 0v1.1c-.5-.1-.5.2-.6.6-1.1.2-.8-2.6.6-1.7z"/><path class="st0" d="M-358.7 239.5c1.1-.2 1.4-1.2 2.9-1.1-.1 1.4.9 1.8 1.1 2.9 2.4.3 1.1-3.1 4-2.3 1.6 1.4-1.1 3.7.6 5.1 1.4.2-.3-2.6 1.7-1.7v3.4c-2.2-.8-2.8.1-3.2 1.2l-1.8-1.9c.5-.6 1-1.1 1.6-1.6-1.2-1.2-3-1-4.6-2.9-.4.1-.5.5-.5.9l86.1 87.5 34.6-35.2h-.7v-1.1h1.1v.7l22-22.3c-.6-.9-1.7-1.2-2-2.4 2.2 1.3 2.1-.7 4.6-.6.1.1.1.1.1.2l13.7-13.9h-.1c.3-3.7.2-4.2-.6-7.4 1.8 1.8 1.9-1 4-.6.2 1.9.1 2.9.5 4.1l4.4-4.5c-.1-.1-.2-.1-.3-.2-.8-1.2.1-.4.5.1l12.3-12.5-10.1 10.2c-.1 0-.2-.1-.4-.1-.5-2.2 2.5-.9 1.7-3.4-.3-.9-.7.2-1.7 0-.3-1.9.4-2.7.6-4-1.6-1.7-4.9 2-6.9 0 .9-1.7 3.3-2 5.1-2.9 0-1.1-1.6-.7-1.1-2.3 1.5-.2 1.9.8 1.7 2.3 3.2-2.1 6.2-.7 10.9-2.9-.7 1.3-.3 2.1.6 2.6l9.7-9.9h-19.8l-53.1 53.9c1.9 1.8 5.2 2.2 7.7.9-1 2.9 1.5 2.3 1.7 4-4.8.6-8.6 0-11.3-3l.5-.5-29.9 30.3-15.2-15.4 1.9 1.9c-.6.3-1.4.5-2.5.4 2.1-3.7-2-2-2.3-4.6.3.1.5.1.8.2l-65.1-66.1c-.1.4-.2.8-.3 1.3-2.6-.5-2.8-1.9-3.1-3.2H-375l16.3 16.6v-.2zm166.8 7.5c-.2.2.4-.4 0 0zm5.2-23.5c1 .1 1.3 1 1.1 2.3-1.7.6-1-1.2-1.1-2.3zm-26.9 44c-.2.3.4-.3 0 0zm-22.3 8.6c.1-1.4 1.9-.2 2.3 0-.1 1.4-1.9.2-2.3 0zm17.7-5.1c-1.7-.1.6-2.4 0 0zm-4-2.9c.7 1.8-.9 1.4-1.1 2.3-.8-.2-.5-1.4-.6-2.3h1.7zm-4.5 2.9c-1.7-.1.5-2.4 0 0zm-20 17.1c1.7-.8 3.5 2 3.4-.6 1.7.1 1.7 5.6 0 5.7-1.3-1.5-3.6-2-3.4-5.1zm-1.2 3.4c1.5-.2 2.5.2 2.3 1.7-1.5.2-2.4-.2-2.3-1.7zM-249 303c-1.7-.1.5-2.4 0 0zm-1.2-13.2c-.1 1 .7 1.2.6 2.3-1.8.3-2.2-.8-3.4-1.1.5-.9 1.8-.9 2.8-1.2zm-1.7 12c-.1 4.4-3.2 5-5.7 3.4.1-3.9 3.5-2.6 5.7-3.4zm-14.8 4c-.3.3.3-.3 0 0zm-13.2-5.7c-.2.3.4-.4 0 0zm-12-7.4h1.1v1.1h-1.1v-1.1zm-.5 4.6c-.3.2.3-.4 0 0zm-13.8-21.2c1.7 0 3.8-.3 3.4 1.7-1.2 1.2-1.6-.3-3.4 0v-1.7zm-3.4 1.7c.4-.3-.2.3 0 0zm-19.4-17.1c-1.6.3.4-3.1-1.1-2.9 1.8-1.9 3 2.2 1.1 2.9zm6.3-1.2c-1.3 4.1-3.3 7.4-8 8 .1-3.8 3.1-9.3 8-8zm-15.5-5.1c-.1 1-1 1.3-2.3 1.1-.5-1.7 1.3-1 2.3-1.1zm-21.7-29.7c.7.2 1.2.7 1.1 1.7-.6-.3-1.1-.7-1.1-1.7z"/></svg>