<svg id="Layer_1" xmlns="http://www.w3.org/2000/svg" viewBox="-391.8 222.6 176 138"><style>.st0{fill:#e6dbdc}</style><path class="st0" d="M-283.5 324.3c.6.4 1.2.9 1.7 1.4-.3.1-.6.2-1 .3-.4-.1-.6-1.1-.7-1.7-1.5-.9-3.2-1.5-5.1-1.5h-4.2c-.1.1-.3.1-.5 0h-26.6c-3 0-5.7 1.4-7.4 3.6 1.9 0 1.9-1.9 4.5-1.2-.4 1.6 1 1.5 1.2 2.5.5-.4 1.2-.7 1.6-1.2 1 .5.1 3.9 2.9 2.5v2.5c-.9-.2-1.1.3-1.6.4.1.8 1.4.3 1.6.8-.2.3-.4.7-.4 1.2-2.2-3.1-3.3-3-7.4-3.7.3-.9 1.1-1.8.4-2.4-1.1.4-3.3.9-2.9-1.2-1.2 1.6-2 3.6-2 5.7v10.1c.2 0 .4.1.7.1-.1.4-.4.7-.7 1v3.4c.4.1.8.3 1.1.5.4-.3.6-.7.8-1.2 1.7.9 3.5 1.6 4.1 3.7-2 .9-3.2 2.6-5.9 2.8-.1-.4-.1-.9-.1-1.3.1 5.1 4.3 9.2 9.4 9.2h31.3c5.2 0 9.4-4.2 9.4-9.4v-18.8c.1-3.6-1.6-6.5-4.2-8.1zm-45 5.7c-.2-.1-.3-.2-.4-.4.1-.4.2-.8.4-1.1.2-.2.5-.3.8-.1.3 1.1-.8.8-.8 1.6zm1.6 0c.3-.2-.2.2 0 0zm1.2 0c-1.6-1 1.4-.6 0 0zm-.4 5.4c-.1-.7.4-.7.4-1.2.9-.2.6.8 1.2.8-.1.5-1 .3-1.6.4zm4.5 24.5c-.1.1.3-.3 0 0zm.3.3c.1-.1.1-.2.1-.3.3-.1.4.1.5.4-.2-.1-.4-.1-.6-.1zm.5-19.9c-1.4-.7 1.4-1.3 0 0zM-295 328c.2-.3-.2.2 0 0zm-1.3.4c-1.5-1 1.4-.6 0 0zm-17.1 5.3c-1.2-.1.4-1.7 0 0zm2 20.4c-2.2.3-3.5-.3-4.5-1.2 1.2-3.1 6.9-2.5 7.4.8 1 .2.9-.7 2-.4.8 5.3-4.4 4.5-4.9.8zm3.7-9.4v-1.2c1.5-.3 2 .5 2 1.6-.9.2-1.5 0-2-.4zm1.6-17.9c.1-.7.7-.9 1.6-.8 0 .7-.6.9-1.6.8zm2.9 9c-.2.1.3-.3 0 0zm-.8-2.5c.1-1.2 1.7-.7 2.9-.8.3 1.7-2.3 1.4-2.9.8zm4.5 8.2c.3-1.3 1.7-1.5 2.9-2 1.3 2.5-1.5 4.1-2.9 2zm4.1-12.7c.2.9-.3 1.1-.4 1.6-.8.2-.8-2.2.4-1.6zm0 24.1c.9-.2 1.1.3 1.6.4-.1 1.2-1.9 1-1.6-.4zm12.6-14.7c.3-.3-.1.2 0 0zm-1.6-6.9c-.2.1.3-.3 0 0zm-6.5 8.1c-1.4-.6 1.5-1 0 0zm1.6.9c1.6-1.3.7-1.9 0-3.7.6 0 1.2.1 1.2-.4.6 1 .8 2.5.8 4.1-1 0-1.2.7-2 0zm5.3 17.9c-.7.1-.7-.4-1.2-.4-.2-.8 1.8-.6 1.2.4zm4.1-4.5c-1.6.6-3.8-1.6-4.5-3.3 2.8-.1 2.7 2.6 4.5 3.3zm-62.5-122.9c.1-.4.2-.6.4-.9.1.2.1.5.1.7-.7-4.5-4.6-8-9.3-8h-12.3c-.2 1.1.7 1.8 1.1 2.9-3.6 1.4-4.7-3.2-7.4-1.6 0-.5.3-.9.5-1.2h-13.1c-1.8 0-3.5.5-4.9 1.4v.7h-.8v-.1c.3-.2.5-.4.8-.6-2.7 1.7-4.5 4.6-4.5 8v18.8c0 5.2 4.2 9.4 9.4 9.4h31.3c5.2 0 9.4-4.2 9.4-9.4V232c0-.5 0-.9-.1-1.4-.3.1-.4.2-.6.2zm-1.3-4.5c.3.3.5.7.7 1.1-.6-.1-1.3-.1-1.8-.2.1-.7.5-.9 1.1-.9zm-1.2 18c.3-.3-.1.1 0 0zm-2.8 0c.2-1.8 2.4.4 0 0zm-.8-11.1c-.2.2.2-.2 0 0zm-2.5-.4c-.7-.4-1.6-.9-.8-1.6.6.3.8.9.8 1.6zm-.4-6.9c.1.7-.4.7-.4 1.2-.4-.1-.3-.8-.8-.8.1-.5.7-.3 1.2-.4zm-2.4 4.5c.2-1.9 2.4.3 0 0zm-.9-2.5c-.9.1-1.3-.3-1.2-1.2.4.4 1.5.1 1.2 1.2zm-7.7 5.8c-.7-.2-.8.3-.8.8h-1.2c.2-.5 2.1-2.5 2-.8zm0 19.1c-.2.6-.6 1-.8 1.6-1-.2-.2-2 .8-1.6zm-1.6-9.8c-.1.1-.1.1 0 0zm-25-14.7c.9-.4.9 1.5 0 1.2-.5-.1-.3-1 0-1.2zm-2.1 4.1c.2 0 .6.1.7.1-.1 0-.3 0-.7-.1-.3 0-.5-.1 0 0zm1.7 17.2h-1.6c.4-.6.6-1.3 1.6-1.2v1.2zm-.4-15.9c-.2-1.3.4-1.8 1.6-1.6.3 1.3-.6 1.4-1.6 1.6zm1.7-3.3c1.3.9-1.5 1.6 0 0zm4 19.6c-1.9.2-2.4-.8-3.7-1.2.9-1.7 1.2-5.2 3.7-4.1-1.8 1.7 1.3 3.1 0 5.3zm.4-19.6h-.8v-.8h.8v.8zm3.7 26.1h-1.2c-.1-.7.4-.7.4-1.2.3.1.4.4.8.4v.8zm-2.4-4.5c0-1.3-1.3-1.2-.8-2.9 1.5 1.2 2.4.8 3.7 1.6-.5 1.1-1.5 1.4-2.9 1.3zm4.1-24.5c-1.3-.1.3-1.7 0 0zm1.6 4.5v.8c-.3-.1-.4.2-.4.4-.8.2-.6-1.8.4-1.2zm1.2 4.5c-1.1-.1-1.7-.7-1.6-2 1.5-.3 1.8.6 1.6 2zm1.6 23.3c-.7.1-.7-.4-1.2-.4-.1-.8 1.9-.6 1.2.4zm0-29.4c-1.5 0-2.2-.8-2.4-2 1.2-.6 2.1 1.1 2.4 0 1.2.3-.2 1.3 0 2zm2.9-.8c-.5 2.4-3 .8 0 0zm-1.2 27.3c-.2.2.2-.2 0 0zm0-16.7c-.2.2.2-.3 0 0zm0-7.8c.4-.7.8-1.4 2-1.2-.2.8-.6 1.5-2 1.2zm2.8 2.1c-.1.1.3-.3 0 0zm.4 15.1c-1.1-1.3 1.3 1.1 0 0zm.5 5.3c.2-.3-.2.2 0 0zm-1.3-22.5c.1-1.4 1.1-1.1 2-.8.1 1.7-1 1.1-2 .8zm2.5 2.5c.3-.3-.2.2 0 0zm-.8-5.3c-1-.9.6-1.1.8-2 .7 0 .2 2.2-.8 2zm2.4 24.5c2.3.1 1.3 1.9 2.4 2.4.7-.8.4-2.6 1.2-3.3 1.1-.1.3 1.6 1.6 1.2.7 5.5-8.7 5-5.2-.3zm6.1-4.5c-1.2-.1.4-1.7 0 0zm1.7-20.4h-1.2c-.7-1.2 1.8-1.2 1.2 0zm.8.4v-1.2h2.5c.2 1.4-1.3 1.2-2.5 1.2zm1.2 2.8c-.7-1.6 1.8-.1 1.6-1.2 1.5.9-.8 2.4-1.6 1.2zm1.7 4.1c.9-1 2.9-3.2 3.3-.4-1.4-1.6-1.9.1-3.3.4zm2.8 7.4c-1.3-.6 1.6-1.1 0 0zm1.6 2.8h-.8v-.8h.8v.8zm1.7-.4h-.8c-.1-.8.1-1.3.8-1.2v1.2zm-1.7-8.2c.2-1.3 1-2 2-2.5 1.3 1.2-.7 2.5-2 2.5zm2.1 11.1c1.2-.4 2.3-.9 2.4-2.4 1 .4.9 1.8 2.5 1.6-.5 2.7-3.2 1.8-4.9.8zm127.8 26.5c0-.2 0-.5.1-.7-1.7-1.5-3.8-2.3-6.2-2.3h-31.3c-5.2 0-9.4 4.2-9.4 9.4v18.8c0 5.2 4.2 9.4 9.4 9.4h1.9c-.2-.5-.5-1-.4-1.8 3.9-.3 7.3.7 11 1.6v.2h18.8c.8 0 1.6-.1 2.4-.3.4-1 .9-1.9 1.7-2.3.3.5.2 1.1.1 1.7 3.1-1.5 5.3-4.7 5.3-8.4v-18.9c0-2.5-1-4.8-2.6-6.5-.3 0-.5.1-.8.1zm-1.6 4.9c.9 1 .1 2.2 0 2.9-1.2-1.1-.4-1.6 0-2.9zm-11.4 5.3c-.2.2.2-.2 0 0zm-.9 0c-.1.2.3-.2 0 0zm-9.8-3.2c-.1.1.3-.3 0 0zm-.4-1.3c-1.2 0 .4-1.7 0 0zm-.8 2.1h.8v.8h-.8v-.8zm-3.3-6.1h.8v.8h-.8v-.8zm-9.8 2.4c-1.2-.1.4-1.7 0 0zm-2.4-.8c-.2.2.3-.3 0 0zm-.8-2.5c.2-.2-.2.2 0 0zm-1.7 3.3c1.1.8 4.1-.2 4.1 1.6-1.2-.8-4.3 2-4.1-1.6zm-1.2-2c.3-.3-.2.1 0 0zm-.4 9.8c.6-.9 2.5.4 2.4 1.6-1.7.4-1.1-1.5-2.4-1.6zm3.3 15.1c-.1-.9.3-1.3 1.2-1.2.2 1-.2 1.4-1.2 1.2zm2.4-9c-1.2-.1.4-1.7 0 0zm4.9-4.1c-2.2-.4-2.2 2.3-4.1 3.3-.4-.1-.3-.8-.8-.8-.8.3-1.1 1.1-1.2 2-1.8-.5-2.2 0-2.9.4.1-3.4 8.2-2.4 7.8-7.8.6.8 1.5 1.3 1.2 2.9zm2.1-10.6c2.1-1 4.1.2 4.9 1.6-.2 1-3.2.2-4.9-.4V279zm4 8.2c-.7 1.9-1.4-.3-2.9 0 .1-1.9 2.4-.3 2.9 0zm1.3 14.7c-1.9.1-3.2-.3-4.5-.8-.5-3.2 5-3 4.9 0-.4 0-.3.4-.4.8zm.4-7c-1.2-.1.4-1.7 0 0zm.4-4.5c-.2.2.3-.2 0 0zm.4-2c.5.2.8.5.8 1.2-.9.2-.8-.6-.8-1.2zm1.6 6.1c-1.4-.7 1.4-1.3 0 0zm1.7.4c.2-.3-.2.2 0 0zm0-10.6c.2-.3-.2.2 0 0zm4.1 21.6c-.9-.3-2.1-.4-2.9-.8.6-1.2 2.5-1.3 3.7-.8.5 1.3-1.4.3-.8 1.6zm-2.9-6.5c0-2.2 4.2-3.6 4.1-.4-1.5.8-2.6-.4-4.1.4zm9 .8c-1.2 0-1.6-.9-2.4-1.2.5-.9 2.9-.3 2.4 1.2zm2.8-11.8c-1.9-.7-.5-2 0 0zm.9-1.7h-.8v-.8h.8v.8zm1.2 1.3c-1.5-.7 1.3-1.3 0 0zm-.4-3.7c.1-.5.4-.2.4 0 1-.4-.9-1.2-.4-2.4.5-.6 1.8-.4 2.9-.4.3-1.2-.7-1.2-.4-2.4 1.2.3 2.1.9 2 2.4-2.3-.2-.4 1.5-1.2 2.5.3-.1.4-.4.8-.4.2.3-2.3 1.7-4.1.7zm4.1 15.9c-1.3-.1.3-1.7 0 0zm-.5 2.1c.6-.9.9-2.1 2.4-2 .1 1.4-.7 2.1-2.4 2zm2.5-17.2v-1.6c.6 0 1.6.2 1.6-.4.7.3-.3 2.3-1.6 2z"/><path class="st0" d="M-328.9 350.5c-.1 0-.2 0-.3-.1v.7l.3-.6zm109.1-75.5c.2.2.4.4.6.5-.2-.1-.4-.3-.6-.5zm-14.4-14.8h1.6c-.8-.3-1.3-.2-1.6 0zm-54.2 12.5c.4 0 .8 0 1.2.1-.5-.1-.9-.1-1.2-.1zm63 50.1c.3 0 .7.1 1 .1-.1 1.3-1.1.9-2 .6.2-.4.6-.6 1-.7h-31.9c-2.5 0-4.7 1-6.4 2.5-.1.3-.4.6-.3 1.1-.2 0-.4-.1-.5-.2-.3.4-.6.8-.8 1.2 0 .7-.5 1.4-1 2.1.2-.8.6-1.5 1-2.1-.9 1.4-1.4 3.1-1.4 4.8v3.6h.2v.8h-.2v14.2c0-.2.3-.5 1.1-.7-.4 1.2-1.1 1.1-1.1.8v.1c0 5.2 4.2 9.4 9.4 9.4h11.5c-.2-.6-.4-1.1-.2-2.1 1 .7 2.9.4 2.9 2.1h.9c0-.1-.1-.3-.1-.4 1.9.8.6-1.6 2-1.2.1.3-.2.4-.4.4.1.5.7.3 1.2.4v.9h13.5c5.2 0 9.4-4.2 9.4-9.4v-18.8c0-5.1-3.9-9.2-8.8-9.5zm-39.8 11.7c-.2.2.3-.2 0 0zm.4 11.9c-1.2-.1.4-1.7 0 0zm-1.6-2.5c-.1-1.2 1.5-1.4 2-.8-.1.9-1 .9-2 .8zm25.3-19.2c-1.2-.1.4-1.7 0 0zm-2.1 20c.6-2.3 2 1.5 0 0zm-2.8-11h.8v.8h-.8v-.8zm-1.2-3.2c1.2-.4.7.9.8 1.6h-.8v-1.6zm-.9 17.5c.1-.1.1-.2.2-.3 0 .1-.1.2-.2.3-.2.5-.3.7-.3.7s.2-.4.3-.7zm-3.6-23.3c.2-1.8 2.4.4 0 0zm-.4 18c-.2.2.2-.3 0 0zm-11.1 6.1c-.9-.1-.1-1.9.8-1.6.3 1.1-.8.8-.8 1.6zm1.7-7.7c-1.2-.3-2.1-.9-2-2.5 2.3.5 2.6-1 2.9 1.6-.2.5-.9.3-.9.9zm2 13.9c-.3-.1-.4.2-.4.4-.8.2-.6-1.9.4-1.2v.8zm0-27h-1.6v-.8h1.6v.8zm1.2 31.9c-.2-.9.3-1.1.4-1.6 1.2 0 1 1.9-.4 1.6zm-.4-29.9c1.4-.3 1.5.7 1.6 1.6-.9-.1-1.9-.2-1.6-1.6zm4.1-6.9c.3-.3-.2.2 0 0zm1.2 1.6c-.1-1.1-.1-2 1.2-1.6.2 1.1-.1 1.8-1.2 1.6zm1.3 20.9c-1-1.4.8-2.7 2-1.6-.1 1.1-.7 1.7-2 1.6zm2-3.3c.3-.3-.2.2 0 0zm.8 17.1c-.5-.1-.3-1.1 0-1.2.9-.4 1 1.5 0 1.2zm7-2.8c-.2.2.2-.3 0 0zm1.2-.4c.3-.3-.2.2 0 0zm-1.6-2.9c-.5-.1-.6-.7-1.2-.8-.5.9-1.5 1.2-1.6 2.4-1.2-1.7-3.5-2.9-2.9-5.7.5.3.8.9.8 1.6.7.1.9-.5 1.6-.4v.8c.9-.4.2-2.6-1.2-2 .8-1.3 3.8-3 5.7-1.6 1.2-.3-.2-1.3 0-2 3.7.8 2.2 3.5 3.3 5.7-1.7 0-3.3-.4-4.5 2zm4.4 7c-1.2-.1.4-1.7 0 0zm-2-2.9c.8-1.1 1.2-2.7 2.9-2.9 0-.1 0-.1 0 0 0 .3 0 1.5.8 2.4-1.1 1.3-2.7.7-3.7.5zm3.7-28.2c0-.1-2 1.8-4.1-.8 0-1.8 1.8-1.8 2.9-2.5 2.2.9 1.5 2.5 1.2 3.3zm2 27.4h-1.6c.1-1.6 1.8-1.2.8-2.9 1.6-.3.5 2 .8 2.9zm2.1-9.4h-.8v-.8h.8v.8zm-1.7-12.3c.4-1.3-.6-1.3-1.2-1.6-.1-.7.4-.7.4-1.2 1.3-.2 1.4.7 2.9.4.6 1.3-.3 2.4-2.1 2.4zm4.5 20.5c-.1-.7.4-.7.4-1.2.8-.2.6 1.8-.4 1.2zm1.7-22.1c-.2.2.2-.3 0 0zm3.2 20.4c.3-.2-.1.2 0 0zm4.9-9c-1.4-.6 1.4-1.2 0 0zm-2-9.8c-.2.2.3-.2 0 0zm3.2 13.5c.6 1.4-1.8 1.9-.4 2.9-2 1.5-2.8-.7-4.9.8.3-2.8 1.4-4.8 4.9-4.5 0 .5.1.7.4.8zm-68.6-75.6c-.2.6-1 .3-1.2-.1h-1.3c.1.2-.1.3-.8.2v-.2h-.4c.3.4.6.8 1.2 1-.8 2.5-4 1.5-3.1-1h-17.7c-.3.5-.3.9.1 1.8-1-.2-1.9-.6-3.3-.4-.6-.2 0-.4.4-.4.1-.5.3-.8.5-1h-6.9c-.7 0-1.4.1-2.1.2-.1.1-.2.2-.4.3-.1-.1-.2-.1-.3-.2.1 0 .2-.1.4-.1-4 1.1-7 4.7-7 9.1v18.8c0 5.2 4.2 9.4 9.4 9.4h31.3c3.6 0 6.7-2 8.3-5l-.3.6c-.2 0-.5-.1-.9-.3.6-.6 1.1-.5 1.3-.3.7-1.3 1.1-2.8 1.1-4.4v-10.7c-.7.6-1.8.8-2.8 1.2 1.1-1.1.2-2.2.8-3.3 1-.2 1.2.4 1.9.5v-6.4c-.1-4.8-3.6-8.7-8.2-9.3zm-41.6 25.8c-.1-.9.3-1.3 1.2-1.2.1.9-.3 1.3-1.2 1.2zm30.2-15.1c.1 1-.6 1.3-.8 2-.5-.8-1.8-1-2-2 1.4.3 1.9-.9 2.8 0zm-4.5-2.5c-.9.2-.8-.6-.8-1.2.5.2.8.5.8 1.2zm-3.3-3.2c.3-.3-.1.1 0 0zm-.3 2.8s-.1 0 0 0c-.2.1-.1 0 0 0zm-1.7-.4c1 .1.2 1.8 0 2-1.2-.3.2-1.3 0-2zm-4.9 2.1c1.6-.7.1 1.8 1.2 1.6-.7 1.3-1.1-1-1.2-1.6zm1.6 11c.2-1.8 2.4.4 0 0zm2.1 5.3c-.2.2.2-.3 0 0zm1.6.8c.7-1.1 1.3-.6 2 0-.3 1.4-1.4.5-2 0zm7.4 6.1c.1-1 .6-1.6 1.6-1.6.3.4.4.9.4 1.6-1.3.3-.8.3-2 0zm-1.7-15.5v-2c-1.5 2.9-5.8 1.3-8.2 1.2.7-2.5 5 .6 6.5 0-.4-1.9.7-2.3.8-3.7 2.6.1.5 2.7 2.4 3.7.2-.5 1.5-1.9.8-2 .1-1.1.7.6 1.6 0 .3 1.9-1 4-3.9 2.8zm4.5-12.2c-1.2-.1.4-1.7 0 0zm.8 17.5c-.2-.9.6-.8 1.2-.8-.1.5-.5.8-1.2.8zm5.7 3.3h.8v.8h-.8v-.8zm3.7 9c-.7-.1-.9.5-1.6.4.6-2.2-2.3-2.3-.8-4.1 2.1 0 2.5 1.6 2.4 3.7zm.5 2.5c-.1-.2-.1-.5 0-.9.6 0 1 .3 1.3.6-.5.2-.9.3-1.3.3zm1.6-13.1c.2-.3-.2.1 0 0zm3.2 8.9c.3-.2-.1.2 0 0zm2.9-4.4l.3.3c-.1.7-.2 1.4-.4 2.1-1.2.3-1.9 1.5-3.9.5.5-1.8 2.6-2.1 4-2.9zm56.8 8.1l-.9.3c.3-.1.6-.1.9-.3zm-41.8 16.5c.3-.3.5-.6.8-.9-.3.3-.5.6-.8.9zm-24.1-103.5h-31.3c-5.2 0-9.4 4.2-9.4 9.4v18.8c0 5.2 4.2 9.4 9.4 9.4h25.6c.1-.3.5-.6.5 0h5.2c5.2 0 9.4-4.2 9.4-9.4v-1.2h-.3c.1-.1.2-.3.3-.4v-2c-1.5.2-1.4.4-2.4-.4 0-.9 1.2-1 2.4-1.3V232c0-5.2-4.2-9.4-9.4-9.4zm-6 4.1c1.2.9-.5 2.6 0 0zm-1.2 1.2c-.2.2.2-.2 0 0zm-.5 4.5c-1.4-.7 1.4-1.2 0 0zm-7.6 4.6c.4.2.5.3.6.3-.1 0-.4-.2-.6-.3-.1 0-.1-.1 0 0-.7-.4-.4-.2 0 0zm-.9.7c-.8.8-1.5.1-2.5 0-.1-.7.5-.9.4-1.6 1 .2 2.1.4 2.1 1.6zm-1.3-8.9c-1.2-.1.4-1.7 0 0zm-1.2 5.3c.4-1.8 2.2 0 0 0zm.4-10.7c-.1.2.3-.2 0 0zm-19.2 6.6c-.1.1.3-.3 0 0zm-2-.8c.3-.3-.2.1 0 0zm.8 20.8c.2-1.9 2.6-.2 2.9.4-.4.8-2.2-.3-2.9-.4zm4.1-15.9c-.2.1.3-.3 0 0zm-1.2-2.1v-2.4c1.3 0 1.6 1.2 1.6 2.4h-1.6zm2.4 15.9c-1.2 1.2 1.1-1.2 0 0zm1.7-17.9c-2.6.8-1.7-1.7-4.5-1.7.1-.5.7-.6.8-1.2 3.1-.1 5.2 2.7 3.7 4.9-1.6.3-.1-1.4 0-2zm.4 18.4c-2.7 1.2 1.2-.6 0 0zm.8-1.7c-1.2-.1.4-1.7 0 0zm.4-13c.7-.3-.1-2 1.2-1.6-.2.7-.1 1.7-1.2 1.6zm3.3 21.2c-1.4-.6 1.5-1 0 0zm.8-13.1c-.2.2.2-.2 0 0zm4.9 16.4c-1.5-.7 1.3-1.3 0 0zm.8-13.5c-1.2-.1.4-1.7 0 0zm2-17.2c-.9.2-1.1-.3-1.6-.4 0-1.1 1.7-.8 1.6.4zm0 26.6c-1.6-1 1.4-.6 0 0zm1.3 2.8c-1.3-.4.4-2.1 0 0zm2-3.2c-1.3-.1-2-.8-2-2 1-.1 1.7-.8 2.5 0 .1.9-.8.8-.5 2zm.8-4.1c-1.2-.1.4-1.7 0 0zm.4 6.9c-.1-1 .6-1.3.8-2 1.4.2 1 2.6-.8 2zm3.7.8v-1.2c1.8.4 1.1-1.6 2-2 .9-.1.5 1.2 1.2 1.2-.5 1.2-1.8 1.7-3.2 2zm2.4-16.3c.2-1.8 2.4.4 0 0zm.9-11.8c1.4.1 2.4-1.2 3.6-.9.1 1.6-.9 2.1-1.2 3.3-1.9.3-2.4-.8-2.4-2.4zm1.2 24.9c.3-.3-.2.1 0 0zm-.4-2.5c-.1-.9.1-1.6.4-2 .9-.1 1.6.1 2 .4-.4 1-.7 2-2.4 1.6zm2.4 1.7c-1.2 1.1 1.1-1.3 0 0zm0-9c1.1-1.5 2.8.2 0 0zm2.5 4.5c1.5 1.2-1.3 1.3 0 0zm1.2-25.8v-.4c.5 0 .9.1 1.4.1-.3.3-.8.4-1.4.3zm1.6 27.8c1.6 1.2-1.2 1.4 0 0zm5.4-2.9c-.2.2.2-.2 0 0zm-69.7 24.8h-31.2c-5.2 0-9.4 4.2-9.4 9.4v6.3c.7-.8 2.8-1 3.7-1.2 2.1.4.3 5.9 3.3 4.1.1 2.4-.9 3.7-2.5 5.3-1.6-.5-3-1.6-4.5-2.1v6.4c0 5.2 4.2 9.4 9.4 9.4h31.3c5.2 0 9.4-4.2 9.4-9.4v-8.6c-1.8 1.4-5.6.8-7.2-.2.1-3.7 3.5-2.9 6.5-6.9 1 .3.1 3.1.6 4.5v-7.6c0-5.2-4.2-9.4-9.4-9.4zm-36.9 10.8c-1.3-.1.3-1.7 0 0zm-.5-3.3c.9-.2.8.6.8 1.2-.4-.1-.8-.5-.8-1.2zm-2 20c-1.2-.1.4-1.7 0 0zm4.5-15.1c-1.1-1.3-.8-2.8 1.2-2.8-.2 1.1-1 1.7-1.2 2.8zm12.2-12.2v.8c-.3-.1-.4.2-.4.4-.8.1-.6-1.9.4-1.2zm-4.4 14.3c.3-.7.7-.1 1.2 0-.3.7-.8 0-1.2 0zm1.2 2.8c-.8-2.5 1.8-1.4 1.2-3.7 1.4 0 2.2.6 2.9 1.2-.8 2.2-2.6.9-4.1 2.5zm2.4-12.6c1.7 2.2 3 2.5 5.7 3.3-2.7 6.6-10 1.8-5.7-3.3zm7.8 0c.2-1.8 2.4.4 0 0zm.4 32.2c-.1-.7.5-.9.4-1.6 1.2.1 1 1.9-.4 1.6zm2-14.3h-.8v-.8h.8v.8zm.9.4c-1.4-.6 1.6-1 0 0zm-1.3-19.6c-.3-1.4 1.4-1.5 2-.8-.2.8-1.2 1.7-2 .8zm9.4 16.8c-.3-.1-.4.2-.4.4-.8.2-.6-1.9.4-1.2v.8zm4.1 6.5c-1.2 1.1 1.1-1.2 0 0zm.8-8.6h-.8v-.8h.8v.8zm2.1 69.1c-.3.1-.6.2-.9.2.4 0 .7-.1.9-.2z"/><path class="st0" d="M-391 290.4c-.4-.3-.7-.7-.8-.9v2.4c.6-.1.8-.2.8-1.5zm44.2 68.8c-.5.3-1.1.5-1.7.7.6-.2 1.2-.4 1.7-.7zm124.9-49.9c-.3.1-.6.3-.9.4.4-.2.7-.3.9-.4zm-167.9 47.4c-.6-.8-1.1-1.6-1.4-2.6.3 1 .8 1.9 1.4 2.6zm172.4-122.2c-.1-1.7-.6-2.4.8-2.8-.2-5-4.3-9.1-9.4-9.1h-31.3c-2.3 0-4.3.8-5.9 2.1.3.2.5.6.5 1.1h-1.2v-.4c.2-.2.5-.5.8-.7-2.1 1.7-3.5 4.3-3.5 7.3v2.3c.3-.3.4-.8.2-1.5 1.2-.3 1.5.4 2.4.4-.4 1.2-.6.5-1.6.4.7.8.5 2.5 1.2 3.3-.4.8-1.2 1.2-2.3 1.2v8.6c.1-.1.1-.3.2-.4 1 .1 1.5.6 2.9.4-.2 1.9.8 5.1 0 6.9.9-1.8 2.6-.1 3.3.8-2.4.9-4.2-.3-6.1-1.3-.1-.4-.2-.7-.2-1.1.6 4.6 4.5 8.1 9.3 8.1h20.8c.4-.6.9-1.1 1.5-1.6-.8-.9-2.1-.7-3.3-2-.6.1-.1 1.2-.8 1.2-1.4.4-.6-1.3-.8-2 .8-.2 1-.9 2-.8-.1 1 .6 1.3.8 2 1.7.2.8-2.2 2.9-1.6 1.1 1-.8 2.6.4 3.7 1 .2-.2-1.9 1.2-1.2v2.4h6.5c5.2 0 9.4-4.2 9.4-9.4v-16.3h-.7zm-46.2 1.2c.4-1.7 2.2 0 0 0zm2.1-.8h1.6v.8h-1.6v-.8zm1.2 17.9c-.7-.4-1.1-1.4-.4-2 1.3.3.5 1.1.4 2zm.4 6.2c-.3-1.4 1.7-.5 1.2-2 1.2.6-.4 1.9-1.2 2zm24.9-26.6c1-.1 1.5-.6 2.9-.4.2 2.1 1.2 3.4 2.9 4.1-.5 1.4-2.6 1.2-4.5 1.2 0-2.1-1.7-2.4-1.3-4.9zm-12.2 18.8c-.2.2.2-.3 0 0zm-6.2-5.3c-1.5-1.2 1.3-1.4 0 0zm-.4 4.9v-1.6c1.6-.3 1.4 1.7 0 1.6zm4.9-18.8c-.5-.5-.5-1.4-.4-2.4 1.1-.3 1.6 3.1.4 2.4zm.8 21.7c-.2-.9.8-.6.8-1.2.8-.2.1 1.5-.8 1.2zm1.3-13.5c.2-.3-.2.2 0 0zm.4.4h.8v.8h-.8v-.8zm.8 11.4c-.2.1-.3.2-.4.2-.4.2-.3.2 0 0s.6-.4.7-.4c0 .1-.1.1-.3.2zm4.1-12.6c-1.6-2.1-4.7-.1-4.9-3.7 2.2-.5 6.7-.2 4.9 3.7zm.8 5.7c.5.2.8.5.8 1.2-.5-.2-.8-.5-.8-1.2zm4.5 1.2c-3.1-.6-1.5-3.2-3.3-3.7.5-1.8 1.3-1 1.2-2.9 1.8.6 1.7 3.2 4.1 3.3-.6 1.2-2 1.6-2 3.3zm2.8-5.7c-.6-.3-.6-1.3-.8-2 .8-.8.7.2 2 0 .8 1.8-1.6.5-1.2 2zm.5.4c.6.1.3 1 .4 1.6-1-.1-1-1.1-.4-1.6zm.4 4.9c-1.4-.6 1.6-1 0 0zm1.2.8c-.2.2.3-.2 0 0zm-.8-4.5c.3-1.3 1.1-.5 2-.4-.5.6-1.5 1-2 .4zm2.4 9.4c.3-.2-.1.2 0 0zm.4-11.8c-.1.2.3-.3 0 0zm-.8-.8c-.2-.9.3-1.1.4-1.6 1.9-.1 2.1 2.1-.4 1.6zm2.1-2.5h-.8v-.8h.8v.8zm1.6 2.5c-1.2-.1.4-1.7 0 0zm0-12.3c-1.6-1 1.3-.6 0 0zm2 11.4h-.8v-.8h.8v.8zm1.7-11c.3-1.9 1.6-.4 2.9-1.2-.4 2 1.3 1.9.8 4.1-2.3.1-2.3-2.2-3.7-2.9zm.8 11c-.2-1.7 1.4-1.6 2-2.5 1.1-.2.4 1.5 1.2 1.6-.5 1.3-2.1 1.4-3.2.9zm-169.3 90.8c-.1.4-.2.7-.3 1.1 0-.4.1-.7.3-1.1z"/><path class="st0" d="M-266.6 251.9c0-.4-.1-.8-.1-1.2 0 .5.1.9.1 1.2zm-97.9-28c0-.5-.2-.8-.3-1.2h-1.1c.3.5.8.9 1.4 1.2zm13.3 98.9h-31.2c-4 0-7.4 2.5-8.8 6.1.3-.8.7-1.5 1.2-2.1.7.3 1.6.6 2.7.5-.7 2.2-1.5 3.6-2 5.7-1.4.3-2.1-.5-2.4-1.6 0-.4.1-.8.2-1.3-.2.7-.2 1.4-.2 2.1V351c0 1.2.2 2.2.6 3.3 1.1.3 1.4 1.2 1.4 2.6 1.7 2.2 4.4 3.6 7.3 3.6h31.3c.6 0 1.2-.1 1.8-.2-.3.1-.6.1-.9.1.4-.6.8-1.2.9-2 1-.1 1.8 2.4 1.6 0 .5.1.7.6.9 1 3-1.6 5-4.7 5-8.3v-8.9c-.1 0-.1-.1-.2-.1.1-.2.1-.3.2-.3v-9.4c0-5.4-4.2-9.6-9.4-9.6zm-38.2 30.1c-.4-1.7-.1-1.8 0-3.7h2.9c-1 1.2-1.3 3.1-2.9 3.7zm3.7-2.4v-.3.2c.1.4.2 1 .2 1.1s0 .1 0 0-.1-.4-.2-1zm26.1-16.4c-.1.2.3-.2 0 0zm-.8-3.2c-1.3-.6 1.6-1.1 0 0zm0 3.6c-.2.6-.6 1-.8 1.6-1.4-.1-.8-2.1.8-1.6zm-4.9-10.6c.3-.3-.1.2 0 0zm-1.2-.4c.3.6 1.3.6 1.2 1.6-1.4.4-2-.8-1.2-1.6zm1.6 8.2c.4 1.5-1.6.6-2.5.8-.1-1 1.9-1.9 2.5-.8zm-1.6 2s-.1.1 0 0zm-2-2.8c.2-1.9 2.4.3 0 0zm0 4.9c.7.3.1.7 0 1.2-.8-.3-.1-.8 0-1.2zm-12.7-11.9c-1.4-.6 1.6-1 0 0zm1.2 31.5c-3.8-.8-1.1-4.8.8-5.7 1.9 1.4-.7 3.6-.8 5.7zm.8-13.1c-1-.4.3-1.8 1.2-1.6-.1.8-1 .8-1.2 1.6zm6.6-10.6h-.8c-.1-.8.1-1.3.8-1.2v1.2zm0-7c5.8-1.4-.1 7.6 0 0zm2.8 8.6c.1 1.1-.9 1.1-1.6 1.2-.3-1.4 1.1-1.8 1.6-1.2zm-2.4 3.3c0-.8 1.1-.5.8-1.6.9 1.2 1.9-.3 1.6 2-.8-1-1.6.5-2.4-.4zm2.4 6.1c-1.3-.6 1.6-1 0 0zm.4 3.3c.6-2.7 4.1-2.6 4.9 0-1.7.8-3.3.8-4.9 0zm5.4 2.4c-.2.2.2-.2 0 0zm.4-1.2c-1-1.4 1.3 1 0 0zm0-11c-2.4-3.4 1.9-3 0 0zm3.6 20c-.3-1.1-2.1-.6-2.9-1.2.2-.6.6-1 .8-1.6 2.3-.7 3.2 1.4 2.1 2.8zm-1.2-8.2c-.2-1.6 1.2-1.5 1.6-2.4 1.5.3 0 2.7-1.6 2.4zm3.3.8c.2-.2-.2.2 0 0zm1.6 3.7c-1.4-.7 1.3-1.3 0 0zm5.7-4.9c.8-.7.5 0 1.6 0 .4 1.6-1.9 1.6-1.6 0zm2.9 8.2c-.9-.5-2.3-.5-2.4-1.6h3.3c.2 1.1-.9.8-.9 1.6zm-9.8-28.2c2.2 1.3 3.5-.1 4.5 1.6 1.4-2.3 3 2 6.1.8.9 6-10.8 2.7-10.6-2.4zm14.4-.3c.5.8.8 1.6 1.1 2.5-1.1.1-2.3-.1-3.6-.6.1-1.3.8-2 2-2 0 .1.2.2.5.1z"/></svg>