<svg id="Layer_1" xmlns="http://www.w3.org/2000/svg" viewBox="-376 177.7 206.9 206.4"><style>.st0{fill:#d22730}.st1{fill:#e6dbdc}</style><g id="Layer_1_1_"><g id="XMLID_158_"><path id="XMLID_1581_" class="st0" d="M-242.1 205.9c.1-.3.2-.5.2-.9 1.3-.3 1.4.5 2.4.5-.1.5-.5.9-1 1.1 10.5 4.6 19.9 11.3 27.5 19.7.2 0 .4-.1.7 0 .8.1 1.3 1.2 1.2 2.2 5.9 6.9 10.6 14.8 13.9 23.4.1 0 .1-.1.2-.1.6 0 .4.8.8.9h.3c.7-.5.3-1.2.6-1.8 1.3.1 2.2.5 2.9 1.2-.5 1-2.5.6-3.5.6l-.1.1h-.2c-.4 0-.5 0-.5.2l-.3-.9c.2.5.4 1 .6 1.6h15.2v-.1c.3 0 .4-.1.5-.2.1.2.2.3.3.4h10.8c-.4-1.4-.8-2.7-1.2-4.1-.1 0-.2-.1-.3-.1 0-.2 0-.4.1-.5-1.2-3.8-2.6-7.5-4.2-11 .1.2.1.3.2.5-.4-.2-.6-.6-1.2-.6.2-.3.5-.2.8-.1-11.9-26.7-34.5-47.7-62.4-57.4-.7.4-1.9 0-2.4-.5.1-.1.1-.2.2-.3l-6-1.8v23c.7-.4 1.5-.4 2.2-.2-.2 1.1-1.2 2.1-2.2 2.1v1.9c1.3.2 2.6.7 3.9 1.2zm67.6 40.9c-1-.1 1.4.2 0 0zm1.9.5h-1v-.5h1v.5zm-.7-4.7c.2.6.4 1.1.6 1.7-.3-.2-.6-.5-.7-.9 0-.2 0-.5.1-.8zm-1.7 1.4c.8.2 1.6.3 2.1.7-.6 1.1-1.6.4-2.6 1-.2-1 .7-.8.5-1.7zm-1 3.3c-.9-.6.8-.4 0 0zm-2.1-3.3c-.3 0-.2-.4-.2-.7h1.2c-.1.4-1.1 0-1 .7zm-.5-6.7c-.1-.5 1.1-.3.7.2-.4.1-.4-.2-.7-.2zm-.2-5.3h.8c.2.4.4.7.6 1.1-.4-.2-.6-.6-1.4-.4v-.7zm0 3.4c-.6-.8.8.5 0 0zm-.5 16.7c-.6-.1-1.1-.2-1-1 .3.4 1 .3 1 1zm-1.4-23.9c-1-.6.7-.3 0 0zm-25.8.2c.9-.3.5.7 1.2.5-.1.8-1.3.3-1.2-.5zm.2-2.6c-.7 0 .2-1 0 0zm2.6-.5c-.5.6-.9-.1-1.7 0-.1-1 .7-1.1 1.7-1v1zm.5-5.2c-.9-.6.8-.4 0 0zm.5 4.5c0-.3.5-1.5-.5-1.9.2-.4.8-.3 1.2-.5.7 1.5 1.3 1.7 1.2 3.8-.4-.3-.5-2.3-1.9-1.4zm3.6 19.8c1.7 0 0 1.5 0 0zm1.6 3.1v-.7c.5 0 .8.2.7.7h-.7zm-.7-16.2c-.1-.5.3-.5.7-.5-.1.3-.3.5-.7.5zm1 1.2c.1-.9 1.5-.5.7-1.7.7-.1.2.9.7 1-.4.2-.8.6-1.4.7zm2.6 7.4c-.4-.3-.8-.6-1-1.2.5-.1 1.3.4.7 0 .4-.7.8 1 .3 1.2zm2.2 6.4h-1v-.5h1v.5zm-1.7-5.2c-.4-1.2 1.9-.8 1.7 0h-1.7zm.7-3.4c-.7 0 .2-.9 0 0zm-1.7-10.7c.6-1.8 3.7-1.4 3.8.5-1.4.9-2.2-.3-3.8-.5zm1.9-1.7c-.7 0-1-.4-1-1.2 2 0 .6-1.2 2.1.5.2.7-1.4-.3-1.1.7zm8.9 1.2c.5.5-.3 1.1-1 1.2-.4-.4 0-1.4 1-1.2zm-2.9 25.6h-.7c.3-.4.6-.8 1.2-1 .3.8-.8.2-.5 1zm-.9-32.5c.4-1 1.4 0 0 0zm-1.5 33.7c-.7-.1.2-1 0 0zm-.5-7c-.9-.6.8-.3 0 0zm-.9-28.8c-.1.6-1 .1-1.2 0 .2-.9.8-.3 1.2 0zm-1.4-.3c.2.6-.5.5-.5 1-.3-.1-.1-.7-.5-.7.1-.4.6-.2 1-.3zm-.8 3.6h-.7c-.3-.7 1.1-.7.7 0zm-.7-5.7c-.2.4-.6.5-1.2.5 0-.3-.1-.4-.2-.5.2-.9 1.1-.4 1.4 0zm-2.8-4.1h-.7c-.4-.7 1-.7.7 0zm-.5 4.8c-.1.6-.6.5-1 .2.1-.3.6-.2 1-.2zm2.6 8.6c-1.5.2-4 1.6-3.8-1.7 1.4.9 3.8-.6 3.8 1.7zm-3.8 12.9c-.7-.6 1 .9 0 0zm-.7.4c-.8.8-1.7-.4-2.4-.5-.2-.8.3-1 .5-1.4.7.4 1.4.7 1.7-.2.7 1.5-.5 1.3.2 2.1zm-1.2-23.8c-.7-.3-.3-.1 0 0zm1.2-4.3h-.5v-.5h.5v.5zm-9.1-5.7v.5c-.3 0-.4.1-.5.2-.3 0 .1-1.5.5-.7zm2.9 5.4c-.2-1.8.5-2.3-1.4-2.9.8-.9 1.5 0 2.1.5.7-.2-.3-.6.2-1 .6.3 1.3.5 1.4 1.2.6-.9 2.5.1 3.6.2 0 .4-1.6.4-1.7 0-.8.1-.4 1.4-.2 1.9-2.1 2.3-5.5 5-9.3 2.9 2-1.1 2.9-2.2 5.3-2.8zm-.3 8.6h-1v-.7c.7 0 1.1.1 1 .7zm-1.6 1.5c-.5.4-.4-.1-1.2 0 .1-.6 1.3-1.1 1.2 0zm-1.7-2.4c.4.1.5.4.5 1-.8.2-.5-.6-.5-1zm-2.2 4.3c.4-.8.3-2.1 1.4-2.1.7-.1.7.6 1 1 .4-.4 1.5-.1 1.7-.7.6 0 .3.9 1 1 .7-.3-.1-1.1-.5-1.2.6-.5 1.8.4 2.6.5-.1.6-.7.5-1 1 .2.3.5.4 1 .5 0 .4-.2.8-.5 1-1.2-1.6-1-.2-1.4 1.4-2.5.1-3.8 1.4-5.2 2.6 0-1.6 1.2-4.2-.1-5zm-.9-16c-.5.1-.6-.2-1-.2 0-.5 1.4-.5 1 .2zm-1.4 6.7c.1-1.1 1.4.2 0 0zm.4 12.4c.2 1.6-1.5-.1 0 0zm-1.2-.7c-.5-.8.8.5 0 0zm-21.7-23.9v-1c.6-.1.6.5.7 1h-.7zm1.5 9.8c-.1-.1-.3-.1-.4-.2-.2-.3 0-.9.6-.7.5.4-.1.4-.2.9zm.9-19.6h-.5v-.5h.5v.5zm3.1 12.2c-.2-.8.5-.4.7-.2 0 .2-.4.2-.7.2zm11.9-1.9c.2.3.3.4.3.5 0-.1-.1-.3-.3-.5zm1.7 15.5c0-.4-.3-.5-.2-1 .9-.2 1.3 1.2.2 1zm.3-20.5h.5v.5h-.5v-.5zm-1-1c-.9.1-1.1-.5-1.7-.7.2-.9 1.9-.2 1.7.7zm-1.7 1c.2-1.1 1.5.2 0 0zm-1.4 1.6c-.7 0 .2-1 0 0zm3.8 1.5c-1.4 1-2.4.1-3.3 1.9-.8.2-.5-.6-1-.7.1-.2 1.9-2.8 4.3-1.2zm-2.8 5c-1.2.1-1.6-.5-2.1-1 .2-.2 2 .1 2.1 1zm-2.7-2.2c-.7 0 .3-1 0 0zm1 11.7c-.7-.4-1.1-1.1-1.9-1.4 0-.6.4-.7.5-1.2 1.7.1 1.3 1.9 1.4 2.6zm-2.4-15.2c.3.1.5.1.6.1-.2-.1-.5-.1-.6-.1zm-.7-9.6c.9.5-1.3-.6 0 0zm-1.5 13.6c-.5-.8.8.6 0 0zm-.4-5.7c-.7-.1.2-1 0 0zm-2.2-1c-.6-.8.8.6 0 0zm-1.9-7.4c-.7 0 .2-1 0 0zm-1.9 6.2c1.3-.2 2 .2 2.9.5-.3 1-1.9-.6-2.9.2v-.7zm.5 9.1c-.4-.3-1.1-.2-1-1 .6.1 1.1.2 1 1zm-1.7-17.4c.1.7-.6.9-1 .5.1-.5.5-.6 1-.5zm-.2 12.9c-.1.3-.3.5-.7.5-.2-.6.3-.5.7-.5zm-1-8.4c-.3 1.4-1.2 1-2.1 1.9-.1-1.1.6-1.3.7-2.1.8.1.6.6 1.4.2zm-1.2-1.2c0 1.2-.8.3-1.7.5-.1-.9 1.2-.3 1.7-.5zm-1.6 1c.3.1.4.4.7.5 0 .3-.4.2-.7.2v-.7zm-.5 14.3c-.3-.3-.5-.8-.5-1.4 1.1-.1 1.1.9.5 1.4zm0 .2c0 .6-1 .3-.7 1.2-.6-.2-.9-.7-1.4-1 .3-.8 1 .5 2.1-.2zm-2.4-20.2c-.2-.5-1-.4-1-1.2.9-.2 1.1.3 1 1.2zm-.7 1.4c.2.3.3.6.2 1.2-.3 0-.2-.4-.2-.7-.4.1-.4-.2-.7-.2 0-.4.4-.3.7-.3zm-2.2-6.2c.1-.3.6-.2 1-.2-.1.5-.7.5-1 .2zm2.4 10.7c0 .5-1 .1-1.4.2 0-.6 1.1-.5 1.4-.2z"/><path id="XMLID_1674_" class="st0" d="M-246 376.1v1.4c.2-.1.5-.2.8-.2.1-.7-.5-.8-.8-1.2z"/><path id="XMLID_1677_" class="st0" d="M-301.9 178.4c-.1.4-.7.6-1.1.3-9.5 2.9-18.4 7-26.6 12.2.2.1.4.3.7.4-.2.4-.7.2-1-.1 0 0 .1 0 .1-.1-8.6 5.4-16.3 12-23 19.6.4-.4.8-.8 1.1-1.2.3 0 .5-.1.8-.3 1.1 2.2-.6 2-1.9 1.6-.7.7-1.3 1.5-1.9 2.3.7 0 .8.6.9 1.2-.9.5-1-.1-1-1.1-.9 1-1.7 2.1-2.6 3.1.2-.2.4-.5.6-.7.1.3 0 .8.3.9-.3.5-.7.3-.9-.1-4 5.2-7.5 10.8-10.5 16.8.2.2.4.4.7.3-.1.4-.4.6-.5 1-.2-.1-.4-.2-.7-.2 0-.1.2-.3.3-.6.1-.4.1-.5.2-.7-3.3 6.5-5.9 13.4-7.8 20.6h5.5c.3-.3.8-.3 1.1 0h.8c0-.1.1-.2.1-.4-.6-.5-1.6-.9-2.4-.5l-.2-1.2c1.1.2 1.4-.3 2.4-.2.2.2.5 1.3 0 1.4.2.4.6.7 1 .8h18.6c4.8-13.5 13.1-25.2 23.8-34.3-.4-.3-.9-.7-1.6-.6.3-.8.2-1.4-.2-2.1 1 0 2.3.2 3.3-.7.3.1-.3 1 .5 1.2.4-.1-.1-.3 0-.7.6-.1.5.4 1.2.2v.2c6.8-5.2 14.4-9.4 22.6-12.3v-26.7c-.9.2-1.8.5-2.6.8-.2 0-.2-.1-.1-.1zm-26.8 13.5c.3-.4 1.6-.8 1.4.2-.5-.5-.9.4-1.4-.2zm.9 1.5c-.3-.1-.5-.3-.5-.7.6-.2.5.3.5.7zm-8.1 16.4c-.9-.6.8-.3 0 0zm-7.6 6.5c-.7-.1.2-1 0 0zm-1-8.6c.5-.1.3 1.1-.2.7-.1-.4.2-.4.2-.7zm-2.8 16.9c-.8-.2-1-.9-1.2-1.7.9.1 1 1 1.2 1.7zm-7.2-8.1c.3.1.2.6.2 1 .7-.3.8-1.1 1.4-1.4.4.8 1.4.9 1.4 2.1-1.9 2.3-6.3.5-3-1.7zm1.7 14.8c-.6.1-.5-.4-1.2-.2.2-.3.3-.6.2-1.2 1.1-.1 1.4.6 1 1.4zm-12.4 9.1c1.4.2-1-.2 0 0zm-.5 5.2v.5c-.4.1-.4-.2-.7-.2.1-.5.4-.5.7-.3zm-.2 2.9c-.6.1-1-.1-1-.7.5.1 1 .1 1 .7zm-1 1.2h-.7c-.4-.7 1.1-.7.7 0zm-3.8-4.6c-.6-.8.8.6 0 0zm-1 3.1c.2-.7 1.8-2.1 1.9-.7-1.1-.3-.6 1.1-1.9.7zm4.3 4.1c-.8-.2.2-1.5-1.4-1.2.1-.2.2-.4.2-.7 1.6.6 1.5-.6 2.9-.7-.3 1.4.8 1.4 1 2.4-.9-.2-2-.9-2.7.2zm3.9-8.8c-.8-.1.2-1 0 0zm.4-6.7c1.1-.8 1 1.2 0 0zm6.5 15.7h-1v-.5h1v.5zm.9-9c-.6-.8.8.6 0 0zm1.5 9.5c-.3-.2-.6-.3-1.2-.2.1-.8.7-1 1.4-1.2-.4.5-.5.7-.2 1.4zm.7.3c.1-.6.6-.5 1-.2-.1.2-.7.1-1 .2zm.7-4.8h-.7c-.4-.7 1-.7.7 0zm-.5-2.2c-.1-.5.3-.5.7-.5-.1.4-.3.6-.7.5zm-3.8-7.1c.4-1.2-.1-2 .7-2.9.4.1 1.4 1 1.2-.2 6.9.6 4 6.3-1.9 3.1zm7.4-19.4h-1c.2-.5-.2-1.5-.5-.7-.5-1 1.9-.3 1.5.7zm.5 0c-.9-.2.6-1.2-.2-1.4.4-.3.9.6 1.4.5v.7c-.7-.3-1-.7-1.2.2zm.7 5.8v.5h-.5v-.5h.5zm0 9.3h-.5v-.5h.5v.5zm.2-5.5c-.7-.1.3-1 0 0zm1.5 18.8c-.5-.1-1-.4-1.5-.4.3-.5 1.3-1 2.1-.9-.2.4-.4.9-.6 1.3zm.2-34.3c.5 0 .8.2.7.7-.2-.3-.9-.1-.7-.7zm.2-1.7c.2-.3.2-.9.5-1.2.3.2.8.4.7 1-.3.2-.6.3-1.2.2zm1.5 13.9c-.6-.2.2-1.1.5-.5-.1.2-.5.1-.5.5zm.7-11.7h-.5v-.5h.5v.5zm-.7-1.7v-.5c.3 0 .7 0 .7-.2.5-.1-.5 1.5-.7.7zm1.4 12.4c-.2 0-.2-.2-.5-.2v-.5c.3.3.6.3.7-.2.9.3-.5.3-.2.9zm.5-22c-.6.3.4-1.2.2-1.9.2.1.4.2.7.2-.1.9-.9.8-.9 1.7zm3.1 15.1c-.3-.2-.9-.2-.7-1 .6 0 .7.4.7 1zm-.5-15.3c-1-.6 1.4-1.7 1.2-.2-.4.1-1.2-.3-1.2.2zm2.4 16.2c-.7 0 .2-1 0 0zm.2 5.5c-.2-.8.8-.4 1-.2-.2.7-.4.3-1 .2zm1.5-1.2c-.4.1-.4-.2-.7-.2-.2-.5 1-.4.7.2zm.9-4c-.6-.1-.9.1-.7.7-.8-1.2-1.7-1.6-2.4-3.1.2-.8 1.6 1 1.4-.2.7.5 0 1.7 1.7 1.7v.9zm-.5-1.9c0-.3-.1-.4-.2-.5 0-.4 2.2.8.2.5zm1.9.7c.1-1.1 1.4.2 0 0zm2.4-22.5c-.5.1-.6-.2-1-.2.3-.5 1.1-.6 1 .2zm-.4 16c-1-.6.7-.3 0 0zm.2-12.4c.2-.4.2-.9 1-.7.2.8-.4.8-1 .7zm1.4-.2c.2-.4.4 0 .7 0-.1.4-.4 0-.7 0zm2.2.7c-.3-1.6-1.9-1.8-2.6-2.9.9-.3 1.5-.9 1.2-2.4.6-.1.5.4 1.2.2.3 1.4.3 3.3 2.1 3.6-.2 1-1.5.9-1.9 1.5zm3.1 3.3h-.5c-.1-.5 0-.7.5-.7v.7zm-.5-5.7c.1-.6.4-.9.2-1.7.3 0 .4-.1.5-.2.9.2.4 2.2-.7 1.9zm2.1-6.4c-1 .7-2.4 1.6-3.6.7.2-.7.2-.5 0-1.2-.8-.1-.5.7-1.4.5 0-.2.3-.2.5-.2 0-.3-.1-.5-.2-.8 1.5-.9 3-1.8 4.5-2.6 1 .8 0 2.3.2 3.6zm21.3 3.6c-.7-.1.2-1 0 0zm-1.4 2.8c0 .7-.4.8-.7.5 0-.3.2-.5.7-.5zm-10.8-9.8c-.3-.1-.2-.5-.5-.5.2-.9 1.2 0 .5.5zm-6.4 3.1c-.7-.7.7.7 0 0zm1.2.8h-.7c-.4-.7 1-.7.7 0zm.7.7h-.7c-.4-.7 1-.7.7 0zm0 5c-1-.6.8-.4 0 0zm.2-2.6c-.7-.1.2-1 0 0zm.5-3.1h-.7c-.4-.7 1-.7.7 0zm.7 10.9v-1c.3 0 .7 0 .7-.2.4.2.5.6.5 1.2h-1.2zm2.6 1.7c-.5-.5-.1-1.3.2-1.7 1.3.2 1.2 1.7-.2 1.7zm3.6 2.4h-.5v-.5h.5v.5zm2.2-19.6c-.8-.3.9-.6 0 0zm-2.4-4.5c1.6-.7 3 1.4 5 1.7.2.8-.7 1.4.2 1.7-2.7 1.7-5.3-1.3-5.2-3.4zm9.3 22.2c-1.1 0-1.4-.9-2.1-1.2.3-1.1 1.6.5 2.4.5-.2.2-.3.3-.3.7zm.9-10.8c-.9-.6.8-.3 0 0z"/><path id="XMLID_1746_" class="st0" d="M-225 376.1c-2 1-4 1.9-6 2.8 2-.9 4-1.8 6-2.8z"/><path id="XMLID_1747_" class="st0" d="M-349.2 307.2c-.1.3 0 .4.2.5-.1-.1-.2-.3-.2-.5z"/><path id="XMLID_1750_" class="st0" d="M-303.5 355.7c1.3.5 2.7 1.1 4 1.5-3-1-5.9-2.3-8.7-3.6-.2 0-.5 0-1 .1-.1-.2-.2-.5-.3-.8.3.2.6.3.9.5-10.6-5.2-19.9-12.7-27.2-21.9l.1.1c0 .4-.2.7-.7.5 0-.5.2-.7.6-.7-.1-.1-.2-.2-.3-.4v.1c0-.1-.1-.2-.2-.3-2.2-2.8-4.3-5.8-6.1-9 .1.1.2.3.3.4-.4.2-1 .2-1.4.3-.7-1.6-.5-2.4 0-2.7-2.1-3.7-3.8-7.7-5.3-11.7-.5-.4-1-.9-1.8-.4.2-.5.7-.7 1.4-.7v-.1h-3v.3c-.3 0-.3-.2-.2-.3h-14.4c-.2.1-.4.2-.5.3-.2-.1-.2-.2-.2-.3h-8.5c5.5 21.5 17.5 40.4 33.9 54.5.2 0 .5 0 .5.2.2-.6.9.3 1 .7-.8.2-.3-.8-1-.7 0 .1 0 .1-.1.2 3.4 2.9 7 5.6 10.8 8.1-.1 0-.1-.1-.2-.1.1-.2.3-.5.4-.8.5.1.2.8.1 1.1 1.1.7 2.2 1.4 3.3 2-.3-1.1-.7-2.7-.2-3.8 2.1.2 1.8 2.8 3.3 3.6-1.2.9-1.7-.1-3.1.2 7.9 4.7 16.4 8.4 25.4 11 .1-.1.1-.1.1-.3.2 0 .3.2.3.4.7.2 1.3.4 2 .6v-3.1c-.2-.2-.4-.4-.4-.8.2 0 .3-.1.4-.1v-20.7c-.1.2-.3.4-.6.6-.1-1.4-1.6-.5-1.4-1.9-.6-.1-.5.4-1.2.2 0 .4-.1.9.2 1-.6.1-.9.5-2.1.5.9-.5.1-2.6 1.1-3.8zm-37.1-28.7c-.8 0 .2-1 0 0zm.7 1.7c-1.6.2-2.9-.5-2.1-1.9.4.8 2.1.5 2.1 1.9zm-1.9-3.8c0 .6-.3.9-1 1-.1-.8.2-1.2 1-1zm-.5 8.1c-.3-.1-.5-.3-.5-.7.5-.2.5.3.5.7zm-5.9-23.1v.1h-.1s.1 0 .1-.1zm-6.3 4.7c-.7-.1.2-1 0 0zm1.2 2.6c0 .8-.5 1.1-1.4 1 .2-1.2.6-.7 1.4-1zm-1.4.3c-.5 0-.8-.2-.7-.7.5-.1.7.1.7.7zm-2.6-.5c-.1-.4-.3.1-.7 0-.2-.3-.3-.6-.2-1.2.4-.4.7.3 1-.5-.4 1.2 1.4.5 1.7 1.9-1.1-.5-1.1 1.4-2.9.7-.1-1.6 1.1.7 1.1-.9zm-2.9-.5h.5v.5h-.5v-.5zm-1.2 5.5v-.7h.7c.2.6-.1.8-.7.7zm1.7 2.9v.7c-.9-.2-.8 0-1.4-.2.2-.4.8-.5 1.4-.5zm-1.5-11.5c-.8-.4 1-.6 0 0zm-.4.5c-.5.1-.5-.3-.5-.7.3.1.5.3.5.7zm.7 3.1c-.1.6-.6.8-1.2 1-.8-.9.7-2.1 1.2-1zm-9.6 2.1l-1-1.9c0 .5.9-.4 1.2.2.2.8-.1 1.2-.2 1.7zm.7-2.1c-.6 0-1.2 0-1.2-.5l-.5-1c.5.1 1.3-.6 1.9.2.3.8-.3.7-.2 1.3zm2.4-3.6c-1-.6.4.2 0 0zm-.4-4.8c-.1-.4.2-.4.2-.7.3.1.2.5.5.5-.1.3-.5.2-.7.2zm.9 0c.2-1.1 1.5.2 0 0zm1.7 24.6c-.2-.1-.5-.7-.7-.9l-.3-.6c.2-.1.4-.2.6-.2-.2.9.9 1.2.4 1.7zm0-25.1c-1-.5.8-.3 0 0zm.9.3h-.5v-.5h.5v.5zm2.5 30.9c-.1-.1-.1-.2-.2-.3.2-.1.5 0 .2.3zm-.6-1.1c1.3-1.9 2.7-.5 0 0zm1.5-7.1c-.8-.4.9-.6 0 0zm.9 6.6c.1-.7 1.2-.4 1.9-.5-.3.7-1.2.8-1.9.5zm2 .3l.2.2.1.1c-.1 0-.2-.2-.3-.3zm4.7-8.9c-.9-.5.8-.3 0 0zm-2.4 0c.3.3.8.5 1.4.5-.1.9-1.5.8-1.9.2-.8 1.3-2.2 1.1-3.8 1.2-.2-1.8-2-1.2-1.4-3.1.9.1 1.5.5 1.9-.2 0-.7-.7-.6-1-1 1.4-1.8 1.9 1.8 3.1 1 .2.6.7 2.1-.5 1.4.5.7 1.3.9 1.7 0-.3 0-.4.1-.5.2-.2-.4.8-2.4 1.9-1.7-.6-1-.1-1.7 0-2.9-.5-.2-1.5.1-1.9-.7-.4.2.3 1.4.2 2.1-1.4-.1-.9-1.4-1.2-2.1-.7.4-3 .5-3.1-.5.8.1.8-.4 1.7-.2.1-2.5 2.7-.8 5-.7.3.9-.9.4-.7 1.2.3.7.9-.3 1.7 0 .4 2.3-.3 4.2-2.6 5.3zm3.8.3c-.9-.2 1.5.2 0 0zm1 .5v.5c-.2 0-.2.1-.2.2-.5.1-.4-1.1.2-.7zm.2 10.9h-.5v-.5h.5v.5zm.8 13.2c-.8-.1.2-1 0 0zm-.3-41.1c.6-.1 1 .1 1 .7-.5-.1-1.1-.1-1-.7zm1.2-1.4c-1-.2-.7.7-1.7.5.4.5 0 .6 0 1.2-.2-.1-.4-.2-.7-.2 0-.3.4-.2.7-.2-.2-.3-.3-.6-.2-1.2-.9 0-.6.3-.5 1-1.3-1.5-1.1-2.3-1.9-4.1.6-.3 1.6-.3 2.4-.5.7 1 .6 1.6.2 2.9.1.1 2-1.1 1.7.6zm.2 14.3c-.6-.7.8.7 0 0zm.8-9.5c-.2 0-.2-.2-.5-.2.1-.6 1.1-.2.5.2zm.7 18.1h-.5c-.1-.5 0-.7.5-.7v.7zm.5-17.2c.3.1.5.3.5.7-.4-.1-.6-.3-.5-.7zm.7 38.9c-.7 0 .2-1 0 0zm1.4 3.1c-.1 0-.1 0 0 0-.3-.2-.5-.4-.7-.6.2-.4.4-.6 1-.6-.3.3-.4.7-.3 1.2zm4.5 2.9c-.7.1-.8-.5-.7-1.2-.9.6-1.2.2-1.8.3-.6-.5-1.1-1-1.7-1.5.1-.3.2-.5.4-.7 2 .2 1.1 1.5 2.4 1.7.3-.4.5-1 1-1.2-.3-1.5-.8-.3-1.9-.7-.5-1.5-2.6-.8-2.4-3.3.8.1 1.2.5 1.2 1.4.9-.1 2.2-2.6.7-3.3.2-.7.8.1 1.2 0 .1.8-.4.8-.2 1.7.5.1.7 0 .7-.5.6-.3-.3 1.2.2 1.4-.1.7-.4-.4-.7-.2-.1.8.3 1.1 1 1.2-1.6.6.5 1.7 1.4 1.9 0 1.8-1.2 1.7-.8 3zm-.2-22.7v-.7c.6-.1 1 .1 1 .7h-1zm1-4c.2-1.3-.9-1.2-.7-2.4.9.2 2.6 2 .7 2.4zm1.6 20.5c-.6-.8.8.6 0 0zm0-22.9c-.6-.7.4-1.2 0-1.4.5-.6 1.1.7 1.2 1.2-.3.1-.6.2-1.2.2zm-.2-4.3c.5.7 1 1.4 1.5 2-.5-.7-1.4-1-1.5-2zm26.5 24.8c-.6-.8.8.6 0 0zm-1 3.1c-.7-.1.2-1 0 0zm.3 15v.7h-.5c-.1-.4 0-.7.5-.7zm-1.2-13.8c-.6-.8.8.6 0 0zm0 10.5c-.6-.8.8.6 0 0zm-1.5-16.7c.9.7-.7.8 0 0zm-1.4 5c.2.8-.3.8-1 .7 0-.6.4-.8 1-.7zm-2.1-1.2c-.5.1-.5-.3-.5-.7.3.1.5.3.5.7zm-1.7 4.8c-.5 0-.8-.2-.7-.7.5-.1.7.1.7.7zm-3.4-9.6c1.5.2-.9-.1 0 0zm.3 1.7c-.5.1-.5-.3-.5-.7.3.1.5.3.5.7zm-1-5.3h.5v.5h-.5v-.5zm-.7 3.9h.5v.5h-.5v-.5zm-2.4-6c-.8-.4.8-.7 0 0zm-.7-1.2c.2.8-.8.3-.7 1-1-.4 0-1.6.7-1zm-.9 4.1c-.8-.1.2-1 0 0zm-.8 3.5c-.7 0 .3-1 0 0zm-5.7-13.8c.6.1 1.1.3 1.2 1-.8.1-1.4-.1-1.2-1zm1 13.6c-.7 0 .2-1 0 0zm-.5-3.8c.4 0 .5.3 1 .2-.1.7-1.2.6-1-.2zm3.1-3.6c.3 0 .2-.5.2-.7 1.6 3.4-4.3 0-.2.7zm.5 20.5c-.3-.4 0 .1.2.3-.1 0-.1-.1-.2-.3zm0-11.9v-.5c.3 0 .7 0 .7-.2.7.2-.6.4-.2 1-.2-.1-.3-.3-.5-.3zm.4 11.2c.1-.3.3-.5.7-.5.1.7-.3.9-.7.5zm1 3.6c-.2-.8.4-.7.5-1.2.4.1.1 1.3-.5 1.2zm-.5-14.6c.1-.8 1.8-1.2 1.2-1.9 2.8-.6 1.2 4.1-1.2 1.9zm2.6 4.1c-.7-.1.3-1 0 0zm.8 11.2h-.7c-.4-.7 1-.7.7 0zm0-13.4c-.2-.8.5-.4.7-.2-.1.3-.5.2-.7.2zm1.6-9.7h-.5v-.5h.5v.5zm2.4 11.2c-1-.2-1.7-.7-1.9-1.7.9 1.1 1.7-.4 2.6.2.2.9-.7.7-.7 1.5zm.5 2.4c.5 0 .8.2.7.7-.5 0-.7-.2-.7-.7zm1 3.1c.5.4 1.8.1 2.4.5.3-.2-.2-.7.5-1 1.3.3 1.1.4 2.6.5-.6.4-1.3.9-2.4 1.4.8.2 1.7 0 2.6.5-1.3 3.7-4.6-.1-6.2-1-.2-.6.4-.5.5-.9zm5.9 3.1v.5h-.5v-.5h.5zm-4.3 2.4c-.9-.6.8-.4 0 0zm-1.6-2.4h.5v.5h-.5v-.5zm.4 4.5c-.9-.6.8-.3 0 0zm.7 1.2c-.6-.7.6-.9 0-1.4.6-.9.5.9 1.4.5.3 1-.5 1-1.4.9zm1.7-4.1c.9.6 1.9 2.2 0 2.4.2-1.1.2-1.2 0-2.4zm3.8 10.3c-.4.5-.9.1-1.4 0 .9-1.8-1.5-2-1.9-3.3 1.3.7 2.8.2 3.3-1.2.6.1 1.1.1 1.7.7-.5 1-.1 1.5-.5 2.4.3.4.7-.6 1.4 0 .1-.5-.2-1.1-.2-1.9.4.1.5-.2.5-.5 3.7 2.6-.4 8.3-2.9 3.8zm4.6-6.9c-.6-.8.8.6 0 0zm4.3-13.4c.6.1 0 .9-.5.7-.1-.5.4-.3.5-.7zm-1.9 24.6c.1-.3.4-.4.5-.7.6-.1.3.7.7.7-.3.7-.8-.2-1.2 0zm1.6.2c-.2-.3-.3-.6-.2-1.2.2.2.9 1.4 1 .2.6.4 0 1.3-.8 1zm.3-4.7c0-.1.9 1 1 1.7-1-.1-.9-1-1-1.7zm1.4-8.6h-.7c-.3-.3-.3-.8-.2-1.4.8-.1 1 .4.9 1.4zm1 1.6c-.4.1-.4-.2-.7-.2.1-.5.4-.5.7-.2v.4zm.7 8.2c-.2-.8.5-.4.7-.2-.1.2-.5.1-.7.2zm2.4 5.4c-1-.6.7-.3 0 0zm0-16.9c.8.7-.8.8 0 0zm-.3 1c-.4.9-1.1 1.4-1.4 2.4-.3-.2-.9-.2-1.2-.5.1-1.1 1.2-1.2 1.4-2.1.3.1.7.2 1.2.2zm-1.2-1.5c-.9-.7-2.3-.3-3.1-.5.8-1.2 3.7-1.1 3.1.5z"/><path id="XMLID_1852_" class="st1" d="M-255.4 277.8c-.2-.2-.4-.4-.5-.7-.2 3.9-4.1 4.8-5.7 1.4.8-1 .8-1.4.7-2.4 1.1 1.1 2.3 1.6 4.3 1-.8-.7.4-.8.2-1.7h.4c.3.6.6 1.3.8 2-1.8-5.6-6.2-10.1-11.9-11.8.2.1.4.1.6.2h-.4c-.1-.1-.1-.2-.2-.2-1.4-.4-2.9-.7-4.5-.7.4 0 .7 0 1.1.1-.2.7-.5.1-1.1-.1h-.8c-7.5 0-14 4.7-16.6 11.3 1 0 2 .1 3 .7.2 1-.5 1.1-.5 1.9-.8 0-1.9-.3-3.1-.6-.4 1.5-.6 3.1-.6 4.7 0 9.9 8 17.9 17.9 17.9 4.3 0 8.3-1.5 11.4-4.1 0-.2.1-.3.3-.2-.1.1-.2.2-.3.2 3.1-2.5 5.3-6 6.1-10-.4-.2-.2-1.2.2-1.1-.1.4-.1.7-.2 1.1.3-1.2.4-2.5.4-3.9 0-1.9-.3-3.7-.8-5.4 0 .2-.1.3-.2.4zm-2.4-2.8h.5v.5h-.5v-.5zm-29.9-.7c-.9-.2 1.4.2 0 0zm1.5-.8c-.3-.2-.9-.2-.7-1h.7v1zm-1.2 17.2c-.6-.8.8.6 0 0zm.2-.5c-.6-.1-.5-.6-.2-1 .7.3.2.5.2 1zm21.7-16.2c-.4.1-.4-.2-.7-.2-.1-.5 1.1-.4.7.2zm-2.1 12v.5c-.2 0-.2.1-.2.2-.5.1-.4-1.1.2-.7zm-2.2-12.5c-.1.3-.6.2-1 .2 0-.9.6 0 1-.2zm0 2.2c-.4-.1-.5-.4-.5-1 .9.1.7.4.5 1zm-.4 6.7c-.5-.1-1-.1-1-.7.4-.5.9 0 1 .7zm-1.2-6.9c.8.6.1 1.3 0 0zm-5.3-7c-.8-.4.8-.7 0 0zm-1.2-.2h.5v.5h-.5v-.5zm-5.5 6.7h.5v.5h-.5v-.5zm-.4-2.2c-.8 0 .2-1 0 0zm-.5 13.6h.5c.2 1.2-1.3.5-.5 0zm-1-13.8c-.9-.1 1.4.2 0 0zm.3 6.4c-.4-.1-.5-.4-.5-1 .5-.1.6.2 1 .2-.1.4-.5.5-.5.8zm.4 12.9c.6-1 .9-1.1 0-1.9.6 0 1.1 0 1.4.2-.1 1.3.3 2.3.7 3.1-1 0-.4-1.9-2.1-1.4zm4.6-6.9c-.8.2-.9-.2-1.2-.5 0-.7 1.4-.4 1.2.5zm.5.5c.1-.4.4-.5 1-.5-.1.4-.5.5-1 .5zm.2-17.2c1.2.2 1.1 1.6 1.7 2.4-1.2-.3-.5 1.4-1 1.9-2-.1-1.9-2.8-.7-4.3zm1.2 17.9c-.7-.1.2-1 0 0zm.2-3.3c-.8-.2 1.8.3 0 0zm1.5 15.2c-.9-.3.3-1.5-1.4-1.2 0-1 2.5.3 1.4 1.2zm.7-26.9c.3-.5.3-1.1.5-1.7 1.5.2 1.3-1.1 1.7-2.6.6-.1.5.4 1.2.2-.8 1.5 1.7 1.2 1.9 2.4 0 1.2-1 1.5-1.2 2.6-1.9.2-2-1.4-4.1-.9zm1.6.7c-.7-.1.3-1 0 0zm.8 27.9c-.2-.8.8-.4 1-.2-.2.3-.7.2-1 .2zm-.3-6.9c1.7.7 2.4-.9 3.6-1.4.7.3-.3.9.2 1.2.2-.1.4-.3.5 0 .8-.1-.7-1.1.5-1 0 .8.4 1.2.2 2.1.9.1 1.7-.7 1.9.5-3.1.4-5.9 1.7-6.9-1.4zm6.2 4.7v-.7c.5-.1.6.2 1 .2-.1.5-.4.6-1 .5zm1.2-18.8c.1-1 1.4.2 0 0zm1 15.7c-.1-1-.7-1.3-.7-2.4 1.5-.3 2.3 2.3.7 2.4zm3.6-6.6c.5-.1.3 1.1-.2.7-.2-.4.1-.4.2-.7zm.2 8.1c-.7-.1.2-1 0 0zm4.3-4.1h-.5c-.1-.6.4-.5.2-1.2.2.2.8 1.1.3 1.2zm1.9-4.5c-.9-.6.8-.4 0 0z"/><path id="XMLID_1888_" class="st0" d="M-289.6 278.2c.2-.7.4-1.3.6-1.9-.2.5-.4 1.2-.6 1.9z"/><path id="XMLID_1891_" class="st0" d="M-199.8 354.2c.4-.9 1.5-.3 2.4-.2-.2-.2-.5-.2-.5-.7.5-.4 1.7.1 1.7 1 1.3-.8.1-1.4-.2-2.4.9-.3.5.8 1.4.5.1.4-.2.4-.2.7.2 0 .4.1.7.2 1.2-1.3 2.3-2.6 3.5-3.9-.8-.6-1.9-1.5-3-1.1-.6-.8 0-2.1 1-2.1.4.2.6.7.5 1.4.5.1.5-.3.5-.7 1 .2 1.7 1 1.5 1.9 2.5-3.1 4.9-6.2 7.1-9.6h-.3c-.1-.5.3-.5.7-.6-.1.1-.2.2-.2.4.3-.5.6-.9.9-1.4-.1-.1-.2-.1-.3-.3.2-.1.4-.1.6-.1.1-.2.3-.4.4-.6-.5-.2 0-.4.2-.3 3.9-6.3 7.1-13.1 9.6-20.2-.1.3-.2.6-.3.8-.2-.1-.4-.2-.7-.3.5-.4.7-.8 1.1-.9 1-2.8 1.8-5.6 2.6-8.4h-3.9c1 .7 1.1 3.1-.3 4.1-.6.5-2 .3-2.9.7 0-1.7-1-2.4-2.1-2.9.7-1 1.5-1.5 2.9-1.2.3-.4.7-.6 1-.8h-10.1c0 1.9-2.8 3.8-5.6 3.6-.4-.8.2-.6.2-1.4.3.2.6.3 1.2.2-.6-1-1.5-1.7-2.4-2.5h-.9c.1.3.3.6 0 .8-.9-.1-1.3-.4-1.5-.8h-2.7c-.7 2.2-1.6 4.3-2.5 6.4.1-.2.2-.5.3-.7.7.1 1.2.5 1.1 1.3-.7 0-1.1-.3-1.5-.6-.9 2.1-2 4.3-3.1 6.3-3 5.4-6.6 10.5-10.7 15.1h.7c0 .7-.9.7-1.1.5-1.3 1.5-2.7 2.9-4.1 4.2.1-.1.2-.2.3-.2v.3h-.3c-6.8 6.4-14.7 11.7-23.4 15.5.1.2.2.3-.1 0-.3.1-.5.2-.8.3.2.1.4.1.5.1-.5.3-1 .7-.2 1.2-.1.3-.6.2-1 .2 0-.7.4-1.1-.3-1.2-1.2.5-2.4.9-3.6 1.4v4c.4.1.7.2 1 .4-.5.2-.2 1.2-1 1.2 0-.3 0-.5-.1-.6v.9h.3v.5h-.3v12.3c1.1.5 1.9 1.2 2.7 2 .1.5-.3.5-.7.5 0 .7.7.6 1 1-.9-.1-2.4.4-2.9-.9v1.9c.1.1.1.2.1.4h-.1v3.3c5.1-1.3 10.1-3.1 14.9-5.1-.6-.5-1.1-1.1-1.3-2s1.1-.5 1 0c.3-.5.6-1 1-1.4 1.2-.2 1.8.3 2.4.7-.1-.9-.2-1.8 1.4-1.9.2-.8-.4-.7-.7-1 .7-1.2 2.4-.1 3.1.2 0 1-.7 1.2-1.4 1.4.3.4.5.8.6 1.1 7-3.5 13.5-7.8 19.5-12.7-.2-.2.1-.3.3-.3.5-.4.9-.7 1.4-1.1-.4-.2.2-.7.2-.1 2.2-1.9 4.4-3.9 6.5-6-.5-1.1-1.5-2.1-2.7-1.7zm18.3-27.9c-.7.1-1.1-.2-1-1h1v1zm.3-7.7h-.5v-.5h.5v.5zm1.4 2.2c-.1-.4.9 0 .7.5-.5.1-.3-.5-.7-.5zm1.4 6c-.8-.4 1-.6 0 0zm1.2-.5c-.7-.1.3-1 0 0zm2.7-4.1s0 .1-.1.1l-.2.2c-.6-.3.2-.5.3-.3zm-2 3.4c-.7-.7-1-1.7-2.4-1.7 0-1 1.5 0 .7-1.2 1.5-.2.9 1.6 2.4 1.4.3 1-.5.9-.7 1.5zm.5-13.2c-.3.6-.8.4-1.4.2 0-.6 1.1-.5 1.4-.2zm-1.2 3.6c-.7-.3.3-1.2 0 0zm-.2-3.8c-.7 0 .2-1 0 0zm-.7.5c.5-.9 0 0-.1.1l.1-.1zm.5 2.6c0 .3-.4.2-.7.2-.2-.8.4-.3.7-.2zm-1.2.2c-1-.5.7-.3 0 0zm-.5-6.9c-.7-.3.2-1.2 0 0zm-.3 7.9c.8-.1 1.3.1 2.6-.2 0 .4-.1.9.2 1-.4 1-2.2 1.2-3.3.7-.1-.8 1.1-1.2.5-1.5zm-.9 6c-.9-.6.8-.4 0 0zm-1.2-14.4c-.4.1-.4-.2-.7-.2-.1-.5 1.1-.3.7.2zm-.2 7.7c-.2.3-.4.8-1 .7-.1-.6.5-.6 1-.7zm.7 1.4v-.5c.6.8-1.6 2.2-1.7.5h1.7zm-2.2 20.1h-1c.1-.5.6-.7.5-1.4 1.2-.1.5.6.5 1.4zm-1.4-18.7c.6-.1.8.3.7 1-.6 0-1.1-.5-.7-1zm.7 17.2c-.4.6-.8.4-1.2 0 .1-.5 1.1-.1 1.2 0zm-1.4-17.6c.6.3 0 1.3-.7 1-.4-1 1-.1.7-1zm0 12.6c-1-.6.8-.3 0 0zm-1.5 5.7c-.6-.7.8.7 0 0zm-1.1-21.4h.5v.5h-.5v-.5zm.4 24.5c.3-.8-.8-.2-.5-1 .7.5.2-1.2.2-2.1.8-.1 1.1.3 1.2 1-.3.2-.9.2-.7 1 .7.7 2.1.8 2.9.2 0 1.6-1.4 1-.5 2.4-2 .4-2.5-.7-3.6-1.2.1-1.2.6.5 1-.3zm-1.2-7.8c-.7-.1.3-1 0 0zm-1.6-23.7c1 .3 0 1.3 0 0zm-1 11.5c.8-.1.1 1.2 1 1-.5.6-.8 1.6-1.2 2.4-.7-1 .4-2.2.2-3.4zm0 13.8c-.4-.1-.6-.4-1-.5.2-.5 1.5-.3 1 .5zm-1.7-23.3c-.7-.3.3-1.3 0 0zm-3.1 26c.5-.1.6.2 1 .2-.2.5-1.1.7-1-.2zm.5-.7c-.2-.2-.3-.5-.2-1h1.2c-.1.6-.4.9-1 1zm2.2-19.9c-.6-.1-.5.4-1.2.2 0-.3 0-.7-.2-.7.2-.4 1.7-.3 1.4.5zm-1.5-4c0 .7-.6.7-1.2.7 0-.3-.1-.4-.2-.5 0-.5 1-.1 1.4-.2zm.3 1.9c-.2.2-.6.2-.5.7-.9.1-.6-.9-1.4-1 0-1.3 1.9-.5 1.9.3zm-1.7 31.3c-.9-.6.8-.4 0 0zm-.5 5c-.3-.1-.5-.3-.5-.7.3.1.5.3.5.7zm-.5-31.3c-.5-.8.8.6 0 0zm-47.7 62.8c-.6-.3-.4-.8-.2-1.4.3.4.7.6.7 1.2-.3-.1-.4 0-.5.2zm.7-17.7c-.2.3-.5.4-1 .5-.2-.7.6-.4 1-.5zm-.2 12.4c-.8-.3.9-.6 0 0zm.7-1.7h-.5v-.5h.5v.5zm-.2-13.6c-.6.5-1-1.2-1.4-1.7 1-.3.8.8 1.7.7-.1.4-.9 1-.3 1zm.8-4.3c.2-.1.3-.1.5-.2 0 .1 0 .1-.1.2-.2.1-.3.1-.4 0zm.1 6c.1-.3.5-.2.5-.5.6.3-.2 1.1-.5.5zm.7 16.5c-.1-.2-.5-1.3.5-1.2.2.8-.4.7-.5 1.2zm1-3.8c-.7-.1.2-1 0 0zm10.3-21c-.4.1-.4-.2-.7-.2-.2-.5 1-.4.7.2zm-3.1.9c-.1.2-.2.4-.2.7-.8.1-1.1-.2-1.7-.2.2-.6 1.3-.9 1.9-.5zm.2 6.2c-.4.7-.6.2-1.4.2-.1-.6.1-1 .7-1-.2.7.1 1 .7.8zm-4.1-7v.1c-.2 0-.2.1-.2.2-.1 0-.2 0-.2-.1.1-.1.3-.1.4-.2zm-.7 18c-.6-.8.8.6 0 0zm-1.6 3.3c.6-1.1-.5.8 0 0zm.2-19.8c.8.6-.8 1 0 0zm.5 16c-.6-.8.8.6 0 0zm.4 5.8c.7-.2.5.5 1 .5-.2.4-.8.6-1.2.2-.1-.4.2-.4.2-.7zm0 1.1c.7.4.7.2 1.4.5-.2.6-1.5.2-1.4-.5zm1.5 1.5c-.6-.1.1 0 .4.1-.1-.1-.2-.1-.4-.1zm.9-13.9c.3-.8 1.9-.4 1.9-1.4.6.2.8.8 1.2 1.2-.6.2-1.9 1.2-3.1.2zm3.4-8.8c-.5-.2-.2-1.5.5-1.2.2.8-.3.9-.5 1.2zm.2 17.2c.3.1.5.3.5.7-.3-.1-.5-.3-.5-.7zm.5-14.3c0-1.1.9.1 1.7-.2 0 .6 0 1.2-.5 1.2-.9.1-.2-1.3-1.2-1zm2.1 15.5h-.5v-.5h.5v.5zm-.7-8.6c-.3-.3-.3-.8-.2-1.4.5 1 .7-.1 1.4 1-.2.3-.6.4-1.2.4zm1-10.5c-.8.6.6-.7 0 0zm-.5-1.4V354c.4.3.9.5 1 1.2h-1zm.7-2.9h-1c-.2-.3-.3-.6-.2-1.2 1 .3.8-.5 1.4-.5.6.6-.4.8-.2 1.7zm.7 3.8c-.8-.4.8-.7 0 0zm24.8-23.1c-.9-.6.8-.4 0 0zm-7.6 3.5c.7 0 .8.6 1.4.7-.3 1-.5-.3-1.4 0v-.7zm-.2 4.8c.7-.9.8.7 0 0zm-.3 10c-.3-.4-.7-.6-.7-1.2.3-.3.8-.3 1.4-.2.3 1-.3 1.1-.7 1.4zm-.7-8.6c-.7.3-.8.1-1.4-.2 0-.7 1.7-.7 1.4.2zm-.5 1.5v.5h-.5v-.5h.5zm-3.3-1.9c.5.8 1.6 1.1 1.7 2.4-1.4.1-2.1-.4-2.4-1.4.7.5 1.2-.3.7-1zm.2 13.6c-.1.3-.3.5-.7.5-.1-.6.4-.5.7-.5zm-.9 1.9c0 .6 0 1.2-.7 1.2.4-.2-.2-1.4.7-1.2zm-1.7-6c.1.7-.8.5-1.2.7 0-.6.6-.7 1.2-.7zm-1.4 2.2h.5v.5h-.5v-.5zm-4.3 9c-.3-.1-.2-.6-.2-1 .5.1.5.7.2 1zm-1.9-11.7c.7-.2.5.5 1 .5-.1.3-.6.2-1 .2v-.7zm.2 17.5c-.7-.1.2-1 0 0zm-.5-8.6c.9-.1 1.3.3 1.9.5-.1.4-.4.6-.5 1-.4-.3-1.3-.3-1.4-1.5zm.8 8.8c-.2-.7.8-.3.5-1.2.7.2 1.2.5 1.4 1.2-.6.4-1.5.7-1.9 0zm2.8-1.4c-.5.1-.6-.2-1-.2 0-.5 1.4-.5 1 .2zm-.2-1.5c.5-.1.5.3.5.7-.3-.1-.5-.3-.5-.7zm.9-13.6c-.5 0-.8-.2-.7-.7h.7v.7zm1.5 1.7c-.8 0 .2-1 0 0zm.7 10c.3-.5.8-1.3 1.4-.7-.1.9-.8 1-1.4.7zm1.2 7.9c.3.1.5.3.5.7-.3-.1-.5-.3-.5-.7zm0-7.2c.5-.1.5.3.5.7-.3 0-.5-.2-.5-.7zm-.7-9.5c-.1-.7.8-.5 1.2-.7.2.9-.8 1.2-1.2.7zm2.3 9.8c.1.6-.1 1-.7 1 0-.7-.1-1.3.7-1zm-.2 2.8c.4.1.6.4 1 .5-.2.6-1.2.1-1-.5zm0-6.9c.9.2 1.7.6 1.7 1.7-.8-.4-1.7-.5-1.7-1.7zm1.9 2.6c-.6-.8.8.6 0 0zm0-15.9c.7-.1 1.1.2 1 1-.8 0-1.1-.3-1-1zm1 16.2c1.2-.2.9 1 1.7 1.2-.4.3-1.8-.4-1.7-1.2zm1.9-17.4c-.9-.4.8-.8 0 0zm0 18.1c.4-1.5 2.1-.2 2.1.7-.7.7-1.2-.8-2.1-.7zm2.4-11.2c-.8.6.6-.7 0 0zm1.6.7c-.3 0-.2.4-.2.7-.7.1-.7-.5-1.4-.5 1.1-.6 1.4-2.1 2.9-2.4 1.9 1.5.1 4.9-1.3 2.2zm3.4 7.6c-.7 0 .2-1 0 0zm1.9-15.9c-.9.3-2 .5-2.9 1-.7-1.2-2.1-1.5-2.6-2.9.2-.7 1.3-.5 1.2-1.4.7-.2.7.4 1.4.2s-.6-.4-.2-1h1.7c.2.8-.4.7-.5 1.2.1.5 1 .1 1.2.5.1-.8-.4-.8-.2-1.7 1.5.7.8 2.9.9 4.1zm-2.4-8.2c-.4.9-.9.1-1.4-.2.5-.3 1.2-.4 1.7-.7.4.5 0 .3 0 1 .7-.6 1.9-.5 2.6 0 .1 1.8-2.9 1.3-2.9-.1zm4.3 5.5c.2-.7.6.3 1 .2-.3.8-.7-.2-1-.2zm3.3-2.1c-.3.4-.9.5-1.7.5-.2-1 1.4-.9 1.7-.5zm-.4 1.2c-1-.2 1.4.2 0 0zm-1 0c-.7-.1.2-1 0 0zm.5 2.4c.9.1.9.3 1.7 0 0 .8-.9.6-1.7.7v-.7zm1.7 12.6c-.5-.5-.9-1.3-1-2.2 1.3-.2 1.1 1 2 1.2-.3.4-.7.7-1 1z"/><path id="XMLID_2004_" class="st0" d="M-240 179.5c.7.2 1.5.5 2.2.7-.7-.2-1.4-.5-2.2-.7z"/></g></g></svg>