<svg xmlns="http://www.w3.org/2000/svg" xmlns:xlink="http://www.w3.org/1999/xlink" version="1.1" x="0px" y="0px" viewBox="0 0 100 125" enable-background="new 0 0 100 100" xml:space="preserve"><path d="M61.883,20.276c-5.557-5.558-12.945-8.618-20.804-8.618s-15.246,3.061-20.803,8.618c-5.558,5.557-8.618,12.945-8.618,20.804  s3.061,15.247,8.618,20.805c5.556,5.558,12.943,8.617,20.803,8.617c7.858,0,15.247-3.06,20.805-8.617  C73.354,50.413,73.354,31.747,61.883,20.276z M59.056,59.057c-4.802,4.802-11.187,7.445-17.977,7.445s-13.174-2.644-17.975-7.445  c-4.802-4.802-7.446-11.187-7.446-17.977s2.645-13.174,7.446-17.976s11.185-7.446,17.975-7.446s13.174,2.645,17.976,7.446  C68.967,33.017,68.967,49.145,59.056,59.057z M87.756,84.928L70.979,68.152c-0.781-0.781-2.047-0.781-2.828,0s-0.781,2.047,0,2.828  l16.776,16.775c0.391,0.391,0.902,0.586,1.414,0.586s1.023-0.195,1.414-0.586C88.537,86.975,88.537,85.709,87.756,84.928z"/><text x="0" y="115" fill="#000000" font-size="5px" font-weight="bold" font-family="'Helvetica Neue', Helvetica, Arial-Unicode, Arial, Sans-serif">Created by Deepz</text><text x="0" y="120" fill="#000000" font-size="5px" font-weight="bold" font-family="'Helvetica Neue', Helvetica, Arial-Unicode, Arial, Sans-serif">from the Noun Project</text></svg>