<?xml version="1.0" encoding="utf-8"?>
<!-- Generator: Adobe Illustrator 19.0.0, SVG Export Plug-In . SVG Version: 6.00 Build 0)  -->
<svg version="1.1" id="Layer_1" xmlns="http://www.w3.org/2000/svg" xmlns:xlink="http://www.w3.org/1999/xlink" x="0px" y="0px"
	 viewBox="-391.8 222.6 176 138" style="enable-background:new -391.8 222.6 176 138;" xml:space="preserve">
<style type="text/css">
	.st0{fill:#E6DBDC;}
</style>
<g id="Layer_2">
</g>
<g>
	<path class="st0" d="M-283.5,324.3c0.6,0.4,1.2,0.9,1.7,1.4c-0.3,0.1-0.6,0.2-1,0.3C-283.2,325.9-283.4,324.9-283.5,324.3
		c-1.5-0.9-3.2-1.5-5.1-1.5h-4.2c-0.1,0.1-0.3,0.1-0.5,0h-26.6c-3,0-5.7,1.4-7.4,3.6c1.9,0,1.9-1.9,4.5-1.2c-0.4,1.6,1,1.5,1.2,2.5
		c0.5-0.4,1.2-0.7,1.6-1.2c1,0.5,0.1,3.9,2.9,2.5c0,0.8,0,1.6,0,2.5c-0.9-0.2-1.1,0.3-1.6,0.4c0.1,0.8,1.4,0.3,1.6,0.8
		c-0.2,0.3-0.4,0.7-0.4,1.2c-2.2-3.1-3.3-3-7.4-3.7c0.3-0.9,1.1-1.8,0.4-2.4c-1.1,0.4-3.3,0.9-2.9-1.2c-1.2,1.6-2,3.6-2,5.7v10.1
		c0.2,0,0.4,0.1,0.7,0.1c-0.1,0.4-0.4,0.7-0.7,1v3.4c0.4,0.1,0.8,0.3,1.1,0.5c0.4-0.3,0.6-0.7,0.8-1.2c1.7,0.9,3.5,1.6,4.1,3.7
		c-2,0.9-3.2,2.6-5.9,2.8c-0.1-0.4-0.1-0.9-0.1-1.3c0.1,5.1,4.3,9.2,9.4,9.2h31.3c5.2,0,9.4-4.2,9.4-9.4v-18.8
		C-279.2,328.8-280.9,325.9-283.5,324.3z M-328.5,330c-0.2-0.1-0.3-0.2-0.4-0.4c0.1-0.4,0.2-0.8,0.4-1.1c0.2-0.2,0.5-0.3,0.8-0.1
		C-327.4,329.5-328.5,329.2-328.5,330z M-326.9,330C-326.6,329.8-327.1,330.2-326.9,330L-326.9,330z M-325.7,330
		C-327.3,329-324.3,329.4-325.7,330L-325.7,330z M-326.1,335.4c-0.1-0.7,0.4-0.7,0.4-1.2c0.9-0.2,0.6,0.8,1.2,0.8
		C-324.6,335.5-325.5,335.3-326.1,335.4z M-321.6,359.9C-321.7,360-321.3,359.6-321.6,359.9L-321.6,359.9z M-321.3,360.2
		c0.1-0.1,0.1-0.2,0.1-0.3c0.3-0.1,0.4,0.1,0.5,0.4C-320.9,360.2-321.1,360.2-321.3,360.2z M-320.8,340.3
		C-322.2,339.6-319.4,339-320.8,340.3L-320.8,340.3z M-295,328C-294.8,327.7-295.2,328.2-295,328L-295,328z M-296.3,328.4
		C-297.8,327.4-294.9,327.8-296.3,328.4L-296.3,328.4z M-313.4,333.7C-314.6,333.6-313,332-313.4,333.7L-313.4,333.7z M-311.4,354.1
		c-2.2,0.3-3.5-0.3-4.5-1.2c1.2-3.1,6.9-2.5,7.4,0.8c1,0.2,0.9-0.7,2-0.4C-305.7,358.6-310.9,357.8-311.4,354.1z M-307.7,344.7
		c0-0.4,0-0.8,0-1.2c1.5-0.3,2,0.5,2,1.6C-306.6,345.3-307.2,345.1-307.7,344.7z M-306.1,326.8c0.1-0.7,0.7-0.9,1.6-0.8
		C-304.5,326.7-305.1,326.9-306.1,326.8z M-303.2,335.8C-303.4,335.9-302.9,335.5-303.2,335.8L-303.2,335.8z M-304,333.3
		c0.1-1.2,1.7-0.7,2.9-0.8C-300.8,334.2-303.4,333.9-304,333.3z M-299.5,341.5c0.3-1.3,1.7-1.5,2.9-2
		C-295.3,342-298.1,343.6-299.5,341.5z M-295.4,328.8c0.2,0.9-0.3,1.1-0.4,1.6C-296.6,330.6-296.6,328.2-295.4,328.8z M-295.4,352.9
		c0.9-0.2,1.1,0.3,1.6,0.4C-293.9,354.5-295.7,354.3-295.4,352.9z M-282.8,338.2C-282.5,337.9-282.9,338.4-282.8,338.2L-282.8,338.2
		z M-284.4,331.3C-284.6,331.4-284.1,331-284.4,331.3L-284.4,331.3z M-290.9,339.4C-292.3,338.8-289.4,338.4-290.9,339.4
		L-290.9,339.4z M-289.3,340.3c1.6-1.3,0.7-1.9,0-3.7c0.6,0,1.2,0.1,1.2-0.4c0.6,1,0.8,2.5,0.8,4.1
		C-288.3,340.3-288.5,341-289.3,340.3z M-284,358.2c-0.7,0.1-0.7-0.4-1.2-0.4C-285.4,357-283.4,357.2-284,358.2z M-279.9,353.7
		c-1.6,0.6-3.8-1.6-4.5-3.3C-281.6,350.3-281.7,353-279.9,353.7z"/>
	<path class="st0" d="M-342.4,230.8c0.1-0.4,0.2-0.6,0.4-0.9c0.1,0.2,0.1,0.5,0.1,0.7c-0.7-4.5-4.6-8-9.3-8h-12.3
		c-0.2,1.1,0.7,1.8,1.1,2.9c-3.6,1.4-4.7-3.2-7.4-1.6c0-0.5,0.3-0.9,0.5-1.2h-13.1c-1.8,0-3.5,0.5-4.9,1.4c0,0.2,0,0.4,0,0.7
		c-0.3,0-0.5,0-0.8,0v-0.1c0.3-0.2,0.5-0.4,0.8-0.6c-2.7,1.7-4.5,4.6-4.5,8v18.8c0,5.2,4.2,9.4,9.4,9.4h31.3c5.2,0,9.4-4.2,9.4-9.4
		V232c0-0.5,0-0.9-0.1-1.4C-342.1,230.7-342.2,230.8-342.4,230.8z M-343.7,226.3c0.3,0.3,0.5,0.7,0.7,1.1c-0.6-0.1-1.3-0.1-1.8-0.2
		C-344.7,226.5-344.3,226.3-343.7,226.3z M-344.9,244.3C-344.6,244-345,244.4-344.9,244.3L-344.9,244.3z M-347.7,244.3
		C-347.5,242.5-345.3,244.7-347.7,244.3L-347.7,244.3z M-348.5,233.2C-348.7,233.4-348.3,233-348.5,233.2L-348.5,233.2z M-351,232.8
		c-0.7-0.4-1.6-0.9-0.8-1.6C-351.2,231.5-351,232.1-351,232.8z M-351.4,225.9c0.1,0.7-0.4,0.7-0.4,1.2c-0.4-0.1-0.3-0.8-0.8-0.8
		C-352.5,225.8-351.9,226-351.4,225.9z M-353.8,230.4C-353.6,228.5-351.4,230.7-353.8,230.4L-353.8,230.4z M-354.7,227.9
		c-0.9,0.1-1.3-0.3-1.2-1.2C-355.5,227.1-354.4,226.8-354.7,227.9z M-362.4,233.7c-0.7-0.2-0.8,0.3-0.8,0.8c-0.4,0-0.8,0-1.2,0
		C-364.2,234-362.3,232-362.4,233.7z M-362.4,252.8c-0.2,0.6-0.6,1-0.8,1.6C-364.2,254.2-363.4,252.4-362.4,252.8z M-364,243
		C-364.1,243.1-364.1,243.1-364,243L-364,243z M-389,228.3c0.9-0.4,0.9,1.5,0,1.2C-389.5,229.4-389.3,228.5-389,228.3z
		 M-391.1,232.4c0.2,0,0.6,0.1,0.7,0.1C-390.5,232.5-390.7,232.5-391.1,232.4L-391.1,232.4C-391.4,232.4-391.6,232.3-391.1,232.4z
		 M-389.4,249.6c-0.5,0-1.1,0-1.6,0c0.4-0.6,0.6-1.3,1.6-1.2C-389.4,248.8-389.4,249.2-389.4,249.6z M-389.8,233.7
		c-0.2-1.3,0.4-1.8,1.6-1.6C-387.9,233.4-388.8,233.5-389.8,233.7z M-388.1,230.4C-386.8,231.3-389.6,232-388.1,230.4L-388.1,230.4z
		 M-384.1,250c-1.9,0.2-2.4-0.8-3.7-1.2c0.9-1.7,1.2-5.2,3.7-4.1C-385.9,246.4-382.8,247.8-384.1,250z M-383.7,230.4
		c-0.3,0-0.5,0-0.8,0c0-0.3,0-0.5,0-0.8c0.3,0,0.5,0,0.8,0C-383.7,229.8-383.7,230.1-383.7,230.4z M-380,256.5c-0.4,0-0.8,0-1.2,0
		c-0.1-0.7,0.4-0.7,0.4-1.2c0.3,0.1,0.4,0.4,0.8,0.4C-380,256-380,256.3-380,256.5z M-382.4,252c0-1.3-1.3-1.2-0.8-2.9
		c1.5,1.2,2.4,0.8,3.7,1.6C-380,251.8-381,252.1-382.4,252z M-378.3,227.5C-379.6,227.4-378,225.8-378.3,227.5L-378.3,227.5z
		 M-376.7,232c0,0.3,0,0.5,0,0.8c-0.3-0.1-0.4,0.2-0.4,0.4C-377.9,233.4-377.7,231.4-376.7,232z M-375.5,236.5
		c-1.1-0.1-1.7-0.7-1.6-2C-375.6,234.2-375.3,235.1-375.5,236.5z M-373.9,259.8c-0.7,0.1-0.7-0.4-1.2-0.4
		C-375.2,258.6-373.2,258.8-373.9,259.8z M-373.9,230.4c-1.5,0-2.2-0.8-2.4-2c1.2-0.6,2.1,1.1,2.4,0
		C-372.7,228.7-374.1,229.7-373.9,230.4z M-371,229.6C-371.5,232-374,230.4-371,229.6L-371,229.6z M-372.2,256.9
		C-372.4,257.1-372,256.7-372.2,256.9L-372.2,256.9z M-372.2,240.2C-372.4,240.4-372,239.9-372.2,240.2L-372.2,240.2z M-372.2,232.4
		c0.4-0.7,0.8-1.4,2-1.2C-370.4,232-370.8,232.7-372.2,232.4z M-369.4,234.5C-369.5,234.6-369.1,234.2-369.4,234.5L-369.4,234.5z
		 M-369,249.6C-370.1,248.3-367.7,250.7-369,249.6L-369,249.6z M-368.5,254.9C-368.3,254.6-368.7,255.1-368.5,254.9L-368.5,254.9z
		 M-369.8,232.4c0.1-1.4,1.1-1.1,2-0.8C-367.7,233.3-368.8,232.7-369.8,232.4z M-367.3,234.9C-367,234.6-367.5,235.1-367.3,234.9
		L-367.3,234.9z M-368.1,229.6c-1-0.9,0.6-1.1,0.8-2C-366.6,227.6-367.1,229.8-368.1,229.6z M-365.7,254.1c2.3,0.1,1.3,1.9,2.4,2.4
		c0.7-0.8,0.4-2.6,1.2-3.3c1.1-0.1,0.3,1.6,1.6,1.2C-359.8,259.9-369.2,259.4-365.7,254.1z M-359.6,249.6
		C-360.8,249.5-359.2,247.9-359.6,249.6L-359.6,249.6z M-357.9,229.2c-0.4,0-0.8,0-1.2,0C-359.8,228-357.3,228-357.9,229.2z
		 M-357.1,229.6c0-0.4,0-0.8,0-1.2c0.8,0,1.6,0,2.5,0C-354.4,229.8-355.9,229.6-357.1,229.6z M-355.9,232.4
		c-0.7-1.6,1.8-0.1,1.6-1.2C-352.8,232.1-355.1,233.6-355.9,232.4z M-354.2,236.5c0.9-1,2.9-3.2,3.3-0.4
		C-352.3,234.5-352.8,236.2-354.2,236.5z M-351.4,243.9C-352.7,243.3-349.8,242.8-351.4,243.9L-351.4,243.9z M-349.8,246.7
		c-0.3,0-0.5,0-0.8,0c0-0.3,0-0.5,0-0.8c0.3,0,0.5,0,0.8,0C-349.8,246.2-349.8,246.5-349.8,246.7z M-348.1,246.3c-0.3,0-0.5,0-0.8,0
		c-0.1-0.8,0.1-1.3,0.8-1.2C-348.1,245.5-348.1,245.9-348.1,246.3z M-349.8,238.1c0.2-1.3,1-2,2-2.5
		C-346.5,236.8-348.5,238.1-349.8,238.1z M-347.7,249.2c1.2-0.4,2.3-0.9,2.4-2.4c1,0.4,0.9,1.8,2.5,1.6
		C-343.3,251.1-346,250.2-347.7,249.2z"/>
	<path class="st0" d="M-219.9,275.7c0-0.2,0-0.5,0.1-0.7c-1.7-1.5-3.8-2.3-6.2-2.3h-31.3c-5.2,0-9.4,4.2-9.4,9.4v18.8
		c0,5.2,4.2,9.4,9.4,9.4h1.9c-0.2-0.5-0.5-1-0.4-1.8c3.9-0.3,7.3,0.7,11,1.6c0,0.1,0,0.1,0,0.2h18.8c0.8,0,1.6-0.1,2.4-0.3
		c0.4-1,0.9-1.9,1.7-2.3c0.3,0.5,0.2,1.1,0.1,1.7c3.1-1.5,5.3-4.7,5.3-8.4v-18.9c0-2.5-1-4.8-2.6-6.5
		C-219.4,275.6-219.6,275.7-219.9,275.7z M-221.5,280.6c0.9,1,0.1,2.2,0,2.9C-222.7,282.4-221.9,281.9-221.5,280.6z M-232.9,285.9
		C-233.1,286.1-232.7,285.7-232.9,285.9L-232.9,285.9z M-233.8,285.9C-233.9,286.1-233.5,285.7-233.8,285.9L-233.8,285.9z
		 M-243.6,282.7C-243.7,282.8-243.3,282.4-243.6,282.7L-243.6,282.7z M-244,281.4C-245.2,281.4-243.6,279.7-244,281.4L-244,281.4z
		 M-244.8,283.5c0.3,0,0.5,0,0.8,0c0,0.3,0,0.5,0,0.8c-0.3,0-0.5,0-0.8,0C-244.8,284-244.8,283.8-244.8,283.5z M-248.1,277.4
		c0.3,0,0.5,0,0.8,0c0,0.3,0,0.5,0,0.8c-0.3,0-0.5,0-0.8,0C-248.1,277.9-248.1,277.6-248.1,277.4z M-257.9,279.8
		C-259.1,279.7-257.5,278.1-257.9,279.8L-257.9,279.8z M-260.3,279C-260.5,279.2-260,278.7-260.3,279L-260.3,279z M-261.1,276.5
		C-260.9,276.3-261.3,276.7-261.1,276.5L-261.1,276.5z M-262.8,279.8c1.1,0.8,4.1-0.2,4.1,1.6C-259.9,280.6-263,283.4-262.8,279.8z
		 M-264,277.8C-263.7,277.5-264.2,277.9-264,277.8L-264,277.8z M-264.4,287.6c0.6-0.9,2.5,0.4,2.4,1.6
		C-263.7,289.6-263.1,287.7-264.4,287.6z M-261.1,302.7c-0.1-0.9,0.3-1.3,1.2-1.2C-259.7,302.5-260.1,302.9-261.1,302.7z
		 M-258.7,293.7C-259.9,293.6-258.3,292-258.7,293.7L-258.7,293.7z M-253.8,289.6c-2.2-0.4-2.2,2.3-4.1,3.3
		c-0.4-0.1-0.3-0.8-0.8-0.8c-0.8,0.3-1.1,1.1-1.2,2c-1.8-0.5-2.2,0-2.9,0.4c0.1-3.4,8.2-2.4,7.8-7.8
		C-254.4,287.5-253.5,288-253.8,289.6z M-251.7,279c2.1-1,4.1,0.2,4.9,1.6c-0.2,1-3.2,0.2-4.9-0.4
		C-251.7,279.8-251.7,279.4-251.7,279z M-247.7,287.2c-0.7,1.9-1.4-0.3-2.9,0C-250.5,285.3-248.2,286.9-247.7,287.2z M-246.4,301.9
		c-1.9,0.1-3.2-0.3-4.5-0.8c-0.5-3.2,5-3,4.9,0C-246.4,301.1-246.3,301.5-246.4,301.9z M-246,294.9
		C-247.2,294.8-245.6,293.2-246,294.9L-246,294.9z M-245.6,290.4C-245.8,290.6-245.3,290.2-245.6,290.4L-245.6,290.4z M-245.2,288.4
		c0.5,0.2,0.8,0.5,0.8,1.2C-245.3,289.8-245.2,289-245.2,288.4z M-243.6,294.5C-245,293.8-242.2,293.2-243.6,294.5L-243.6,294.5z
		 M-241.9,294.9C-241.7,294.6-242.1,295.1-241.9,294.9L-241.9,294.9z M-241.9,284.3C-241.7,284-242.1,284.5-241.9,284.3
		L-241.9,284.3z M-237.8,305.9c-0.9-0.3-2.1-0.4-2.9-0.8c0.6-1.2,2.5-1.3,3.7-0.8C-236.5,305.6-238.4,304.6-237.8,305.9z
		 M-240.7,299.4c0-2.2,4.2-3.6,4.1-0.4C-238.1,299.8-239.2,298.6-240.7,299.4z M-231.7,300.2c-1.2,0-1.6-0.9-2.4-1.2
		C-233.6,298.1-231.2,298.7-231.7,300.2z M-228.9,288.4C-230.8,287.7-229.4,286.4-228.9,288.4L-228.9,288.4z M-228,286.7
		c-0.3,0-0.5,0-0.8,0c0-0.3,0-0.5,0-0.8c0.3,0,0.5,0,0.8,0C-228,286.2-228,286.5-228,286.7z M-226.8,288
		C-228.3,287.3-225.5,286.7-226.8,288L-226.8,288z M-227.2,284.3c0.1-0.5,0.4-0.2,0.4,0c1-0.4-0.9-1.2-0.4-2.4
		c0.5-0.6,1.8-0.4,2.9-0.4c0.3-1.2-0.7-1.2-0.4-2.4c1.2,0.3,2.1,0.9,2,2.4c-2.3-0.2-0.4,1.5-1.2,2.5c0.3-0.1,0.4-0.4,0.8-0.4
		C-222.9,283.9-225.4,285.3-227.2,284.3z M-223.1,300.2C-224.4,300.1-222.8,298.5-223.1,300.2L-223.1,300.2z M-223.6,302.3
		c0.6-0.9,0.9-2.1,2.4-2C-221.1,301.7-221.9,302.4-223.6,302.3z M-221.1,285.1c0-0.5,0-1.1,0-1.6c0.6,0,1.6,0.2,1.6-0.4
		C-218.8,283.4-219.8,285.4-221.1,285.1z"/>
	<path class="st0" d="M-328.9,350.5c-0.1,0-0.2,0-0.3-0.1v0.5c0,0.1,0,0.1,0,0.2C-329.1,350.9-329,350.7-328.9,350.5z"/>
	<path class="st0" d="M-219.8,275c0.2,0.2,0.4,0.4,0.6,0.5C-219.4,275.4-219.6,275.2-219.8,275z"/>
	<path class="st0" d="M-234.2,260.2h1.6C-233.4,259.9-233.9,260-234.2,260.2z"/>
	<path class="st0" d="M-288.4,272.7c0.4,0,0.8,0,1.2,0.1C-287.7,272.7-288.1,272.7-288.4,272.7z"/>
	<path class="st0" d="M-225.4,322.8c0.3,0,0.7,0.1,1,0.1c-0.1,1.3-1.1,0.9-2,0.6C-226.2,323.1-225.8,322.9-225.4,322.8
		c-0.2,0-0.4,0-0.6,0h-31.3c-2.5,0-4.7,1-6.4,2.5c-0.1,0.3-0.4,0.6-0.3,1.1c-0.2,0-0.4-0.1-0.5-0.2c-0.3,0.4-0.6,0.8-0.8,1.2
		c0,0.7-0.5,1.4-1,2.1c0.2-0.8,0.6-1.5,1-2.1c-0.9,1.4-1.4,3.1-1.4,4.8v3.6c0.1,0,0.2,0,0.2,0c0,0.3,0,0.5,0,0.8c-0.1,0-0.2,0-0.2,0
		v14.2c0-0.2,0.3-0.5,1.1-0.7c-0.4,1.2-1.1,1.1-1.1,0.8v0.1c0,5.2,4.2,9.4,9.4,9.4h11.5c-0.2-0.6-0.4-1.1-0.2-2.1
		c1,0.7,2.9,0.4,2.9,2.1h0.9c0-0.1-0.1-0.3-0.1-0.4c1.9,0.8,0.6-1.6,2-1.2c0.1,0.3-0.2,0.4-0.4,0.4c0.1,0.5,0.7,0.3,1.2,0.4
		c0,0.3,0,0.6,0,0.9h13.5c5.2,0,9.4-4.2,9.4-9.4v-18.8C-216.6,327.2-220.5,323.1-225.4,322.8z M-265.2,334.5
		C-265.4,334.7-264.9,334.3-265.2,334.5L-265.2,334.5z M-264.8,346.4C-266,346.3-264.4,344.7-264.8,346.4L-264.8,346.4z
		 M-266.4,343.9c-0.1-1.2,1.5-1.4,2-0.8C-264.5,344-265.4,344-266.4,343.9z M-241.1,324.7C-242.3,324.6-240.7,323-241.1,324.7
		L-241.1,324.7z M-243.2,344.7C-242.6,342.4-241.2,346.2-243.2,344.7L-243.2,344.7z M-246,333.7c0.3,0,0.5,0,0.8,0
		c0,0.3,0,0.5,0,0.8c-0.3,0-0.5,0-0.8,0C-246,334.3-246,334-246,333.7z M-247.2,330.5c1.2-0.4,0.7,0.9,0.8,1.6c-0.3,0-0.5,0-0.8,0
		C-247.2,331.5-247.2,331-247.2,330.5z M-248.1,348c0.1-0.1,0.1-0.2,0.2-0.3C-247.9,347.8-248,347.9-248.1,348
		c-0.2,0.5-0.3,0.7-0.3,0.7C-248.4,348.7-248.2,348.3-248.1,348z M-251.7,324.7C-251.5,322.9-249.3,325.1-251.7,324.7L-251.7,324.7z
		 M-252.1,342.7C-252.3,342.9-251.9,342.4-252.1,342.7L-252.1,342.7z M-263.2,348.8c-0.9-0.1-0.1-1.9,0.8-1.6
		C-262.1,348.3-263.2,348-263.2,348.8z M-261.5,341.1c-1.2-0.3-2.1-0.9-2-2.5c2.3,0.5,2.6-1,2.9,1.6
		C-260.8,340.7-261.5,340.5-261.5,341.1z M-259.5,355c-0.3-0.1-0.4,0.2-0.4,0.4c-0.8,0.2-0.6-1.9,0.4-1.2
		C-259.5,354.4-259.5,354.7-259.5,355z M-259.5,328c-0.5,0-1.1,0-1.6,0c0-0.3,0-0.5,0-0.8c0.5,0,1.1,0,1.6,0
		C-259.5,327.5-259.5,327.7-259.5,328z M-258.3,359.9c-0.2-0.9,0.3-1.1,0.4-1.6C-256.7,358.3-256.9,360.2-258.3,359.9z M-258.7,330
		c1.4-0.3,1.5,0.7,1.6,1.6C-258,331.5-259,331.4-258.7,330z M-254.6,323.1C-254.3,322.8-254.8,323.3-254.6,323.1L-254.6,323.1z
		 M-253.4,324.7c-0.1-1.1-0.1-2,1.2-1.6C-252,324.2-252.3,324.9-253.4,324.7z M-252.1,345.6c-1-1.4,0.8-2.7,2-1.6
		C-250.2,345.1-250.8,345.7-252.1,345.6z M-250.1,342.3C-249.8,342-250.3,342.5-250.1,342.3L-250.1,342.3z M-249.3,359.4
		c-0.5-0.1-0.3-1.1,0-1.2C-248.4,357.8-248.3,359.7-249.3,359.4z M-242.3,356.6C-242.5,356.8-242.1,356.3-242.3,356.6L-242.3,356.6z
		 M-241.1,356.2C-240.8,355.9-241.3,356.4-241.1,356.2L-241.1,356.2z M-242.7,353.3c-0.5-0.1-0.6-0.7-1.2-0.8
		c-0.5,0.9-1.5,1.2-1.6,2.4c-1.2-1.7-3.5-2.9-2.9-5.7c0.5,0.3,0.8,0.9,0.8,1.6c0.7,0.1,0.9-0.5,1.6-0.4c0,0.3,0,0.5,0,0.8
		c0.9-0.4,0.2-2.6-1.2-2c0.8-1.3,3.8-3,5.7-1.6c1.2-0.3-0.2-1.3,0-2c3.7,0.8,2.2,3.5,3.3,5.7C-239.9,351.3-241.5,350.9-242.7,353.3z
		 M-238.3,360.3C-239.5,360.2-237.9,358.6-238.3,360.3L-238.3,360.3z M-240.3,357.4c0.8-1.1,1.2-2.7,2.9-2.9c0-0.1,0-0.1,0,0l0,0
		c0,0.3,0,1.5,0.8,2.4C-237.7,358.2-239.3,357.6-240.3,357.4z M-236.6,329.2c0-0.1-2,1.8-4.1-0.8c0-1.8,1.8-1.8,2.9-2.5
		C-235.6,326.8-236.3,328.4-236.6,329.2z M-234.6,356.6c-0.5,0-1.1,0-1.6,0c0.1-1.6,1.8-1.2,0.8-2.9
		C-233.8,353.4-234.9,355.7-234.6,356.6z M-232.5,347.2c-0.3,0-0.5,0-0.8,0c0-0.3,0-0.5,0-0.8c0.3,0,0.5,0,0.8,0
		C-232.5,346.6-232.5,346.9-232.5,347.2z M-234.2,334.9c0.4-1.3-0.6-1.3-1.2-1.6c-0.1-0.7,0.4-0.7,0.4-1.2c1.3-0.2,1.4,0.7,2.9,0.4
		C-231.5,333.8-232.4,334.9-234.2,334.9z M-229.7,355.4c-0.1-0.7,0.4-0.7,0.4-1.2C-228.5,354-228.7,356-229.7,355.4z M-228,333.3
		C-228.2,333.5-227.8,333-228,333.3L-228,333.3z M-224.8,353.7C-224.5,353.5-224.9,353.9-224.8,353.7L-224.8,353.7z M-219.9,344.7
		C-221.3,344.1-218.5,343.5-219.9,344.7L-219.9,344.7z M-221.9,334.9C-222.1,335.1-221.6,334.7-221.9,334.9L-221.9,334.9z
		 M-218.7,348.4c0.6,1.4-1.8,1.9-0.4,2.9c-2,1.5-2.8-0.7-4.9,0.8c0.3-2.8,1.4-4.8,4.9-4.5C-219.1,348.1-219,348.3-218.7,348.4z"/>
	<path class="st0" d="M-287.3,272.8c-0.2,0.6-1,0.3-1.2-0.1h-0.1h-1.2c0.1,0.2-0.1,0.3-0.8,0.2c0-0.1,0-0.1,0-0.2h-0.4
		c0.3,0.4,0.6,0.8,1.2,1c-0.8,2.5-4,1.5-3.1-1h-17.7c-0.3,0.5-0.3,0.9,0.1,1.8c-1-0.2-1.9-0.6-3.3-0.4c-0.6-0.2,0-0.4,0.4-0.4
		c0.1-0.5,0.3-0.8,0.5-1h-6.9c-0.7,0-1.4,0.1-2.1,0.2c-0.1,0.1-0.2,0.2-0.4,0.3c-0.1-0.1-0.2-0.1-0.3-0.2c0.1,0,0.2-0.1,0.4-0.1
		c-4,1.1-7,4.7-7,9.1v18.8c0,5.2,4.2,9.4,9.4,9.4h31.3c3.6,0,6.7-2,8.3-5c-0.1,0.2-0.2,0.4-0.3,0.6c-0.2,0-0.5-0.1-0.9-0.3
		c0.6-0.6,1.1-0.5,1.3-0.3c0.7-1.3,1.1-2.8,1.1-4.4v-10.7c-0.7,0.6-1.8,0.8-2.8,1.2c1.1-1.1,0.2-2.2,0.8-3.3c1-0.2,1.2,0.4,1.9,0.5
		v-6.4C-279.2,277.3-282.7,273.4-287.3,272.8z M-328.9,298.6c-0.1-0.9,0.3-1.3,1.2-1.2C-327.6,298.3-328,298.7-328.9,298.6z
		 M-298.7,283.5c0.1,1-0.6,1.3-0.8,2c-0.5-0.8-1.8-1-2-2C-300.1,283.8-299.6,282.6-298.7,283.5z M-303.2,281
		c-0.9,0.2-0.8-0.6-0.8-1.2C-303.5,280-303.2,280.3-303.2,281z M-306.5,277.8C-306.2,277.5-306.6,277.9-306.5,277.8L-306.5,277.8z
		 M-306.8,280.6C-306.8,280.6-306.9,280.6-306.8,280.6C-307,280.7-306.9,280.6-306.8,280.6z M-308.5,280.2c1,0.1,0.2,1.8,0,2
		C-309.7,281.9-308.3,280.9-308.5,280.2z M-313.4,282.3c1.6-0.7,0.1,1.8,1.2,1.6C-312.9,285.2-313.3,282.9-313.4,282.3z
		 M-311.8,293.3C-311.6,291.5-309.4,293.7-311.8,293.3L-311.8,293.3z M-309.7,298.6C-309.9,298.8-309.5,298.3-309.7,298.6
		L-309.7,298.6z M-308.1,299.4c0.7-1.1,1.3-0.6,2,0C-306.4,300.8-307.5,299.9-308.1,299.4z M-300.7,305.5c0.1-1,0.6-1.6,1.6-1.6
		c0.3,0.4,0.4,0.9,0.4,1.6C-300,305.8-299.5,305.8-300.7,305.5z M-302.4,290c0-0.7,0-1.4,0-2c-1.5,2.9-5.8,1.3-8.2,1.2
		c0.7-2.5,5,0.6,6.5,0c-0.4-1.9,0.7-2.3,0.8-3.7c2.6,0.1,0.5,2.7,2.4,3.7c0.2-0.5,1.5-1.9,0.8-2c0.1-1.1,0.7,0.6,1.6,0
		C-298.2,289.1-299.5,291.2-302.4,290z M-297.9,277.8C-299.1,277.7-297.5,276.1-297.9,277.8L-297.9,277.8z M-297.1,295.3
		c-0.2-0.9,0.6-0.8,1.2-0.8C-296,295-296.4,295.3-297.1,295.3z M-291.4,298.6c0.3,0,0.5,0,0.8,0c0,0.3,0,0.5,0,0.8
		c-0.3,0-0.5,0-0.8,0C-291.4,299.1-291.4,298.9-291.4,298.6z M-287.7,307.6c-0.7-0.1-0.9,0.5-1.6,0.4c0.6-2.2-2.3-2.3-0.8-4.1
		C-288,303.9-287.6,305.5-287.7,307.6z M-287.2,310.1c-0.1-0.2-0.1-0.5,0-0.9c0.6,0,1,0.3,1.3,0.6
		C-286.4,310-286.8,310.1-287.2,310.1z M-285.6,297C-285.4,296.7-285.8,297.1-285.6,297L-285.6,297z M-282.4,305.9
		C-282.1,305.7-282.5,306.1-282.4,305.9L-282.4,305.9z M-279.5,301.5c0.1,0.1,0.2,0.2,0.3,0.3c-0.1,0.7-0.2,1.4-0.4,2.1
		c-1.2,0.3-1.9,1.5-3.9,0.5C-283,302.6-280.9,302.3-279.5,301.5z"/>
	<path class="st0" d="M-222.7,309.6c-0.3,0.1-0.6,0.2-0.9,0.3C-223.3,309.8-223,309.8-222.7,309.6z"/>
	<path class="st0" d="M-264.5,326.1c0.3-0.3,0.5-0.6,0.8-0.9C-264,325.5-264.2,325.8-264.5,326.1z"/>
	<path class="st0" d="M-288.6,222.6h-31.3c-5.2,0-9.4,4.2-9.4,9.4v18.8c0,5.2,4.2,9.4,9.4,9.4h25.6c0.1-0.3,0.5-0.6,0.5,0h5.2
		c5.2,0,9.4-4.2,9.4-9.4v-1.2c-0.1,0-0.2,0-0.3,0c0.1-0.1,0.2-0.3,0.3-0.4v-2c-1.5,0.2-1.4,0.4-2.4-0.4c0-0.9,1.2-1,2.4-1.3V232
		C-279.2,226.8-283.4,222.6-288.6,222.6z M-294.6,226.7C-293.4,227.6-295.1,229.3-294.6,226.7L-294.6,226.7z M-295.8,227.9
		C-296,228.1-295.6,227.7-295.8,227.9L-295.8,227.9z M-296.3,232.4C-297.7,231.7-294.9,231.2-296.3,232.4L-296.3,232.4z M-303.9,237
		c0.4,0.2,0.5,0.3,0.6,0.3C-303.4,237.3-303.7,237.1-303.9,237C-304,237-304,236.9-303.9,237C-304.6,236.6-304.3,236.8-303.9,237z
		 M-304.8,237.7c-0.8,0.8-1.5,0.1-2.5,0c-0.1-0.7,0.5-0.9,0.4-1.6C-305.9,236.3-304.8,236.5-304.8,237.7z M-306.1,228.8
		C-307.3,228.7-305.7,227.1-306.1,228.8L-306.1,228.8z M-307.3,234.1C-306.9,232.3-305.1,234.1-307.3,234.1L-307.3,234.1z
		 M-306.9,223.4C-307,223.6-306.6,223.2-306.9,223.4L-306.9,223.4z M-326.1,230C-326.2,230.1-325.8,229.7-326.1,230L-326.1,230z
		 M-328.1,229.2C-327.8,228.9-328.3,229.3-328.1,229.2L-328.1,229.2z M-327.3,250c0.2-1.9,2.6-0.2,2.9,0.4
		C-324.8,251.2-326.6,250.1-327.3,250z M-323.2,234.1C-323.4,234.2-322.9,233.8-323.2,234.1L-323.2,234.1z M-324.4,232
		c0-0.8,0-1.6,0-2.4c1.3,0,1.6,1.2,1.6,2.4C-323.3,232-323.9,232-324.4,232z M-322,247.9C-323.2,249.1-320.9,246.7-322,247.9
		L-322,247.9z M-320.3,230c-2.6,0.8-1.7-1.7-4.5-1.7c0.1-0.5,0.7-0.6,0.8-1.2c3.1-0.1,5.2,2.7,3.7,4.9
		C-321.9,232.3-320.4,230.6-320.3,230z M-319.9,248.4C-322.6,249.6-318.7,247.8-319.9,248.4L-319.9,248.4z M-319.1,246.7
		C-320.3,246.6-318.7,245-319.1,246.7L-319.1,246.7z M-318.7,233.7c0.7-0.3-0.1-2,1.2-1.6C-317.7,232.8-317.6,233.8-318.7,233.7z
		 M-315.4,254.9C-316.8,254.3-313.9,253.9-315.4,254.9L-315.4,254.9z M-314.6,241.8C-314.8,242-314.4,241.6-314.6,241.8
		L-314.6,241.8z M-309.7,258.2C-311.2,257.5-308.4,256.9-309.7,258.2L-309.7,258.2z M-308.9,244.7
		C-310.1,244.6-308.5,243-308.9,244.7L-308.9,244.7z M-306.9,227.5c-0.9,0.2-1.1-0.3-1.6-0.4C-308.5,226-306.8,226.3-306.9,227.5z
		 M-306.9,254.1C-308.5,253.1-305.5,253.5-306.9,254.1L-306.9,254.1z M-305.6,256.9C-306.9,256.5-305.2,254.8-305.6,256.9
		L-305.6,256.9z M-303.6,253.7c-1.3-0.1-2-0.8-2-2c1-0.1,1.7-0.8,2.5,0C-303,252.6-303.9,252.5-303.6,253.7z M-302.8,249.6
		C-304,249.5-302.4,247.9-302.8,249.6L-302.8,249.6z M-302.4,256.5c-0.1-1,0.6-1.3,0.8-2C-300.2,254.7-300.6,257.1-302.4,256.5z
		 M-298.7,257.3c0-0.4,0-0.8,0-1.2c1.8,0.4,1.1-1.6,2-2c0.9-0.1,0.5,1.2,1.2,1.2C-296,256.5-297.3,257-298.7,257.3z M-296.3,241
		C-296.1,239.2-293.9,241.4-296.3,241L-296.3,241z M-295.4,229.2c1.4,0.1,2.4-1.2,3.6-0.9c0.1,1.6-0.9,2.1-1.2,3.3
		C-294.9,231.9-295.4,230.8-295.4,229.2z M-294.2,254.1C-293.9,253.8-294.4,254.2-294.2,254.1L-294.2,254.1z M-294.6,251.6
		c-0.1-0.9,0.1-1.6,0.4-2c0.9-0.1,1.6,0.1,2,0.4C-292.6,251-292.9,252-294.6,251.6z M-292.2,253.3
		C-293.4,254.4-291.1,252-292.2,253.3L-292.2,253.3z M-292.2,244.3C-291.1,242.8-289.4,244.5-292.2,244.3L-292.2,244.3z
		 M-289.7,248.8C-288.2,250-291,250.1-289.7,248.8L-289.7,248.8z M-288.5,223c0-0.2,0-0.3,0-0.4c0.5,0,0.9,0.1,1.4,0.1
		C-287.4,223-287.9,223.1-288.5,223z M-286.9,250.8C-285.3,252-288.1,252.2-286.9,250.8L-286.9,250.8z M-281.5,247.9
		C-281.7,248.1-281.3,247.7-281.5,247.9L-281.5,247.9z"/>
	<path class="st0" d="M-351.2,272.7h-31.2c-5.2,0-9.4,4.2-9.4,9.4v6.3c0.7-0.8,2.8-1,3.7-1.2c2.1,0.4,0.3,5.9,3.3,4.1
		c0.1,2.4-0.9,3.7-2.5,5.3c-1.6-0.5-3-1.6-4.5-2.1v6.4c0,5.2,4.2,9.4,9.4,9.4h31.3c5.2,0,9.4-4.2,9.4-9.4v-8.6
		c-1.8,1.4-5.6,0.8-7.2-0.2c0.1-3.7,3.5-2.9,6.5-6.9c1,0.3,0.1,3.1,0.6,4.5v-7.6C-341.8,276.9-346,272.7-351.2,272.7z M-388.1,283.5
		C-389.4,283.4-387.8,281.8-388.1,283.5L-388.1,283.5z M-388.6,280.2c0.9-0.2,0.8,0.6,0.8,1.2C-388.2,281.3-388.6,280.9-388.6,280.2
		z M-390.6,300.2C-391.8,300.1-390.2,298.5-390.6,300.2L-390.6,300.2z M-386.1,285.1c-1.1-1.3-0.8-2.8,1.2-2.8
		C-385.1,283.4-385.9,284-386.1,285.1z M-373.9,272.9c0,0.3,0,0.5,0,0.8c-0.3-0.1-0.4,0.2-0.4,0.4
		C-375.1,274.2-374.9,272.2-373.9,272.9z M-378.3,287.2c0.3-0.7,0.7-0.1,1.2,0C-377.4,287.9-377.9,287.2-378.3,287.2z M-377.1,290
		c-0.8-2.5,1.8-1.4,1.2-3.7c1.4,0,2.2,0.6,2.9,1.2C-373.8,289.7-375.6,288.4-377.1,290z M-374.7,277.4c1.7,2.2,3,2.5,5.7,3.3
		C-371.7,287.3-379,282.5-374.7,277.4z M-366.9,277.4C-366.7,275.6-364.5,277.8-366.9,277.4L-366.9,277.4z M-366.5,309.6
		c-0.1-0.7,0.5-0.9,0.4-1.6C-364.9,308.1-365.1,309.9-366.5,309.6z M-364.5,295.3c-0.3,0-0.5,0-0.8,0c0-0.3,0-0.5,0-0.8
		c0.3,0,0.5,0,0.8,0C-364.5,294.8-364.5,295.1-364.5,295.3z M-363.6,295.7C-365,295.1-362,294.7-363.6,295.7L-363.6,295.7z
		 M-364.9,276.1c-0.3-1.4,1.4-1.5,2-0.8C-363.1,276.1-364.1,277-364.9,276.1z M-355.5,292.9c-0.3-0.1-0.4,0.2-0.4,0.4
		c-0.8,0.2-0.6-1.9,0.4-1.2C-355.5,292.3-355.5,292.6-355.5,292.9z M-351.4,299.4C-352.6,300.5-350.3,298.2-351.4,299.4
		L-351.4,299.4z M-350.6,290.8c-0.3,0-0.5,0-0.8,0c0-0.3,0-0.5,0-0.8c0.3,0,0.5,0,0.8,0C-350.6,290.3-350.6,290.6-350.6,290.8z"/>
	<path class="st0" d="M-348.5,359.9c-0.3,0.1-0.6,0.2-0.9,0.2C-349,360.1-348.7,360-348.5,359.9z"/>
	<path class="st0" d="M-391,290.4c-0.4-0.3-0.7-0.7-0.8-0.9v2.4C-391.2,291.8-391,291.7-391,290.4z"/>
	<path class="st0" d="M-346.8,359.2c-0.5,0.3-1.1,0.5-1.7,0.7C-347.9,359.7-347.3,359.5-346.8,359.2z"/>
	<path class="st0" d="M-221.9,309.3c-0.3,0.1-0.6,0.3-0.9,0.4C-222.4,309.5-222.1,309.4-221.9,309.3z"/>
	<path class="st0" d="M-389.8,356.7c-0.6-0.8-1.1-1.6-1.4-2.6C-390.9,355.1-390.4,356-389.8,356.7z"/>
	<path class="st0" d="M-217.4,234.5c-0.1-1.7-0.6-2.4,0.8-2.8c-0.2-5-4.3-9.1-9.4-9.1h-31.3c-2.3,0-4.3,0.8-5.9,2.1
		c0.3,0.2,0.5,0.6,0.5,1.1c-0.4,0-0.8,0-1.2,0c0-0.1,0-0.3,0-0.4c0.2-0.2,0.5-0.5,0.8-0.7c-2.1,1.7-3.5,4.3-3.5,7.3v2.3
		c0.3-0.3,0.4-0.8,0.2-1.5c1.2-0.3,1.5,0.4,2.4,0.4c-0.4,1.2-0.6,0.5-1.6,0.4c0.7,0.8,0.5,2.5,1.2,3.3c-0.4,0.8-1.2,1.2-2.3,1.2v8.6
		c0.1-0.1,0.1-0.3,0.2-0.4c1,0.1,1.5,0.6,2.9,0.4c-0.2,1.9,0.8,5.1,0,6.9c0.9-1.8,2.6-0.1,3.3,0.8c-2.4,0.9-4.2-0.3-6.1-1.3
		c-0.1-0.4-0.2-0.7-0.2-1.1c0.6,4.6,4.5,8.1,9.3,8.1h20.8c0.4-0.6,0.9-1.1,1.5-1.6c-0.8-0.9-2.1-0.7-3.3-2c-0.6,0.1-0.1,1.2-0.8,1.2
		c-1.4,0.4-0.6-1.3-0.8-2c0.8-0.2,1-0.9,2-0.8c-0.1,1,0.6,1.3,0.8,2c1.7,0.2,0.8-2.2,2.9-1.6c1.1,1-0.8,2.6,0.4,3.7
		c1,0.2-0.2-1.9,1.2-1.2c0,0.8,0,1.6,0,2.4h6.5c5.2,0,9.4-4.2,9.4-9.4v-16.3C-216.9,234.5-217.1,234.5-217.4,234.5z M-263.6,235.7
		C-263.2,234-261.4,235.7-263.6,235.7L-263.6,235.7z M-261.5,234.9c0.5,0,1.1,0,1.6,0c0,0.3,0,0.5,0,0.8c-0.5,0-1.1,0-1.6,0
		C-261.5,235.4-261.5,235.2-261.5,234.9z M-260.3,252.8c-0.7-0.4-1.1-1.4-0.4-2C-259.4,251.1-260.2,251.9-260.3,252.8z M-259.9,259
		c-0.3-1.4,1.7-0.5,1.2-2C-257.5,257.6-259.1,258.9-259.9,259z M-235,232.4c1-0.1,1.5-0.6,2.9-0.4c0.2,2.1,1.2,3.4,2.9,4.1
		c-0.5,1.4-2.6,1.2-4.5,1.2C-233.7,235.2-235.4,234.9-235,232.4z M-247.2,251.2C-247.4,251.4-247,250.9-247.2,251.2L-247.2,251.2z
		 M-253.4,245.9C-254.9,244.7-252.1,244.5-253.4,245.9L-253.4,245.9z M-253.8,250.8c0-0.5,0-1.1,0-1.6
		C-252.2,248.9-252.4,250.9-253.8,250.8z M-248.9,232c-0.5-0.5-0.5-1.4-0.4-2.4C-248.2,229.3-247.7,232.7-248.9,232z M-248.1,253.7
		c-0.2-0.9,0.8-0.6,0.8-1.2C-246.5,252.3-247.2,254-248.1,253.7z M-246.8,240.2C-246.6,239.9-247,240.4-246.8,240.2L-246.8,240.2z
		 M-246.4,240.6c0.3,0,0.5,0,0.8,0c0,0.3,0,0.5,0,0.8c-0.3,0-0.5,0-0.8,0C-246.4,241.1-246.4,240.9-246.4,240.6z M-245.6,252
		c-0.2,0.1-0.3,0.2-0.4,0.2c-0.4,0.2-0.3,0.2,0,0c0.3-0.2,0.6-0.4,0.7-0.4C-245.3,251.9-245.4,251.9-245.6,252z M-241.5,239.4
		c-1.6-2.1-4.7-0.1-4.9-3.7C-244.2,235.2-239.7,235.5-241.5,239.4z M-240.7,245.1c0.5,0.2,0.8,0.5,0.8,1.2
		C-240.4,246.1-240.7,245.8-240.7,245.1z M-236.2,246.3c-3.1-0.6-1.5-3.2-3.3-3.7c0.5-1.8,1.3-1,1.2-2.9c1.8,0.6,1.7,3.2,4.1,3.3
		C-234.8,244.2-236.2,244.6-236.2,246.3z M-233.4,240.6c-0.6-0.3-0.6-1.3-0.8-2c0.8-0.8,0.7,0.2,2,0
		C-231.4,240.4-233.8,239.1-233.4,240.6z M-232.9,241c0.6,0.1,0.3,1,0.4,1.6C-233.5,242.5-233.5,241.5-232.9,241z M-232.5,245.9
		C-233.9,245.3-230.9,244.9-232.5,245.9L-232.5,245.9z M-231.3,246.7C-231.5,246.9-231,246.5-231.3,246.7L-231.3,246.7z
		 M-232.1,242.2c0.3-1.3,1.1-0.5,2-0.4C-230.6,242.4-231.6,242.8-232.1,242.2z M-229.7,251.6C-229.4,251.4-229.8,251.8-229.7,251.6
		L-229.7,251.6z M-229.3,239.8C-229.4,240-229,239.5-229.3,239.8L-229.3,239.8z M-230.1,239c-0.2-0.9,0.3-1.1,0.4-1.6
		C-227.8,237.3-227.6,239.5-230.1,239z M-228,236.5c-0.3,0-0.5,0-0.8,0c0-0.3,0-0.5,0-0.8c0.3,0,0.5,0,0.8,0
		C-228,236-228,236.2-228,236.5z M-226.4,239C-227.6,238.9-226,237.3-226.4,239L-226.4,239z M-226.4,226.7
		C-228,225.7-225.1,226.1-226.4,226.7L-226.4,226.7z M-224.4,238.1c-0.3,0-0.5,0-0.8,0c0-0.3,0-0.5,0-0.8c0.3,0,0.5,0,0.8,0
		C-224.4,237.6-224.4,237.9-224.4,238.1z M-222.7,227.1c0.3-1.9,1.6-0.4,2.9-1.2c-0.4,2,1.3,1.9,0.8,4.1
		C-221.3,230.1-221.3,227.8-222.7,227.1z M-221.9,238.1c-0.2-1.7,1.4-1.6,2-2.5c1.1-0.2,0.4,1.5,1.2,1.6
		C-219.2,238.5-220.8,238.6-221.9,238.1z"/>
	<path class="st0" d="M-391.2,328.9c-0.1,0.4-0.2,0.7-0.3,1.1C-391.5,329.6-391.4,329.3-391.2,328.9z"/>
	<path class="st0" d="M-266.6,251.9c0-0.4-0.1-0.8-0.1-1.2C-266.7,251.2-266.6,251.6-266.6,251.9z"/>
	<path class="st0" d="M-364.5,223.9c0-0.5-0.2-0.8-0.3-1.2h-1.1C-365.6,223.2-365.1,223.6-364.5,223.9z"/>
	<path class="st0" d="M-351.2,322.8h-31.2c-4,0-7.4,2.5-8.8,6.1c0.3-0.8,0.7-1.5,1.2-2.1c0.7,0.3,1.6,0.6,2.7,0.5
		c-0.7,2.2-1.5,3.6-2,5.7c-1.4,0.3-2.1-0.5-2.4-1.6c0-0.4,0.1-0.8,0.2-1.3c-0.2,0.7-0.2,1.4-0.2,2.1V351c0,1.2,0.2,2.2,0.6,3.3
		c1.1,0.3,1.4,1.2,1.4,2.6c1.7,2.2,4.4,3.6,7.3,3.6h31.3c0.6,0,1.2-0.1,1.8-0.2c-0.3,0.1-0.6,0.1-0.9,0.1c0.4-0.6,0.8-1.2,0.9-2
		c1-0.1,1.8,2.4,1.6,0c0.5,0.1,0.7,0.6,0.9,1c3-1.6,5-4.7,5-8.3v-8.9c-0.1,0-0.1-0.1-0.2-0.1c0.1-0.2,0.1-0.3,0.2-0.3v-9.4
		C-341.8,327-346,322.8-351.2,322.8z M-389.4,352.9c-0.4-1.7-0.1-1.8,0-3.7c1,0,1.9,0,2.9,0C-387.5,350.4-387.8,352.3-389.4,352.9z
		 M-385.7,350.5v-0.1c0-0.1,0-0.2,0-0.2s0,0.1,0,0.2c0.1,0.4,0.2,1,0.2,1.1s0,0.1,0,0S-385.6,351.1-385.7,350.5z M-359.6,334.1
		C-359.7,334.3-359.3,333.9-359.6,334.1L-359.6,334.1z M-360.4,330.9C-361.7,330.3-358.8,329.8-360.4,330.9L-360.4,330.9z
		 M-360.4,334.5c-0.2,0.6-0.6,1-0.8,1.6C-362.6,336-362,334-360.4,334.5z M-365.3,323.9C-365,323.6-365.4,324.1-365.3,323.9
		L-365.3,323.9z M-366.5,323.5c0.3,0.6,1.3,0.6,1.2,1.6C-366.7,325.5-367.3,324.3-366.5,323.5z M-364.9,331.7
		c0.4,1.5-1.6,0.6-2.5,0.8C-367.5,331.5-365.5,330.6-364.9,331.7z M-366.5,333.7C-366.5,333.7-366.6,333.8-366.5,333.7L-366.5,333.7
		z M-368.5,330.9C-368.3,329-366.1,331.2-368.5,330.9L-368.5,330.9z M-368.5,335.8c0.7,0.3,0.1,0.7,0,1.2
		C-369.3,336.7-368.6,336.2-368.5,335.8z M-381.2,323.9C-382.6,323.3-379.6,322.9-381.2,323.9L-381.2,323.9z M-380,355.4
		c-3.8-0.8-1.1-4.8,0.8-5.7C-377.3,351.1-379.9,353.3-380,355.4z M-379.2,342.3c-1-0.4,0.3-1.8,1.2-1.6
		C-378.1,341.5-379,341.5-379.2,342.3z M-372.6,331.7c-0.3,0-0.5,0-0.8,0c-0.1-0.8,0.1-1.3,0.8-1.2
		C-372.6,330.9-372.6,331.3-372.6,331.7z M-372.6,324.7C-366.8,323.3-372.7,332.3-372.6,324.7L-372.6,324.7z M-369.8,333.3
		c0.1,1.1-0.9,1.1-1.6,1.2C-371.7,333.1-370.3,332.7-369.8,333.3z M-372.2,336.6c0-0.8,1.1-0.5,0.8-1.6c0.9,1.2,1.9-0.3,1.6,2
		C-370.6,336-371.4,337.5-372.2,336.6z M-369.8,342.7C-371.1,342.1-368.2,341.7-369.8,342.7L-369.8,342.7z M-369.4,346
		c0.6-2.7,4.1-2.6,4.9,0C-366.2,346.8-367.8,346.8-369.4,346z M-364,348.4C-364.2,348.6-363.8,348.2-364,348.4L-364,348.4z
		 M-363.6,347.2C-364.6,345.8-362.3,348.2-363.6,347.2L-363.6,347.2z M-363.6,336.2C-366,332.8-361.7,333.2-363.6,336.2
		L-363.6,336.2z M-360,356.2c-0.3-1.1-2.1-0.6-2.9-1.2c0.2-0.6,0.6-1,0.8-1.6C-359.8,352.7-358.9,354.8-360,356.2z M-361.2,348
		c-0.2-1.6,1.2-1.5,1.6-2.4C-358.1,345.9-359.6,348.3-361.2,348z M-357.9,348.8C-357.7,348.6-358.1,349-357.9,348.8L-357.9,348.8z
		 M-356.3,352.5C-357.7,351.8-355,351.2-356.3,352.5L-356.3,352.5z M-350.6,347.6c0.8-0.7,0.5,0,1.6,0
		C-348.6,349.2-350.9,349.2-350.6,347.6z M-347.7,355.8c-0.9-0.5-2.3-0.5-2.4-1.6c1.1,0,2.2,0,3.3,0
		C-346.6,355.3-347.7,355-347.7,355.8z M-357.5,327.6c2.2,1.3,3.5-0.1,4.5,1.6c1.4-2.3,3,2,6.1,0.8
		C-346,336-357.7,332.7-357.5,327.6z M-343.1,327.3c0.5,0.8,0.8,1.6,1.1,2.5c-1.1,0.1-2.3-0.1-3.6-0.6c0.1-1.3,0.8-2,2-2
		C-343.6,327.3-343.4,327.4-343.1,327.3z"/>
</g>
</svg>
