<?xml version="1.0" encoding="utf-8"?>
<!-- Generator: Adobe Illustrator 19.0.0, SVG Export Plug-In . SVG Version: 6.00 Build 0)  -->
<svg version="1.1" id="Layer_1" xmlns="http://www.w3.org/2000/svg" xmlns:xlink="http://www.w3.org/1999/xlink" x="0px" y="0px"
	 viewBox="-376 177.7 206.9 206.4" style="enable-background:new -376 177.7 206.9 206.4;" xml:space="preserve">
<style type="text/css">
	.st0{fill:#D22730;}
	.st1{fill:#E6DBDC;}
</style>
<g id="Layer_2">
</g>
<g id="Layer_1_1_">
	<g id="XMLID_158_">
		<path id="XMLID_1581_" class="st0" d="M-242.1,205.9c0.1-0.3,0.2-0.5,0.2-0.9c1.3-0.3,1.4,0.5,2.4,0.5c-0.1,0.5-0.5,0.9-1,1.1
			c10.5,4.6,19.9,11.3,27.5,19.7c0.2,0,0.4-0.1,0.7,0c0.8,0.1,1.3,1.2,1.2,2.2l0,0c5.9,6.9,10.6,14.8,13.9,23.4
			c0.1,0,0.1-0.1,0.2-0.1c0.6,0,0.4,0.8,0.8,0.9c0.1,0,0.2,0,0.3,0c0.7-0.5,0.3-1.2,0.6-1.8c1.3,0.1,2.2,0.5,2.9,1.2
			c-0.5,1-2.5,0.6-3.5,0.6l-0.1,0.1c-0.1,0-0.1,0-0.1,0h-0.1c-0.4,0-0.5,0-0.5,0.2c-0.1-0.3-0.2-0.6-0.3-0.9c0.2,0.5,0.4,1,0.6,1.6
			h15.2v-0.1c0.3,0,0.4-0.1,0.5-0.2c0.1,0.2,0.2,0.3,0.3,0.4h10.8c-0.4-1.4-0.8-2.7-1.2-4.1c-0.1,0-0.2-0.1-0.3-0.1
			c0-0.2,0-0.4,0.1-0.5c-1.2-3.8-2.6-7.5-4.2-11c0.1,0.2,0.1,0.3,0.2,0.5c-0.4-0.2-0.6-0.6-1.2-0.6c0.2-0.3,0.5-0.2,0.8-0.1
			c-11.9-26.7-34.5-47.7-62.4-57.4c-0.7,0.4-1.9,0-2.4-0.5c0.1-0.1,0.1-0.2,0.2-0.3c-2-0.6-4-1.2-6-1.8v23c0.7-0.4,1.5-0.4,2.2-0.2
			c-0.2,1.1-1.2,2.1-2.2,2.1v1.9C-244.7,204.9-243.4,205.4-242.1,205.9L-242.1,205.9z M-174.5,246.8
			C-175.5,246.7-173.1,247-174.5,246.8L-174.5,246.8z M-172.6,247.3c-0.3,0-0.6,0-1,0c0-0.2,0-0.3,0-0.5c0.3,0,0.6,0,1,0
			C-172.6,247-172.6,247.1-172.6,247.3z M-173.3,242.6c0.2,0.6,0.4,1.1,0.6,1.7c-0.3-0.2-0.6-0.5-0.7-0.9
			C-173.4,243.2-173.4,242.9-173.3,242.6z M-175,244c0.8,0.2,1.6,0.3,2.1,0.7c-0.6,1.1-1.6,0.4-2.6,1
			C-175.7,244.7-174.8,244.9-175,244z M-176,247.3C-176.9,246.7-175.2,246.9-176,247.3L-176,247.3z M-178.1,244
			c-0.3,0-0.2-0.4-0.2-0.7c0.4,0,0.8,0,1.2,0C-177.2,243.7-178.2,243.3-178.1,244z M-178.6,237.3c-0.1-0.5,1.1-0.3,0.7,0.2
			C-178.3,237.6-178.3,237.3-178.6,237.3z M-178.8,232c0.3,0,0.6,0,0.8,0c0.2,0.4,0.4,0.7,0.6,1.1c-0.4-0.2-0.6-0.6-1.4-0.4
			C-178.8,232.5-178.8,232.3-178.8,232z M-178.8,235.4C-179.4,234.6-178,235.9-178.8,235.4L-178.8,235.4z M-179.3,252.1
			c-0.6-0.1-1.1-0.2-1-1C-180,251.5-179.3,251.4-179.3,252.1z M-180.7,228.2C-181.7,227.6-180,227.9-180.7,228.2L-180.7,228.2z
			 M-206.5,228.4c0.9-0.3,0.5,0.7,1.2,0.5C-205.4,229.7-206.6,229.2-206.5,228.4z M-206.3,225.8C-207,225.8-206.1,224.8-206.3,225.8
			L-206.3,225.8z M-203.7,225.3c-0.5,0.6-0.9-0.1-1.7,0c-0.1-1,0.7-1.1,1.7-1C-203.7,224.7-203.7,225-203.7,225.3z M-203.2,220.1
			C-204.1,219.5-202.4,219.7-203.2,220.1L-203.2,220.1z M-202.7,224.6c0-0.3,0.5-1.5-0.5-1.9c0.2-0.4,0.8-0.3,1.2-0.5
			c0.7,1.5,1.3,1.7,1.2,3.8C-201.2,225.7-201.3,223.7-202.7,224.6z M-199.1,244.4C-197.4,244.4-199.1,245.9-199.1,244.4
			L-199.1,244.4z M-197.5,247.5c0-0.2,0-0.5,0-0.7c0.5,0,0.8,0.2,0.7,0.7C-197,247.5-197.2,247.5-197.5,247.5z M-198.2,231.3
			c-0.1-0.5,0.3-0.5,0.7-0.5C-197.6,231.1-197.8,231.3-198.2,231.3z M-197.2,232.5c0.1-0.9,1.5-0.5,0.7-1.7c0.7-0.1,0.2,0.9,0.7,1
			C-196.2,232-196.6,232.4-197.2,232.5z M-194.6,239.9c-0.4-0.3-0.8-0.6-1-1.2c0.5-0.1,1.3,0.4,0.7,0
			C-194.5,238-194.1,239.7-194.6,239.9z M-192.4,246.3c-0.3,0-0.6,0-1,0c0-0.2,0-0.3,0-0.5c0.3,0,0.6,0,1,0
			C-192.4,246-192.4,246.2-192.4,246.3z M-194.1,241.1c-0.4-1.2,1.9-0.8,1.7,0C-193,241.1-193.6,241.1-194.1,241.1z M-193.4,237.7
			C-194.1,237.7-193.2,236.8-193.4,237.7L-193.4,237.7z M-195.1,227c0.6-1.8,3.7-1.4,3.8,0.5C-192.7,228.4-193.5,227.2-195.1,227z
			 M-193.2,225.3c-0.7,0-1-0.4-1-1.2c2,0,0.6-1.2,2.1,0.5C-191.9,225.3-193.5,224.3-193.2,225.3z M-184.3,226.5
			c0.5,0.5-0.3,1.1-1,1.2C-185.7,227.3-185.3,226.3-184.3,226.5z M-187.2,252.1c-0.2,0-0.5,0-0.7,0c0.3-0.4,0.6-0.8,1.2-1
			C-186.4,251.9-187.5,251.3-187.2,252.1z M-188.1,219.6C-187.7,218.6-186.7,219.6-188.1,219.6L-188.1,219.6z M-189.6,253.3
			C-190.3,253.2-189.4,252.3-189.6,253.3L-189.6,253.3z M-190.1,246.3C-191,245.7-189.3,246-190.1,246.3L-190.1,246.3z M-191,217.5
			c-0.1,0.6-1,0.1-1.2,0C-192,216.6-191.4,217.2-191,217.5z M-192.4,217.2c0.2,0.6-0.5,0.5-0.5,1c-0.3-0.1-0.1-0.7-0.5-0.7
			C-193.3,217.1-192.8,217.3-192.4,217.2z M-193.2,220.8c-0.2,0-0.5,0-0.7,0C-194.2,220.1-192.8,220.1-193.2,220.8z M-193.9,215.1
			c-0.2,0.4-0.6,0.5-1.2,0.5c0-0.3-0.1-0.4-0.2-0.5C-195.1,214.2-194.2,214.7-193.9,215.1z M-196.7,211c-0.2,0-0.5,0-0.7,0
			C-197.8,210.3-196.4,210.3-196.7,211z M-197.2,215.8c-0.1,0.6-0.6,0.5-1,0.2C-198.1,215.7-197.6,215.8-197.2,215.8z M-194.6,224.4
			c-1.5,0.2-4,1.6-3.8-1.7C-197,223.6-194.6,222.1-194.6,224.4z M-198.4,237.3C-199.1,236.7-197.4,238.2-198.4,237.3L-198.4,237.3z
			 M-199.1,237.7c-0.8,0.8-1.7-0.4-2.4-0.5c-0.2-0.8,0.3-1,0.5-1.4c0.7,0.4,1.4,0.7,1.7-0.2C-198.6,237.1-199.8,236.9-199.1,237.7z
			 M-200.3,213.9L-200.3,213.9C-201,213.6-200.6,213.8-200.3,213.9z M-199.1,209.6c-0.2,0-0.3,0-0.5,0c0-0.2,0-0.3,0-0.5
			c0.2,0,0.3,0,0.5,0C-199.1,209.3-199.1,209.4-199.1,209.6z M-208.2,203.9c0,0.2,0,0.3,0,0.5c-0.3,0-0.4,0.1-0.5,0.2
			C-209,204.6-208.6,203.1-208.2,203.9z M-205.3,209.3c-0.2-1.8,0.5-2.3-1.4-2.9c0.8-0.9,1.5,0,2.1,0.5c0.7-0.2-0.3-0.6,0.2-1
			c0.6,0.3,1.3,0.5,1.4,1.2c0.6-0.9,2.5,0.1,3.6,0.2c0,0.4-1.6,0.4-1.7,0c-0.8,0.1-0.4,1.4-0.2,1.9c-2.1,2.3-5.5,5-9.3,2.9
			C-208.6,211-207.7,209.9-205.3,209.3z M-205.6,217.9c-0.3,0-0.6,0-1,0c0-0.2,0-0.5,0-0.7C-205.9,217.2-205.5,217.3-205.6,217.9z
			 M-207.2,219.4c-0.5,0.4-0.4-0.1-1.2,0C-208.3,218.8-207.1,218.3-207.2,219.4z M-208.9,217c0.4,0.1,0.5,0.4,0.5,1
			C-209.2,218.2-208.9,217.4-208.9,217z M-211.1,221.3c0.4-0.8,0.3-2.1,1.4-2.1c0.7-0.1,0.7,0.6,1,1c0.4-0.4,1.5-0.1,1.7-0.7
			c0.6,0,0.3,0.9,1,1c0.7-0.3-0.1-1.1-0.5-1.2c0.6-0.5,1.8,0.4,2.6,0.5c-0.1,0.6-0.7,0.5-1,1c0.2,0.3,0.5,0.4,1,0.5
			c0,0.4-0.2,0.8-0.5,1c-1.2-1.6-1-0.2-1.4,1.4c-2.5,0.1-3.8,1.4-5.2,2.6C-211,224.7-209.8,222.1-211.1,221.3z M-212,205.3
			c-0.5,0.1-0.6-0.2-1-0.2C-213,204.6-211.6,204.6-212,205.3z M-213.4,212C-213.3,210.9-212,212.2-213.4,212L-213.4,212z
			 M-213,224.4C-212.8,226-214.5,224.3-213,224.4L-213,224.4z M-214.2,223.7C-214.7,222.9-213.4,224.2-214.2,223.7L-214.2,223.7z
			 M-235.9,199.8c0-0.3,0-0.6,0-1c0.6-0.1,0.6,0.5,0.7,1C-235.4,199.8-235.6,199.8-235.9,199.8z M-234.4,209.6
			c-0.1-0.1-0.3-0.1-0.4-0.2c-0.2-0.3,0-0.9,0.6-0.7C-233.7,209.1-234.3,209.1-234.4,209.6z M-233.5,190c-0.2,0-0.3,0-0.5,0
			c0-0.2,0-0.3,0-0.5c0.2,0,0.3,0,0.5,0C-233.5,189.7-233.5,189.9-233.5,190z M-230.4,202.2c-0.2-0.8,0.5-0.4,0.7-0.2
			C-229.7,202.2-230.1,202.2-230.4,202.2z M-218.5,200.3L-218.5,200.3c0.2,0.3,0.3,0.4,0.3,0.5
			C-218.2,200.7-218.3,200.5-218.5,200.3z M-216.8,215.8c0-0.4-0.3-0.5-0.2-1C-216.1,214.6-215.7,216-216.8,215.8z M-216.5,195.3
			c0.2,0,0.3,0,0.5,0c0,0.2,0,0.3,0,0.5c-0.2,0-0.3,0-0.5,0C-216.5,195.6-216.5,195.4-216.5,195.3z M-217.5,194.3
			c-0.9,0.1-1.1-0.5-1.7-0.7C-219,192.7-217.3,193.4-217.5,194.3z M-219.2,195.3C-219,194.2-217.7,195.5-219.2,195.3L-219.2,195.3z
			 M-220.6,196.9C-221.3,196.9-220.4,195.9-220.6,196.9L-220.6,196.9z M-216.8,198.4c-1.4,1-2.4,0.1-3.3,1.9c-0.8,0.2-0.5-0.6-1-0.7
			C-221,199.4-219.2,196.8-216.8,198.4z M-219.6,203.4c-1.2,0.1-1.6-0.5-2.1-1C-221.5,202.2-219.7,202.5-219.6,203.4z M-222.3,201.2
			C-223,201.2-222,200.2-222.3,201.2L-222.3,201.2z M-221.3,212.9c-0.7-0.4-1.1-1.1-1.9-1.4c0-0.6,0.4-0.7,0.5-1.2
			C-221,210.4-221.4,212.2-221.3,212.9z M-223.7,197.7c0.3,0.1,0.5,0.1,0.6,0.1C-223.3,197.7-223.6,197.7-223.7,197.7L-223.7,197.7z
			 M-224.4,188.1C-223.5,188.6-225.7,187.5-224.4,188.1L-224.4,188.1z M-225.9,201.7C-226.4,200.9-225.1,202.3-225.9,201.7
			L-225.9,201.7z M-226.3,196C-227,195.9-226.1,195-226.3,196L-226.3,196z M-228.5,195C-229.1,194.2-227.7,195.6-228.5,195
			L-228.5,195z M-230.4,187.6C-231.1,187.6-230.2,186.6-230.4,187.6L-230.4,187.6z M-232.3,193.8c1.3-0.2,2,0.2,2.9,0.5
			c-0.3,1-1.9-0.6-2.9,0.2C-232.3,194.3-232.3,194.1-232.3,193.8z M-231.8,202.9c-0.4-0.3-1.1-0.2-1-1
			C-232.2,202-231.7,202.1-231.8,202.9z M-233.5,185.5c0.1,0.7-0.6,0.9-1,0.5C-234.4,185.5-234,185.4-233.5,185.5z M-233.7,198.4
			c-0.1,0.3-0.3,0.5-0.7,0.5C-234.6,198.3-234.1,198.4-233.7,198.4z M-234.7,190c-0.3,1.4-1.2,1-2.1,1.9c-0.1-1.1,0.6-1.3,0.7-2.1
			C-235.3,189.9-235.5,190.4-234.7,190z M-235.9,188.8c0,1.2-0.8,0.3-1.7,0.5C-237.7,188.4-236.4,189-235.9,188.8z M-237.5,189.8
			c0.3,0.1,0.4,0.4,0.7,0.5c0,0.3-0.4,0.2-0.7,0.2C-237.5,190.3-237.5,190-237.5,189.8z M-238,204.1c-0.3-0.3-0.5-0.8-0.5-1.4
			C-237.4,202.6-237.4,203.6-238,204.1z M-238,204.3c0,0.6-1,0.3-0.7,1.2c-0.6-0.2-0.9-0.7-1.4-1C-239.8,203.7-239.1,205-238,204.3z
			 M-240.4,184.1c-0.2-0.5-1-0.4-1-1.2C-240.5,182.7-240.3,183.2-240.4,184.1z M-241.1,185.5c0.2,0.3,0.3,0.6,0.2,1.2
			c-0.3,0-0.2-0.4-0.2-0.7c-0.4,0.1-0.4-0.2-0.7-0.2C-241.8,185.4-241.4,185.5-241.1,185.5z M-243.3,179.3c0.1-0.3,0.6-0.2,1-0.2
			C-242.4,179.6-243,179.6-243.3,179.3z M-240.9,190c0,0.5-1,0.1-1.4,0.2C-242.3,189.6-241.2,189.7-240.9,190z"/>
		<path id="XMLID_1674_" class="st0" d="M-246,376.1v1.4c0.2-0.1,0.5-0.2,0.8-0.2C-245.1,376.6-245.7,376.5-246,376.1z"/>
		<path id="XMLID_1677_" class="st0" d="M-301.9,178.4c-0.1,0.4-0.7,0.6-1.1,0.3c-9.5,2.9-18.4,7-26.6,12.2c0.2,0.1,0.4,0.3,0.7,0.4
			c-0.2,0.4-0.7,0.2-1-0.1c0,0,0.1,0,0.1-0.1c-8.6,5.4-16.3,12-23,19.6c0.4-0.4,0.8-0.8,1.1-1.2c0.3,0,0.5-0.1,0.8-0.3
			c1.1,2.2-0.6,2-1.9,1.6c-0.7,0.7-1.3,1.5-1.9,2.3l0,0c0.7,0,0.8,0.6,0.9,1.2c-0.9,0.5-1-0.1-1-1.1c-0.9,1-1.7,2.1-2.6,3.1
			c0.2-0.2,0.4-0.5,0.6-0.7c0.1,0.3,0,0.8,0.3,0.9c-0.3,0.5-0.7,0.3-0.9-0.1c-4,5.2-7.5,10.8-10.5,16.8c0.2,0.2,0.4,0.4,0.7,0.3
			c-0.1,0.4-0.4,0.6-0.5,1c-0.2-0.1-0.4-0.2-0.7-0.2c0-0.1,0.2-0.3,0.3-0.6c0.1-0.4,0.1-0.5,0.2-0.7c-3.3,6.5-5.9,13.4-7.8,20.6h5.5
			c0.3-0.3,0.8-0.3,1.1,0h0.8c0-0.1,0.1-0.2,0.1-0.4c-0.6-0.5-1.6-0.9-2.4-0.5l-0.2-1.2c1.1,0.2,1.4-0.3,2.4-0.2
			c0.2,0.2,0.5,1.3,0,1.4c0.2,0.4,0.6,0.7,1,0.8h18.6c4.8-13.5,13.1-25.2,23.8-34.3c-0.4-0.3-0.9-0.7-1.6-0.6
			c0.3-0.8,0.2-1.4-0.2-2.1c1,0,2.3,0.2,3.3-0.7c0.3,0.1-0.3,1,0.5,1.2c0.4-0.1-0.1-0.3,0-0.7c0.6-0.1,0.5,0.4,1.2,0.2
			c0,0.1,0,0.1,0,0.2c6.8-5.2,14.4-9.4,22.6-12.3v-26.7c-0.9,0.2-1.8,0.5-2.6,0.8C-302,178.5-302,178.4-301.9,178.4z M-328.7,191.9
			c0.3-0.4,1.6-0.8,1.4,0.2C-327.8,191.6-328.2,192.5-328.7,191.9z M-327.8,193.4c-0.3-0.1-0.5-0.3-0.5-0.7
			C-327.7,192.5-327.8,193-327.8,193.4z M-335.9,209.8C-336.8,209.2-335.1,209.5-335.9,209.8L-335.9,209.8z M-343.5,216.3
			C-344.2,216.2-343.3,215.3-343.5,216.3L-343.5,216.3z M-344.5,207.7c0.5-0.1,0.3,1.1-0.2,0.7C-344.8,208-344.5,208-344.5,207.7z
			 M-347.3,224.6c-0.8-0.2-1-0.9-1.2-1.7C-347.6,223-347.5,223.9-347.3,224.6z M-354.5,216.5c0.3,0.1,0.2,0.6,0.2,1
			c0.7-0.3,0.8-1.1,1.4-1.4c0.4,0.8,1.4,0.9,1.4,2.1C-353.4,220.5-357.8,218.7-354.5,216.5z M-352.8,231.3c-0.6,0.1-0.5-0.4-1.2-0.2
			c0.2-0.3,0.3-0.6,0.2-1.2C-352.7,229.8-352.4,230.5-352.8,231.3z M-365.2,240.4C-363.8,240.6-366.2,240.2-365.2,240.4
			L-365.2,240.4z M-365.7,245.6c0,0.2,0,0.3,0,0.5c-0.4,0.1-0.4-0.2-0.7-0.2C-366.3,245.4-366,245.4-365.7,245.6z M-365.9,248.5
			c-0.6,0.1-1-0.1-1-0.7C-366.4,247.9-365.9,247.9-365.9,248.5z M-366.9,249.7c-0.2,0-0.5,0-0.7,0C-368,249-366.5,249-366.9,249.7z
			 M-370.7,245.1C-371.3,244.3-369.9,245.7-370.7,245.1L-370.7,245.1z M-371.7,248.2c0.2-0.7,1.8-2.1,1.9-0.7
			C-370.9,247.2-370.4,248.6-371.7,248.2z M-367.4,252.3c-0.8-0.2,0.2-1.5-1.4-1.2c0.1-0.2,0.2-0.4,0.2-0.7c1.6,0.6,1.5-0.6,2.9-0.7
			c-0.3,1.4,0.8,1.4,1,2.4C-365.6,251.9-366.7,251.2-367.4,252.3z M-363.5,243.5C-364.3,243.4-363.3,242.5-363.5,243.5L-363.5,243.5
			z M-363.1,236.8C-362,236-362.1,238-363.1,236.8L-363.1,236.8z M-356.6,252.5c-0.3,0-0.6,0-1,0c0-0.2,0-0.3,0-0.5c0.3,0,0.6,0,1,0
			C-356.6,252.2-356.6,252.4-356.6,252.5z M-355.7,243.5C-356.3,242.7-354.9,244.1-355.7,243.5L-355.7,243.5z M-354.2,253
			c-0.3-0.2-0.6-0.3-1.2-0.2c0.1-0.8,0.7-1,1.4-1.2C-354.4,252.1-354.5,252.3-354.2,253z M-353.5,253.3c0.1-0.6,0.6-0.5,1-0.2
			C-352.6,253.3-353.2,253.2-353.5,253.3z M-352.8,248.5c-0.2,0-0.5,0-0.7,0C-353.9,247.8-352.5,247.8-352.8,248.5z M-353.3,246.3
			c-0.1-0.5,0.3-0.5,0.7-0.5C-352.7,246.2-352.9,246.4-353.3,246.3z M-357.1,239.2c0.4-1.2-0.1-2,0.7-2.9c0.4,0.1,1.4,1,1.2-0.2
			C-348.3,236.7-351.2,242.4-357.1,239.2z M-349.7,219.8c-0.3,0-0.6,0-1,0c0.2-0.5-0.2-1.5-0.5-0.7
			C-351.7,218.1-349.3,218.8-349.7,219.8z M-349.2,219.8c-0.9-0.2,0.6-1.2-0.2-1.4c0.4-0.3,0.9,0.6,1.4,0.5c0,0.2,0,0.5,0,0.7
			C-348.7,219.3-349,218.9-349.2,219.8z M-348.5,225.6c0,0.2,0,0.3,0,0.5c-0.2,0-0.3,0-0.5,0c0-0.2,0-0.3,0-0.5
			C-348.8,225.6-348.7,225.6-348.5,225.6z M-348.5,234.9c-0.2,0-0.3,0-0.5,0c0-0.2,0-0.3,0-0.5c0.2,0,0.3,0,0.5,0
			C-348.5,234.6-348.5,234.7-348.5,234.9z M-348.3,229.4C-349,229.3-348,228.4-348.3,229.4L-348.3,229.4z M-346.8,248.2
			c-0.5-0.1-1-0.4-1.5-0.4c0.3-0.5,1.3-1,2.1-0.9C-346.4,247.3-346.6,247.8-346.8,248.2z M-346.6,213.9c0.5,0,0.8,0.2,0.7,0.7
			C-346.1,214.3-346.8,214.5-346.6,213.9z M-346.4,212.2c0.2-0.3,0.2-0.9,0.5-1.2c0.3,0.2,0.8,0.4,0.7,1
			C-345.5,212.2-345.8,212.3-346.4,212.2z M-344.9,226.1c-0.6-0.2,0.2-1.1,0.5-0.5C-344.5,225.8-344.9,225.7-344.9,226.1z
			 M-344.2,214.4c-0.2,0-0.3,0-0.5,0c0-0.2,0-0.3,0-0.5c0.2,0,0.3,0,0.5,0C-344.2,214-344.2,214.2-344.2,214.4z M-344.9,212.7
			c0-0.2,0-0.3,0-0.5c0.3,0,0.7,0,0.7-0.2C-343.7,211.9-344.7,213.5-344.9,212.7z M-343.5,225.1c-0.2,0-0.2-0.2-0.5-0.2
			c0-0.2,0-0.3,0-0.5c0.3,0.3,0.6,0.3,0.7-0.2C-342.4,224.5-343.8,224.5-343.5,225.1z M-343,203.1c-0.6,0.3,0.4-1.2,0.2-1.9
			c0.2,0.1,0.4,0.2,0.7,0.2C-342.2,202.3-343,202.2-343,203.1z M-339.9,218.2c-0.3-0.2-0.9-0.2-0.7-1
			C-340,217.2-339.9,217.6-339.9,218.2z M-340.4,202.9c-1-0.6,1.4-1.7,1.2-0.2C-339.6,202.8-340.4,202.4-340.4,202.9z M-338,219.1
			C-338.7,219.1-337.8,218.1-338,219.1L-338,219.1z M-337.8,224.6c-0.2-0.8,0.8-0.4,1-0.2C-337,225.1-337.2,224.7-337.8,224.6z
			 M-336.3,223.4c-0.4,0.1-0.4-0.2-0.7-0.2C-337.2,222.7-336,222.8-336.3,223.4z M-335.4,219.4c-0.6-0.1-0.9,0.1-0.7,0.7
			c-0.8-1.2-1.7-1.6-2.4-3.1c0.2-0.8,1.6,1,1.4-0.2c0.7,0.5,0,1.7,1.7,1.7C-335.4,218.7-335.4,219.1-335.4,219.4z M-335.9,217.5
			c0-0.3-0.1-0.4-0.2-0.5C-336.1,216.6-333.9,217.8-335.9,217.5z M-334,218.2C-333.9,217.1-332.6,218.4-334,218.2L-334,218.2z
			 M-331.6,195.7c-0.5,0.1-0.6-0.2-1-0.2C-332.3,195-331.5,194.9-331.6,195.7z M-332,211.7C-333,211.1-331.3,211.4-332,211.7
			L-332,211.7z M-331.8,199.3c0.2-0.4,0.2-0.9,1-0.7C-330.6,199.4-331.2,199.4-331.8,199.3z M-330.4,199.1c0.2-0.4,0.4,0,0.7,0
			C-329.8,199.5-330.1,199.1-330.4,199.1z M-328.2,199.8c-0.3-1.6-1.9-1.8-2.6-2.9c0.9-0.3,1.5-0.9,1.2-2.4c0.6-0.1,0.5,0.4,1.2,0.2
			c0.3,1.4,0.3,3.3,2.1,3.6C-326.5,199.3-327.8,199.2-328.2,199.8z M-325.1,203.1c-0.2,0-0.3,0-0.5,0c-0.1-0.5,0-0.7,0.5-0.7
			C-325.1,202.7-325.1,202.9-325.1,203.1z M-325.6,197.4c0.1-0.6,0.4-0.9,0.2-1.7c0.3,0,0.4-0.1,0.5-0.2
			C-324,195.7-324.5,197.7-325.6,197.4z M-323.5,191c-1,0.7-2.4,1.6-3.6,0.7c0.2-0.7,0.2-0.5,0-1.2c-0.8-0.1-0.5,0.7-1.4,0.5
			c0-0.2,0.3-0.2,0.5-0.2c0-0.3-0.1-0.5-0.2-0.8c1.5-0.9,3-1.8,4.5-2.6C-322.7,188.2-323.7,189.7-323.5,191z M-302.2,194.6
			C-302.9,194.5-302,193.6-302.2,194.6L-302.2,194.6z M-303.6,197.4c0,0.7-0.4,0.8-0.7,0.5C-304.3,197.6-304.1,197.4-303.6,197.4z
			 M-314.4,187.6c-0.3-0.1-0.2-0.5-0.5-0.5C-314.7,186.2-313.7,187.1-314.4,187.6z M-320.8,190.7
			C-321.5,190-320.1,191.4-320.8,190.7L-320.8,190.7z M-319.6,191.5c-0.2,0-0.5,0-0.7,0C-320.7,190.8-319.3,190.8-319.6,191.5z
			 M-318.9,192.2c-0.2,0-0.5,0-0.7,0C-320,191.5-318.6,191.5-318.9,192.2z M-318.9,197.2C-319.9,196.6-318.1,196.8-318.9,197.2
			L-318.9,197.2z M-318.7,194.6C-319.4,194.5-318.5,193.6-318.7,194.6L-318.7,194.6z M-318.2,191.5c-0.2,0-0.5,0-0.7,0
			C-319.3,190.8-317.9,190.8-318.2,191.5z M-317.5,202.4c0-0.3,0-0.6,0-1c0.3,0,0.7,0,0.7-0.2c0.4,0.2,0.5,0.6,0.5,1.2
			C-316.7,202.4-317.1,202.4-317.5,202.4z M-314.9,204.1c-0.5-0.5-0.1-1.3,0.2-1.7C-313.4,202.6-313.5,204.1-314.9,204.1z
			 M-311.3,206.5c-0.2,0-0.3,0-0.5,0c0-0.2,0-0.3,0-0.5c0.2,0,0.3,0,0.5,0C-311.3,206.2-311.3,206.3-311.3,206.5z M-309.1,186.9
			C-309.9,186.6-308.2,186.3-309.1,186.9L-309.1,186.9z M-311.5,182.4c1.6-0.7,3,1.4,5,1.7c0.2,0.8-0.7,1.4,0.2,1.7
			C-309,187.5-311.6,184.5-311.5,182.4z M-302.2,204.6c-1.1,0-1.4-0.9-2.1-1.2c0.3-1.1,1.6,0.5,2.4,0.5
			C-302.1,204.1-302.2,204.2-302.2,204.6z M-301.3,193.8C-302.2,193.2-300.5,193.5-301.3,193.8L-301.3,193.8z"/>
		<path id="XMLID_1746_" class="st0" d="M-225,376.1c-2,1-4,1.9-6,2.8C-229,378-227,377.1-225,376.1z"/>
		<path id="XMLID_1747_" class="st0" d="M-349.2,307.2c-0.1,0.3,0,0.4,0.2,0.5C-349.1,307.6-349.2,307.4-349.2,307.2z"/>
		<path id="XMLID_1750_" class="st0" d="M-303.5,355.7c1.3,0.5,2.7,1.1,4,1.5c-3-1-5.9-2.3-8.7-3.6c-0.2,0-0.5,0-1,0.1
			c-0.1-0.2-0.2-0.5-0.3-0.8c0.3,0.2,0.6,0.3,0.9,0.5c-10.6-5.2-19.9-12.7-27.2-21.9l0.1,0.1c0,0.4-0.2,0.7-0.7,0.5
			c0-0.5,0.2-0.7,0.6-0.7c-0.1-0.1-0.2-0.2-0.3-0.4v0.1c0-0.1-0.1-0.2-0.2-0.3c-2.2-2.8-4.3-5.8-6.1-9c0.1,0.1,0.2,0.3,0.3,0.4
			c-0.4,0.2-1,0.2-1.4,0.3c-0.7-1.6-0.5-2.4,0-2.7c-2.1-3.7-3.8-7.7-5.3-11.7c-0.5-0.4-1-0.9-1.8-0.4c0.2-0.5,0.7-0.7,1.4-0.7l0,0
			v-0.1h-3c0,0.1,0,0.2,0,0.3c-0.3,0-0.3-0.2-0.2-0.3h-14.4c-0.2,0.1-0.4,0.2-0.5,0.3c-0.2-0.1-0.2-0.2-0.2-0.3h-8.5
			c5.5,21.5,17.5,40.4,33.9,54.5c0.2,0,0.5,0,0.5,0.2c0.2-0.6,0.9,0.3,1,0.7c-0.8,0.2-0.3-0.8-1-0.7c0,0.1,0,0.1-0.1,0.2
			c3.4,2.9,7,5.6,10.8,8.1c-0.1,0-0.1-0.1-0.2-0.1c0.1-0.2,0.3-0.5,0.4-0.8c0.5,0.1,0.2,0.8,0.1,1.1c1.1,0.7,2.2,1.4,3.3,2
			c-0.3-1.1-0.7-2.7-0.2-3.8c2.1,0.2,1.8,2.8,3.3,3.6c-1.2,0.9-1.7-0.1-3.1,0.2l0,0c7.9,4.7,16.4,8.4,25.4,11
			c0.1-0.1,0.1-0.1,0.1-0.3c0.2,0,0.3,0.2,0.3,0.4c0.7,0.2,1.3,0.4,2,0.6v-3.1c-0.2-0.2-0.4-0.4-0.4-0.8c0.2,0,0.3-0.1,0.4-0.1
			v-20.7c-0.1,0.2-0.3,0.4-0.6,0.6c-0.1-1.4-1.6-0.5-1.4-1.9c-0.6-0.1-0.5,0.4-1.2,0.2c0,0.4-0.1,0.9,0.2,1
			c-0.6,0.1-0.9,0.5-2.1,0.5C-303.7,359-304.5,356.9-303.5,355.7z M-340.6,327C-341.4,327-340.4,326-340.6,327L-340.6,327z
			 M-339.9,328.7c-1.6,0.2-2.9-0.5-2.1-1.9C-341.6,327.6-339.9,327.3-339.9,328.7z M-341.8,324.9c0,0.6-0.3,0.9-1,1
			C-342.9,325.1-342.6,324.7-341.8,324.9z M-342.3,333c-0.3-0.1-0.5-0.3-0.5-0.7C-342.3,332.1-342.3,332.6-342.3,333z M-348.2,309.9
			v0.1h-0.1C-348.3,310-348.2,310-348.2,309.9z M-354.5,314.6C-355.2,314.5-354.3,313.6-354.5,314.6L-354.5,314.6z M-353.3,317.2
			c0,0.8-0.5,1.1-1.4,1C-354.5,317-354.1,317.5-353.3,317.2z M-354.7,317.5c-0.5,0-0.8-0.2-0.7-0.7
			C-354.9,316.7-354.7,316.9-354.7,317.5z M-357.3,317c-0.1-0.4-0.3,0.1-0.7,0c-0.2-0.3-0.3-0.6-0.2-1.2c0.4-0.4,0.7,0.3,1-0.5
			c-0.4,1.2,1.4,0.5,1.7,1.9c-1.1-0.5-1.1,1.4-2.9,0.7C-358.5,316.3-357.3,318.6-357.3,317z M-360.2,316.5c0.2,0,0.3,0,0.5,0
			c0,0.2,0,0.3,0,0.5c-0.2,0-0.3,0-0.5,0C-360.2,316.8-360.2,316.7-360.2,316.5z M-361.4,322c0-0.2,0-0.5,0-0.7c0.2,0,0.5,0,0.7,0
			C-360.5,321.9-360.8,322.1-361.4,322z M-359.7,324.9c0,0.2,0,0.5,0,0.7c-0.9-0.2-0.8,0-1.4-0.2
			C-360.9,325-360.3,324.9-359.7,324.9z M-361.2,313.4C-362,313-360.2,312.8-361.2,313.4L-361.2,313.4z M-361.6,313.9
			c-0.5,0.1-0.5-0.3-0.5-0.7C-361.8,313.3-361.6,313.5-361.6,313.9z M-360.9,317c-0.1,0.6-0.6,0.8-1.2,1
			C-362.9,317.1-361.4,315.9-360.9,317z M-370.5,319.1l-1-1.9c0,0.5,0.9-0.4,1.2,0.2C-370.1,318.2-370.4,318.6-370.5,319.1z
			 M-369.8,317c-0.6,0-1.2,0-1.2-0.5l-0.5-1c0.5,0.1,1.3-0.6,1.9,0.2C-369.3,316.5-369.9,316.4-369.8,317z M-367.4,313.4
			C-368.4,312.8-367,313.6-367.4,313.4L-367.4,313.4z M-367.8,308.6c-0.1-0.4,0.2-0.4,0.2-0.7c0.3,0.1,0.2,0.5,0.5,0.5
			C-367.2,308.7-367.6,308.6-367.8,308.6z M-366.9,308.6C-366.7,307.5-365.4,308.8-366.9,308.6L-366.9,308.6z M-365.2,333.2
			c-0.2-0.1-0.5-0.7-0.7-0.9c-0.1-0.2-0.2-0.4-0.3-0.6c0.2-0.1,0.4-0.2,0.6-0.2C-365.8,332.4-364.7,332.7-365.2,333.2z
			 M-365.2,308.1C-366.2,307.6-364.4,307.8-365.2,308.1L-365.2,308.1z M-364.3,308.4c-0.2,0-0.3,0-0.5,0c0-0.2,0-0.3,0-0.5
			c0.2,0,0.3,0,0.5,0C-364.3,308.1-364.3,308.2-364.3,308.4z M-361.8,339.3c-0.1-0.1-0.1-0.2-0.2-0.3
			C-361.8,338.9-361.5,339-361.8,339.3z M-362.4,338.2C-361.1,336.3-359.7,337.7-362.4,338.2L-362.4,338.2z M-360.9,331.1
			C-361.7,330.7-360,330.5-360.9,331.1L-360.9,331.1z M-360,337.7c0.1-0.7,1.2-0.4,1.9-0.5C-358.4,337.9-359.3,338-360,337.7z
			 M-358,338c0,0,0.1,0.1,0.2,0.2c0.1,0.1,0.1,0.1,0.1,0.1C-357.8,338.3-357.9,338.1-358,338z M-353.3,329.1
			C-354.2,328.6-352.5,328.8-353.3,329.1L-353.3,329.1z M-355.7,329.1c0.3,0.3,0.8,0.5,1.4,0.5c-0.1,0.9-1.5,0.8-1.9,0.2
			c-0.8,1.3-2.2,1.1-3.8,1.2c-0.2-1.8-2-1.2-1.4-3.1c0.9,0.1,1.5,0.5,1.9-0.2c0-0.7-0.7-0.6-1-1c1.4-1.8,1.9,1.8,3.1,1
			c0.2,0.6,0.7,2.1-0.5,1.4c0.5,0.7,1.3,0.9,1.7,0c-0.3,0-0.4,0.1-0.5,0.2c-0.2-0.4,0.8-2.4,1.9-1.7c-0.6-1-0.1-1.7,0-2.9
			c-0.5-0.2-1.5,0.1-1.9-0.7c-0.4,0.2,0.3,1.4,0.2,2.1c-1.4-0.1-0.9-1.4-1.2-2.1c-0.7,0.4-3,0.5-3.1-0.5c0.8,0.1,0.8-0.4,1.7-0.2
			c0.1-2.5,2.7-0.8,5-0.7c0.3,0.9-0.9,0.4-0.7,1.2c0.3,0.7,0.9-0.3,1.7,0C-352.7,326.1-353.4,328-355.7,329.1z M-351.9,329.4
			C-352.8,329.2-350.4,329.6-351.9,329.4L-351.9,329.4z M-350.9,329.9c0,0.2,0,0.3,0,0.5c-0.2,0-0.2,0.1-0.2,0.2
			C-351.6,330.7-351.5,329.5-350.9,329.9z M-350.7,340.8c-0.2,0-0.3,0-0.5,0c0-0.2,0-0.3,0-0.5c0.2,0,0.3,0,0.5,0
			C-350.7,340.5-350.7,340.7-350.7,340.8z M-349.9,354C-350.7,353.9-349.7,353-349.9,354L-349.9,354z M-350.2,312.9
			c0.6-0.1,1,0.1,1,0.7C-349.7,313.5-350.3,313.5-350.2,312.9z M-349,311.5c-1-0.2-0.7,0.7-1.7,0.5c0.4,0.5,0,0.6,0,1.2
			c-0.2-0.1-0.4-0.2-0.7-0.2c0-0.3,0.4-0.2,0.7-0.2c-0.2-0.3-0.3-0.6-0.2-1.2c-0.9,0-0.6,0.3-0.5,1c-1.3-1.5-1.1-2.3-1.9-4.1
			c0.6-0.3,1.6-0.3,2.4-0.5c0.7,1,0.6,1.6,0.2,2.9C-350.6,311-348.7,309.8-349,311.5z M-348.8,325.8
			C-349.4,325.1-348,326.5-348.8,325.8L-348.8,325.8z M-348,316.3c-0.2,0-0.2-0.2-0.5-0.2C-348.4,315.5-347.4,315.9-348,316.3z
			 M-347.3,334.4c-0.2,0-0.3,0-0.5,0c-0.1-0.5,0-0.7,0.5-0.7C-347.3,333.9-347.3,334.2-347.3,334.4z M-346.8,317.2
			c0.3,0.1,0.5,0.3,0.5,0.7C-346.7,317.8-346.9,317.6-346.8,317.2z M-346.1,356.1C-346.8,356.1-345.9,355.1-346.1,356.1
			L-346.1,356.1z M-344.7,359.2C-344.8,359.2-344.8,359.2-344.7,359.2c-0.3-0.2-0.5-0.4-0.7-0.6c0.2-0.4,0.4-0.6,1-0.6
			C-344.7,358.3-344.8,358.7-344.7,359.2z M-340.2,362.1c-0.7,0.1-0.8-0.5-0.7-1.2c-0.9,0.6-1.2,0.2-1.8,0.3c-0.6-0.5-1.1-1-1.7-1.5
			c0.1-0.3,0.2-0.5,0.4-0.7c2,0.2,1.1,1.5,2.4,1.7c0.3-0.4,0.5-1,1-1.2c-0.3-1.5-0.8-0.3-1.9-0.7c-0.5-1.5-2.6-0.8-2.4-3.3
			c0.8,0.1,1.2,0.5,1.2,1.4c0.9-0.1,2.2-2.6,0.7-3.3c0.2-0.7,0.8,0.1,1.2,0c0.1,0.8-0.4,0.8-0.2,1.7c0.5,0.1,0.7,0,0.7-0.5
			c0.6-0.3-0.3,1.2,0.2,1.4c-0.1,0.7-0.4-0.4-0.7-0.2c-0.1,0.8,0.3,1.1,1,1.2c-1.6,0.6,0.5,1.7,1.4,1.9
			C-339.4,360.9-340.6,360.8-340.2,362.1z M-340.4,339.4c0-0.2,0-0.5,0-0.7c0.6-0.1,1,0.1,1,0.7
			C-339.8,339.4-340.1,339.4-340.4,339.4z M-339.4,335.4c0.2-1.3-0.9-1.2-0.7-2.4C-339.2,333.2-337.5,335-339.4,335.4z
			 M-337.8,355.9C-338.4,355.1-337,356.5-337.8,355.9L-337.8,355.9z M-337.8,333c-0.6-0.7,0.4-1.2,0-1.4c0.5-0.6,1.1,0.7,1.2,1.2
			C-336.9,332.9-337.2,333-337.8,333z M-338,328.7c0.5,0.7,1,1.4,1.5,2C-337,330-337.9,329.7-338,328.7z M-311.5,353.5
			C-312.1,352.7-310.7,354.1-311.5,353.5L-311.5,353.5z M-312.5,356.6C-313.2,356.5-312.3,355.6-312.5,356.6L-312.5,356.6z
			 M-312.2,371.6c0,0.2,0,0.5,0,0.7c-0.2,0-0.3,0-0.5,0C-312.8,371.9-312.7,371.6-312.2,371.6z M-313.4,357.8
			C-314,357-312.6,358.4-313.4,357.8L-313.4,357.8z M-313.4,368.3C-314,367.5-312.6,368.9-313.4,368.3L-313.4,368.3z M-314.9,351.6
			C-314,352.3-315.6,352.4-314.9,351.6L-314.9,351.6z M-316.3,356.6c0.2,0.8-0.3,0.8-1,0.7C-317.3,356.7-316.9,356.5-316.3,356.6z
			 M-318.4,355.4c-0.5,0.1-0.5-0.3-0.5-0.7C-318.6,354.8-318.4,355-318.4,355.4z M-320.1,360.2c-0.5,0-0.8-0.2-0.7-0.7
			C-320.3,359.4-320.1,359.6-320.1,360.2z M-323.5,350.6C-322,350.8-324.4,350.5-323.5,350.6L-323.5,350.6z M-323.2,352.3
			c-0.5,0.1-0.5-0.3-0.5-0.7C-323.4,351.7-323.2,351.9-323.2,352.3z M-324.2,347c0.2,0,0.3,0,0.5,0c0,0.2,0,0.3,0,0.5
			c-0.2,0-0.3,0-0.5,0C-324.2,347.4-324.2,347.2-324.2,347z M-324.9,350.9c0.2,0,0.3,0,0.5,0c0,0.2,0,0.3,0,0.5c-0.2,0-0.3,0-0.5,0
			C-324.9,351.2-324.9,351-324.9,350.9z M-327.3,344.9C-328.1,344.5-326.5,344.2-327.3,344.9L-327.3,344.9z M-328,343.7
			c0.2,0.8-0.8,0.3-0.7,1C-329.7,344.3-328.7,343.1-328,343.7z M-328.9,347.8C-329.7,347.7-328.7,346.8-328.9,347.8L-328.9,347.8z
			 M-329.7,351.3C-330.4,351.3-329.4,350.3-329.7,351.3L-329.7,351.3z M-335.4,337.5c0.6,0.1,1.1,0.3,1.2,1
			C-335,338.6-335.6,338.4-335.4,337.5z M-334.4,351.1C-335.1,351.1-334.2,350.1-334.4,351.1L-334.4,351.1z M-334.9,347.3
			c0.4,0,0.5,0.3,1,0.2C-334,348.2-335.1,348.1-334.9,347.3z M-331.8,343.7c0.3,0,0.2-0.5,0.2-0.7C-330,346.4-335.9,343-331.8,343.7
			z M-331.3,364.2c-0.3-0.4,0,0.1,0.2,0.3C-331.2,364.5-331.2,364.4-331.3,364.2z M-331.3,352.3c0-0.2,0-0.3,0-0.5
			c0.3,0,0.7,0,0.7-0.2c0.7,0.2-0.6,0.4-0.2,1C-331,352.5-331.1,352.3-331.3,352.3z M-330.9,363.5c0.1-0.3,0.3-0.5,0.7-0.5
			C-330.1,363.7-330.5,363.9-330.9,363.5z M-329.9,367.1c-0.2-0.8,0.4-0.7,0.5-1.2C-329,366-329.3,367.2-329.9,367.1z M-330.4,352.5
			c0.1-0.8,1.8-1.2,1.2-1.9C-326.4,350-328,354.7-330.4,352.5z M-327.8,356.6C-328.5,356.5-327.5,355.6-327.8,356.6L-327.8,356.6z
			 M-327,367.8c-0.2,0-0.5,0-0.7,0C-328.1,367.1-326.7,367.1-327,367.8z M-327,354.4c-0.2-0.8,0.5-0.4,0.7-0.2
			C-326.4,354.5-326.8,354.4-327,354.4z M-325.4,344.7c-0.2,0-0.3,0-0.5,0c0-0.2,0-0.3,0-0.5c0.2,0,0.3,0,0.5,0
			C-325.4,344.3-325.4,344.5-325.4,344.7z M-323,355.9c-1-0.2-1.7-0.7-1.9-1.7c0.9,1.1,1.7-0.4,2.6,0.2
			C-322.1,355.3-323,355.1-323,355.9z M-322.5,358.3c0.5,0,0.8,0.2,0.7,0.7C-322.3,359-322.5,358.8-322.5,358.3z M-321.5,361.4
			c0.5,0.4,1.8,0.1,2.4,0.5c0.3-0.2-0.2-0.7,0.5-1c1.3,0.3,1.1,0.4,2.6,0.5c-0.6,0.4-1.3,0.9-2.4,1.4c0.8,0.2,1.7,0,2.6,0.5
			c-1.3,3.7-4.6-0.1-6.2-1C-322.2,361.7-321.6,361.8-321.5,361.4z M-315.6,364.5c0,0.2,0,0.3,0,0.5c-0.2,0-0.3,0-0.5,0
			c0-0.2,0-0.3,0-0.5C-315.9,364.5-315.7,364.5-315.6,364.5z M-319.9,366.9C-320.8,366.3-319.1,366.5-319.9,366.9L-319.9,366.9z
			 M-321.5,364.5c0.2,0,0.3,0,0.5,0c0,0.2,0,0.3,0,0.5c-0.2,0-0.3,0-0.5,0C-321.5,364.8-321.5,364.6-321.5,364.5z M-321.1,369
			C-322,368.4-320.3,368.7-321.1,369L-321.1,369z M-320.4,370.2c-0.6-0.7,0.6-0.9,0-1.4c0.6-0.9,0.5,0.9,1.4,0.5
			C-318.7,370.3-319.5,370.3-320.4,370.2z M-318.7,366.1c0.9,0.6,1.9,2.2,0,2.4C-318.5,367.4-318.5,367.3-318.7,366.1z
			 M-314.9,376.4c-0.4,0.5-0.9,0.1-1.4,0c0.9-1.8-1.5-2-1.9-3.3c1.3,0.7,2.8,0.2,3.3-1.2c0.6,0.1,1.1,0.1,1.7,0.7
			c-0.5,1-0.1,1.5-0.5,2.4c0.3,0.4,0.7-0.6,1.4,0c0.1-0.5-0.2-1.1-0.2-1.9c0.4,0.1,0.5-0.2,0.5-0.5
			C-308.3,375.2-312.4,380.9-314.9,376.4z M-310.3,369.5C-310.9,368.7-309.5,370.1-310.3,369.5L-310.3,369.5z M-306,356.1
			c0.6,0.1,0,0.9-0.5,0.7C-306.6,356.3-306.1,356.5-306,356.1z M-307.9,380.7c0.1-0.3,0.4-0.4,0.5-0.7c0.6-0.1,0.3,0.7,0.7,0.7
			C-307,381.4-307.5,380.5-307.9,380.7z M-306.3,380.9c-0.2-0.3-0.3-0.6-0.2-1.2c0.2,0.2,0.9,1.4,1,0.2
			C-304.9,380.3-305.5,381.2-306.3,380.9z M-306,376.2c0-0.1,0.9,1,1,1.7C-306,377.8-305.9,376.9-306,376.2z M-304.6,367.6
			c-0.2,0-0.5,0-0.7,0c-0.3-0.3-0.3-0.8-0.2-1.4C-304.7,366.1-304.5,366.6-304.6,367.6z M-303.6,369.2c-0.4,0.1-0.4-0.2-0.7-0.2
			c0.1-0.5,0.4-0.5,0.7-0.2C-303.6,368.9-303.6,369.1-303.6,369.2z M-302.9,377.4c-0.2-0.8,0.5-0.4,0.7-0.2
			C-302.3,377.4-302.7,377.3-302.9,377.4z M-300.5,382.8C-301.5,382.2-299.8,382.5-300.5,382.8L-300.5,382.8z M-300.5,365.9
			C-299.7,366.6-301.3,366.7-300.5,365.9L-300.5,365.9z M-300.8,366.9c-0.4,0.9-1.1,1.4-1.4,2.4c-0.3-0.2-0.9-0.2-1.2-0.5
			c0.1-1.1,1.2-1.2,1.4-2.1C-301.7,366.8-301.3,366.9-300.8,366.9z M-302,365.4c-0.9-0.7-2.3-0.3-3.1-0.5
			C-304.3,363.7-301.4,363.8-302,365.4z"/>
		<path id="XMLID_1852_" class="st1" d="M-255.4,277.8c-0.2-0.2-0.4-0.4-0.5-0.7c-0.2,3.9-4.1,4.8-5.7,1.4c0.8-1,0.8-1.4,0.7-2.4
			c1.1,1.1,2.3,1.6,4.3,1c-0.8-0.7,0.4-0.8,0.2-1.7c0.2,0,0.3,0,0.4,0c0.3,0.6,0.6,1.3,0.8,2c-1.8-5.6-6.2-10.1-11.9-11.8
			c0.2,0.1,0.4,0.1,0.6,0.2c-0.1,0-0.3,0-0.4,0c-0.1-0.1-0.1-0.2-0.2-0.2c-1.4-0.4-2.9-0.7-4.5-0.7c0.4,0,0.7,0,1.1,0.1
			c-0.2,0.7-0.5,0.1-1.1-0.1c-0.2,0-0.4,0-0.6,0c-0.1,0-0.1,0-0.2,0l0,0c-7.5,0-14,4.7-16.6,11.3c1,0,2,0.1,3,0.7
			c0.2,1-0.5,1.1-0.5,1.9c-0.8,0-1.9-0.3-3.1-0.6c-0.4,1.5-0.6,3.1-0.6,4.7c0,9.9,8,17.9,17.9,17.9c4.3,0,8.3-1.5,11.4-4.1
			c0-0.2,0.1-0.3,0.3-0.2c-0.1,0.1-0.2,0.2-0.3,0.2c3.1-2.5,5.3-6,6.1-10c-0.4-0.2-0.2-1.2,0.2-1.1c-0.1,0.4-0.1,0.7-0.2,1.1
			c0.3-1.2,0.4-2.5,0.4-3.9c0-1.9-0.3-3.7-0.8-5.4C-255.2,277.6-255.3,277.7-255.4,277.8z M-257.8,275c0.2,0,0.3,0,0.5,0
			c0,0.2,0,0.3,0,0.5c-0.2,0-0.3,0-0.5,0C-257.8,275.3-257.8,275.1-257.8,275z M-287.7,274.3C-288.6,274.1-286.3,274.5-287.7,274.3
			L-287.7,274.3z M-286.2,273.5c-0.3-0.2-0.9-0.2-0.7-1c0.2,0,0.5,0,0.7,0C-286.2,272.9-286.2,273.2-286.2,273.5z M-287.4,290.7
			C-288,289.9-286.6,291.3-287.4,290.7L-287.4,290.7z M-287.2,290.2c-0.6-0.1-0.5-0.6-0.2-1C-286.7,289.5-287.2,289.7-287.2,290.2z
			 M-265.5,274c-0.4,0.1-0.4-0.2-0.7-0.2C-266.3,273.3-265.1,273.4-265.5,274z M-267.6,286c0,0.2,0,0.3,0,0.5
			c-0.2,0-0.2,0.1-0.2,0.2C-268.3,286.8-268.2,285.6-267.6,286z M-269.8,273.5c-0.1,0.3-0.6,0.2-1,0.2
			C-270.8,272.8-270.2,273.7-269.8,273.5z M-269.8,275.7c-0.4-0.1-0.5-0.4-0.5-1C-269.4,274.8-269.6,275.1-269.8,275.7z
			 M-270.2,282.4c-0.5-0.1-1-0.1-1-0.7C-270.8,281.2-270.3,281.7-270.2,282.4z M-271.4,275.5C-270.6,276.1-271.3,276.8-271.4,275.5
			L-271.4,275.5z M-276.7,268.5C-277.5,268.1-275.9,267.8-276.7,268.5L-276.7,268.5z M-277.9,268.3c0.2,0,0.3,0,0.5,0
			c0,0.2,0,0.3,0,0.5c-0.2,0-0.3,0-0.5,0C-277.9,268.6-277.9,268.5-277.9,268.3z M-283.4,275c0.2,0,0.3,0,0.5,0c0,0.2,0,0.3,0,0.5
			c-0.2,0-0.3,0-0.5,0C-283.4,275.3-283.4,275.1-283.4,275z M-283.8,272.8C-284.6,272.8-283.6,271.8-283.8,272.8L-283.8,272.8z
			 M-284.3,286.4c0.2,0,0.3,0,0.5,0C-283.6,287.6-285.1,286.9-284.3,286.4z M-285.3,272.6C-286.2,272.5-283.9,272.8-285.3,272.6
			L-285.3,272.6z M-285,279c-0.4-0.1-0.5-0.4-0.5-1c0.5-0.1,0.6,0.2,1,0.2C-284.6,278.6-285,278.7-285,279z M-284.6,291.9
			c0.6-1,0.9-1.1,0-1.9c0.6,0,1.1,0,1.4,0.2c-0.1,1.3,0.3,2.3,0.7,3.1C-283.5,293.3-282.9,291.4-284.6,291.9z M-280,285
			c-0.8,0.2-0.9-0.2-1.2-0.5C-281.2,283.8-279.8,284.1-280,285z M-279.5,285.5c0.1-0.4,0.4-0.5,1-0.5
			C-278.6,285.4-279,285.5-279.5,285.5z M-279.3,268.3c1.2,0.2,1.1,1.6,1.7,2.4c-1.2-0.3-0.5,1.4-1,1.9
			C-280.6,272.5-280.5,269.8-279.3,268.3z M-278.1,286.2C-278.8,286.1-277.9,285.2-278.1,286.2L-278.1,286.2z M-277.9,282.9
			C-278.7,282.7-276.1,283.2-277.9,282.9L-277.9,282.9z M-276.4,298.1c-0.9-0.3,0.3-1.5-1.4-1.2
			C-277.8,295.9-275.3,297.2-276.4,298.1z M-275.7,271.2c0.3-0.5,0.3-1.1,0.5-1.7c1.5,0.2,1.3-1.1,1.7-2.6c0.6-0.1,0.5,0.4,1.2,0.2
			c-0.8,1.5,1.7,1.2,1.9,2.4c0,1.2-1,1.5-1.2,2.6C-273.5,272.3-273.6,270.7-275.7,271.2z M-274.1,271.9
			C-274.8,271.8-273.8,270.9-274.1,271.9L-274.1,271.9z M-273.3,299.8c-0.2-0.8,0.8-0.4,1-0.2C-272.5,299.9-273,299.8-273.3,299.8z
			 M-273.6,292.9c1.7,0.7,2.4-0.9,3.6-1.4c0.7,0.3-0.3,0.9,0.2,1.2c0.2-0.1,0.4-0.3,0.5,0c0.8-0.1-0.7-1.1,0.5-1
			c0,0.8,0.4,1.2,0.2,2.1c0.9,0.1,1.7-0.7,1.9,0.5C-269.8,294.7-272.6,296-273.6,292.9z M-267.4,297.6c0-0.2,0-0.5,0-0.7
			c0.5-0.1,0.6,0.2,1,0.2C-266.5,297.6-266.8,297.7-267.4,297.6z M-266.2,278.8C-266.1,277.8-264.8,279-266.2,278.8L-266.2,278.8z
			 M-265.2,294.5c-0.1-1-0.7-1.3-0.7-2.4C-264.4,291.8-263.6,294.4-265.2,294.5z M-261.6,287.9c0.5-0.1,0.3,1.1-0.2,0.7
			C-262,288.2-261.7,288.2-261.6,287.9z M-261.4,296C-262.1,295.9-261.2,295-261.4,296L-261.4,296z M-257.1,291.9
			c-0.2,0-0.3,0-0.5,0c-0.1-0.6,0.4-0.5,0.2-1.2C-257.2,290.9-256.6,291.8-257.1,291.9z M-255.2,287.4
			C-256.1,286.8-254.4,287-255.2,287.4L-255.2,287.4z"/>
		<path id="XMLID_1888_" class="st0" d="M-289.6,278.2c0.2-0.7,0.4-1.3,0.6-1.9C-289.2,276.8-289.4,277.5-289.6,278.2z"/>
		<path id="XMLID_1891_" class="st0" d="M-199.8,354.2c0.4-0.9,1.5-0.3,2.4-0.2c-0.2-0.2-0.5-0.2-0.5-0.7c0.5-0.4,1.7,0.1,1.7,1
			c1.3-0.8,0.1-1.4-0.2-2.4c0.9-0.3,0.5,0.8,1.4,0.5c0.1,0.4-0.2,0.4-0.2,0.7c0.2,0,0.4,0.1,0.7,0.2c1.2-1.3,2.3-2.6,3.5-3.9
			c-0.8-0.6-1.9-1.5-3-1.1c-0.6-0.8,0-2.1,1-2.1c0.4,0.2,0.6,0.7,0.5,1.4c0.5,0.1,0.5-0.3,0.5-0.7c1,0.2,1.7,1,1.5,1.9
			c2.5-3.1,4.9-6.2,7.1-9.6c-0.1,0-0.2,0-0.3,0c-0.1-0.5,0.3-0.5,0.7-0.6c-0.1,0.1-0.2,0.2-0.2,0.4c0.3-0.5,0.6-0.9,0.9-1.4
			c-0.1-0.1-0.2-0.1-0.3-0.3c0.2-0.1,0.4-0.1,0.6-0.1c0.1-0.2,0.3-0.4,0.4-0.6l0,0c-0.5-0.2,0-0.4,0.2-0.3
			c3.9-6.3,7.1-13.1,9.6-20.2c-0.1,0.3-0.2,0.6-0.3,0.8c-0.2-0.1-0.4-0.2-0.7-0.3c0.5-0.4,0.7-0.8,1.1-0.9c1-2.8,1.8-5.6,2.6-8.4
			h-3.9c1,0.7,1.1,3.1-0.3,4.1c-0.6,0.5-2,0.3-2.9,0.7c0-1.7-1-2.4-2.1-2.9c0.7-1,1.5-1.5,2.9-1.2c0.3-0.4,0.7-0.6,1-0.8h-10.1
			c0,1.9-2.8,3.8-5.6,3.6c-0.4-0.8,0.2-0.6,0.2-1.4c0.3,0.2,0.6,0.3,1.2,0.2c-0.6-1-1.5-1.7-2.4-2.5h-0.9c0.1,0.3,0.3,0.6,0,0.8
			c-0.9-0.1-1.3-0.4-1.5-0.8h-2.7c-0.7,2.2-1.6,4.3-2.5,6.4c0.1-0.2,0.2-0.5,0.3-0.7c0.7,0.1,1.2,0.5,1.1,1.3
			c-0.7,0-1.1-0.3-1.5-0.6c-0.9,2.1-2,4.3-3.1,6.3l0,0l0,0l0,0c-3,5.4-6.6,10.5-10.7,15.1l0,0c0.2,0,0.4,0,0.7,0
			c0,0.7-0.9,0.7-1.1,0.5c-1.3,1.5-2.7,2.9-4.1,4.2c0.1-0.1,0.2-0.2,0.3-0.2c0,0.1,0,0.2,0,0.3c-0.1,0-0.2,0-0.3,0
			c-6.8,6.4-14.7,11.7-23.4,15.5l0,0c0.1,0.2,0.2,0.3-0.1,0c-0.3,0.1-0.5,0.2-0.8,0.3l0,0c0.2,0.1,0.4,0.1,0.5,0.1
			c-0.5,0.3-1,0.7-0.2,1.2c-0.1,0.3-0.6,0.2-1,0.2c0-0.7,0.4-1.1-0.3-1.2c-1.2,0.5-2.4,0.9-3.6,1.4v4c0.4,0.1,0.7,0.2,1,0.4
			c-0.5,0.2-0.2,1.2-1,1.2c0-0.3,0-0.5-0.1-0.6v0.9c0.1,0,0.2,0,0.3,0c0,0.2,0,0.3,0,0.5c-0.1,0-0.2,0-0.3,0v12.3
			c1.1,0.5,1.9,1.2,2.7,2c0.1,0.5-0.3,0.5-0.7,0.5c0,0.7,0.7,0.6,1,1c-0.9-0.1-2.4,0.4-2.9-0.9v1.9c0.1,0.1,0.1,0.2,0.1,0.4
			c0,0,0,0-0.1,0v3.3c5.1-1.3,10.1-3.1,14.9-5.1c-0.6-0.5-1.1-1.1-1.3-2s1.1-0.5,1,0c0.3-0.5,0.6-1,1-1.4c1.2-0.2,1.8,0.3,2.4,0.7
			c-0.1-0.9-0.2-1.8,1.4-1.9c0.2-0.8-0.4-0.7-0.7-1c0.7-1.2,2.4-0.1,3.1,0.2c0,1-0.7,1.2-1.4,1.4c0.3,0.4,0.5,0.8,0.6,1.1
			c7-3.5,13.5-7.8,19.5-12.7c-0.2-0.2,0.1-0.3,0.3-0.3c0.5-0.4,0.9-0.7,1.4-1.1c-0.4-0.2,0.2-0.7,0.2-0.1c2.2-1.9,4.4-3.9,6.5-6
			C-197.6,354.8-198.6,353.8-199.8,354.2z M-181.5,326.3c-0.7,0.1-1.1-0.2-1-1c0.3,0,0.6,0,1,0C-181.5,325.6-181.5,326-181.5,326.3z
			 M-181.2,318.6c-0.2,0-0.3,0-0.5,0c0-0.2,0-0.3,0-0.5c0.2,0,0.3,0,0.5,0C-181.2,318.3-181.2,318.5-181.2,318.6z M-179.8,320.8
			c-0.1-0.4,0.9,0,0.7,0.5C-179.6,321.4-179.4,320.8-179.8,320.8z M-178.4,326.8C-179.2,326.4-177.4,326.2-178.4,326.8L-178.4,326.8
			z M-177.2,326.3C-177.9,326.2-176.9,325.3-177.2,326.3L-177.2,326.3z M-174.5,322.2c0,0,0,0.1-0.1,0.1c0,0-0.1,0.1-0.2,0.2
			C-175.4,322.2-174.6,322-174.5,322.2z M-176.5,325.6c-0.7-0.7-1-1.7-2.4-1.7c0-1,1.5,0,0.7-1.2c1.5-0.2,0.9,1.6,2.4,1.4
			C-175.5,325.1-176.3,325-176.5,325.6z M-176,312.4c-0.3,0.6-0.8,0.4-1.4,0.2C-177.4,312-176.3,312.1-176,312.4z M-177.2,316
			C-177.9,315.7-176.9,314.8-177.2,316L-177.2,316z M-177.4,312.2C-178.1,312.2-177.2,311.2-177.4,312.2L-177.4,312.2z
			 M-178.1,312.7c0.5-0.9,0,0-0.1,0.1C-178.2,312.8-178.2,312.8-178.1,312.7z M-177.6,315.3c0,0.3-0.4,0.2-0.7,0.2
			C-178.5,314.7-177.9,315.2-177.6,315.3z M-178.8,315.5C-179.8,315-178.1,315.2-178.8,315.5L-178.8,315.5z M-179.3,308.6
			C-180,308.3-179.1,307.4-179.3,308.6L-179.3,308.6z M-179.6,316.5c0.8-0.1,1.3,0.1,2.6-0.2c0,0.4-0.1,0.9,0.2,1
			c-0.4,1-2.2,1.2-3.3,0.7C-180.2,317.2-179,316.8-179.6,316.5z M-180.5,322.5C-181.4,321.9-179.7,322.1-180.5,322.5L-180.5,322.5z
			 M-181.7,308.1c-0.4,0.1-0.4-0.2-0.7-0.2C-182.5,307.4-181.3,307.6-181.7,308.1z M-181.9,315.8c-0.2,0.3-0.4,0.8-1,0.7
			C-183,315.9-182.4,315.9-181.9,315.8z M-181.2,317.2c0-0.2,0-0.3,0-0.5c0.6,0.8-1.6,2.2-1.7,0.5
			C-182.3,317.2-181.8,317.2-181.2,317.2z M-183.4,337.3c-0.3,0-0.6,0-1,0c0.1-0.5,0.6-0.7,0.5-1.4
			C-182.7,335.8-183.4,336.5-183.4,337.3z M-184.8,318.6c0.6-0.1,0.8,0.3,0.7,1C-184.7,319.6-185.2,319.1-184.8,318.6z
			 M-184.1,335.8c-0.4,0.6-0.8,0.4-1.2,0C-185.2,335.3-184.2,335.7-184.1,335.8z M-185.5,318.2c0.6,0.3,0,1.3-0.7,1
			C-186.6,318.2-185.2,319.1-185.5,318.2z M-185.5,330.8C-186.5,330.2-184.7,330.5-185.5,330.8L-185.5,330.8z M-187,336.5
			C-187.6,335.8-186.2,337.2-187,336.5L-187,336.5z M-188.1,315.1c0.2,0,0.3,0,0.5,0c0,0.2,0,0.3,0,0.5c-0.2,0-0.3,0-0.5,0
			C-188.1,315.4-188.1,315.2-188.1,315.1z M-187.7,339.6c0.3-0.8-0.8-0.2-0.5-1c0.7,0.5,0.2-1.2,0.2-2.1c0.8-0.1,1.1,0.3,1.2,1
			c-0.3,0.2-0.9,0.2-0.7,1c0.7,0.7,2.1,0.8,2.9,0.2c0,1.6-1.4,1-0.5,2.4c-2,0.4-2.5-0.7-3.6-1.2
			C-188.6,338.7-188.1,340.4-187.7,339.6z M-188.9,331.8C-189.6,331.7-188.6,330.8-188.9,331.8L-188.9,331.8z M-190.5,308.1
			C-189.5,308.4-190.5,309.4-190.5,308.1L-190.5,308.1z M-191.5,319.6c0.8-0.1,0.1,1.2,1,1c-0.5,0.6-0.8,1.6-1.2,2.4
			C-192.4,322-191.3,320.8-191.5,319.6z M-191.5,333.4c-0.4-0.1-0.6-0.4-1-0.5C-192.3,332.4-191,332.6-191.5,333.4z M-193.2,310.1
			C-193.9,309.8-192.9,308.8-193.2,310.1L-193.2,310.1z M-196.3,336.1c0.5-0.1,0.6,0.2,1,0.2C-195.5,336.8-196.4,337-196.3,336.1z
			 M-195.8,335.4c-0.2-0.2-0.3-0.5-0.2-1c0.4,0,0.8,0,1.2,0C-194.9,335-195.2,335.3-195.8,335.4z M-193.6,315.5
			c-0.6-0.1-0.5,0.4-1.2,0.2c0-0.3,0-0.7-0.2-0.7C-194.8,314.6-193.3,314.7-193.6,315.5z M-195.1,311.5c0,0.7-0.6,0.7-1.2,0.7
			c0-0.3-0.1-0.4-0.2-0.5C-196.5,311.2-195.5,311.6-195.1,311.5z M-194.8,313.4c-0.2,0.2-0.6,0.2-0.5,0.7c-0.9,0.1-0.6-0.9-1.4-1
			C-196.7,311.8-194.8,312.6-194.8,313.4z M-196.5,344.7C-197.4,344.1-195.7,344.3-196.5,344.7L-196.5,344.7z M-197,349.7
			c-0.3-0.1-0.5-0.3-0.5-0.7C-197.2,349.1-197,349.3-197,349.7z M-197.5,318.4C-198,317.6-196.7,319-197.5,318.4L-197.5,318.4z
			 M-245.2,381.2c-0.6-0.3-0.4-0.8-0.2-1.4c0.3,0.4,0.7,0.6,0.7,1.2C-245,380.9-245.1,381-245.2,381.2z M-244.5,363.5
			c-0.2,0.3-0.5,0.4-1,0.5C-245.7,363.3-244.9,363.6-244.5,363.5z M-244.7,375.9C-245.5,375.6-243.8,375.3-244.7,375.9L-244.7,375.9
			z M-244,374.2c-0.2,0-0.3,0-0.5,0c0-0.2,0-0.3,0-0.5c0.2,0,0.3,0,0.5,0C-244,373.9-244,374.1-244,374.2z M-244.2,360.6
			c-0.6,0.5-1-1.2-1.4-1.7c1-0.3,0.8,0.8,1.7,0.7C-244,360-244.8,360.6-244.2,360.6z M-243.4,356.3c0.2-0.1,0.3-0.1,0.5-0.2
			c0,0.1,0,0.1-0.1,0.2C-243.2,356.4-243.3,356.4-243.4,356.3z M-243.3,362.3c0.1-0.3,0.5-0.2,0.5-0.5
			C-242.2,362.1-243,362.9-243.3,362.3z M-242.6,378.8c-0.1-0.2-0.5-1.3,0.5-1.2C-241.9,378.4-242.5,378.3-242.6,378.8z M-241.6,375
			C-242.3,374.9-241.4,374-241.6,375L-241.6,375z M-231.3,354c-0.4,0.1-0.4-0.2-0.7-0.2C-232.2,353.3-231,353.4-231.3,354z
			 M-234.4,354.9c-0.1,0.2-0.2,0.4-0.2,0.7c-0.8,0.1-1.1-0.2-1.7-0.2C-236.1,354.8-235,354.5-234.4,354.9z M-234.2,361.1
			c-0.4,0.7-0.6,0.2-1.4,0.2c-0.1-0.6,0.1-1,0.7-1C-235.1,361-234.8,361.3-234.2,361.1z M-238.3,354.1v0.1c-0.2,0-0.2,0.1-0.2,0.2
			c-0.1,0-0.2,0-0.2-0.1C-238.6,354.2-238.4,354.2-238.3,354.1z M-239,372.1C-239.6,371.3-238.2,372.7-239,372.1L-239,372.1z
			 M-240.6,375.4C-240,374.3-241.1,376.2-240.6,375.4L-240.6,375.4z M-240.4,355.6C-239.6,356.2-241.2,356.6-240.4,355.6
			L-240.4,355.6z M-239.9,371.6C-240.5,370.8-239.1,372.2-239.9,371.6L-239.9,371.6z M-239.5,377.4c0.7-0.2,0.5,0.5,1,0.5
			c-0.2,0.4-0.8,0.6-1.2,0.2C-239.8,377.7-239.5,377.7-239.5,377.4z M-239.5,378.5c0.7,0.4,0.7,0.2,1.4,0.5
			C-238.3,379.6-239.6,379.2-239.5,378.5z M-238,380c-0.6-0.1,0.1,0,0.4,0.1C-237.7,380-237.8,380-238,380z M-237.1,366.1
			c0.3-0.8,1.9-0.4,1.9-1.4c0.6,0.2,0.8,0.8,1.2,1.2C-234.6,366.1-235.9,367.1-237.1,366.1z M-233.7,357.3c-0.5-0.2-0.2-1.5,0.5-1.2
			C-233,356.9-233.5,357-233.7,357.3z M-233.5,374.5c0.3,0.1,0.5,0.3,0.5,0.7C-233.3,375.1-233.5,374.9-233.5,374.5z M-233,360.2
			c0-1.1,0.9,0.1,1.7-0.2c0,0.6,0,1.2-0.5,1.2C-232.7,361.3-232,359.9-233,360.2z M-230.9,375.7c-0.2,0-0.3,0-0.5,0
			c0-0.2,0-0.3,0-0.5c0.2,0,0.3,0,0.5,0C-230.9,375.4-230.9,375.5-230.9,375.7z M-231.6,367.1c-0.3-0.3-0.3-0.8-0.2-1.4
			c0.5,1,0.7-0.1,1.4,1C-230.6,367-231,367.1-231.6,367.1z M-230.6,356.6C-231.4,357.2-230,355.9-230.6,356.6L-230.6,356.6z
			 M-231.1,355.2c0-0.4,0-0.8,0-1.2c0.4,0.3,0.9,0.5,1,1.2C-230.5,355.2-230.8,355.2-231.1,355.2z M-230.4,352.3c-0.3,0-0.6,0-1,0
			c-0.2-0.3-0.3-0.6-0.2-1.2c1,0.3,0.8-0.5,1.4-0.5C-229.6,351.2-230.6,351.4-230.4,352.3z M-229.7,356.1
			C-230.5,355.7-228.9,355.4-229.7,356.1L-229.7,356.1z M-204.9,333C-205.8,332.4-204.1,332.6-204.9,333L-204.9,333z M-212.5,336.5
			c0.7,0,0.8,0.6,1.4,0.7c-0.3,1-0.5-0.3-1.4,0C-212.5,337-212.5,336.8-212.5,336.5z M-212.7,341.3
			C-212,340.4-211.9,342-212.7,341.3L-212.7,341.3z M-213,351.3c-0.3-0.4-0.7-0.6-0.7-1.2c0.3-0.3,0.8-0.3,1.4-0.2
			C-212,350.9-212.6,351-213,351.3z M-213.7,342.7c-0.7,0.3-0.8,0.1-1.4-0.2C-215.1,341.8-213.4,341.8-213.7,342.7z M-214.2,344.2
			c0,0.2,0,0.3,0,0.5c-0.2,0-0.3,0-0.5,0c0-0.2,0-0.3,0-0.5C-214.5,344.2-214.3,344.2-214.2,344.2z M-217.5,342.3
			c0.5,0.8,1.6,1.1,1.7,2.4c-1.4,0.1-2.1-0.4-2.4-1.4C-217.5,343.8-217,343-217.5,342.3z M-217.3,355.9c-0.1,0.3-0.3,0.5-0.7,0.5
			C-218.1,355.8-217.6,355.9-217.3,355.9z M-218.2,357.8c0,0.6,0,1.2-0.7,1.2C-218.5,358.8-219.1,357.6-218.2,357.8z M-219.9,351.8
			c0.1,0.7-0.8,0.5-1.2,0.7C-221.1,351.9-220.5,351.8-219.9,351.8z M-221.3,354c0.2,0,0.3,0,0.5,0c0,0.2,0,0.3,0,0.5
			c-0.2,0-0.3,0-0.5,0C-221.3,354.3-221.3,354.1-221.3,354z M-225.6,363c-0.3-0.1-0.2-0.6-0.2-1C-225.3,362.1-225.3,362.7-225.6,363
			z M-227.5,351.3c0.7-0.2,0.5,0.5,1,0.5c-0.1,0.3-0.6,0.2-1,0.2C-227.5,351.8-227.5,351.6-227.5,351.3z M-227.3,368.8
			C-228,368.7-227.1,367.8-227.3,368.8L-227.3,368.8z M-227.8,360.2c0.9-0.1,1.3,0.3,1.9,0.5c-0.1,0.4-0.4,0.6-0.5,1
			C-226.8,361.4-227.7,361.4-227.8,360.2z M-227,369c-0.2-0.7,0.8-0.3,0.5-1.2c0.7,0.2,1.2,0.5,1.4,1.2
			C-225.7,369.4-226.6,369.7-227,369z M-224.2,367.6c-0.5,0.1-0.6-0.2-1-0.2C-225.2,366.9-223.8,366.9-224.2,367.6z M-224.4,366.1
			c0.5-0.1,0.5,0.3,0.5,0.7C-224.2,366.7-224.4,366.5-224.4,366.1z M-223.5,352.5c-0.5,0-0.8-0.2-0.7-0.7c0.2,0,0.5,0,0.7,0
			C-223.5,352.1-223.5,352.3-223.5,352.5z M-222,354.2C-222.8,354.2-221.8,353.2-222,354.2L-222,354.2z M-221.3,364.2
			c0.3-0.5,0.8-1.3,1.4-0.7C-220,364.4-220.7,364.5-221.3,364.2z M-220.1,372.1c0.3,0.1,0.5,0.3,0.5,0.7
			C-219.9,372.7-220.1,372.5-220.1,372.1z M-220.1,364.9c0.5-0.1,0.5,0.3,0.5,0.7C-219.9,365.6-220.1,365.4-220.1,364.9z
			 M-220.8,355.4c-0.1-0.7,0.8-0.5,1.2-0.7C-219.4,355.6-220.4,355.9-220.8,355.4z M-218.5,365.2c0.1,0.6-0.1,1-0.7,1
			C-219.2,365.5-219.3,364.9-218.5,365.2z M-218.7,368c0.4,0.1,0.6,0.4,1,0.5C-217.9,369.1-218.9,368.6-218.7,368z M-218.7,361.1
			c0.9,0.2,1.7,0.6,1.7,1.7C-217.8,362.4-218.7,362.3-218.7,361.1z M-216.8,363.7C-217.4,362.9-216,364.3-216.8,363.7L-216.8,363.7z
			 M-216.8,347.8c0.7-0.1,1.1,0.2,1,1C-216.6,348.8-216.9,348.5-216.8,347.8z M-215.8,364c1.2-0.2,0.9,1,1.7,1.2
			C-214.5,365.5-215.9,364.8-215.8,364z M-213.9,346.6C-214.8,346.2-213.1,345.8-213.9,346.6L-213.9,346.6z M-213.9,364.7
			c0.4-1.5,2.1-0.2,2.1,0.7C-212.5,366.1-213,364.6-213.9,364.7z M-211.5,353.5C-212.3,354.1-210.9,352.8-211.5,353.5L-211.5,353.5z
			 M-209.9,354.2c-0.3,0-0.2,0.4-0.2,0.7c-0.7,0.1-0.7-0.5-1.4-0.5c1.1-0.6,1.4-2.1,2.9-2.4C-206.7,353.5-208.5,356.9-209.9,354.2z
			 M-206.5,361.8C-207.2,361.8-206.3,360.8-206.5,361.8L-206.5,361.8z M-204.6,345.9c-0.9,0.3-2,0.5-2.9,1c-0.7-1.2-2.1-1.5-2.6-2.9
			c0.2-0.7,1.3-0.5,1.2-1.4c0.7-0.2,0.7,0.4,1.4,0.2c0.7-0.2-0.6-0.4-0.2-1c0.6,0,1.1,0,1.7,0c0.2,0.8-0.4,0.7-0.5,1.2
			c0.1,0.5,1,0.1,1.2,0.5c0.1-0.8-0.4-0.8-0.2-1.7C-204,342.5-204.7,344.7-204.6,345.9z M-207,337.7c-0.4,0.9-0.9,0.1-1.4-0.2
			c0.5-0.3,1.2-0.4,1.7-0.7c0.4,0.5,0,0.3,0,1c0.7-0.6,1.9-0.5,2.6,0C-204,339.6-207,339.1-207,337.7z M-202.7,343.2
			c0.2-0.7,0.6,0.3,1,0.2C-202,344.2-202.4,343.2-202.7,343.2z M-199.4,341.1c-0.3,0.4-0.9,0.5-1.7,0.5
			C-201.3,340.6-199.7,340.7-199.4,341.1z M-199.8,342.3C-200.8,342.1-198.4,342.5-199.8,342.3L-199.8,342.3z M-200.8,342.3
			C-201.5,342.2-200.6,341.3-200.8,342.3L-200.8,342.3z M-200.3,344.7c0.9,0.1,0.9,0.3,1.7,0c0,0.8-0.9,0.6-1.7,0.7
			C-200.3,345.1-200.3,344.9-200.3,344.7z M-198.6,357.3c-0.5-0.5-0.9-1.3-1-2.2c1.3-0.2,1.1,1,2,1.2
			C-197.9,356.7-198.3,357-198.6,357.3z"/>
		<path id="XMLID_2004_" class="st0" d="M-240,179.5c0.7,0.2,1.5,0.5,2.2,0.7C-238.5,180-239.2,179.7-240,179.5z"/>
	</g>
</g>
</svg>
