<svg xmlns:dc="http://purl.org/dc/elements/1.1/" xmlns:cc="http://creativecommons.org/ns#" xmlns:rdf="http://www.w3.org/1999/02/22-rdf-syntax-ns#" xmlns:svg="http://www.w3.org/2000/svg" xmlns="http://www.w3.org/2000/svg" xmlns:sodipodi="http://sodipodi.sourceforge.net/DTD/sodipodi-0.dtd" xmlns:inkscape="http://www.inkscape.org/namespaces/inkscape" version="1.1" x="0px" y="0px" viewBox="0 0 100 125"><g transform="translate(0,-952.36218)"><path style="text-indent:0;text-transform:none;direction:ltr;block-progression:tb;baseline-shift:baseline;color:#000000;enable-background:accumulate;" d="m 76.1595,1045.3486 a 2.9982131,3.0023884 0 0 0 2.7754,-3.3474 l -3.1587,-27.0405 18.4312,-20.02311 a 2.9982131,3.0023884 0 0 0 -1.61,-4.97508 L 65.9318,984.61891 52.6067,960.8798 a 2.9982131,3.0023884 0 0 0 -5.2134,0 l -13.3251,23.73911 -26.6656,5.3436 a 2.9982131,3.0023884 0 0 0 -1.61,4.97508 l 18.4312,20.02311 -3.1587,27.0405 a 2.9982131,3.0023884 0 0 0 4.2321,3.0864 L 50,1033.7401 l 24.7028,11.3475 a 2.9982131,3.0023884 0 0 0 1.4567,0.261 z m -3.7875,-7.954 -21.1146,-9.7045 a 2.9982131,3.0023884 0 0 0 -2.5148,0 l -21.1146,9.7045 2.6987,-23.0942 a 2.9982131,3.0023884 0 0 0 -0.7667,-2.38 l -15.7478,-17.12101 22.786,-4.57584 a 2.9982131,3.0023884 0 0 0 2.0088,-1.4741 L 50,968.46526 61.393,988.74945 a 2.9982131,3.0023884 0 0 0 2.0088,1.4741 l 22.786,4.57584 -15.7478,17.12101 a 2.9982131,3.0023884 0 0 0 -0.7667,2.38 l 2.6987,23.0942 z" fill="#000000" fill-opacity="1" stroke="none" marker="none" visibility="visible" display="inline" overflow="visible"/></g><text x="0" y="115" fill="#000000" font-size="5px" font-weight="bold" font-family="'Helvetica Neue', Helvetica, Arial-Unicode, Arial, Sans-serif">Created by il Capitano</text><text x="0" y="120" fill="#000000" font-size="5px" font-weight="bold" font-family="'Helvetica Neue', Helvetica, Arial-Unicode, Arial, Sans-serif">from the Noun Project</text></svg>